<svg width="163" height="36" viewBox="0 0 163 36" fill="none" xmlns="http://www.w3.org/2000/svg">
<g clip-path="url(#clip0_157_348)">
<path d="M0 33.446V6.73048C0 1.98198 1.50302 0.206451 6.51308 0.206451H20.416C22.8375 0.206451 23.7978 2.18844 23.7978 3.88138C23.7978 5.57432 22.8793 7.43243 20.416 7.43243H9.81136C8.8511 7.43243 8.6006 7.63889 8.6006 8.62988V13.8326H19.3305C21.752 13.8326 22.7123 15.8146 22.7123 17.5075C22.7123 19.2005 21.7938 21.0586 19.3305 21.0586H8.6006V33.446H0Z" fill="white"/>
<path d="M48.0131 20.274L55.9457 33.446H46.5101L40.2475 22.3386H34.9035V33.446H26.3446V6.73048C26.3446 1.98198 27.8476 0.206451 32.8577 0.206451H40.5398C47.7626 0.206451 53.0649 3.59234 53.0649 10.9835V11.479C53.0649 15.4017 50.9774 18.4159 48.0131 20.274V20.274ZM34.9035 15.3604H40.331C43.1283 15.3604 44.5896 13.5848 44.5896 11.479V11.1899C44.5896 9.08409 43.1283 7.30856 40.331 7.30856H36.1142C35.154 7.30856 34.9035 7.51502 34.9035 8.50601V15.3604V15.3604Z" fill="white"/>
<path d="M56.1127 12.5939C56.1127 3.09685 63.8365 0 70.0991 0C76.3617 0 84.0855 3.09685 84.0855 12.5939V21.6367C84.0855 31.1337 76.2364 34.2305 70.0991 34.2305C63.9618 34.2305 56.1127 31.1337 56.1127 21.6367V12.5939ZM75.5684 12.3461C75.5684 8.71247 72.7294 7.06082 70.0991 7.06082C67.4688 7.06082 64.6298 8.71247 64.6298 12.3461V21.8844C64.6298 25.1877 67.7193 27.1697 70.0991 27.1697C72.4789 27.1697 75.5684 25.1877 75.5684 21.8844V12.3461Z" fill="white"/>
<path d="M100.368 29.9362L96.1513 14.8649L94.2308 33.446H86.34L89.847 4.25301C90.0975 1.73424 92.352 0.289043 94.2308 0.123877C96.2348 -0.0412881 99.0321 0.784539 99.7836 3.50977L104.835 22.4212L109.887 3.50977C110.639 0.784539 113.436 -0.0412881 115.44 0.123877C117.319 0.289043 119.573 1.73424 119.824 4.25301L123.331 33.446H115.44L113.561 14.741L109.303 29.9362C108.885 31.3401 106.422 31.9595 104.835 31.9595C103.249 31.9595 100.786 31.3401 100.368 29.9362Z" fill="white"/>
<path d="M144.883 0.165161C134.877 0.165161 126.767 8.18676 126.767 18.0826C126.767 27.9784 134.877 36 144.883 36C154.889 36 163 27.9784 163 18.0826C163 8.18676 154.889 0.165161 144.883 0.165161ZM152.443 28.6511C150.803 29.9785 148.238 30.5687 145.941 30.5687C140.782 30.5687 135.651 27.9734 135.651 21.4544V15.3191C135.651 8.80008 140.782 6.20477 145.941 6.20477C148.596 6.20477 150.654 6.82414 151.817 7.64997C153.04 8.505 153.637 9.92099 152.921 11.1597C152.324 12.192 151.22 12.6049 150.207 12.4277C149.521 12.3098 149.013 11.9856 148.566 11.8083C147.851 11.5424 147.164 11.4246 145.941 11.4246C143.794 11.4246 141.796 12.8114 141.796 15.5839V21.1885C141.796 23.9611 143.794 25.3478 145.941 25.3478C147.313 25.3478 148.298 25.1414 149.103 24.7879C149.55 24.5814 150.088 24.2571 150.654 24.1685C151.727 23.9913 152.622 24.3156 153.219 25.2894C153.964 26.499 153.487 27.8263 152.443 28.6521V28.6511Z" fill="white"/>
</g>
<defs>
<clipPath id="clip0_157_348">
<rect width="163" height="36" fill="white"/>
</clipPath>
</defs>
</svg>
