<svg width="317" height="340" viewBox="0 0 317 340" fill="none" xmlns="http://www.w3.org/2000/svg">
<path d="M281.946 313H35.2C-22.374 227.294 3.42213 185.907 23.5169 175.927C53.7994 162.828 69.7817 133.978 73.9876 121.191C96.4191 51.9527 148.447 46.8066 171.658 52.8883C212.034 59.2508 222.752 89.8466 223.063 104.349C219.325 134.664 241.133 143.803 252.504 144.582C288.768 146.454 287.242 177.174 281.946 192.301C265.87 224.487 272.132 242.514 277.272 247.504C284.75 251.247 287.865 262.475 288.488 267.621C290.731 281.094 285.061 303.488 281.946 313Z" fill="url(#paint0_linear_160_486)"/>
<g clip-path="url(#clip0_160_486)">
<path d="M98.5983 177.809C88.0981 181.461 76.0581 179.626 66.5448 173.881C57.0315 168.135 49.9941 158.753 46.107 148.357C42.2198 137.961 41.3467 126.599 42.4815 115.561C53.7896 110.783 66.6604 110.223 77.846 115.285C89.0315 120.346 97.9229 130.224 101.769 141.859C105.616 153.496 104.57 167.104 98.5983 177.809Z" fill="#5C49D8"/>
<path d="M95.5713 172.056C86.7126 149.925 69.6328 130.006 47.4772 115.97L47.6176 115.747C69.819 129.813 86.9358 149.776 95.8165 171.958L95.5713 172.056V172.056Z" fill="white"/>
<path d="M97.281 145.744L92.0518 161.627L92.3026 161.709L97.5319 145.826L97.281 145.744Z" fill="white"/>
<path d="M84.97 128.084L80.749 145.606L81.0057 145.667L85.2267 128.146L84.97 128.084Z" fill="white"/>
<path d="M67.8409 117.996L67.582 118.048L70.9645 134.81L71.2233 134.758L67.8409 117.996Z" fill="white"/>
<path d="M66.3431 130.573C60.8284 130.053 55.2688 129.281 49.8202 128.278L49.8684 128.02C55.3086 129.021 60.8598 129.792 66.3682 130.312L66.3431 130.575L66.3431 130.573Z" fill="white"/>
<path d="M53.1479 145.586L53.1032 145.326C61.86 143.79 70.7906 143.415 79.6475 144.215L79.6245 144.478C70.7929 143.681 61.8835 144.054 53.15 145.586L53.1479 145.586Z" fill="white"/>
<path d="M62.605 165.041L62.5221 164.79L63.427 164.487L63.4329 164.506C71.1099 162.161 79.067 161.04 87.1026 161.174L87.0965 161.437C78.7736 161.299 70.5335 162.512 62.6029 165.041L62.605 165.041Z" fill="white"/>
<path d="M95.695 202.913C81.966 201.606 67.8116 200.175 56.3224 193.739C52.5975 191.653 49.1321 188.967 47.2359 185.261C45.3398 181.555 45.2724 176.675 47.9599 172.956C49.7087 170.536 52.4128 168.836 55.1975 167.627C60.4838 165.336 66.257 164.588 71.8124 164.774C77.3678 164.96 82.7444 166.051 88.0351 167.288C101.42 170.417 114.454 174.521 126.991 179.556C120.667 182.8 114.891 185.988 108.855 189.757C103.274 193.241 97.9199 197.048 95.6957 202.915L95.695 202.913Z" fill="#FFC257"/>
<path d="M102.219 189.717C102.193 189.726 102.162 189.728 102.134 189.717C86.6065 184.593 70.3956 180.659 53.9466 178.021C53.8757 178.01 53.8256 177.943 53.8389 177.871C53.8502 177.8 53.9177 177.75 53.9893 177.763C70.4497 180.402 86.678 184.341 102.218 189.468C102.286 189.491 102.325 189.564 102.301 189.633C102.289 189.673 102.256 189.702 102.218 189.715L102.219 189.717Z" fill="white"/>
<path d="M69.3238 180.72C69.3238 180.72 69.3138 180.723 69.3078 180.726C69.2372 180.741 69.1673 180.694 69.1518 180.623C68.3514 176.777 67.3387 172.944 66.141 169.228C66.1176 169.161 66.1548 169.081 66.2267 169.063C66.2946 169.039 66.3705 169.078 66.3926 169.148C67.5931 172.872 68.6092 176.715 69.4104 180.57C69.4237 180.634 69.3857 180.699 69.3238 180.72V180.72Z" fill="white"/>
<path d="M62.0997 192.646C62.0459 192.665 61.9862 192.648 61.9497 192.6C61.907 192.541 61.9188 192.459 61.9778 192.416L76.0673 182.163C76.1263 182.121 76.2086 182.132 76.2513 182.191C76.294 182.25 76.2821 182.332 76.2232 182.375L62.1336 192.628C62.123 192.636 62.1117 192.642 62.0997 192.646V192.646Z" fill="white"/>
<path d="M76.7239 195.372C76.666 195.392 76.5976 195.368 76.567 195.312C76.5316 195.248 76.5535 195.17 76.6165 195.132L91.8115 186.544C91.8752 186.508 91.9542 186.53 91.9916 186.593C92.027 186.657 92.0051 186.736 91.9421 186.773L76.7472 195.361C76.7472 195.361 76.7319 195.369 76.7259 195.371L76.7239 195.372Z" fill="white"/>
<path d="M101.471 189.343C101.471 189.343 101.463 189.345 101.459 189.347C101.389 189.364 101.315 189.32 101.3 189.25L98.1352 176.298C98.1177 176.228 98.1624 176.157 98.2323 176.14C98.3023 176.122 98.3755 176.166 98.3909 176.236L101.556 189.188C101.572 189.254 101.535 189.322 101.471 189.345L101.471 189.343Z" fill="white"/>
<path d="M216.943 247.71C226.137 238.298 235.566 228.523 240.082 216.364C241.547 212.422 242.465 208.157 241.636 204.031C240.807 199.906 237.951 195.953 233.786 194.61C231.075 193.734 228.099 194.019 225.356 194.749C220.153 196.133 215.513 199.052 211.59 202.588C207.666 206.124 204.408 210.273 201.302 214.488C193.442 225.152 186.418 236.384 180.306 248.059C186.832 246.806 192.927 245.841 199.553 245.182C205.68 244.574 211.836 244.362 216.943 247.71V247.71Z" fill="#A6BDFF"/>
<path d="M204.336 241.134C204.299 241.142 204.261 241.136 204.226 241.115C204.153 241.071 204.13 240.977 204.174 240.902C212.41 227.321 221.854 214.276 232.242 202.128C232.298 202.062 232.395 202.055 232.461 202.111C232.527 202.166 232.534 202.264 232.477 202.33C222.101 214.464 212.668 227.496 204.44 241.063C204.416 241.102 204.378 241.126 204.336 241.134V241.134Z" fill="white"/>
<path d="M222.875 213.88C222.807 213.893 222.737 213.859 222.706 213.795C220.995 210.216 219.445 206.515 218.099 202.798C218.071 202.718 218.112 202.629 218.193 202.601C218.272 202.571 218.362 202.614 218.391 202.695C219.733 206.401 221.279 210.092 222.987 213.662C223.024 213.739 222.99 213.832 222.913 213.869C222.901 213.875 222.887 213.879 222.875 213.881L222.875 213.88Z" fill="white"/>
<path d="M235.222 219.034C235.222 219.034 235.204 219.038 235.195 219.038L218.858 219.404C218.772 219.406 218.702 219.339 218.7 219.254C218.699 219.168 218.765 219.097 218.852 219.096L235.189 218.729C235.275 218.728 235.345 218.795 235.346 218.88C235.348 218.957 235.293 219.022 235.221 219.036L235.222 219.034Z" fill="white"/>
<path d="M226.222 230.129C226.222 230.129 226.217 230.13 226.215 230.131L210.065 232.505C209.979 232.518 209.902 232.46 209.889 232.375C209.877 232.289 209.944 232.21 210.021 232.199L226.171 229.824C226.256 229.812 226.333 229.87 226.346 229.955C226.358 230.037 226.303 230.114 226.222 230.129V230.129Z" fill="white"/>
<path d="M204.656 240.377C204.587 240.391 204.514 240.355 204.485 240.288L199.072 227.979C199.039 227.901 199.075 227.81 199.152 227.775C199.232 227.741 199.321 227.777 199.357 227.855L204.769 240.163C204.802 240.241 204.766 240.332 204.689 240.367C204.679 240.371 204.667 240.375 204.656 240.377V240.377Z" fill="white"/>
<path d="M175.842 293.2C186.179 301.135 200.26 303.531 212.974 300.643C225.688 297.754 236.996 289.905 245.17 279.767C253.344 269.627 258.523 257.303 261.345 244.597C250.528 235.109 236.408 229.741 222.086 231.253C207.764 232.764 194.211 240.481 185.62 252.014C177.031 263.548 173.156 279.081 175.84 293.2H175.842Z" fill="#FFC257"/>
<path d="M181.257 289.34C181.221 289.34 181.186 289.328 181.158 289.304C181.093 289.249 181.085 289.153 181.14 289.088C199.234 267.67 225.676 251.758 255.595 244.284C255.678 244.262 255.761 244.313 255.783 244.396C255.803 244.479 255.753 244.564 255.67 244.583C225.814 252.042 199.43 267.916 181.377 289.287C181.346 289.322 181.302 289.342 181.259 289.342L181.257 289.34Z" fill="white"/>
<path d="M231.748 252.576C231.732 252.576 231.717 252.574 231.699 252.568C231.618 252.54 231.574 252.454 231.6 252.373C233.156 247.667 234.446 242.822 235.431 237.964C235.449 237.882 235.53 237.827 235.613 237.844C235.696 237.862 235.751 237.943 235.734 238.026C234.744 242.893 233.451 247.752 231.892 252.469C231.871 252.534 231.809 252.576 231.746 252.576H231.748Z" fill="white"/>
<path d="M254.043 253.376C254.017 253.376 253.994 253.37 253.97 253.356C250.285 251.36 246.384 249.724 242.377 248.497C242.296 248.471 242.249 248.384 242.275 248.304C242.3 248.223 242.385 248.178 242.468 248.201C246.495 249.435 250.415 251.078 254.118 253.084C254.193 253.126 254.221 253.218 254.179 253.293C254.152 253.344 254.098 253.374 254.043 253.374V253.376Z" fill="white"/>
<path d="M247.915 269.426C247.882 269.426 247.846 269.414 247.817 269.39C240.754 263.619 232.811 259.147 224.209 256.101C224.128 256.073 224.086 255.985 224.114 255.904C224.142 255.823 224.231 255.782 224.312 255.809C232.948 258.868 240.922 263.357 248.01 269.15C248.075 269.203 248.085 269.302 248.032 269.367C248 269.404 247.957 269.424 247.911 269.424L247.915 269.426Z" fill="white"/>
<path d="M214.996 261.092C214.978 261.092 214.96 261.088 214.941 261.083C214.86 261.053 214.82 260.964 214.85 260.883C217.326 254.302 218.541 247.401 218.458 240.372C218.458 240.288 218.525 240.217 218.61 240.217C218.695 240.217 218.764 240.284 218.764 240.368C218.847 247.435 217.626 254.375 215.136 260.992C215.112 261.053 215.053 261.092 214.992 261.092H214.996Z" fill="white"/>
<path d="M231.591 280.981C231.559 280.981 231.527 280.971 231.5 280.951C223.215 275.028 213.562 270.799 203.585 268.722C203.502 268.705 203.446 268.624 203.464 268.539C203.482 268.456 203.565 268.403 203.648 268.419C213.668 270.506 223.361 274.752 231.679 280.699C231.749 280.748 231.764 280.845 231.715 280.914C231.685 280.955 231.638 280.979 231.589 280.979L231.591 280.981Z" fill="white"/>
<path d="M197.68 273.154C197.666 273.154 197.654 273.154 197.64 273.148C197.557 273.126 197.508 273.042 197.53 272.959C199.323 266.167 199.714 258.907 198.661 251.963C198.649 251.878 198.707 251.799 198.791 251.788C198.874 251.774 198.955 251.833 198.967 251.918C200.024 258.903 199.631 266.206 197.828 273.038C197.81 273.107 197.747 273.154 197.678 273.154H197.68Z" fill="white"/>
<path d="M206.619 290.701C206.601 290.701 206.583 290.697 206.567 290.692C199.695 288.23 192.595 286.185 185.462 284.616C185.379 284.599 185.325 284.516 185.343 284.433C185.361 284.35 185.446 284.297 185.527 284.315C192.672 285.887 199.786 287.935 206.67 290.402C206.751 290.431 206.792 290.518 206.763 290.599C206.741 290.662 206.68 290.701 206.617 290.701H206.619Z" fill="white"/>
</g>
<path d="M191.247 95H101.753C94.1573 95 88 101.012 88 108.427V318.573C88 325.988 94.1573 332 101.753 332H191.247C198.843 332 205 325.988 205 318.573V108.427C205 101.012 198.843 95 191.247 95Z" fill="#8E90E9"/>
<path d="M206.528 154.846C205.715 154.846 205.056 154.186 205.056 153.372V138.347C205.056 137.532 205.715 136.872 206.528 136.872C207.341 136.872 208 137.532 208 138.347V153.372C208 154.186 207.341 154.846 206.528 154.846Z" fill="#553DB9"/>
<path d="M206.528 188.039C205.715 188.039 205.056 187.379 205.056 186.564V161.482C205.056 160.667 205.715 160.007 206.528 160.007C207.341 160.007 208 160.667 208 161.482V186.564C208 187.379 207.341 188.039 206.528 188.039Z" fill="#553DB9"/>
<path d="M188.953 98H104.047C96.8415 98 91 103.834 91 111.031V314.969C91 322.166 96.8415 328 104.047 328H188.953C196.158 328 202 322.166 202 314.969V111.031C202 103.834 196.158 98 188.953 98Z" fill="white"/>
<ellipse cx="145.5" cy="279" rx="24.5" ry="4" fill="url(#paint1_linear_160_486)"/>
<path d="M161.911 106.53H131.948C130.452 106.53 129.237 105.311 129.237 103.814C129.237 102.317 130.454 101.097 131.948 101.097H161.913C163.409 101.097 164.624 102.317 164.624 103.814C164.624 105.311 163.407 106.53 161.913 106.53H161.911ZM131.947 101.688C130.777 101.688 129.825 102.64 129.825 103.814C129.825 104.987 130.776 105.939 131.947 105.939H161.911C163.08 105.939 164.033 104.987 164.033 103.814C164.033 102.64 163.082 101.688 161.911 101.688H131.948H131.947Z" fill="#6F3AC1"/>
<g clip-path="url(#clip1_160_486)">
<path d="M133.307 156.984C132.332 157.977 131.14 158.748 129.81 159.216L131.806 164L125.575 159.729H115.193C110.116 159.729 106 155.536 106 150.364C106 147.779 107.029 145.437 108.693 143.743C110.356 142.048 112.655 141 115.193 141H126.807C131.884 141 136 145.192 136 150.364C136 152.95 134.971 155.29 133.307 156.984V156.984Z" fill="#F96EA6"/>
<path d="M119.86 152.696C119.86 152.719 119.854 152.739 119.843 152.758C119.833 152.776 119.811 152.789 119.782 152.8C119.753 152.811 119.715 152.818 119.668 152.826C119.621 152.834 119.563 152.837 119.493 152.837C119.419 152.837 119.358 152.834 119.313 152.826C119.267 152.818 119.229 152.811 119.2 152.8C119.171 152.789 119.151 152.775 119.139 152.758C119.127 152.741 119.122 152.719 119.122 152.696V150.178H116.586V152.696C116.586 152.719 116.58 152.739 116.569 152.758C116.559 152.776 116.538 152.789 116.509 152.8C116.48 152.811 116.442 152.818 116.395 152.826C116.347 152.834 116.288 152.837 116.215 152.837C116.142 152.837 116.087 152.834 116.039 152.826C115.99 152.818 115.951 152.811 115.923 152.8C115.894 152.789 115.875 152.775 115.862 152.758C115.85 152.741 115.846 152.719 115.846 152.696V147.249C115.846 147.226 115.852 147.206 115.862 147.187C115.873 147.169 115.894 147.156 115.923 147.145C115.952 147.134 115.99 147.127 116.039 147.119C116.087 147.111 116.147 147.108 116.215 147.108C116.284 147.108 116.346 147.111 116.395 147.119C116.442 147.127 116.48 147.134 116.509 147.145C116.538 147.156 116.557 147.17 116.569 147.187C116.582 147.204 116.586 147.226 116.586 147.249V149.521H119.122V147.249C119.122 147.226 119.129 147.206 119.139 147.187C119.15 147.169 119.171 147.156 119.2 147.145C119.229 147.134 119.265 147.127 119.313 147.119C119.358 147.111 119.419 147.108 119.493 147.108C119.562 147.108 119.62 147.111 119.668 147.119C119.715 147.127 119.753 147.134 119.782 147.145C119.811 147.156 119.831 147.17 119.843 147.187C119.855 147.204 119.86 147.226 119.86 147.249V152.696V152.696Z" fill="white"/>
<path d="M122.052 147.419C122.052 147.59 122.02 147.704 121.958 147.766C121.896 147.828 121.778 147.858 121.61 147.858C121.441 147.858 121.328 147.828 121.268 147.768C121.205 147.707 121.175 147.594 121.175 147.429C121.175 147.263 121.207 147.144 121.269 147.082C121.331 147.02 121.448 146.99 121.617 146.99C121.786 146.99 121.899 147.02 121.959 147.08C122.022 147.141 122.052 147.254 122.052 147.419ZM121.97 152.7C121.97 152.724 121.964 152.744 121.953 152.759C121.941 152.775 121.923 152.789 121.897 152.801C121.871 152.814 121.835 152.821 121.789 152.827C121.743 152.834 121.684 152.837 121.613 152.837C121.541 152.837 121.487 152.834 121.441 152.827C121.395 152.821 121.359 152.814 121.331 152.801C121.304 152.789 121.286 152.775 121.275 152.759C121.265 152.744 121.26 152.724 121.26 152.7V148.753C121.26 148.733 121.265 148.714 121.275 148.695C121.286 148.678 121.304 148.663 121.331 148.652C121.359 148.64 121.395 148.632 121.441 148.626C121.487 148.62 121.544 148.617 121.613 148.617C121.681 148.617 121.743 148.62 121.789 148.626C121.835 148.632 121.871 148.64 121.897 148.652C121.923 148.665 121.941 148.678 121.953 148.695C121.965 148.713 121.97 148.733 121.97 148.753V152.7Z" fill="white"/>
<path d="M124.674 152.354C124.674 152.45 124.668 152.53 124.654 152.592C124.641 152.656 124.616 152.707 124.581 152.745C124.545 152.784 124.499 152.812 124.442 152.829C124.384 152.845 124.311 152.854 124.223 152.854C124.134 152.854 124.06 152.846 124.001 152.829C123.941 152.814 123.896 152.786 123.861 152.745C123.826 152.705 123.803 152.656 123.789 152.592C123.777 152.529 123.77 152.45 123.77 152.354C123.77 152.258 123.776 152.176 123.789 152.11C123.803 152.045 123.826 151.994 123.861 151.957C123.896 151.92 123.941 151.894 124.001 151.878C124.06 151.863 124.133 151.853 124.223 151.853C124.312 151.853 124.385 151.861 124.442 151.878C124.499 151.894 124.545 151.92 124.581 151.957C124.618 151.994 124.642 152.045 124.654 152.11C124.667 152.176 124.674 152.258 124.674 152.354ZM124.54 151.173C124.54 151.197 124.536 151.217 124.525 151.235C124.515 151.252 124.498 151.268 124.472 151.279C124.446 151.291 124.413 151.299 124.373 151.305C124.334 151.311 124.283 151.314 124.223 151.314C124.162 151.314 124.112 151.311 124.072 151.305C124.033 151.299 123.999 151.291 123.973 151.279C123.947 151.266 123.929 151.252 123.92 151.235C123.909 151.218 123.905 151.197 123.905 151.173L123.832 146.989C123.829 146.953 123.832 146.924 123.844 146.897C123.856 146.871 123.876 146.849 123.906 146.832C123.937 146.815 123.976 146.803 124.027 146.795C124.077 146.788 124.142 146.784 124.223 146.784C124.303 146.784 124.364 146.789 124.414 146.798C124.464 146.808 124.504 146.82 124.534 146.837C124.565 146.854 124.586 146.876 124.597 146.901C124.609 146.925 124.613 146.955 124.613 146.99L124.54 151.175V151.173Z" fill="white"/>
</g>
<g clip-path="url(#clip2_160_486)">
<path d="M136 204.381C136 204.381 127.14 200.007 114.524 179.395C114.524 179.395 110.393 173.223 105.354 177.524C105.354 177.524 101.482 180.58 106.828 188.502C106.828 188.502 118.238 210.622 127.975 216L136 204.381V204.381Z" fill="url(#paint2_linear_160_486)"/>
<path d="M106.5 188C106.667 185.833 111 181.5 116 182" stroke="white" stroke-linecap="round" stroke-linejoin="round"/>
</g>
<g clip-path="url(#clip3_160_486)">
<path d="M156.019 213.145C156.019 213.145 163.282 219.845 169.56 243.182C169.56 243.182 171.779 250.269 177.828 247.568C177.828 247.568 182.406 245.729 179.516 236.62C179.516 236.62 174.821 212.178 167 204.268L156.019 213.145V213.145Z" fill="url(#paint3_linear_160_486)"/>
<path d="M179.689 237.194C178.917 239.225 173.536 242.158 168.881 240.266" stroke="white" stroke-linecap="round" stroke-linejoin="round"/>
</g>
<path d="M145.736 198.855C145.736 198.855 138.617 198.673 134.416 198.314C134.416 198.314 127.903 196.516 123.192 201.527C123.192 201.527 118.708 204.681 122.566 215.316L127.657 238.911C127.657 238.911 129.658 252.227 145.827 252.227L145.738 198.855H145.736Z" fill="#95ABFA"/>
<path d="M145.263 198.855C145.263 198.855 152.383 198.673 156.584 198.314C156.584 198.314 163.096 196.516 167.807 201.527C167.807 201.527 172.291 204.681 168.433 215.316L163.342 238.911C163.342 238.911 161.341 252.227 145.173 252.227L145.262 198.855H145.263Z" fill="#95ABFA"/>
<path d="M165 233C160.281 239.01 139.844 243.613 127.078 232.884" stroke="white" stroke-linecap="round" stroke-linejoin="round"/>
<path d="M148.727 165.795L150.981 159" stroke="#5C49D8" stroke-linecap="round" stroke-linejoin="round"/>
<g clip-path="url(#clip4_160_486)">
<path d="M168.99 185.607C169.21 191.198 165.075 195.996 159.541 196.567C155.476 196.986 150.543 197.205 145.518 196.734C140.712 196.284 136.229 195.242 132.559 194.145C127.221 192.551 124.023 187.075 125.267 181.617L125.291 181.518C127.659 171.128 137.312 164.106 147.869 165.093L149.814 165.274C160.371 166.261 168.569 174.954 168.99 185.607Z" fill="url(#paint4_linear_160_486)"/>
</g>
<path d="M161.994 184.168C162.149 188.011 159.235 191.31 155.336 191.703C152.472 191.991 148.997 192.141 145.456 191.817C142.071 191.508 138.912 190.792 136.326 190.038C132.566 188.942 130.312 185.177 131.189 181.425L131.206 181.356C132.874 174.213 139.675 169.385 147.113 170.064L148.483 170.188C155.921 170.867 161.697 176.843 161.994 184.168Z" fill="#5C49D8"/>
<path d="M144.034 183C144.841 183.699 147.07 184.719 149.53 183.214" stroke="white" stroke-width="0.8" stroke-linecap="round" stroke-linejoin="round"/>
<ellipse cx="153.042" cy="181.921" rx="1" ry="1.5" transform="rotate(1.85915 153.042 181.921)" fill="white"/>
<ellipse cx="141.048" cy="181.532" rx="1" ry="1.5" transform="rotate(1.85915 141.048 181.532)" fill="white"/>
<circle cx="152" cy="157" r="2" fill="#5C49D8"/>
<path d="M162.5 253C162.5 253.251 162.266 253.65 161.421 254.12C160.619 254.566 159.425 254.984 157.906 255.342C154.877 256.054 150.668 256.5 146 256.5C141.332 256.5 137.123 256.054 134.094 255.342C132.575 254.984 131.381 254.566 130.579 254.12C129.734 253.65 129.5 253.251 129.5 253C129.5 252.749 129.734 252.35 130.579 251.88C131.381 251.434 132.575 251.016 134.094 250.658C137.123 249.946 141.332 249.5 146 249.5C150.668 249.5 154.877 249.946 157.906 250.658C159.425 251.016 160.619 251.434 161.421 251.88C162.266 252.35 162.5 252.749 162.5 253Z" stroke="#95ABFA"/>
<path d="M157.5 261C157.5 261.118 157.385 261.385 156.771 261.733C156.197 262.059 155.333 262.369 154.222 262.635C152.008 263.166 148.924 263.5 145.5 263.5C142.076 263.5 138.992 263.166 136.778 262.635C135.667 262.369 134.803 262.059 134.229 261.733C133.615 261.385 133.5 261.118 133.5 261C133.5 260.882 133.615 260.615 134.229 260.267C134.803 259.941 135.667 259.631 136.778 259.365C138.992 258.834 142.076 258.5 145.5 258.5C148.924 258.5 152.008 258.834 154.222 259.365C155.333 259.631 156.197 259.941 156.771 260.267C157.385 260.615 157.5 260.882 157.5 261Z" stroke="#CAD5FE"/>
<path d="M155.5 268.5C155.5 268.547 155.443 268.748 154.93 269.037C154.457 269.304 153.739 269.56 152.809 269.781C150.957 270.222 148.372 270.5 145.5 270.5C142.628 270.5 140.043 270.222 138.191 269.781C137.261 269.56 136.543 269.304 136.07 269.037C135.557 268.748 135.5 268.547 135.5 268.5C135.5 268.453 135.557 268.252 136.07 267.963C136.543 267.696 137.261 267.44 138.191 267.219C140.043 266.778 142.628 266.5 145.5 266.5C148.372 266.5 150.957 266.778 152.809 267.219C153.739 267.44 154.457 267.696 154.93 267.963C155.443 268.252 155.5 268.453 155.5 268.5Z" stroke="#CAD5FE" stroke-opacity="0.5"/>
<g clip-path="url(#clip5_160_486)">
<path d="M197.73 137.235L202.539 138.024L204.101 128.571L199.292 127.782L197.73 137.235Z" fill="#FCC5B6"/>
<path d="M198.251 133.603L199.444 134.464C200.561 135.271 201.852 135.272 203.187 134.923L205.274 140.368L207.867 143.77C208.249 144.219 208.449 144.794 208.426 145.382L208.388 146.424C208.382 146.555 208.304 146.672 208.184 146.725C207.534 147.013 205.346 147.774 202.795 146.422C201.821 145.905 201.887 145.644 200.882 144.643C200.622 144.384 199.731 143.059 199.479 142.789C199.031 142.308 198.616 142.356 198.034 142.034C196.496 141.182 196.384 139.922 196.384 139.922L198.251 133.601V133.603Z" fill="#5C49D8"/>
<path d="M189.796 85.3286C190.232 85.4155 201.467 86.9779 207.605 88.7369C210.694 89.623 212.556 92.7532 211.852 95.8795L205.202 131.524L204.813 131.637C202.494 132.308 199.992 131.826 198.09 130.343L202.173 97.4018L183.731 93.0713L189.798 85.3286H189.796Z" fill="#382A73"/>
<path d="M188.895 137.435L193.76 137.146L193.186 127.582L188.321 127.872L188.895 137.435Z" fill="#FCC5B6"/>
<path d="M170.689 83.3599L170.162 88.0846C169.974 92.1906 172.833 95.5453 176.957 95.5199L191.633 95.4331L191.508 85.0653L170.689 83.3599V83.3599Z" fill="#382A73"/>
<path d="M163.038 80.8204C164.249 81.9872 165.829 82.6275 167.451 82.6809C168.323 82.709 169.205 82.5687 170.05 82.2479L170.824 81.9538L170.696 83.4909L175.118 85.0961C179.846 86.5476 184.855 86.8403 189.237 86.0384L191.377 85.4596L192.826 79.2914L193.819 80.7817C194.837 81.8629 196.217 82.558 197.701 82.6609C197.776 82.6662 197.853 82.6702 197.928 82.6729C197.988 82.6742 198.048 82.6756 198.11 82.6756C201.795 82.6863 204.692 79.5373 204.362 75.8818L204.229 74.4196C204.155 73.6003 203.622 71.812 203.196 70.9445C203.113 70.7748 203.029 70.6064 202.95 70.4353L198.014 59.6653C197.367 58.3394 196.197 57.3423 194.782 56.9106L183.952 53.6133L173.275 55.4845C171.649 55.7692 170.247 56.7903 169.481 58.2485L161.759 72.9587C160.388 75.5717 160.909 78.7728 163.038 80.8204Z" fill="#5C49D8"/>
<path d="M194.665 75.1426L189.933 74.6374C189.262 74.5652 188.937 74.0066 189.205 73.3877L193.677 63.0828C193.945 62.464 194.706 62.0202 195.376 62.0924L200.109 62.5976C200.78 62.6698 201.105 63.2285 200.836 63.8473L196.365 74.1522C196.097 74.7711 195.336 75.2148 194.665 75.1426V75.1426Z" fill="white"/>
<path d="M201.927 72.6807L201.507 68.1752L198.8 66.5258L195.152 66.0701C194.937 66.0433 194.77 66.2532 194.845 66.455C195.01 66.9027 195.416 67.2168 195.892 67.2663L197.547 67.4387L199.281 68.1992L196.552 68.2687L194.745 69.1295C194.335 69.3246 194.146 69.8031 194.312 70.2254L194.637 71.0501L194.646 72.3118L195.198 73.063C195.49 73.4613 195.962 73.6872 196.457 73.6658L196.909 73.6457L197.733 75.1681C198.33 75.7201 199.575 76.6931 200.377 76.5474C201.524 76.3389 202.282 75.2416 202.067 74.1002L201.928 72.6821L201.927 72.6807Z" fill="#FCB6A4"/>
<path d="M185.249 71.3869L187.705 68.8822L189.77 67.4841C189.919 67.3839 190.08 67.3037 190.251 67.2462L192.598 66.4576V66.4991C192.61 67.2569 192.151 67.9934 191.424 68.385L189.896 69.207L193.276 68.9343L195.955 67.9466C196.414 67.7448 196.932 67.8169 197.262 68.1297C197.624 68.4732 197.796 68.9624 197.732 69.4729L197.6 70.5328C197.512 71.2466 197.096 71.9175 196.465 72.3626L193.793 74.2512C193.494 74.4623 193.154 74.612 192.8 74.6896L185.842 75.9406C185.256 76.0462 184.665 75.7748 184.365 75.2616C183.792 74.2846 183.889 73.0563 184.605 72.1781L185.252 71.3869H185.249Z" fill="#FCC5B6"/>
<path d="M191.115 70.6585C191.078 70.6585 191.044 70.6305 191.039 70.5917C191.033 70.5503 191.063 70.5115 191.104 70.5062L193.105 70.2482C193.545 70.1947 193.969 70.0704 194.368 69.8793L197.11 68.3864C197.148 68.3663 197.194 68.3797 197.214 68.4171C197.234 68.4545 197.22 68.5 197.183 68.52L194.437 70.0143C194.02 70.2148 193.578 70.3431 193.123 70.3992L191.123 70.6572C191.123 70.6572 191.117 70.6572 191.114 70.6572L191.115 70.6585Z" fill="#1A1A1A"/>
<path d="M191.429 72.253C191.392 72.253 191.36 72.2263 191.354 72.1902C191.347 72.1488 191.374 72.1087 191.415 72.102L193.165 71.7986C193.535 71.7318 193.896 71.6141 194.234 71.4484L197.26 69.6975C197.298 69.6761 197.343 69.6895 197.365 69.7256C197.386 69.7617 197.374 69.8084 197.337 69.8298L194.305 71.5834C193.949 71.7572 193.575 71.8801 193.19 71.9483L191.441 72.2517C191.441 72.2517 191.431 72.2517 191.427 72.2517L191.429 72.253Z" fill="#1A1A1A"/>
<path d="M191.669 73.7098C191.634 73.7098 191.602 73.6858 191.594 73.651C191.584 73.6096 191.61 73.5695 191.651 73.5601L193.316 73.1819C193.78 73.071 194.219 72.8812 194.617 72.6179L197.322 70.8309C197.357 70.8081 197.405 70.8175 197.428 70.8523C197.451 70.887 197.441 70.9351 197.406 70.9578L194.702 72.7448C194.289 73.0175 193.834 73.2153 193.351 73.3302L191.685 73.7085C191.685 73.7085 191.673 73.7098 191.668 73.7098H191.669Z" fill="#1A1A1A"/>
<path d="M183.52 49.8108L182.439 53.5879C182.27 54.176 182.245 54.7962 182.364 55.3963C182.75 57.3504 184.632 58.6375 186.602 58.294C187.327 58.167 187.933 57.6685 188.194 56.9815L190.46 51.015L183.523 49.8094L183.52 49.8108Z" fill="#FCC5B6"/>
<path d="M194.619 47.7617C194.894 47.159 195.019 46.5 195.141 45.8478C195.202 45.5297 195.261 45.2102 195.321 44.8921C195.392 44.5166 195.462 44.1303 195.393 43.7534C195.32 43.3497 195.071 42.9715 194.709 42.775C194.347 42.5785 193.874 42.5826 193.535 42.8178C193.275 42.9982 193.114 43.2883 192.964 43.5663C192.752 43.9579 192.54 44.3495 192.328 44.7411C192.115 45.1341 191.9 45.5337 191.814 45.9721C191.673 46.6871 191.893 47.4236 192.175 48.0959C192.291 48.3699 192.421 48.6466 192.638 48.8497C193.467 49.6222 194.304 48.4554 194.619 47.7617V47.7617Z" fill="#382A73"/>
<path d="M194.443 41.476C193.909 40.5685 192.816 40.1514 191.776 39.9817C189.708 39.6462 187.524 40.0606 185.722 41.1298C185.082 41.5094 184.48 41.9799 184.066 42.5974C183.267 43.7936 183.282 45.3587 182.73 46.6792C182.567 46.5897 182.382 46.5362 182.196 46.5282C181.692 46.5068 181.202 46.7835 180.897 47.1831C180.591 47.5841 180.454 48.0947 180.436 48.5972C180.416 49.1826 180.564 49.7974 180.966 50.2225C181.52 50.8079 182.402 50.9095 183.205 50.9763C182.997 52.4225 183.636 53.898 184.536 55.0034C185.597 56.3065 187.063 57.0497 188.738 57.2261C190.252 57.3865 191.532 56.6701 192.303 55.3789C192.979 54.2455 193.198 52.9076 193.405 51.6045C193.85 48.7897 194.295 45.9735 194.741 43.1587C194.829 42.596 194.733 41.9638 194.444 41.472L194.443 41.476Z" fill="#FCC5B6"/>
<path d="M187.215 46.6204C187.034 46.615 186.849 46.615 186.699 46.6498C186.548 46.6845 186.438 46.7581 186.458 46.8476C186.487 46.9679 186.723 47.0721 186.951 47.1403C187.49 47.302 188.09 47.3595 188.664 47.3943C188.94 47.4103 189.246 47.417 189.411 47.3274C189.551 47.2512 189.54 47.1189 189.4 47.012C189.302 46.9372 189.154 46.9104 189.002 46.8757C188.409 46.738 187.823 46.6404 187.215 46.6204V46.6204Z" fill="#382A73"/>
<path d="M193.231 47.1363C193.407 47.1831 193.583 47.2393 193.717 47.3181C193.851 47.397 193.934 47.5039 193.887 47.5894C193.825 47.703 193.568 47.7391 193.33 47.7418C192.767 47.7471 192.175 47.6309 191.616 47.4959C191.346 47.4317 191.053 47.3475 190.921 47.2085C190.81 47.0909 190.859 46.9586 191.024 46.8917C191.141 46.845 191.29 46.8623 191.446 46.8704C192.053 46.9038 192.644 46.9773 193.231 47.1363V47.1363Z" fill="#382A73"/>
<path d="M187.765 48.8992C187.725 49.1786 187.555 49.3844 187.387 49.359C187.219 49.3349 187.116 49.089 187.158 48.8097C187.198 48.5303 187.368 48.3245 187.536 48.3499C187.704 48.374 187.807 48.6199 187.765 48.8992Z" fill="#1A1A1A"/>
<path d="M192.136 49.5742C192.096 49.8535 191.926 50.0593 191.758 50.0339C191.59 50.0099 191.487 49.7639 191.529 49.4846C191.569 49.2053 191.739 48.9994 191.907 49.0248C192.075 49.0489 192.178 49.2948 192.136 49.5742Z" fill="#1A1A1A"/>
<path d="M189.585 53.5545C189.585 53.5545 189.58 53.5545 189.577 53.5545C188.659 53.4623 187.805 52.8702 187.401 52.0442C187.381 52.0028 187.398 51.952 187.44 51.9319C187.481 51.9119 187.532 51.9292 187.553 51.9707C187.932 52.7459 188.733 53.3019 189.594 53.3874C189.641 53.3914 189.675 53.4329 189.669 53.4797C189.665 53.5224 189.628 53.5558 189.586 53.5558L189.585 53.5545Z" fill="black"/>
<path d="M188.012 57.1191C188.012 57.1191 188.004 57.1191 188 57.1191C186.887 56.9601 185.817 56.4709 184.99 55.7385C183.906 54.7815 183.211 53.4075 183.083 51.9694C183.079 51.9226 183.113 51.8825 183.16 51.8785C183.205 51.8731 183.247 51.9079 183.251 51.9547C183.376 53.35 184.049 54.6839 185.102 55.6128C185.906 56.3226 186.944 56.7984 188.025 56.9521C188.071 56.9588 188.103 57.0015 188.097 57.047C188.091 57.0884 188.055 57.1191 188.013 57.1191H188.012Z" fill="black"/>
<path d="M182.733 47.6295C182.782 47.6201 182.829 47.5987 182.874 47.56C183.338 47.1657 183.699 46.4974 184.048 46.0015C184.439 45.4469 185.132 45.3399 185.525 44.7866C185.721 44.5113 185.606 43.7842 185.811 43.5155C185.899 43.3992 186.25 42.8125 186.389 42.8005C188.148 42.8165 189.703 43.442 191.433 43.7521C192.298 43.9071 193.287 43.8069 194.233 43.8817C194.647 43.9138 195.146 44.133 195.429 43.7975C195.67 43.5115 195.895 43.2108 196.073 42.882C196.271 42.5225 196.411 42.1308 196.449 41.7205C196.544 40.6793 195.982 39.7036 195.44 38.8095C195.019 38.1131 194.122 37.243 193.358 36.9557C192.643 36.687 191.825 36.8795 191.098 36.6469C190.557 36.4745 190.093 36.0762 189.53 36.0094C188.915 35.9372 188.338 36.2713 187.778 36.5306C186.883 36.945 185.907 37.1882 184.921 37.243C184.363 37.2738 183.8 37.2457 183.25 37.3473C182.701 37.4489 182.15 37.7055 181.847 38.1746C181.481 38.7413 181.554 39.4778 181.373 40.1273C181.177 40.8317 180.686 41.4158 180.389 42.0841C180.041 42.8646 180.465 43.8016 180.398 44.6529C180.367 45.0339 180.339 45.4308 180.486 45.7837C180.686 46.2635 181.163 46.5589 181.612 46.8235C181.923 47.0066 181.737 47.1229 182.048 47.306C182.26 47.4317 182.507 47.6723 182.733 47.6295V47.6295Z" fill="#382A73"/>
<path d="M190.391 48.9407C190.436 49.077 190.524 49.1973 190.605 49.3189C190.825 49.6477 190.998 50.0046 191.117 50.3748C191.145 50.4604 191.169 50.5499 191.153 50.6368C191.13 50.7558 191.034 50.848 190.933 50.9215C190.641 51.1393 190.285 51.2677 189.935 51.3946C189.848 51.4267 189.743 51.4561 189.663 51.4067C189.58 51.3559 189.57 51.2463 189.577 51.154C189.606 50.7183 189.786 50.304 189.825 49.8696C189.857 49.5127 189.794 49.1505 189.833 48.795C189.845 48.6814 189.869 48.5651 189.938 48.4702C190.006 48.3753 190.126 48.3085 190.248 48.3259C190.363 48.3432 190.464 48.4542 190.429 48.5624C190.385 48.6974 190.344 48.795 190.391 48.9407V48.9407Z" fill="#FCC5B6"/>
<path d="M189.885 51.5978C189.856 51.5978 189.828 51.5817 189.812 51.555C189.789 51.5149 189.803 51.4628 189.844 51.44L190.814 50.8987C191.052 50.7651 191.145 50.4697 191.024 50.2251L190.376 48.9059C190.277 48.7041 190.285 48.4662 190.399 48.2724C190.422 48.2323 190.474 48.2189 190.514 48.2416C190.555 48.2644 190.568 48.3165 190.545 48.3566C190.461 48.5023 190.454 48.68 190.529 48.8324L191.177 50.1516C191.337 50.4764 191.213 50.868 190.897 51.0444L189.927 51.5857C189.913 51.5924 189.9 51.5964 189.885 51.5964V51.5978Z" fill="black"/>
<path d="M182.905 46.6618C183.109 46.7206 183.312 46.8115 183.449 46.9732C183.608 47.1616 183.654 47.4223 183.655 47.6682C183.655 47.9168 183.612 48.1774 183.458 48.3726C183.317 48.5517 183.099 48.6573 182.874 48.7054C182.483 48.7896 182.059 48.7134 181.723 48.4969C181.571 48.398 181.431 48.2643 181.38 48.0905C181.326 47.9088 181.379 47.715 181.43 47.5319C181.485 47.3354 181.153 47.1002 181.208 46.9023C181.245 46.7754 181.654 46.6444 181.796 46.5976C182.125 46.4893 182.583 46.5669 182.905 46.6604V46.6618Z" fill="#FCC5B6"/>
<path d="M181.819 49.2547C181.819 49.2547 181.808 49.2547 181.804 49.2534C181.758 49.2454 181.728 49.2013 181.736 49.1558C181.844 48.5597 182.286 48.0452 182.86 47.8447C182.904 47.83 182.952 47.8527 182.967 47.8968C182.982 47.9409 182.959 47.989 182.916 48.0037C182.398 48.1842 182 48.6493 181.902 49.1866C181.894 49.2267 181.859 49.2561 181.819 49.2561V49.2547Z" fill="black"/>
<path d="M185.116 59.8323C184.459 59.8323 183.803 59.7054 183.199 59.4461C181.569 58.7417 180.386 57.083 180.256 55.3174C180.253 55.276 180.284 55.2386 180.327 55.2359C180.367 55.2332 180.406 55.2639 180.409 55.3067C180.535 57.0162 181.681 58.6241 183.26 59.3057C184.839 59.9874 186.799 59.7214 188.139 58.6441C188.172 58.6174 188.219 58.6227 188.246 58.6562C188.273 58.6896 188.267 58.7363 188.234 58.7631C187.363 59.4648 186.236 59.8323 185.115 59.8323H185.116Z" fill="white"/>
<path d="M173.456 94.5149L183.203 98.1891L186.891 131.655H186.895C189.411 132.869 192.39 132.618 194.664 130.999L192.964 97.4246C193.037 94.7528 191.599 92.2682 189.242 90.9931L184.521 89.2649L173.456 94.5149V94.5149Z" fill="#382A73"/>
<path d="M188.692 135.358L189.894 136.205C191.021 137 192.444 136.856 193.776 136.492L195.921 141.916L199.079 145.546C199.465 145.991 199.672 146.563 199.656 147.152L199.628 148.195C199.624 148.326 199.547 148.444 199.427 148.499C198.78 148.793 196.6 149.577 194.035 148.253C190.966 146.666 187.427 141.891 187.427 141.891L188.692 135.358V135.358Z" fill="#5C49D8"/>
<path d="M192.914 96.5157C192.876 96.5157 192.842 96.485 192.838 96.4462L192.704 94.8237C192.501 92.3617 190.661 90.3074 188.227 89.8302L183.064 88.8158C183.022 88.8078 182.995 88.7677 183.003 88.7262C183.011 88.6848 183.053 88.6581 183.093 88.6661L188.257 89.6805C190.756 90.1711 192.647 92.2815 192.857 94.8116L192.991 96.4342C192.995 96.4756 192.963 96.5131 192.921 96.5171C192.918 96.5171 192.917 96.5171 192.914 96.5171V96.5157Z" fill="white"/>
<path d="M202.217 97.5649C202.217 97.5649 202.21 97.5649 202.206 97.5649C202.164 97.5595 202.135 97.5208 202.14 97.4793C202.226 96.8485 202.246 96.2056 202.202 95.5707C202.199 95.5293 202.23 95.4918 202.273 95.4892C202.316 95.4865 202.352 95.5172 202.355 95.56C202.401 96.2056 202.379 96.8592 202.292 97.5007C202.286 97.5395 202.254 97.5662 202.217 97.5662V97.5649Z" fill="white"/>
<path d="M183.26 98.0902C183.221 98.0902 183.188 98.0595 183.184 98.0207L183.009 95.921C183.005 95.8795 183.037 95.8421 183.079 95.8381C183.119 95.8341 183.158 95.8662 183.162 95.9076L183.336 98.0074C183.34 98.0488 183.308 98.0862 183.267 98.0902C183.264 98.0902 183.263 98.0902 183.26 98.0902Z" fill="white"/>
<path d="M167.141 72.805C167.103 72.805 167.071 72.7783 167.065 72.7409C167.059 72.6994 167.088 72.6607 167.13 72.654L178.16 70.9726C179.417 70.7814 180.682 70.8229 181.923 71.0982L183.624 71.4751C183.665 71.4845 183.691 71.5246 183.681 71.566C183.672 71.6074 183.632 71.6328 183.59 71.6235L181.889 71.2466C180.667 70.9766 179.419 70.9338 178.182 71.1236L167.153 72.805C167.153 72.805 167.145 72.805 167.141 72.805V72.805Z" fill="white"/>
<path d="M173.594 71.7558C173.582 71.7558 173.571 71.7532 173.56 71.7478C173.523 71.7291 173.507 71.6837 173.525 71.6449L175.501 67.7074C175.52 67.67 175.567 67.6539 175.605 67.6726C175.642 67.6913 175.658 67.7368 175.64 67.7756L173.664 71.7131C173.65 71.7398 173.623 71.7558 173.595 71.7558H173.594Z" fill="white"/>
<path d="M171.223 81.8617C171.19 81.8617 171.16 81.8403 171.15 81.8069C171.138 81.7668 171.16 81.724 171.202 81.712L180.236 79.0575C181.053 78.817 181.837 78.4748 182.567 78.0377L184.751 76.7319C184.787 76.7105 184.834 76.7226 184.856 76.7586C184.877 76.7947 184.867 76.8415 184.829 76.8629L182.645 78.1687C181.903 78.6125 181.106 78.96 180.277 79.2046L171.244 81.859C171.237 81.8616 171.229 81.8617 171.222 81.8617H171.223Z" fill="white"/>
<path d="M192.82 79.1912C192.82 79.1912 192.807 79.1912 192.8 79.1885C192.76 79.1778 192.736 79.135 192.747 79.0949C193.118 77.7543 193.399 76.3737 193.58 74.9943C193.585 74.9529 193.624 74.9235 193.666 74.9289C193.707 74.9342 193.737 74.973 193.731 75.0144C193.549 76.4017 193.267 77.7878 192.893 79.1364C192.884 79.1698 192.853 79.1925 192.819 79.1925L192.82 79.1912Z" fill="white"/>
<path d="M196.976 77.6114C196.97 77.6114 196.963 77.6114 196.955 77.6087C196.915 77.5967 196.89 77.5552 196.903 77.5151L197.473 75.5023C197.485 75.4622 197.526 75.4381 197.568 75.4501C197.608 75.4622 197.632 75.5036 197.62 75.5437L197.05 77.5566C197.041 77.59 197.01 77.6127 196.976 77.6127V77.6114Z" fill="white"/>
<path d="M202.797 76.7853C202.759 76.7853 202.727 76.7586 202.722 76.7198L202.377 74.4437C202.37 74.4022 202.4 74.3635 202.441 74.3568C202.483 74.3501 202.522 74.3795 202.529 74.4209L202.873 76.6971C202.88 76.7385 202.85 76.7773 202.809 76.784C202.805 76.784 202.801 76.784 202.797 76.784V76.7853Z" fill="white"/>
<path d="M199.73 79.0762C198.877 79.0762 198.084 78.7794 197.55 78.2488C197.521 78.2194 197.521 78.1713 197.55 78.1406C197.58 78.1112 197.628 78.1112 197.659 78.1406C198.249 78.7287 199.179 79.012 200.149 78.8984C200.935 78.8062 201.752 78.4734 202.65 77.8786C202.686 77.8559 202.733 77.8652 202.755 77.9C202.778 77.9347 202.769 77.9829 202.734 78.0056C201.816 78.6137 200.977 78.9545 200.166 79.0494C200.02 79.0668 199.874 79.0748 199.73 79.0748V79.0762Z" fill="white"/>
<path d="M180.654 78.1486C180.629 78.1486 180.603 78.1352 180.589 78.1125C179.489 76.3536 179.23 74.1309 179.896 72.1688C179.91 72.1287 179.953 72.1073 179.993 72.1207C180.033 72.134 180.055 72.1768 180.041 72.2169C179.388 74.1376 179.642 76.3108 180.717 78.031C180.74 78.0671 180.728 78.1138 180.693 78.1366C180.681 78.1446 180.666 78.1486 180.653 78.1486H180.654Z" fill="white"/>
<path d="M176.53 60.4699C176.491 60.4699 176.457 60.4405 176.453 60.4017C176.283 58.6976 175.244 57.1204 173.742 56.2878C173.704 56.2677 173.691 56.2209 173.712 56.1835C173.733 56.1474 173.779 56.1341 173.817 56.1541C175.362 57.0108 176.432 58.6334 176.606 60.387C176.61 60.4284 176.579 60.4659 176.538 60.4699C176.535 60.4699 176.532 60.4699 176.53 60.4699V60.4699Z" fill="white"/>
<path d="M194.853 60.4244C194.812 60.4244 194.779 60.3937 194.776 60.3536C194.702 59.3391 194.879 58.3113 195.289 57.3811C195.306 57.3423 195.35 57.3249 195.389 57.3423C195.428 57.3597 195.446 57.4038 195.428 57.4426C195.028 58.3501 194.855 59.3538 194.928 60.3429C194.93 60.3843 194.9 60.4218 194.857 60.4244C194.855 60.4244 194.853 60.4244 194.851 60.4244H194.853Z" fill="white"/>
<path d="M192.963 142.246C192.929 142.246 192.898 142.225 192.889 142.192C192.877 142.151 192.901 142.109 192.941 142.097L195.108 141.482C195.148 141.47 195.191 141.494 195.203 141.534C195.215 141.574 195.191 141.617 195.151 141.629L192.984 142.244C192.977 142.245 192.971 142.246 192.963 142.246Z" fill="white"/>
<path d="M202.905 140.659C202.875 140.659 202.847 140.641 202.835 140.613C202.817 140.574 202.835 140.529 202.875 140.513C203.531 140.23 204.227 140.068 204.942 140.033C204.983 140.029 205.02 140.064 205.023 140.105C205.026 140.147 204.992 140.183 204.95 140.185C204.254 140.219 203.577 140.377 202.937 140.652C202.927 140.656 202.917 140.659 202.906 140.659H202.905Z" fill="white"/>
<path d="M206.918 146.04C206.918 146.04 206.909 146.04 206.905 146.04C205.814 145.846 204.686 145.644 203.634 145.226C202.453 144.755 201.531 144.053 200.968 143.197C200.84 143.003 200.727 142.796 200.617 142.595C200.404 142.205 200.203 141.836 199.897 141.541C199.56 141.216 199.106 140.994 198.666 140.779C198 140.454 197.313 140.119 197.052 139.42C197.037 139.379 197.057 139.337 197.097 139.322C197.136 139.307 197.18 139.327 197.195 139.367C197.435 140.009 198.066 140.316 198.733 140.642C199.183 140.863 199.649 141.09 200.003 141.432C200.325 141.744 200.542 142.141 200.75 142.524C200.858 142.722 200.969 142.927 201.094 143.115C201.64 143.945 202.537 144.627 203.689 145.085C204.726 145.498 205.847 145.699 206.931 145.891C206.972 145.899 207 145.938 206.992 145.979C206.986 146.017 206.953 146.042 206.917 146.042L206.918 146.04Z" fill="white"/>
<path d="M197.788 147.367C196.09 147.367 194.284 146.723 192.618 145.509C190.881 144.243 189.504 142.563 188.173 140.939C188.147 140.907 188.152 140.859 188.184 140.832C188.218 140.806 188.265 140.811 188.291 140.843C189.617 142.46 190.987 144.132 192.708 145.386C194.623 146.783 196.723 147.412 198.618 147.161C198.66 147.156 198.699 147.185 198.704 147.226C198.71 147.268 198.68 147.307 198.639 147.312C198.358 147.349 198.075 147.368 197.788 147.368V147.367Z" fill="white"/>
<path d="M172.3 89.2301C172.266 89.2301 172.234 89.2074 172.226 89.1726C172.215 89.1312 172.241 89.0898 172.281 89.0804C173.702 88.7182 174.983 87.7452 175.707 86.4755C175.729 86.4394 175.774 86.426 175.812 86.4474C175.848 86.4688 175.862 86.5142 175.84 86.5516C175.096 87.8575 173.778 88.8586 172.319 89.2301C172.312 89.2315 172.305 89.2328 172.3 89.2328V89.2301Z" fill="white"/>
<path d="M188.082 89.7354C188.082 89.7354 188.07 89.7354 188.063 89.7327C188.022 89.722 187.998 89.6806 188.008 89.6405C188.164 89.0337 188.188 88.3868 188.078 87.7693C188.071 87.7278 188.098 87.6877 188.14 87.6811C188.181 87.673 188.222 87.7011 188.228 87.7425C188.341 88.3814 188.317 89.0497 188.156 89.6779C188.147 89.7126 188.116 89.7354 188.082 89.7354V89.7354Z" fill="white"/>
</g>
<g clip-path="url(#clip6_160_486)">
<path d="M46.5254 220.694L48.8853 219.409C49.1969 219.238 49.587 219.391 49.6993 219.725L53.6027 231.354C53.7211 231.708 53.4686 232.077 53.0942 232.098L50.3539 232.249C50.0979 232.263 49.8636 232.105 49.7814 231.863L46.2597 221.368C46.1727 221.109 46.2851 220.825 46.5266 220.693L46.5254 220.694Z" fill="#382A73"/>
<path d="M62.7673 227.822L58.4569 222.577L51.1719 221.372L51.1936 221.569C51.254 222.106 51.6344 222.553 52.1586 222.702L55.5426 223.663L54.7057 225.417C54.5451 225.753 54.562 226.145 54.7516 226.467L55.7274 228.128C55.9931 228.581 56.4593 228.882 56.9847 228.94L58.3361 229.089L61.1284 231.5L62.7673 227.823V227.822Z" fill="#FCC5B6"/>
<path d="M48.6135 234.437L46.6534 230.328L46 226.76L48.3949 224.164L51.3345 223.407V223.756C51.3345 224.26 51.0145 224.707 50.5362 224.874L49.157 225.354L47.8502 226.867L50.122 226.694C50.4831 226.666 50.8418 226.767 51.1353 226.977L52.5604 227.997C52.7452 228.168 52.8273 228.423 52.7754 228.669L52.5423 229.766C52.4686 230.112 52.2089 230.386 51.8671 230.481L50.4638 230.868L51.5531 233.464L49.8116 234.977L48.6135 234.437V234.437Z" fill="#FCC5B6"/>
<path d="M69.518 250.655L54.6931 269.849C52.5457 272.825 53.4539 276.99 56.6472 278.818L79.175 292.235C79.175 292.235 80.6991 291.263 81.2438 288.667C81.7885 286.072 81.2438 285.64 81.2438 285.64L64.1858 272.811L76.3779 259.955L76.7039 250.764L69.518 250.656V250.655Z" fill="#382A73"/>
<path d="M78.9175 292.204L80.659 293.826L83.054 302.151C83.054 302.151 86.1023 303.665 86.211 303.449C86.3088 303.256 86.8644 298.908 86.7557 294.366C86.6735 290.935 86.4042 288.059 86.2786 286.859C86.2412 286.5 85.9755 286.206 85.6204 286.131L79.1349 284.743L77.8281 291.122L78.9175 292.204V292.204Z" fill="#5C49D8"/>
<path d="M86.8298 249.789C86.8298 249.789 87.8093 257.79 86.1764 263.738C84.5436 269.684 72.3878 316.738 72.3878 316.738C72.3878 316.738 69.8842 317.387 68.2501 317.062C66.6172 316.738 65.9639 315.332 65.9639 315.332L70.6064 284.929L75.0701 262.115L75.5061 251.087L86.8298 249.789V249.789Z" fill="#382A73"/>
<path d="M70.7151 244.384C70.6064 244.276 61.3516 233.68 61.3516 233.68L59.7188 230.328C59.7188 230.328 60.1547 230.868 61.4603 229.463C62.7671 228.057 62.4398 227.3 62.4398 227.3L64.3999 227.949C64.3999 227.949 70.9325 233.247 71.0412 233.356C71.1499 233.464 75.1789 237.789 75.2876 237.897C75.3963 238.005 70.7151 244.384 70.7151 244.384V244.384Z" fill="#5C49D8"/>
<path d="M64.7268 224.976L60.1543 239.41L53.6217 233.572L51.2268 232.815C51.2268 232.815 51.0094 233.572 49.8113 234.005L48.6133 234.438L49.158 236.384C49.158 236.384 55.6906 245.575 58.4128 246.765C59.6531 247.307 60.9164 247.22 61.9237 246.965C63.1036 246.666 64.0927 245.872 64.6556 244.8L70.9345 232.817L64.728 224.978L64.7268 224.976Z" fill="#5C49D8"/>
<path d="M65.2501 224.064L70.1704 221.245L73.9808 219.515L80.139 220.275C84.267 220.985 87.3733 224.405 87.6498 228.556C88.0568 234.658 88.3298 246.269 87.1547 250.547C87.1547 250.547 86.0653 253.143 78.0085 252.926C69.9518 252.71 69.5158 250.871 69.5158 250.871L64.6861 225.32C64.5798 224.825 64.8068 224.318 65.2477 224.064H65.2501Z" fill="#5C49D8"/>
<path d="M72.3386 213.992C72.5378 214.176 75.4968 221.337 75.4968 221.337C74.7238 223.351 72.5342 224.449 70.4424 223.874L70.3035 223.835L67.6514 217.902L72.3386 213.991V213.992Z" fill="#FCC5B6"/>
<path d="M70.8429 221.258C71.5784 220.787 72.2173 220.161 72.6774 219.479C72.9975 219.006 73.2076 218.413 73.2837 217.849C73.3465 217.388 73.2426 216.92 73.2777 216.459C73.2293 216.17 73.2173 215.881 73.2752 215.598C73.553 214.236 73.7112 212.906 73.6847 211.516C73.6847 211.467 73.6822 211.417 73.6798 211.369C73.5035 211.521 73.3054 211.646 73.0868 211.738C71.5446 210.878 70.2644 209.584 69.6533 207.936C67.2523 207.836 64.8248 208.445 62.7607 209.669C62.5748 209.779 62.3851 209.9 62.2644 210.079C62.0965 210.327 62.0856 210.646 62.0808 210.945C62.0723 211.475 62.0651 212.004 62.0566 212.534C62.2632 213.478 62.617 214.415 62.9178 215.333C63.4117 216.84 63.7825 218.412 64.6158 219.762C65.3187 220.902 66.5095 222.036 67.9298 222.11C68.9455 222.161 69.9636 221.821 70.8441 221.257L70.8429 221.258Z" fill="#FCC5B6"/>
<path d="M62.2629 210.079C62.3837 209.9 62.5733 209.779 62.7593 209.669C64.8233 208.447 67.2508 207.836 69.6518 207.936C70.2641 209.584 71.5443 210.878 73.0854 211.738C73.304 211.646 73.502 211.521 73.6784 211.369C73.5962 209.585 72.6337 207.858 71.147 206.849C69.6204 205.813 67.6916 205.854 65.8945 206.289C64.0189 206.744 62.3559 208.224 61.973 210.103C61.8076 210.914 61.8764 211.726 62.054 212.534C62.0624 212.004 62.0697 211.475 62.0781 210.945C62.083 210.645 62.0926 210.327 62.2617 210.079H62.2629Z" fill="#382A73"/>
<path d="M66.7582 218.841C66.7196 218.841 66.687 218.813 66.6821 218.774C66.6773 218.732 66.7075 218.694 66.7498 218.689C67.9261 218.549 68.5783 218.046 68.8005 217.108C68.8102 217.068 68.8512 217.041 68.8935 217.051C68.9346 217.06 68.9611 217.102 68.9515 217.143C68.7111 218.152 68.0179 218.692 66.7679 218.84C66.7643 218.84 66.7619 218.84 66.7582 218.84V218.841Z" fill="#1A1A1A"/>
<path d="M66.6362 213.322C66.8029 213.447 67.0964 213.45 67.3548 213.412C67.815 213.345 68.2594 213.172 68.5964 212.926C68.7945 212.782 68.966 212.586 68.8995 212.408C68.6254 211.678 65.8452 212.731 66.6362 213.322V213.322Z" fill="#382A73"/>
<path d="M63.0927 213.996C62.9876 214.135 62.9273 214.311 63.0444 214.435C63.1857 214.584 63.5033 214.579 63.7618 214.531C64.0384 214.479 64.3065 214.394 64.5492 214.281C64.7328 214.196 64.9055 214.092 65.0118 213.958C65.3512 213.526 64.7558 213.288 64.2171 213.359C63.7763 213.417 63.3005 213.723 63.0927 213.997V213.996Z" fill="#382A73"/>
<path d="M68.6004 214.254C68.6741 214.547 68.5871 214.821 68.4048 214.867C68.2236 214.912 68.0159 214.711 67.9422 214.418C67.8685 214.126 67.9555 213.851 68.1379 213.805C68.319 213.76 68.5267 213.961 68.6004 214.254Z" fill="#1A1A1A"/>
<path d="M73.739 211.36C74.2209 211.534 74.5857 211.964 74.739 212.451C74.8924 212.938 74.8477 213.472 74.6811 213.953C74.5192 214.418 74.2282 214.861 73.7922 215.096C73.3562 215.331 72.7608 215.308 72.4105 214.959C72.2282 214.778 72.1279 214.532 72.0555 214.286C71.8332 213.527 71.8514 212.702 72.1001 211.952C72.2934 211.372 73.1714 211.154 73.739 211.359V211.36Z" fill="#FCC5B6"/>
<path d="M64.7956 215.469C64.8801 215.759 64.8028 216.036 64.6229 216.088C64.4429 216.139 64.2292 215.946 64.1446 215.656C64.0601 215.366 64.1374 215.089 64.3173 215.037C64.4973 214.985 64.711 215.179 64.7956 215.469Z" fill="#1A1A1A"/>
<path d="M73.7111 213.826C73.6869 213.826 73.6628 213.814 73.6471 213.793C73.4297 213.485 73.1447 213.219 72.8222 213.022C72.786 213.001 72.7739 212.953 72.7968 212.917C72.8198 212.881 72.8669 212.869 72.9031 212.891C73.2437 213.099 73.5456 213.381 73.7751 213.706C73.7993 213.741 73.7908 213.789 73.7558 213.813C73.7425 213.822 73.7268 213.827 73.7111 213.827V213.826Z" fill="#1A1A1A"/>
<path d="M69.07 222.081C69.0326 222.081 68.9988 222.053 68.9939 222.015C68.9879 221.973 69.0181 221.935 69.0592 221.929C70.8877 221.673 72.5121 220.261 73.0084 218.495C73.0193 218.454 73.0616 218.43 73.1038 218.442C73.1449 218.453 73.1691 218.496 73.157 218.537C72.6449 220.361 70.9686 221.818 69.0809 222.081C69.0773 222.081 69.0736 222.081 69.07 222.081V222.081Z" fill="#1A1A1A"/>
<path d="M65.7884 217.355C65.693 217.355 65.6049 217.337 65.5227 217.303C65.2111 217.168 65.123 216.831 65.1193 216.817C65.1169 216.807 65.1169 216.798 65.1181 216.789L65.4273 214.338L64.9273 213.743C64.8995 213.711 64.9044 213.663 64.937 213.635C64.9696 213.607 65.0179 213.612 65.0457 213.645L65.5674 214.266C65.5807 214.283 65.5879 214.303 65.5843 214.325L65.2739 216.793C65.2921 216.848 65.3742 217.074 65.5855 217.164C65.7715 217.243 66.0131 217.203 66.3041 217.042C66.3416 217.022 66.3887 217.035 66.4092 217.072C66.4297 217.11 66.4164 217.156 66.379 217.177C66.1616 217.297 65.9636 217.357 65.7884 217.357V217.355Z" fill="#1A1A1A"/>
<path d="M66.0737 314.576L62.9167 321.063L55.2947 325.603L54.8913 327.764C54.814 328.178 55.1063 328.572 55.5278 328.619C57.0652 328.79 60.7488 329.118 65.4191 328.954C69.3841 328.817 71.2162 328.545 72.0218 328.368C72.3623 328.294 72.6015 327.991 72.5954 327.646L72.3877 316.196C72.3877 316.196 70.6462 316.953 68.686 316.412C66.7259 315.871 66.0725 314.573 66.0725 314.573L66.0737 314.576Z" fill="#5C49D8"/>
<path d="M73.1112 236.689C73.0883 236.689 73.0654 236.68 73.0484 236.664L63.9567 228.014C63.9204 227.979 63.9192 227.923 63.9542 227.887C63.9881 227.851 64.046 227.85 64.0823 227.884L73.0919 236.456L79.5666 225.74C79.5919 225.697 79.6475 225.684 79.691 225.709C79.7344 225.734 79.7477 225.789 79.7224 225.832L73.1897 236.645C73.1753 236.668 73.1511 236.684 73.1245 236.688C73.1209 236.688 73.1161 236.688 73.1125 236.688L73.1112 236.689Z" fill="white"/>
<path d="M73.4226 245.451C72.1448 245.451 70.948 244.9 70.1195 243.924L61.9347 234.278C61.9021 234.24 61.9069 234.183 61.9456 234.151C61.9842 234.119 62.041 234.123 62.0736 234.162L70.2584 243.808C71.082 244.778 72.2861 245.31 73.5651 245.269C74.8429 245.227 76.0096 244.615 76.7656 243.592L85.0144 232.436C85.0446 232.396 85.1002 232.387 85.1412 232.417C85.1811 232.447 85.1907 232.502 85.1605 232.543L76.9117 243.699C76.1219 244.766 74.9045 245.404 73.5712 245.449C73.5217 245.45 73.4721 245.451 73.4238 245.451H73.4226Z" fill="white"/>
<path d="M61.9485 240.746C61.9304 240.746 61.9122 240.741 61.8965 240.729L60.2093 239.54C60.1683 239.511 60.1586 239.454 60.1876 239.415C60.2166 239.374 60.2721 239.365 60.3132 239.393L62.0004 240.583C62.0415 240.612 62.0511 240.668 62.0221 240.708C62.004 240.733 61.9763 240.746 61.9485 240.746Z" fill="white"/>
<path d="M71.8524 225.038C71.1845 225.038 70.5178 224.917 69.9007 224.675C69.8548 224.657 69.8318 224.604 69.85 224.559C69.8681 224.513 69.9212 224.49 69.9671 224.508C71.2775 225.024 72.8173 224.969 74.0867 224.362C75.356 223.755 76.3596 222.593 76.7702 221.254C76.7847 221.206 76.8355 221.18 76.8838 221.194C76.9321 221.209 76.9587 221.259 76.9442 221.307C76.519 222.694 75.4804 223.895 74.1664 224.525C73.4502 224.868 72.6519 225.041 71.8536 225.041L71.8524 225.038Z" fill="white"/>
<path d="M76.8921 251.371C74.9477 251.371 73.0032 251.069 71.1445 250.46C71.0974 250.444 71.0709 250.394 71.0866 250.346C71.1023 250.299 71.153 250.274 71.2013 250.288C75.7182 251.769 80.752 251.414 85.0129 249.314C85.0576 249.293 85.1119 249.311 85.1337 249.355C85.1554 249.399 85.1373 249.453 85.0926 249.475C82.5431 250.732 79.7194 251.37 76.8921 251.37V251.371Z" fill="white"/>
<path d="M85.3369 258.681C85.3212 258.681 85.3055 258.678 85.291 258.669C83.7053 257.747 82.5157 256.135 82.1087 254.356C82.0978 254.308 82.128 254.259 82.1775 254.248C82.2258 254.238 82.2753 254.268 82.2862 254.317C82.6823 256.049 83.8405 257.617 85.3828 258.514C85.4263 258.54 85.4408 258.595 85.4154 258.638C85.3985 258.667 85.3683 258.682 85.3369 258.682V258.681Z" fill="white"/>
<path d="M71.1904 314.881C71.1832 314.881 71.1759 314.881 71.1687 314.879C71.1204 314.867 71.0902 314.819 71.1023 314.77L84.5636 260.364C84.5757 260.316 84.6252 260.286 84.6735 260.298C84.7218 260.31 84.752 260.358 84.74 260.407L71.2786 314.813C71.2689 314.854 71.2315 314.881 71.1904 314.881V314.881Z" fill="white"/>
<path d="M74.0214 284.568C73.1023 284.568 72.1941 284.426 71.3161 284.148C71.269 284.133 71.2424 284.082 71.2569 284.035C71.2726 283.989 71.3233 283.962 71.3704 283.977C72.3438 284.286 73.3547 284.423 74.3752 284.381C74.3752 284.381 74.3777 284.381 74.3789 284.381C74.4272 284.381 74.467 284.419 74.4694 284.467C74.4719 284.516 74.4332 284.558 74.3825 284.561C74.2617 284.565 74.1409 284.568 74.0202 284.568H74.0214Z" fill="white"/>
<path d="M61.1726 272.732C61.1231 272.732 61.0832 272.692 61.082 272.643C61.082 272.594 61.1207 272.553 61.1714 272.552L64.2209 272.505C64.2765 272.506 64.3115 272.543 64.3127 272.594C64.3127 272.643 64.2741 272.684 64.2233 272.685L61.1738 272.732H61.1726V272.732Z" fill="white"/>
<path d="M75.454 261.412C75.454 261.412 75.4516 261.412 75.4491 261.412C75.3996 261.41 75.361 261.368 75.3634 261.317C75.4721 259.076 75.8984 256.862 76.6279 254.738C76.6436 254.691 76.6955 254.666 76.7426 254.681C76.7897 254.697 76.8151 254.749 76.7994 254.795C76.0747 256.904 75.6532 259.101 75.5445 261.326C75.5421 261.374 75.5023 261.411 75.454 261.411V261.412Z" fill="white"/>
<path d="M74.7834 261.636C74.7424 261.636 74.7049 261.609 74.6953 261.567C74.194 259.433 73.9791 257.241 74.0564 255.051C74.0576 255.002 74.1035 254.958 74.1506 254.964C74.2001 254.966 74.2399 255.008 74.2375 255.058C74.1614 257.232 74.374 259.409 74.8728 261.527C74.8837 261.575 74.8535 261.624 74.8052 261.635C74.7979 261.636 74.7919 261.638 74.7846 261.638L74.7834 261.636Z" fill="white"/>
<path d="M60.8008 232.026C60.7621 232.026 60.7259 232.001 60.7138 231.961C60.6993 231.913 60.7271 231.864 60.7754 231.849C62.1438 231.446 63.6534 229.845 63.5483 228.387C63.5447 228.338 63.5822 228.295 63.6317 228.291C63.6812 228.287 63.7247 228.325 63.7283 228.374C63.8406 229.939 62.2887 231.59 60.8261 232.021C60.8177 232.023 60.8092 232.025 60.8008 232.025V232.026Z" fill="white"/>
<path d="M49.8246 236.176C49.6591 236.176 49.4936 236.167 49.3294 236.152C49.2799 236.147 49.2436 236.102 49.2485 236.053C49.2533 236.004 49.2992 235.969 49.3475 235.973C50.8741 236.125 52.4816 235.534 53.5407 234.433C53.5758 234.397 53.6325 234.396 53.6688 234.431C53.705 234.465 53.7062 234.522 53.6712 234.558C52.6881 235.579 51.2497 236.177 49.8234 236.177L49.8246 236.176Z" fill="white"/>
<path d="M50.3576 235.679C50.3262 235.679 50.296 235.663 50.2791 235.633C50.0339 235.21 49.8588 234.753 49.7586 234.274C49.7489 234.225 49.7803 234.179 49.8286 234.168C49.8781 234.158 49.9252 234.189 49.9361 234.237C50.0327 234.697 50.2006 235.137 50.4361 235.543C50.4615 235.587 50.4458 235.642 50.4023 235.666C50.3878 235.674 50.3721 235.678 50.3576 235.678V235.679Z" fill="white"/>
<path d="M52.0475 234.729C52.0318 234.729 52.0149 234.724 52.0004 234.716L50.7384 233.946C50.6961 233.92 50.6828 233.864 50.7082 233.822C50.7347 233.78 50.7903 233.767 50.8326 233.792L52.0946 234.562C52.1369 234.589 52.1502 234.644 52.1248 234.686C52.1079 234.714 52.0777 234.729 52.0475 234.729V234.729Z" fill="white"/>
<path d="M61.4437 231.255C61.4099 231.255 61.3773 231.235 61.3616 231.203L60.8713 230.186C60.8495 230.142 60.8688 230.088 60.9135 230.066C60.9582 230.044 61.0126 230.064 61.0343 230.108L61.5246 231.125C61.5464 231.169 61.527 231.223 61.4824 231.245C61.4703 231.251 61.457 231.253 61.4437 231.253V231.255Z" fill="white"/>
<path d="M63.0884 229.64C63.0775 229.64 63.0678 229.638 63.057 229.634L61.9797 229.241C61.9326 229.224 61.9084 229.173 61.9253 229.126C61.9422 229.079 61.9954 229.055 62.0413 229.073L63.1173 229.466C63.1644 229.483 63.1886 229.535 63.1717 229.582C63.1584 229.618 63.1234 229.64 63.0871 229.64H63.0884Z" fill="white"/>
<path d="M52.1894 228.734C52.1749 228.734 52.1592 228.729 52.1459 228.72C50.9055 227.893 49.2932 227.581 47.8307 227.886C47.7884 227.894 47.7485 227.868 47.7389 227.827C47.7304 227.785 47.757 227.745 47.7981 227.736C49.3222 227.418 50.9381 227.731 52.2316 228.593C52.2667 228.617 52.2763 228.664 52.2522 228.7C52.2377 228.722 52.2123 228.734 52.1881 228.734H52.1894Z" fill="#1A1A1A"/>
<path d="M51.8864 229.206C51.8864 229.206 51.8792 229.206 51.8755 229.206C50.5108 229.015 49.1207 228.963 47.7463 229.05C47.7004 229.051 47.6666 229.02 47.6642 228.978C47.6618 228.936 47.6944 228.899 47.7367 228.897C49.1219 228.809 50.5229 228.862 51.8973 229.054C51.9396 229.06 51.9685 229.098 51.9625 229.14C51.9577 229.179 51.9239 229.206 51.8864 229.206Z" fill="#1A1A1A"/>
<path d="M48.5673 230.523C48.5359 230.523 48.5058 230.504 48.4949 230.473C48.4804 230.433 48.5009 230.389 48.5408 230.374C49.519 230.024 50.6978 229.859 51.7388 229.713L51.7594 229.711C51.8016 229.705 51.8403 229.734 51.8463 229.776C51.8524 229.818 51.8222 229.856 51.7811 229.862L51.7606 229.865C50.728 230.008 49.5565 230.173 48.5939 230.517C48.5855 230.521 48.577 230.522 48.5673 230.522V230.523Z" fill="#1A1A1A"/>
<path d="M57.3238 223.809C57.3238 223.809 57.3202 223.809 57.319 223.809L55.5775 223.701C55.5352 223.699 55.5026 223.662 55.505 223.62C55.5074 223.578 55.5449 223.546 55.5871 223.548L57.3287 223.656C57.371 223.658 57.4036 223.695 57.4011 223.737C57.3987 223.778 57.3649 223.809 57.3238 223.809Z" fill="#1A1A1A"/>
<path d="M55.1461 226.836C55.1341 226.836 55.1232 226.834 55.1111 226.828C55.0725 226.809 55.058 226.763 55.0761 226.725L55.8708 225.147C55.9976 224.896 56.2524 224.728 56.535 224.709L57.7536 224.628C57.7947 224.626 57.8333 224.657 57.8358 224.7C57.8382 224.742 57.8068 224.779 57.7633 224.782L56.5447 224.862C56.3164 224.878 56.1111 225.013 56.0085 225.216L55.2138 226.793C55.2005 226.819 55.1727 226.835 55.1449 226.835L55.1461 226.836Z" fill="#1A1A1A"/>
<path d="M55.9087 228.026C55.8978 228.026 55.8869 228.024 55.8773 228.019C55.8386 228.002 55.8205 227.956 55.8374 227.918L56.556 226.312C56.6611 226.076 56.8773 225.906 57.1321 225.854L58.3978 225.602C58.4388 225.594 58.4799 225.621 58.4884 225.662C58.4968 225.703 58.469 225.744 58.428 225.752L57.1623 226.004C56.957 226.045 56.783 226.183 56.6973 226.373L55.9787 227.979C55.9654 228.008 55.9376 228.025 55.9087 228.025V228.026Z" fill="#1A1A1A"/>
<path d="M58.3032 229.107C58.3032 229.107 58.2972 229.107 58.2947 229.107C58.2525 229.102 58.2223 229.063 58.2259 229.021L58.2658 228.66C58.302 228.335 58.1112 228.03 57.802 227.918L57.1873 227.696C57.1474 227.682 57.1269 227.637 57.1414 227.598C57.1559 227.558 57.2005 227.538 57.2404 227.552L57.8551 227.774C58.2319 227.91 58.4638 228.281 58.4204 228.677L58.3805 229.038C58.3757 229.078 58.3431 229.107 58.3044 229.107H58.3032Z" fill="#1A1A1A"/>
<path d="M64.5316 321.836C63.941 321.836 63.4724 321.516 63.0509 321.159C63.0135 321.126 63.0086 321.07 63.0412 321.032C63.0739 320.994 63.1306 320.99 63.1693 321.022C63.6258 321.409 64.1391 321.749 64.8021 321.631C65.4398 319.805 66.319 318.069 67.4156 316.472C67.4434 316.431 67.5002 316.42 67.5412 316.448C67.5823 316.475 67.5932 316.532 67.5654 316.572C66.4688 318.171 65.5908 319.909 64.9567 321.738C64.9458 321.768 64.9205 321.79 64.8903 321.797C64.7659 321.823 64.6475 321.835 64.5328 321.835L64.5316 321.836Z" fill="white"/>
<path d="M80.9341 293.786C80.9232 293.786 80.9111 293.784 80.9002 293.78C80.8543 293.762 80.8314 293.709 80.8495 293.664L81.3857 292.324L79.5222 290.749C79.4836 290.717 79.4799 290.661 79.5113 290.622C79.544 290.584 79.6007 290.58 79.6394 290.611L81.5524 292.228C81.5826 292.253 81.5923 292.294 81.5778 292.33L81.0174 293.73C81.0029 293.764 80.9691 293.786 80.9328 293.786H80.9341Z" fill="white"/>
</g>
<g clip-path="url(#clip7_160_486)">
<path d="M202.422 326.495L210.231 326.136C210.616 326.118 210.999 326.182 211.359 326.322L211.934 326.545C213.774 327.26 214.319 329.627 212.981 331.088C212.501 331.612 211.844 331.932 211.139 331.985C209.413 332.115 205.871 332.317 201.944 332.181L202.325 326.399" fill="#F95F9E"/>
<path d="M207.541 313.868L220.65 314.782C220.65 314.782 229.911 310.869 232.983 310.375C236.055 309.88 238.018 310.139 239.4 312.266C240.783 314.392 240.166 318.138 237.607 320.411C235.048 322.683 229.09 325.442 229.09 325.442C229.09 325.442 219.947 328.914 216.654 329.515C213.361 330.115 212.923 330.107 212.923 330.107C212.923 330.107 211.822 330.528 211.484 325.216C211.146 319.904 209.363 321.639 209.363 321.639C209.363 321.639 207.546 313.536 207.539 313.868H207.541Z" fill="#5C49D8"/>
<path d="M220.775 319.946C220.745 319.946 220.716 319.93 220.703 319.901C220.685 319.861 220.703 319.814 220.743 319.796L229.789 315.659C229.829 315.641 229.875 315.659 229.893 315.698C229.911 315.738 229.893 315.785 229.854 315.803L220.807 319.94C220.796 319.945 220.785 319.948 220.775 319.948V319.946Z" fill="white"/>
<path d="M217.335 316.677C217.303 316.677 217.272 316.656 217.261 316.622C217.247 316.582 217.269 316.537 217.31 316.523C218.828 316.008 221.137 314.844 221.161 314.832C221.2 314.813 221.246 314.829 221.265 314.867C221.284 314.906 221.269 314.954 221.231 314.973C221.207 314.985 218.89 316.153 217.361 316.672C217.353 316.674 217.344 316.675 217.336 316.675L217.335 316.677Z" fill="white"/>
<path d="M212.755 311.634C206.772 311.634 202.318 309.796 202.261 309.772C202.22 309.755 202.201 309.708 202.218 309.667C202.235 309.626 202.281 309.607 202.322 309.624C202.397 309.655 209.872 312.739 218.464 310.878C218.506 310.869 218.549 310.896 218.558 310.939C218.567 310.982 218.54 311.026 218.497 311.034C216.498 311.467 214.557 311.633 212.757 311.633L212.755 311.634Z" fill="#1A1A1A"/>
<path d="M239.574 313.32C239.565 313.32 239.555 313.319 239.546 313.315L237.672 312.592C237.63 312.576 237.61 312.529 237.625 312.489C237.641 312.448 237.687 312.426 237.728 312.442L239.602 313.165C239.643 313.18 239.664 313.227 239.648 313.268C239.636 313.301 239.605 313.32 239.574 313.32Z" fill="#1A1A1A"/>
<path d="M224.167 287.9C224.167 287.9 225.258 286.947 228.053 291.986C230.847 297.024 232.984 302.807 232.984 302.807C232.984 302.807 234.736 306.417 233.621 308.561C232.507 310.704 229.616 310.537 228.126 309.966C226.637 309.394 221.694 304.529 221.694 304.529L221.93 303.451L222.138 298.173L222.73 294.822L224.166 287.9H224.167Z" fill="#F95F9E"/>
<path d="M205.741 306.399C205.662 305.235 204.571 305.155 204.135 304.038L202.833 303.44L210.058 293.148C210.058 293.148 210.422 283.742 206.268 287.882C202.112 292.022 195.124 302.729 194.309 306.07C193.492 309.411 194.426 310.946 195.599 311.295C196.568 311.584 201.81 310.92 205.98 309.628C205.86 308.556 205.815 307.471 205.743 306.399H205.741Z" fill="#F95F9E"/>
<path d="M208.636 286.614L219.482 285.625L225.289 288.421C225.982 288.673 226.482 289.323 226.582 290.1L225.693 294.702C225.693 294.702 225.39 295.808 224.908 297.51C224.744 298.09 225.752 299.019 225.337 301.643C224.863 304.635 221.867 303.196 221.547 304.275C220.161 308.945 219.888 311.696 219.313 314.647C219.313 314.647 219.901 315.525 210.819 315.126C201.735 314.726 200.016 309.709 200.016 309.709L204.491 303.198L205.756 290.113L206.957 287.944C207.224 287.185 207.881 286.664 208.636 286.614V286.614Z" fill="#F95F9E"/>
<path d="M221.709 303.238C221.668 303.238 221.634 303.207 221.631 303.165C221.628 303.121 221.66 303.083 221.703 303.08C224.672 302.854 225.569 300.211 225.669 299.883C224.663 298.331 224.516 296.278 224.514 296.258C224.511 296.214 224.544 296.177 224.586 296.173C224.629 296.17 224.666 296.204 224.67 296.247C224.671 296.267 224.817 298.307 225.819 299.826L225.838 299.856L225.828 299.891C225.82 299.922 224.975 302.99 221.713 303.239C221.711 303.239 221.71 303.239 221.707 303.239L221.709 303.238Z" fill="white"/>
<path d="M217.699 292.82C216.954 292.82 216.211 292.636 215.567 292.266C214.209 291.484 213.332 289.897 213.388 288.318C213.389 288.275 213.426 288.245 213.469 288.243C213.512 288.244 213.545 288.281 213.544 288.324C213.491 289.846 214.335 291.376 215.645 292.13C216.954 292.883 218.687 292.837 219.955 292.014C219.992 291.99 220.039 292.001 220.063 292.038C220.087 292.075 220.076 292.124 220.039 292.148C219.348 292.597 218.522 292.823 217.699 292.823V292.82Z" fill="white"/>
<path d="M204.11 304.892C204.472 304.413 204.995 304.085 205.58 303.968L215.902 301.901C216.183 301.827 216.48 301.87 216.728 302.023L221.43 304.926L221.122 305.112C220.864 305.268 220.548 305.288 220.273 305.165L216.483 303.48L217.492 304.261C217.683 304.407 217.792 304.637 217.788 304.879L217.769 305.874C217.763 306.184 217.585 306.465 217.31 306.601L215.005 307.742C214.871 307.81 214.718 307.833 214.569 307.807L212.885 307.529C212.543 307.473 212.272 307.209 212.205 306.867L212.156 306.625L210.532 306.907L209.466 306.31L204.789 307.699C204.108 307.901 203.426 307.385 203.426 306.668C203.463 306.08 203.757 305.358 204.112 304.89L204.11 304.892Z" fill="#FCC5B6"/>
<path d="M216.737 306.761C216.717 306.761 216.697 306.752 216.681 306.737C216.652 306.705 216.653 306.655 216.684 306.625C216.818 306.494 216.887 306.311 216.874 306.122L216.801 305.122C216.786 304.938 216.695 304.771 216.548 304.661L215.5 303.882C215.466 303.856 215.459 303.807 215.484 303.771C215.509 303.736 215.557 303.728 215.593 303.754L216.641 304.534C216.824 304.67 216.94 304.88 216.956 305.11L217.03 306.11C217.048 306.346 216.961 306.574 216.792 306.738C216.777 306.752 216.758 306.76 216.739 306.76L216.737 306.761Z" fill="#1A1A1A"/>
<path d="M215.869 307.296C215.849 307.296 215.829 307.288 215.813 307.272C215.784 307.241 215.785 307.19 215.816 307.16C215.95 307.029 216.019 306.846 216.006 306.657L215.932 305.657C215.918 305.473 215.826 305.306 215.68 305.197L214.632 304.417C214.598 304.392 214.59 304.342 214.615 304.306C214.64 304.271 214.689 304.263 214.725 304.289L215.773 305.069C215.956 305.205 216.072 305.416 216.088 305.645L216.162 306.645C216.18 306.881 216.093 307.11 215.924 307.273C215.909 307.288 215.889 307.295 215.87 307.295L215.869 307.296Z" fill="#1A1A1A"/>
<path d="M214.845 307.827C214.825 307.827 214.804 307.818 214.789 307.803C214.759 307.771 214.76 307.721 214.791 307.691C214.926 307.56 214.995 307.377 214.982 307.188L214.908 306.188C214.894 306.004 214.802 305.837 214.656 305.727L213.608 304.948C213.573 304.922 213.566 304.873 213.591 304.837C213.616 304.802 213.665 304.794 213.701 304.82L214.748 305.6C214.932 305.736 215.047 305.946 215.064 306.176L215.138 307.176C215.156 307.412 215.069 307.64 214.9 307.804C214.884 307.818 214.865 307.825 214.846 307.825L214.845 307.827Z" fill="#1A1A1A"/>
<path d="M213.85 306.782C213.85 306.782 213.845 306.782 213.844 306.782L212.597 306.679C212.554 306.675 212.522 306.637 212.526 306.593C212.529 306.55 212.567 306.52 212.61 306.521L213.857 306.625C213.9 306.628 213.932 306.667 213.928 306.71C213.925 306.751 213.89 306.782 213.851 306.782H213.85Z" fill="#1A1A1A"/>
<path d="M228.448 312.964L208.702 312.885L208.741 313.234C208.802 313.776 209.256 314.185 209.795 314.185L229.404 314.154L228.448 312.965V312.964Z" fill="#382A73"/>
<path d="M242.986 299.872L222.125 300.128C221.65 300.134 221.244 300.477 221.154 300.949L218.673 314.062L240.162 314.201C240.792 314.204 241.337 313.76 241.467 313.137L243.977 301.089C244.109 300.456 243.626 299.863 242.986 299.871V299.872Z" fill="#FFC257"/>
<path d="M231.377 307.409C231.184 307.011 231.165 306.513 231.389 306.131C231.898 305.264 233.302 305.642 233.237 306.661C233.171 307.68 231.972 308.639 231.377 307.409Z" fill="white"/>
<path d="M218.198 314.161C218.191 314.161 218.183 314.161 218.177 314.161C218.138 314.16 218.107 314.126 218.108 314.086C218.11 314.047 218.142 314.016 218.18 314.016C218.186 314.016 218.192 314.016 218.198 314.016C218.432 314.016 218.628 313.831 218.718 313.642C218.831 313.409 218.835 313.131 218.825 312.914C218.824 312.875 218.854 312.84 218.894 312.839C218.935 312.841 218.968 312.867 218.969 312.908C218.979 313.142 218.975 313.444 218.848 313.706C218.737 313.935 218.494 314.161 218.198 314.161V314.161Z" fill="white"/>
<path d="M216.117 313.653C216.083 313.653 216.05 313.652 216.02 313.651L215.26 313.616C215.22 313.613 215.189 313.58 215.19 313.54C215.192 313.5 215.229 313.473 215.265 313.47L216.026 313.505C216.145 313.51 216.243 313.511 216.32 313.465C216.359 313.443 216.389 313.397 216.397 313.352C216.4 313.333 216.4 313.304 216.381 313.283C216.355 313.252 216.359 313.207 216.389 313.18C216.419 313.154 216.464 313.157 216.491 313.189C216.534 313.239 216.55 313.305 216.538 313.376C216.524 313.464 216.468 313.546 216.393 313.591C216.306 313.643 216.207 313.653 216.117 313.653V313.653Z" fill="white"/>
<path d="M227.846 281.76C227.528 282.188 227.172 282.582 226.783 282.937C225.408 284.188 222.467 283.625 220.881 283.148C218.926 282.558 217.136 281.52 215.38 280.468C214.876 280.166 214.353 279.844 214.047 279.34C213.607 278.617 213.707 277.696 213.822 276.854C214.038 275.29 214.287 273.641 215.265 272.41C216.154 271.292 217.522 270.682 218.877 270.258C220.025 269.898 221.219 269.639 222.42 269.68C225.421 269.783 228.247 271.948 229.153 274.84C229.485 275.894 229.551 277.023 229.387 278.114C229.212 279.277 228.768 280.571 228.02 281.489C227.31 282.36 227.063 283.408 226.734 284.496C225.952 287.083 226.121 289.692 226.01 292.384C223.312 291.753 220.06 290.674 217.766 289.107C217.965 287.836 218.192 286.556 218.392 285.286C218.666 283.536 218.961 281.732 219.902 280.239C220.843 278.744 222.612 277.633 224.321 278.027C225.184 278.227 225.936 278.784 226.51 279.466C227.084 280.148 227.473 280.948 227.847 281.759L227.846 281.76Z" fill="#382A73"/>
<path d="M228.113 275.453C227.815 274.405 227.217 273.429 226.357 272.772C225.432 272.065 224.267 271.759 223.118 271.61C222.132 271.483 221.111 271.462 220.164 271.769C218.879 272.183 217.824 273.182 217.183 274.382C216.541 275.579 216.287 276.961 216.286 278.323C216.285 279.667 216.521 280.999 216.812 282.309C216.734 282.78 216.655 283.25 216.578 283.719C216.812 283.747 217.039 283.89 217.121 284.173C217.659 286.018 218.843 287.639 220.442 288.664C220.96 288.849 221.502 288.973 222.048 288.997C222.873 289.033 223.72 288.836 224.393 288.353C225.151 287.813 225.633 286.965 226.023 286.116C227.125 283.718 227.687 281.108 228.229 278.522C228.452 277.455 228.413 276.501 228.114 275.453H228.113Z" fill="#FCC5B6"/>
<path d="M223.221 279.212C223.197 279.212 223.172 279.204 223.153 279.186C222.373 278.466 221.218 278.208 220.211 278.524C220.157 278.541 220.101 278.511 220.085 278.457C220.068 278.403 220.098 278.346 220.151 278.329C221.227 277.991 222.459 278.268 223.29 279.035C223.332 279.074 223.334 279.138 223.296 279.18C223.276 279.201 223.248 279.214 223.221 279.214V279.212Z" fill="black"/>
<path d="M216.459 283.314L214.846 286.409C214.595 286.892 214.46 287.427 214.454 287.972C214.433 289.745 215.818 291.21 217.572 291.27C218.218 291.291 218.829 290.967 219.177 290.416L222.203 285.627L216.459 283.312V283.314Z" fill="#FCC5B6"/>
<path d="M223.749 283.88C223.698 283.88 223.647 283.878 223.596 283.872C223.54 283.866 223.501 283.815 223.506 283.76C223.512 283.705 223.56 283.664 223.617 283.67C223.928 283.703 224.259 283.617 224.573 283.419C224.673 283.356 224.746 283.253 224.772 283.136C224.797 283.021 224.778 282.905 224.716 282.807C224.222 282.032 224.021 281.064 224.163 280.151L224.167 280.119L224.189 280.097C224.602 279.654 225.208 279.401 225.81 279.424C226.413 279.446 227 279.74 227.381 280.212C227.417 280.255 227.409 280.32 227.367 280.355C227.324 280.391 227.259 280.384 227.225 280.341C226.88 279.914 226.349 279.648 225.803 279.629C225.272 279.607 224.73 279.828 224.358 280.216C224.233 281.071 224.424 281.975 224.886 282.699C224.978 282.842 225.008 283.014 224.97 283.182C224.932 283.352 224.827 283.503 224.68 283.595C224.378 283.785 224.06 283.884 223.749 283.884V283.88Z" fill="black"/>
<path d="M217.541 291.181C216.465 290.525 215.517 289.723 214.605 289.024C213.693 288.323 213.056 287.817 212.725 286.709C212.492 285.93 212.764 284.565 212.85 283.755C213.106 281.331 213.586 278.891 214.057 276.101C214.167 275.453 214.549 275.295 215.035 274.856C215.52 274.417 216.303 274.248 216.827 274.641C217.334 275.022 217.418 275.743 217.458 276.38C217.543 277.719 217.64 279.058 217.712 280.399C217.77 281.492 217.472 282.599 217.372 283.689C217.258 284.936 217.215 286.189 217.243 287.44C217.257 288.086 217.29 288.731 217.343 289.376C217.381 289.85 217.309 290.768 217.54 291.182L217.541 291.181Z" fill="#382A73"/>
<path d="M223.146 286.728C223.146 286.728 223.14 286.728 223.137 286.728C222.579 286.682 222.041 286.485 221.583 286.158C221.538 286.125 221.527 286.062 221.56 286.016C221.592 285.97 221.655 285.958 221.7 285.992C222.129 286.297 222.631 286.483 223.154 286.525C223.21 286.53 223.25 286.579 223.247 286.635C223.242 286.688 223.198 286.729 223.147 286.729L223.146 286.728Z" fill="black"/>
<path d="M223.186 284.398C222.757 284.309 222.291 284.429 221.957 284.715C221.937 284.733 222.922 285.224 223.024 285.255C223.399 285.373 223.87 285.479 224.26 285.407C224.024 284.911 223.773 284.519 223.187 284.396L223.186 284.398Z" fill="#FF7582"/>
<path d="M224.442 285.551H224.438C223.452 285.514 222.49 285.211 221.658 284.674C221.611 284.644 221.597 284.581 221.627 284.534C221.657 284.486 221.719 284.472 221.766 284.502C222.568 285.018 223.494 285.311 224.445 285.347C224.501 285.349 224.544 285.396 224.543 285.453C224.54 285.508 224.496 285.551 224.442 285.551V285.551Z" fill="black"/>
<path d="M221.271 280.32C221.198 280.646 221.292 280.945 221.48 280.988C221.668 281.03 221.879 280.8 221.952 280.474C222.024 280.148 221.93 279.85 221.742 279.807C221.554 279.765 221.343 279.994 221.271 280.32Z" fill="black"/>
<path d="M225.373 281.438C225.301 281.764 225.395 282.062 225.583 282.106C225.771 282.149 225.982 281.918 226.054 281.592C226.127 281.266 226.033 280.968 225.845 280.924C225.657 280.882 225.446 281.112 225.373 281.438Z" fill="black"/>
<path d="M221.614 280.221C221.603 280.221 221.591 280.218 221.58 280.215C221.254 280.093 220.956 279.915 220.693 279.685C220.651 279.648 220.646 279.584 220.682 279.541C220.718 279.497 220.782 279.494 220.825 279.53C221.069 279.743 221.347 279.909 221.65 280.022C221.703 280.041 221.729 280.1 221.71 280.153C221.694 280.194 221.656 280.219 221.614 280.219V280.221Z" fill="black"/>
<path d="M226.139 281.475C226.048 281.475 225.958 281.471 225.868 281.46C225.812 281.454 225.773 281.403 225.779 281.347C225.785 281.29 225.835 281.249 225.891 281.256C226.205 281.293 226.529 281.259 226.829 281.16C226.883 281.142 226.939 281.172 226.956 281.225C226.974 281.279 226.945 281.336 226.892 281.354C226.65 281.434 226.394 281.474 226.139 281.474V281.475Z" fill="black"/>
<path d="M228.792 279.571C226.051 278.545 223.579 276.792 221.692 274.536C221.013 275.816 220.328 277.125 219.2 278.022C218.396 278.661 217.403 279.052 216.383 279.134C215.962 279.168 215.526 279.146 215.144 278.967C214.762 278.788 214.444 278.424 214.41 278.001C214.383 277.681 214.516 277.373 214.644 277.08C215.017 276.235 215.394 275.387 215.9 274.615C216.406 273.844 217.048 273.145 217.851 272.698C218.962 272.078 220.308 271.987 221.549 272.25C222.79 272.515 223.939 273.111 225.005 273.806C226.02 274.466 226.987 275.231 227.715 276.203C228.444 277.176 228.922 278.375 228.874 279.594C228.758 279.601 228.751 279.683 228.792 279.573V279.571Z" fill="#382A73"/>
<path d="M216.486 277.909C216.011 278.068 215.698 278.54 215.56 279.026C215.373 279.682 215.448 280.408 215.763 281.011C216.077 281.614 216.629 282.086 217.27 282.301C217.534 282.388 217.838 282.431 218.078 282.29C218.315 282.15 218.43 281.872 218.512 281.608C218.745 280.861 219.008 279.944 218.558 279.241C218.108 278.54 217.464 277.585 216.486 277.909V277.909Z" fill="#FCC5B6"/>
<path d="M216.673 280.348C216.667 280.348 216.661 280.348 216.655 280.347C216.6 280.336 216.563 280.283 216.574 280.228C216.671 279.696 217.083 279.244 217.598 279.102C217.652 279.087 217.708 279.118 217.722 279.174C217.736 279.228 217.705 279.285 217.65 279.299C217.208 279.42 216.855 279.809 216.772 280.265C216.762 280.314 216.721 280.349 216.673 280.349V280.348Z" fill="black"/>
<path d="M226.974 272.402C228.095 273.498 228.824 274.997 228.998 276.564C229.06 277.126 228.99 277.81 228.494 278.073C227.954 278.361 227.316 277.944 226.87 277.522C225.639 276.357 224.573 274.945 223.058 274.198C221.902 273.628 220.576 273.496 219.402 272.967C218.89 272.736 218.339 272.266 218.482 271.718C218.59 271.301 219.049 271.095 219.459 270.978C222.362 270.151 225.676 271.013 227.822 273.155" fill="#382A73"/>
<path d="M220.822 288.504C220.809 288.504 220.795 288.501 220.782 288.495C219.592 287.973 218.589 287.055 217.955 285.912C217.928 285.863 217.946 285.8 217.995 285.774C218.043 285.746 218.105 285.764 218.131 285.814C218.743 286.918 219.713 287.805 220.863 288.309C220.914 288.332 220.938 288.392 220.915 288.444C220.899 288.482 220.862 288.505 220.822 288.505V288.504Z" fill="black"/>
<path d="M202.698 308.826C202.076 308.826 201.487 308.459 201.223 307.846C200.949 307.212 200.958 306.489 201.246 305.861L201.583 305.127C201.814 304.624 202.276 304.277 202.819 304.199L205.309 303.84C205.351 303.833 205.392 303.864 205.398 303.907C205.403 303.95 205.374 303.99 205.331 303.996L202.84 304.356C202.349 304.427 201.933 304.739 201.724 305.194L201.387 305.928C201.118 306.515 201.111 307.191 201.366 307.783C201.68 308.511 202.501 308.855 203.233 308.565L204.581 308.032C204.621 308.017 204.666 308.037 204.682 308.077C204.697 308.118 204.678 308.163 204.638 308.179L203.29 308.712C203.096 308.789 202.895 308.825 202.698 308.825V308.826Z" fill="white"/>
<path d="M203.721 303.937C203.708 303.937 203.695 303.933 203.683 303.926L203.036 303.553C202.386 303.178 201.646 302.965 200.897 302.937L198.744 302.859C198.701 302.858 198.668 302.821 198.669 302.777C198.67 302.734 198.706 302.7 198.75 302.701L200.903 302.78C201.677 302.807 202.442 303.027 203.114 303.416L203.76 303.789C203.797 303.811 203.81 303.859 203.789 303.896C203.775 303.921 203.748 303.936 203.721 303.936V303.937Z" fill="white"/>
<path d="M203.01 302.979C202.994 302.979 202.978 302.975 202.964 302.964C202.929 302.937 202.922 302.888 202.948 302.853L207.094 297.229C207.121 297.194 207.168 297.187 207.204 297.213C207.238 297.239 207.246 297.289 207.219 297.324L203.073 302.948C203.058 302.969 203.034 302.979 203.01 302.979V302.979Z" fill="white"/>
<path d="M202.635 310.619C202.605 310.619 202.577 310.601 202.564 310.572C202.546 310.532 202.564 310.485 202.604 310.469C202.914 310.331 203.18 310.11 203.374 309.83L203.895 309.079C203.92 309.044 203.969 309.034 204.003 309.06C204.039 309.085 204.047 309.134 204.022 309.169L203.502 309.92C203.291 310.224 203.003 310.464 202.666 310.613C202.655 310.618 202.646 310.62 202.635 310.62V310.619Z" fill="white"/>
<path d="M201.31 315.993C201.274 315.993 201.242 315.97 201.23 315.935C201.215 315.891 201.239 315.843 201.283 315.827C202.922 315.274 204.348 314.006 205.101 312.434C205.121 312.392 205.171 312.374 205.213 312.395C205.254 312.415 205.272 312.466 205.252 312.508C204.47 314.144 203.042 315.412 201.337 315.988C201.327 315.992 201.319 315.993 201.311 315.993H201.31Z" fill="white"/>
<path d="M237.652 326.11L229.842 325.751C229.457 325.733 229.074 325.797 228.714 325.937L228.139 326.16C226.3 326.875 225.754 329.242 227.093 330.703C227.572 331.227 228.23 331.547 228.935 331.6C230.66 331.73 234.202 331.932 238.129 331.796L237.748 326.014" fill="#F95F9E"/>
<path d="M229.117 325.627L233.79 326.206H237.796L239.798 328.422L238.559 330.253C238.559 330.253 236.561 331.52 232.264 331.313C230.887 331.247 229.82 330.988 229.069 330.727C228.289 330.457 227.619 329.938 227.157 329.249L225.73 327.122L229.117 325.627V325.627Z" fill="white"/>
<path d="M205.705 330.191C205.705 330.191 198.869 327.297 196.329 322.717C193.789 318.137 193.738 315.041 194.545 312.847C195.353 310.653 199.627 310.181 199.627 310.181C199.627 310.181 201.711 309.889 206.264 312.076C210.817 314.263 223.792 322.357 223.792 322.357L226.061 323.837C226.061 323.837 226.689 325.396 225.008 327.575C223.326 329.754 221.471 329.497 221.471 329.497L211.798 326.217L209.7 327.282L208.338 329.908L205.708 330.19L205.705 330.191Z" fill="#5C49D8"/>
<path d="M225.633 323.277L230.504 326.022C230.504 326.022 231.354 327.365 230.786 328.458C230.218 329.553 229.443 330.091 229.443 330.091L224.003 328.55C224.003 328.55 224.886 328.125 225.577 326.259C226.268 324.393 225.633 323.277 225.633 323.277V323.277Z" fill="#FCC5B6"/>
<path d="M211.329 326.206L206.285 326.591H202.279L200.276 328.807L201.516 330.638C201.516 330.638 203.514 331.905 207.811 331.698C209.187 331.632 210.254 331.373 211.006 331.112C211.785 330.842 212.456 330.323 212.918 329.634L211.999 328.036L211.331 326.205L211.329 326.206Z" fill="white"/>
<path d="M206.332 325.627L206.612 326.4C207.119 327.797 207.324 329.286 207.213 330.769L207.094 332.374H201.275C200.311 332.374 199.398 331.935 198.789 331.178C197.89 330.06 197.831 328.475 198.644 327.291L198.732 327.163C199.312 326.318 200.255 325.803 201.272 325.774L206.331 325.629L206.332 325.627Z" fill="#F95F9E"/>
<path d="M206.903 333C206.816 333 206.727 332.984 206.641 332.949C206.273 332.803 206.094 332.383 206.239 332.012L206.346 331.739C207.071 329.884 206.775 327.748 205.574 326.165C205.334 325.849 205.394 325.395 205.707 325.152C206.02 324.909 206.469 324.969 206.709 325.286C208.214 327.27 208.585 329.945 207.676 332.271L207.569 332.544C207.458 332.828 207.188 333.001 206.903 333.001V333Z" fill="#F9D6E4"/>
<path d="M211.799 325.997L209.419 326.541C209.419 326.541 208.919 327.931 209.664 329.05C210.409 330.169 210.838 330.62 210.838 330.62L214.133 329.909C214.133 329.909 213.078 329.095 212.311 327.886C211.461 326.543 211.799 325.997 211.799 325.997V325.997Z" fill="#FCC5B6"/>
<path d="M219.297 328.76C219.297 328.76 219.286 328.76 219.28 328.759C214.208 327.676 200.95 320.733 200.817 320.663C200.779 320.643 200.763 320.596 200.783 320.558C200.804 320.519 200.85 320.503 200.888 320.524C201.021 320.594 214.261 327.527 219.311 328.605C219.353 328.615 219.38 328.656 219.372 328.699C219.364 328.736 219.332 328.761 219.296 328.761L219.297 328.76Z" fill="white"/>
<path d="M225.092 322.887C225.079 322.887 225.066 322.883 225.052 322.876L212.074 315.361C212.037 315.34 212.024 315.292 212.045 315.254C212.067 315.217 212.115 315.204 212.151 315.226L225.13 322.74C225.167 322.762 225.18 322.81 225.158 322.847C225.144 322.872 225.118 322.887 225.091 322.887H225.092Z" fill="white"/>
<path d="M197.329 314.604C197.316 314.604 197.303 314.6 197.291 314.594C197.253 314.572 197.24 314.524 197.261 314.487C197.786 313.544 198.402 312.645 199.09 311.817C199.118 311.784 199.168 311.78 199.2 311.808C199.233 311.835 199.237 311.886 199.209 311.918C198.527 312.739 197.917 313.629 197.397 314.564C197.383 314.589 197.357 314.604 197.329 314.604V314.604Z" fill="white"/>
<path d="M233.741 325.242L233.462 326.015C232.954 327.412 232.75 328.901 232.86 330.384L232.979 331.988H238.798C239.763 331.988 240.676 331.549 241.284 330.792C242.183 329.673 242.243 328.089 241.43 326.905L241.341 326.776C240.762 325.932 239.819 325.417 238.802 325.388L233.743 325.242H233.741Z" fill="#F95F9E"/>
<path d="M233.169 332.614C232.885 332.614 232.615 332.441 232.504 332.157L232.397 331.884C231.488 329.559 231.86 326.882 233.365 324.898C233.605 324.582 234.054 324.522 234.367 324.765C234.68 325.008 234.74 325.461 234.499 325.778C233.298 327.361 233.003 329.497 233.727 331.352L233.834 331.625C233.979 331.997 233.798 332.417 233.431 332.562C233.346 332.597 233.256 332.613 233.169 332.613V332.614Z" fill="#F9D6E4"/>
<path d="M217.596 274.388C219.888 274.388 221.747 272.51 221.747 270.194C221.747 267.878 219.888 266 217.596 266C215.304 266 213.445 267.878 213.445 270.194C213.445 272.51 215.304 274.388 217.596 274.388Z" fill="#382A73"/>
</g>
<defs>
<linearGradient id="paint0_linear_160_486" x1="144.5" y1="51" x2="144.5" y2="313" gradientUnits="userSpaceOnUse">
<stop stop-color="#C1B8FF" stop-opacity="0.9375"/>
<stop offset="0.84375" stop-color="#CAC1FF" stop-opacity="0"/>
</linearGradient>
<linearGradient id="paint1_linear_160_486" x1="145.5" y1="275" x2="145.5" y2="283" gradientUnits="userSpaceOnUse">
<stop stop-color="#DBE3FF"/>
<stop offset="1" stop-color="#859FFD"/>
</linearGradient>
<linearGradient id="paint2_linear_160_486" x1="102.5" y1="174" x2="136" y2="216" gradientUnits="userSpaceOnUse">
<stop stop-color="#B9C8FF"/>
<stop offset="1" stop-color="#6380EB"/>
</linearGradient>
<linearGradient id="paint3_linear_160_486" x1="179.57" y1="251.754" x2="159.302" y2="202" gradientUnits="userSpaceOnUse">
<stop stop-color="#B9C8FF"/>
<stop offset="1" stop-color="#6380EB"/>
</linearGradient>
<linearGradient id="paint4_linear_160_486" x1="146.999" y1="165" x2="146.999" y2="196.999" gradientUnits="userSpaceOnUse">
<stop stop-color="#B4C4FF"/>
<stop offset="1" stop-color="#6787FC"/>
</linearGradient>
<clipPath id="clip0_160_486">
<rect width="232" height="192" fill="white" transform="translate(32 112)"/>
</clipPath>
<clipPath id="clip1_160_486">
<rect width="30" height="23" fill="white" transform="translate(106 141)"/>
</clipPath>
<clipPath id="clip2_160_486">
<rect width="32" height="40" fill="white" transform="translate(104 176)"/>
</clipPath>
<clipPath id="clip3_160_486">
<rect width="32" height="40" fill="white" transform="translate(178.696 249.412) rotate(-163.588)"/>
</clipPath>
<clipPath id="clip4_160_486">
<rect width="44" height="32" fill="white" transform="translate(125 165)"/>
</clipPath>
<clipPath id="clip5_160_486">
<rect width="51" height="113" fill="white" transform="translate(161 36)"/>
</clipPath>
<clipPath id="clip6_160_486">
<rect width="42" height="123" fill="white" transform="translate(46 206)"/>
</clipPath>
<clipPath id="clip7_160_486">
<rect width="50" height="67" fill="white" transform="translate(194 266)"/>
</clipPath>
</defs>
</svg>
