<svg width="326" height="247" viewBox="0 0 326 247" fill="none" xmlns="http://www.w3.org/2000/svg">
<path d="M252.57 242.092C265.817 242.092 276.557 241.233 276.557 240.174C276.557 239.115 265.817 238.256 252.57 238.256C239.322 238.256 228.583 239.115 228.583 240.174C228.583 241.233 239.322 242.092 252.57 242.092Z" fill="#E0F7FA"/>
<path d="M214.852 236.464C276.237 236.464 326 235.18 326 233.596C326 232.012 276.237 230.729 214.852 230.729C153.467 230.729 103.704 232.012 103.704 233.596C103.704 235.18 153.467 236.464 214.852 236.464Z" fill="#E0F7FA"/>
<path d="M107.042 245.679C131.19 245.679 150.766 243.073 150.766 239.857C150.766 236.642 131.19 234.035 107.042 234.035C82.8935 234.035 63.3174 236.642 63.3174 239.857C63.3174 243.073 82.8935 245.679 107.042 245.679Z" fill="#E0F7FA"/>
<path d="M250.938 109.632C264.637 95.9441 264.637 73.7512 250.938 60.063C237.239 46.3748 215.028 46.3748 201.329 60.063C187.631 73.7512 187.631 95.9441 201.329 109.632C215.028 123.321 237.239 123.32 250.938 109.632Z" fill="#E0F7FA"/>
<path d="M188.96 120.355C197.732 120.355 204.844 113.249 204.844 104.483C204.844 95.7172 197.732 88.6111 188.96 88.6111C180.187 88.6111 173.075 95.7172 173.075 104.483C173.075 113.249 180.187 120.355 188.96 120.355Z" fill="#E0F7FA"/>
<path d="M289.863 113.136C299.5 103.508 299.5 87.8967 289.863 78.2682C280.227 68.6396 264.604 68.6396 254.968 78.2682C245.332 87.8967 245.332 103.508 254.968 113.136C264.604 122.765 280.227 122.765 289.863 113.136Z" fill="#E0F7FA"/>
<path d="M188.96 120.355H272.415V99.719H190.552L188.96 120.355Z" fill="#E0F7FA"/>
<path d="M141.422 51.2323C150.226 51.2323 157.364 44.1004 157.364 35.3027C157.364 26.5051 150.226 19.3732 141.422 19.3732C132.617 19.3732 125.479 26.5051 125.479 35.3027C125.479 44.1004 132.617 51.2323 141.422 51.2323Z" fill="#E0F7FA"/>
<path d="M124.529 51.441C128.516 51.441 131.749 48.211 131.749 44.2265C131.749 40.242 128.516 37.012 124.529 37.012C120.541 37.012 117.309 40.242 117.309 44.2265C117.309 48.211 120.541 51.441 124.529 51.441Z" fill="#E0F7FA"/>
<path d="M170.384 48.1597C174.763 43.7839 174.763 36.6893 170.384 32.3134C166.005 27.9376 158.904 27.9376 154.525 32.3134C150.146 36.6893 150.146 43.7839 154.525 48.1597C158.904 52.5356 166.005 52.5356 170.384 48.1597Z" fill="#E0F7FA"/>
<path d="M124.528 51.4409H162.455V42.0638H125.252L124.528 51.4409Z" fill="#E0F7FA"/>
<path d="M78.1906 178.68C78.9404 178.68 79.5482 178.072 79.5482 177.323C79.5482 176.574 78.9404 175.966 78.1906 175.966C77.4408 175.966 76.833 176.574 76.833 177.323C76.833 178.072 77.4408 178.68 78.1906 178.68Z" fill="#E0F7FA"/>
<path d="M71.2617 177.323C71.2617 178.025 71.8307 178.593 72.5329 178.593C73.2351 178.593 73.8041 178.025 73.8041 177.323C73.8041 176.621 73.2351 176.053 72.5329 176.053C71.8307 176.053 71.2617 176.621 71.2617 177.323Z" fill="#E0F7FA"/>
<path d="M65.6914 177.323C65.6914 177.978 66.2208 178.507 66.8762 178.507C67.5316 178.507 68.0609 177.978 68.0609 177.323C68.0609 176.668 67.5316 176.139 66.8762 176.139C66.2208 176.139 65.6914 176.668 65.6914 177.323Z" fill="#E0F7FA"/>
<path d="M60.1201 177.323C60.1201 177.931 60.6135 178.424 61.2221 178.424C61.8306 178.424 62.324 177.931 62.324 177.323C62.324 176.715 61.8306 176.222 61.2221 176.222C60.6135 176.222 60.1201 176.715 60.1201 177.323Z" fill="#E0F7FA"/>
<path d="M54.5459 177.323C54.5459 177.884 54.9996 178.338 55.5614 178.338C56.1232 178.338 56.5769 177.884 56.5769 177.323C56.5769 176.762 56.1232 176.308 55.5614 176.308C54.9996 176.308 54.5459 176.762 54.5459 177.323Z" fill="#E0F7FA"/>
<path d="M48.9746 177.323C48.9746 177.838 49.3923 178.251 49.9037 178.251C50.415 178.251 50.8328 177.834 50.8328 177.323C50.8328 176.812 50.415 176.395 49.9037 176.395C49.3923 176.395 48.9746 176.812 48.9746 177.323Z" fill="#E0F7FA"/>
<path d="M43.4043 177.323C43.4043 177.791 43.7824 178.169 44.2506 178.169C44.7187 178.169 45.0968 177.791 45.0968 177.323C45.0968 176.855 44.7187 176.477 44.2506 176.477C43.7824 176.477 43.4043 176.855 43.4043 177.323Z" fill="#E0F7FA"/>
<path d="M38.5889 178.082C39.0086 178.082 39.3488 177.742 39.3488 177.323C39.3488 176.904 39.0086 176.564 38.5889 176.564C38.1693 176.564 37.8291 176.904 37.8291 177.323C37.8291 177.742 38.1693 178.082 38.5889 178.082Z" fill="#E0F7FA"/>
<path d="M32.2588 177.323C32.2588 177.694 32.5613 177.996 32.9322 177.996C33.3031 177.996 33.6056 177.694 33.6056 177.323C33.6056 176.952 33.3031 176.65 32.9322 176.65C32.5613 176.65 32.2588 176.952 32.2588 177.323Z" fill="#E0F7FA"/>
<path d="M26.6846 177.323C26.6846 177.647 26.9475 177.909 27.2716 177.909C27.5956 177.909 27.8585 177.647 27.8585 177.323C27.8585 176.999 27.5956 176.736 27.2716 176.736C26.9475 176.736 26.6846 176.999 26.6846 177.323Z" fill="#E0F7FA"/>
<path d="M21.1133 177.323C21.1133 177.6 21.3401 177.827 21.6174 177.827C21.8947 177.827 22.1216 177.6 22.1216 177.323C22.1216 177.046 21.8947 176.819 21.6174 176.819C21.3401 176.819 21.1133 177.046 21.1133 177.323Z" fill="#E0F7FA"/>
<path d="M78.1906 186.078C78.9404 186.078 79.5482 185.47 79.5482 184.721C79.5482 183.972 78.9404 183.365 78.1906 183.365C77.4408 183.365 76.833 183.972 76.833 184.721C76.833 185.47 77.4408 186.078 78.1906 186.078Z" fill="#E0F7FA"/>
<path d="M71.2617 184.721C71.2617 185.423 71.8307 185.991 72.5329 185.991C73.2351 185.991 73.8041 185.423 73.8041 184.721C73.8041 184.019 73.2351 183.451 72.5329 183.451C71.8307 183.451 71.2617 184.019 71.2617 184.721Z" fill="#E0F7FA"/>
<path d="M65.6914 184.721C65.6914 185.376 66.2208 185.905 66.8762 185.905C67.5316 185.905 68.0609 185.376 68.0609 184.721C68.0609 184.066 67.5316 183.537 66.8762 183.537C66.2208 183.537 65.6914 184.066 65.6914 184.721Z" fill="#E0F7FA"/>
<path d="M60.1201 184.721C60.1201 185.329 60.6135 185.822 61.2221 185.822C61.8306 185.822 62.324 185.329 62.324 184.721C62.324 184.113 61.8306 183.62 61.2221 183.62C60.6135 183.62 60.1201 184.113 60.1201 184.721Z" fill="#E0F7FA"/>
<path d="M54.5459 184.721C54.5459 185.282 54.9996 185.736 55.5614 185.736C56.1232 185.736 56.5769 185.282 56.5769 184.721C56.5769 184.16 56.1232 183.706 55.5614 183.706C54.9996 183.706 54.5459 184.16 54.5459 184.721Z" fill="#E0F7FA"/>
<path d="M48.9746 184.721C48.9746 185.236 49.3923 185.649 49.9037 185.649C50.415 185.649 50.8328 185.232 50.8328 184.721C50.8328 184.21 50.415 183.793 49.9037 183.793C49.3923 183.793 48.9746 184.21 48.9746 184.721Z" fill="#E0F7FA"/>
<path d="M43.4043 184.721C43.4043 185.189 43.7824 185.567 44.2506 185.567C44.7187 185.567 45.0968 185.189 45.0968 184.721C45.0968 184.253 44.7187 183.875 44.2506 183.875C43.7824 183.875 43.4043 184.253 43.4043 184.721Z" fill="#E0F7FA"/>
<path d="M38.5889 185.48C39.0086 185.48 39.3488 185.14 39.3488 184.721C39.3488 184.302 39.0086 183.962 38.5889 183.962C38.1693 183.962 37.8291 184.302 37.8291 184.721C37.8291 185.14 38.1693 185.48 38.5889 185.48Z" fill="#E0F7FA"/>
<path d="M32.2588 184.721C32.2588 185.092 32.5613 185.394 32.9322 185.394C33.3031 185.394 33.6056 185.092 33.6056 184.721C33.6056 184.35 33.3031 184.048 32.9322 184.048C32.5613 184.048 32.2588 184.35 32.2588 184.721Z" fill="#E0F7FA"/>
<path d="M26.6846 184.721C26.6846 185.045 26.9475 185.308 27.2716 185.308C27.5956 185.308 27.8585 185.045 27.8585 184.721C27.8585 184.397 27.5956 184.135 27.2716 184.135C26.9475 184.135 26.6846 184.397 26.6846 184.721Z" fill="#E0F7FA"/>
<path d="M21.1133 184.721C21.1133 184.998 21.3401 185.225 21.6174 185.225C21.8947 185.225 22.1216 184.998 22.1216 184.721C22.1216 184.444 21.8947 184.217 21.6174 184.217C21.3401 184.217 21.1133 184.444 21.1133 184.721Z" fill="#E0F7FA"/>
<path d="M78.1906 193.476C78.9404 193.476 79.5482 192.868 79.5482 192.119C79.5482 191.37 78.9404 190.763 78.1906 190.763C77.4408 190.763 76.833 191.37 76.833 192.119C76.833 192.868 77.4408 193.476 78.1906 193.476Z" fill="#E0F7FA"/>
<path d="M71.2617 192.119C71.2617 192.821 71.8307 193.389 72.5329 193.389C73.2351 193.389 73.8041 192.821 73.8041 192.119C73.8041 191.417 73.2351 190.849 72.5329 190.849C71.8307 190.849 71.2617 191.417 71.2617 192.119Z" fill="#E0F7FA"/>
<path d="M65.6914 192.119C65.6914 192.774 66.2208 193.303 66.8762 193.303C67.5316 193.303 68.0609 192.774 68.0609 192.119C68.0609 191.464 67.5316 190.935 66.8762 190.935C66.2208 190.935 65.6914 191.464 65.6914 192.119Z" fill="#E0F7FA"/>
<path d="M60.1201 192.119C60.1201 192.727 60.6135 193.22 61.2221 193.22C61.8306 193.22 62.324 192.727 62.324 192.119C62.324 191.511 61.8306 191.018 61.2221 191.018C60.6135 191.018 60.1201 191.511 60.1201 192.119Z" fill="#E0F7FA"/>
<path d="M54.5459 192.119C54.5459 192.68 54.9996 193.134 55.5614 193.134C56.1232 193.134 56.5769 192.68 56.5769 192.119C56.5769 191.558 56.1232 191.104 55.5614 191.104C54.9996 191.104 54.5459 191.558 54.5459 192.119Z" fill="#E0F7FA"/>
<path d="M48.9746 192.119C48.9746 192.634 49.3923 193.047 49.9037 193.047C50.415 193.047 50.8328 192.63 50.8328 192.119C50.8328 191.608 50.415 191.191 49.9037 191.191C49.3923 191.191 48.9746 191.608 48.9746 192.119Z" fill="#E0F7FA"/>
<path d="M43.4043 192.119C43.4043 192.587 43.7824 192.965 44.2506 192.965C44.7187 192.965 45.0968 192.587 45.0968 192.119C45.0968 191.651 44.7187 191.274 44.2506 191.274C43.7824 191.274 43.4043 191.651 43.4043 192.119Z" fill="#E0F7FA"/>
<path d="M38.5889 192.878C39.0086 192.878 39.3488 192.538 39.3488 192.119C39.3488 191.7 39.0086 191.36 38.5889 191.36C38.1693 191.36 37.8291 191.7 37.8291 192.119C37.8291 192.538 38.1693 192.878 38.5889 192.878Z" fill="#E0F7FA"/>
<path d="M32.2588 192.119C32.2588 192.49 32.5613 192.792 32.9322 192.792C33.3031 192.792 33.6056 192.49 33.6056 192.119C33.6056 191.749 33.3031 191.446 32.9322 191.446C32.5613 191.446 32.2588 191.749 32.2588 192.119Z" fill="#E0F7FA"/>
<path d="M26.6846 192.119C26.6846 192.443 26.9475 192.706 27.2716 192.706C27.5956 192.706 27.8585 192.443 27.8585 192.119C27.8585 191.795 27.5956 191.533 27.2716 191.533C26.9475 191.533 26.6846 191.795 26.6846 192.119Z" fill="#E0F7FA"/>
<path d="M21.1133 192.119C21.1133 192.396 21.3401 192.623 21.6174 192.623C21.8947 192.623 22.1216 192.396 22.1216 192.119C22.1216 191.842 21.8947 191.615 21.6174 191.615C21.3401 191.615 21.1133 191.842 21.1133 192.119Z" fill="#E0F7FA"/>
<path d="M78.1906 200.874C78.9404 200.874 79.5482 200.266 79.5482 199.517C79.5482 198.768 78.9404 198.161 78.1906 198.161C77.4408 198.161 76.833 198.768 76.833 199.517C76.833 200.266 77.4408 200.874 78.1906 200.874Z" fill="#E0F7FA"/>
<path d="M71.2617 199.517C71.2617 200.219 71.8307 200.787 72.5329 200.787C73.2351 200.787 73.8041 200.219 73.8041 199.517C73.8041 198.815 73.2351 198.247 72.5329 198.247C71.8307 198.247 71.2617 198.815 71.2617 199.517Z" fill="#E0F7FA"/>
<path d="M65.6914 199.517C65.6914 200.172 66.2208 200.701 66.8762 200.701C67.5316 200.701 68.0609 200.172 68.0609 199.517C68.0609 198.862 67.5316 198.333 66.8762 198.333C66.2208 198.333 65.6914 198.862 65.6914 199.517Z" fill="#E0F7FA"/>
<path d="M60.1201 199.517C60.1201 200.125 60.6135 200.618 61.2221 200.618C61.8306 200.618 62.324 200.125 62.324 199.517C62.324 198.909 61.8306 198.416 61.2221 198.416C60.6135 198.416 60.1201 198.909 60.1201 199.517Z" fill="#E0F7FA"/>
<path d="M54.5459 199.517C54.5459 200.078 54.9996 200.532 55.5614 200.532C56.1232 200.532 56.5769 200.078 56.5769 199.517C56.5769 198.956 56.1232 198.502 55.5614 198.502C54.9996 198.502 54.5459 198.956 54.5459 199.517Z" fill="#E0F7FA"/>
<path d="M48.9746 199.517C48.9746 200.032 49.3923 200.446 49.9037 200.446C50.415 200.446 50.8328 200.028 50.8328 199.517C50.8328 199.006 50.415 198.589 49.9037 198.589C49.3923 198.589 48.9746 199.006 48.9746 199.517Z" fill="#E0F7FA"/>
<path d="M43.4043 199.517C43.4043 199.985 43.7824 200.363 44.2506 200.363C44.7187 200.363 45.0968 199.985 45.0968 199.517C45.0968 199.049 44.7187 198.672 44.2506 198.672C43.7824 198.672 43.4043 199.049 43.4043 199.517Z" fill="#E0F7FA"/>
<path d="M38.5889 200.276C39.0086 200.276 39.3488 199.936 39.3488 199.517C39.3488 199.098 39.0086 198.758 38.5889 198.758C38.1693 198.758 37.8291 199.098 37.8291 199.517C37.8291 199.936 38.1693 200.276 38.5889 200.276Z" fill="#E0F7FA"/>
<path d="M32.2588 199.517C32.2588 199.888 32.5613 200.19 32.9322 200.19C33.3031 200.19 33.6056 199.888 33.6056 199.517C33.6056 199.147 33.3031 198.844 32.9322 198.844C32.5613 198.844 32.2588 199.147 32.2588 199.517Z" fill="#E0F7FA"/>
<path d="M26.6846 199.517C26.6846 199.841 26.9475 200.104 27.2716 200.104C27.5956 200.104 27.8585 199.841 27.8585 199.517C27.8585 199.193 27.5956 198.931 27.2716 198.931C26.9475 198.931 26.6846 199.193 26.6846 199.517Z" fill="#E0F7FA"/>
<path d="M21.1133 199.517C21.1133 199.794 21.3401 200.021 21.6174 200.021C21.8947 200.021 22.1216 199.794 22.1216 199.517C22.1216 199.24 21.8947 199.013 21.6174 199.013C21.3401 199.013 21.1133 199.24 21.1133 199.517Z" fill="#E0F7FA"/>
<path d="M78.1906 208.272C78.9404 208.272 79.5482 207.664 79.5482 206.915C79.5482 206.166 78.9404 205.559 78.1906 205.559C77.4408 205.559 76.833 206.166 76.833 206.915C76.833 207.664 77.4408 208.272 78.1906 208.272Z" fill="#E0F7FA"/>
<path d="M71.2617 206.915C71.2617 207.617 71.8307 208.185 72.5329 208.185C73.2351 208.185 73.8041 207.617 73.8041 206.915C73.8041 206.214 73.2351 205.645 72.5329 205.645C71.8307 205.645 71.2617 206.214 71.2617 206.915Z" fill="#E0F7FA"/>
<path d="M65.6914 206.915C65.6914 207.57 66.2208 208.099 66.8762 208.099C67.5316 208.099 68.0609 207.57 68.0609 206.915C68.0609 206.26 67.5316 205.731 66.8762 205.731C66.2208 205.731 65.6914 206.26 65.6914 206.915Z" fill="#E0F7FA"/>
<path d="M60.1201 206.915C60.1201 207.523 60.6135 208.016 61.2221 208.016C61.8306 208.016 62.324 207.523 62.324 206.915C62.324 206.307 61.8306 205.814 61.2221 205.814C60.6135 205.814 60.1201 206.307 60.1201 206.915Z" fill="#E0F7FA"/>
<path d="M54.5459 206.915C54.5459 207.477 54.9996 207.93 55.5614 207.93C56.1232 207.93 56.5769 207.477 56.5769 206.915C56.5769 206.354 56.1232 205.901 55.5614 205.901C54.9996 205.901 54.5459 206.354 54.5459 206.915Z" fill="#E0F7FA"/>
<path d="M48.9746 206.915C48.9746 207.43 49.3923 207.844 49.9037 207.844C50.415 207.844 50.8328 207.426 50.8328 206.915C50.8328 206.404 50.415 205.987 49.9037 205.987C49.3923 205.987 48.9746 206.404 48.9746 206.915Z" fill="#E0F7FA"/>
<path d="M43.4043 206.915C43.4043 207.383 43.7824 207.761 44.2506 207.761C44.7187 207.761 45.0968 207.383 45.0968 206.915C45.0968 206.448 44.7187 206.07 44.2506 206.07C43.7824 206.07 43.4043 206.448 43.4043 206.915Z" fill="#E0F7FA"/>
<path d="M38.5889 207.674C39.0086 207.674 39.3488 207.335 39.3488 206.915C39.3488 206.496 39.0086 206.156 38.5889 206.156C38.1693 206.156 37.8291 206.496 37.8291 206.915C37.8291 207.335 38.1693 207.674 38.5889 207.674Z" fill="#E0F7FA"/>
<path d="M32.2588 206.915C32.2588 207.286 32.5613 207.588 32.9322 207.588C33.3031 207.588 33.6056 207.286 33.6056 206.915C33.6056 206.545 33.3031 206.242 32.9322 206.242C32.5613 206.242 32.2588 206.545 32.2588 206.915Z" fill="#E0F7FA"/>
<path d="M26.6846 206.915C26.6846 207.239 26.9475 207.502 27.2716 207.502C27.5956 207.502 27.8585 207.239 27.8585 206.915C27.8585 206.591 27.5956 206.329 27.2716 206.329C26.9475 206.329 26.6846 206.591 26.6846 206.915Z" fill="#E0F7FA"/>
<path d="M21.1133 206.915C21.1133 207.192 21.3401 207.419 21.6174 207.419C21.8947 207.419 22.1216 207.192 22.1216 206.915C22.1216 206.638 21.8947 206.411 21.6174 206.411C21.3401 206.411 21.1133 206.638 21.1133 206.915Z" fill="#E0F7FA"/>
<path d="M261.209 144.061C261.609 144.061 261.933 143.737 261.933 143.337C261.933 142.938 261.609 142.614 261.209 142.614C260.809 142.614 260.485 142.938 260.485 143.337C260.485 143.737 260.809 144.061 261.209 144.061Z" fill="#4DD0E1"/>
<path d="M267.813 144.061C268.212 144.061 268.537 143.737 268.537 143.337C268.537 142.938 268.212 142.614 267.813 142.614C267.413 142.614 267.089 142.938 267.089 143.337C267.089 143.737 267.413 144.061 267.813 144.061Z" fill="#4DD0E1"/>
<path d="M274.421 144.061C274.821 144.061 275.145 143.737 275.145 143.337C275.145 142.938 274.821 142.614 274.421 142.614C274.021 142.614 273.697 142.938 273.697 143.337C273.697 143.737 274.021 144.061 274.421 144.061Z" fill="#4DD0E1"/>
<path d="M257.712 148.209C258.112 148.209 258.436 147.886 258.436 147.486C258.436 147.087 258.112 146.763 257.712 146.763C257.312 146.763 256.988 147.087 256.988 147.486C256.988 147.886 257.312 148.209 257.712 148.209Z" fill="#4DD0E1"/>
<path d="M265.04 147.486C265.04 147.885 264.716 148.209 264.317 148.209C263.917 148.209 263.593 147.885 263.593 147.486C263.593 147.087 263.917 146.763 264.317 146.763C264.716 146.763 265.04 147.087 265.04 147.486Z" fill="#4DD0E1"/>
<path d="M270.925 148.209C271.325 148.209 271.649 147.886 271.649 147.486C271.649 147.087 271.325 146.763 270.925 146.763C270.525 146.763 270.201 147.087 270.201 147.486C270.201 147.886 270.525 148.209 270.925 148.209Z" fill="#4DD0E1"/>
<path d="M169.064 115.663H139.981V231.571H169.064V115.663Z" fill="#263238"/>
<path d="M189.284 233.204H119.762C119.762 231.214 121.375 229.602 123.366 229.602H185.683C187.675 229.602 189.288 231.214 189.288 233.204H189.284Z" fill="#37474F"/>
<path d="M249.441 99.0353H59.6055V214.943H249.441V99.0353Z" fill="#37474F"/>
<path d="M246.196 102.277H62.8496V211.704H246.196V102.277Z" fill="#4DD0E1"/>
<g style="mix-blend-mode:screen">
<path d="M176.9 102.277L89.5449 211.704H76.2568L163.609 102.277H176.9Z" fill="#616161"/>
</g>
<g style="mix-blend-mode:screen">
<path d="M103.041 102.277L62.8496 152.624V135.979L89.7534 102.277H103.041Z" fill="#616161"/>
</g>
<g style="mix-blend-mode:screen">
<path d="M246.196 102.277V106.21L161.985 211.704H107.547L194.899 102.277H246.196Z" fill="#616161"/>
</g>
<path d="M316.007 185.308H289.377V233.204H316.007V185.308Z" fill="#455A64"/>
<path d="M314.566 189.593H290.813V228.919H314.566V189.593Z" fill="#4DD0E1"/>
<path d="M302.69 208.952C307.499 208.952 311.397 205.057 311.397 200.251C311.397 195.446 307.499 191.551 302.69 191.551C297.881 191.551 293.982 195.446 293.982 200.251C293.982 205.057 297.881 208.952 302.69 208.952Z" fill="#B2EBF2"/>
<g style="mix-blend-mode:screen">
<path d="M314.566 189.593V196.146L290.813 225.903V207.297L304.944 189.593H314.566Z" fill="#616161"/>
</g>
<g style="mix-blend-mode:screen">
<path d="M314.567 221.362V228.919H308.535L314.567 221.362Z" fill="#616161"/>
</g>
<path d="M214.885 119.682C214.769 118.685 215.724 117.725 216.127 116.973C216.527 116.221 218.19 115.512 218.774 117.207C220.056 120.942 222.285 121.316 223.019 122.816C223.646 124.101 220.69 123.863 217.953 121.953C216.343 120.826 214.946 120.19 214.885 119.679V119.682Z" fill="#263238"/>
<path d="M220.877 121.305C220.19 121.179 215.386 118.981 215.577 117.869C215.865 116.221 215.454 115.026 215.454 115.026C215.454 115.026 217.676 113.065 218.346 115.004C218.872 116.519 219.026 117.599 219.523 118.567C220.463 120.402 221.518 121.424 220.877 121.305Z" fill="#ED9D66"/>
<path d="M204.301 111.968C204.751 111.068 205.706 110.982 206.451 110.571C207.197 110.161 209.044 110.341 208.605 112.079C207.632 115.908 209.598 117.383 209.39 119.038C209.21 120.456 206.869 118.642 205.623 115.544C204.892 113.723 204.071 112.424 204.301 111.964V111.968Z" fill="#263238"/>
<path d="M208.428 116.602C207.071 115.724 204.867 111.334 205.875 110.831C207.164 110.186 207.053 108.488 207.053 108.488C207.053 108.488 210.096 108.952 209.455 110.899C208.911 112.558 208.605 113.709 208.59 114.781C208.576 115.872 208.85 116.872 208.428 116.602Z" fill="#E29059"/>
<path d="M201.193 90.6478C201.193 90.6478 216.599 88.424 218.374 89.9101C220.963 92.0727 214.049 103.846 209.454 110.899C209.454 110.899 207.002 111.367 206.833 108.819C208.781 104.573 209.566 97.1822 212.576 94.5195C213.207 93.9618 201.193 90.6478 201.193 90.6478Z" fill="#37474F"/>
<path d="M191.082 90.4391C189.303 94.829 188.846 98.7187 192.882 99.9889C195.655 100.863 209.548 97.5457 209.444 99.6147C209.21 104.361 213.682 111.586 215.278 115.663C216.43 116.149 217.87 115.954 218.346 115.005C215.937 107.779 215.991 96.6209 214.496 93.4652C213.592 91.5582 192.439 87.0855 191.082 90.4391Z" fill="#455A64"/>
<path d="M222.587 71.3717C222.476 69.9612 221.813 68.5435 220.625 67.7663C219.206 66.8379 217.344 66.9675 215.702 67.3956C214.06 67.8238 212.468 68.5111 210.776 68.6011C208.284 68.7342 206.127 67.2301 206.303 64.5962C206.368 63.5995 206.649 62.6207 206.685 61.624C206.717 60.6669 206.476 59.5442 205.666 58.9469C205.255 59.4327 204.953 60.084 204.622 60.6417C202.681 62.2789 200.722 63.9305 199.184 65.9527C197.646 67.975 196.548 70.4218 196.577 72.9586C196.616 76.1682 198.449 79.1152 200.729 81.3785C202.32 82.9582 204.215 84.3219 206.397 84.8401C208.777 85.405 211.316 84.9156 213.545 83.9045C217.2 82.2493 220.196 79.1836 221.766 75.4918C222.321 74.1892 222.706 72.7787 222.595 71.3645L222.587 71.3717Z" fill="#37474F"/>
<path d="M200.272 74.3403C200.272 74.3403 201.989 79.8385 202.828 82.0694C203.668 84.3004 205.9 85.7541 205.9 85.7541L202.936 87.5748L199.317 79.7449L200.275 74.3439L200.272 74.3403Z" fill="#E29059"/>
<path d="M193.584 69.5546C193.584 69.5546 187.527 70.3139 186.814 72.5232C186.411 73.7682 190.696 83.354 191.369 85.5202C191.74 86.7148 190.894 89.543 191.085 90.439C191.881 94.1488 206.101 90.9931 203.735 87.9274C201.73 85.3295 201.236 82.53 201.045 81.2994C200.728 79.2736 202.219 77.935 201.996 76.5353C201.766 75.0852 200.743 74.3259 200.347 73.5703C199.832 72.5808 199.846 71.181 199.396 70.0152C198.741 68.3132 193.587 69.5618 193.587 69.5618L193.584 69.5546Z" fill="#FDD835"/>
<path d="M198.215 69.184C198.215 69.184 197.43 70.6521 197.729 72.1022C198.003 73.4407 190.826 71.7316 192.785 69.6482C192.965 69.4538 193.494 68.2916 193.742 67.4388C194.844 63.675 198.211 69.184 198.211 69.184H198.215Z" fill="#E29059"/>
<path d="M212.868 86.3154L201.564 92.7923C201.564 92.7923 194.197 90.3203 194.085 90.0324C193.973 89.741 193.955 89.4135 194.161 89.2768C194.29 89.1904 201.669 88.039 207.121 87.2006C210.2 86.722 212.667 86.3442 212.865 86.3154H212.868Z" fill="#80DEEA"/>
<path d="M204.697 64.8409C204.903 66.0895 199.911 71.5696 198.615 71.4077C197.074 71.2134 194.02 67.5576 194.164 66.9423C194.312 66.327 198.932 60.6813 199.879 60.6165C200.826 60.5517 204.492 63.5923 204.697 64.8409Z" fill="#ED9D66"/>
<path d="M207.124 87.2006L202.13 92.0618C202.13 92.0618 194.485 89.525 194.164 89.2768C194.294 89.1904 201.672 88.039 207.124 87.2006Z" fill="#B2EBF2"/>
<path d="M202.511 91.6408C202.511 91.6408 196.858 89.9389 196.775 89.4387C196.692 88.9349 209.461 87.5928 209.461 87.5928L202.515 91.6408H202.511Z" fill="#37474F"/>
<path d="M201.564 92.7923C201.564 92.7923 203.304 81.5801 203.477 81.0727C203.649 80.5654 217.247 78.5755 217.629 78.8598C218.011 79.1405 215.256 90.0145 215.069 90.493C214.881 90.9716 201.564 92.7923 201.564 92.7923Z" fill="#B2EBF2"/>
<path d="M210.815 83.5196C210.441 83.426 208.043 86.4882 208.248 86.7688C208.453 87.0495 211.636 86.4954 211.766 86.0636C211.896 85.6354 211.356 83.6527 210.815 83.516V83.5196Z" fill="#E0F7FA"/>
<path d="M186.735 72.7824C186.04 74.9701 184.29 83.552 184.916 85.0273C185.547 86.499 195.248 86.5853 195.248 86.5853C195.248 86.5853 197.513 86.2327 196.642 85.1532C196.642 85.1532 189.263 83.8614 189.061 82.8575C188.863 81.868 189.843 76.5893 190.613 74.0633C191.384 71.5373 187.426 70.5982 186.735 72.7859V72.7824Z" fill="#ED9D66"/>
<path d="M203.08 65.9348C197.383 67.2158 197.74 64.186 196.375 64.697C195.118 65.1684 196.868 67.7843 194.733 68.0506C192.572 68.3169 191.232 66.1399 191.096 64.2904C190.725 59.2348 196.335 54.6182 201.164 55.6437C202.961 56.0251 204.675 56.9967 205.72 58.508C207.765 61.4765 206.411 65.19 203.08 65.9384V65.9348Z" fill="#37474F"/>
<path d="M200.095 85.549C200.646 85.9736 201.385 87.5029 201.071 87.744C200.783 87.9671 200.344 86.884 200.077 87.0027C199.811 87.1215 200.841 89.6187 200.092 89.248C199.152 88.7839 198.81 89.266 198.425 89.0393C197.899 88.7335 197.654 88.1074 197.272 87.6936C196.815 87.1934 195.904 87.9851 195.256 86.5853C195.072 86.1895 195.673 85.1676 196.649 85.1532C197.719 85.1388 199.825 85.3367 200.099 85.549H200.095Z" fill="#ED9D66"/>
<path d="M96.8549 197.383C105.263 215.868 121.973 215.691 124.659 226.911C126.251 233.55 125.174 241.624 105.85 243.862C81.9104 246.637 65.0392 236.043 68.5827 217.969C75.1655 184.408 93.1818 189.312 96.8513 197.38L96.8549 197.383Z" fill="#BA68C8"/>
<path d="M82.0829 207.03C77.135 212.651 77.135 221.118 82.7563 226.886C87.8807 232.143 97.51 234.989 106.844 232.79C113.56 231.207 117.914 226.857 114.45 219.444C110.985 212.032 87.0308 201.41 82.0793 207.03H82.0829Z" fill="#AB47BC"/>
<path d="M93.6603 198.355C94.7082 201.295 95.0863 203.252 96.5484 206.429C97.0597 207.541 100.542 205.972 100.43 206.512C98.9575 213.737 91.1143 210.636 91.1143 210.636C91.1143 210.636 91.0639 198.114 93.6603 198.351V198.355Z" fill="#ED9D66"/>
<path d="M130.882 237.191C134.407 238.058 136.143 238.249 133.597 239.836C132.646 240.43 129.892 240.912 127.814 240.523C125.966 240.181 124.551 240.768 124.054 240.232C123.431 239.562 123.528 236.457 124.292 236.169C125.055 235.881 126.078 236.007 130.882 237.187V237.191Z" fill="#263238"/>
<path d="M124.454 231.894C124.454 231.894 125.786 235.014 128.163 236.583C129.377 237.385 123.91 239.314 123.575 237.921C123.241 236.529 120.36 233.262 120.194 232.567C120.028 231.873 124.454 231.894 124.454 231.894Z" fill="#ED9D66"/>
<path d="M98.533 214.202C98.533 214.202 113.355 215.033 118.479 216.31C120.543 216.825 121.061 228.929 126.467 233.089C127.709 234.046 122.722 236.331 122.722 236.331C121.875 234.33 115.339 228.627 114.605 223.528C114.464 222.553 103.027 222.6 96.5992 222.417C90.1713 222.229 98.533 214.205 98.533 214.205V214.202Z" fill="#00586D"/>
<path d="M120.871 241.523C122.621 242.006 124.911 243.337 128.743 243.582C132.473 243.819 127.212 247.453 121.281 246.928C118.886 246.716 117.669 247.536 116.726 246.277C115.782 245.017 116.067 242.578 116.736 241.862C117.406 241.146 119.124 241.041 120.871 241.523Z" fill="#263238"/>
<path d="M114.68 234.201C114.68 234.201 118.001 240.001 121.137 241.959C122.369 242.729 116.585 245.118 116.25 243.726C115.916 242.333 112.455 238.209 112.289 237.515C112.12 236.82 114.684 234.201 114.684 234.201H114.68Z" fill="#ED9D66"/>
<path d="M85.6986 220.254C87.9457 230.286 101.525 226.407 103.005 228.195C104.273 229.728 105.011 231.196 106.12 232.484C108.9 235.712 110.899 236.32 113.863 240.289C115.433 240.85 118.476 239.584 119.038 238.285C110.881 230.513 111.706 225.504 109.668 223.017C107.881 220.837 84.6399 215.544 85.695 220.258L85.6986 220.254Z" fill="#00708C"/>
<path d="M82.7531 194.89C79.7822 196.376 77.4415 197.779 76.9194 199.434C76.3936 201.097 79.8722 216.659 85.9977 222.111C89.7825 225.479 103.074 214.803 100.539 213.392C91.1185 208.149 94.8708 197.585 91.4174 193.843C89.7645 192.054 85.724 193.404 82.7531 194.89Z" fill="white"/>
<path d="M87.6827 194.195C87.6827 194.195 87.3298 195.703 88.4534 197.308C89.5769 198.909 80.1276 198.251 81.8922 195.591C83.2966 193.472 83.257 192.141 82.9077 191.608L87.6827 194.199V194.195Z" fill="#E29059"/>
<path d="M91.4173 193.843C92.7137 195.246 94.4134 198.79 94.5826 200.226C93.9308 202.029 92.2059 202.77 91.9394 202.817C91.6729 202.867 89.9012 192.202 91.4137 193.843H91.4173Z" fill="white"/>
<path d="M112.815 238.803C111.472 238.803 113.532 239.663 113.532 240.188C113.532 240.714 113.244 241.048 113.82 241.192C114.392 241.336 118.843 241.146 119.081 238.85C119.319 236.554 118.602 237.655 118.174 237.13C117.741 236.605 117.741 236.317 117.313 236.079C116.881 235.842 116.261 238.803 112.815 238.803Z" fill="#00586D"/>
<path d="M120.726 233.899C119.404 233.665 121.443 234.759 121.443 235.284C121.443 235.809 121.255 235.935 121.731 236.288C122.833 237.101 126.419 235.619 126.992 233.945C127.741 231.765 126.135 232.6 125.987 231.938C125.89 231.506 125.652 231.412 125.22 231.171C124.788 230.934 124.262 234.518 120.722 233.895L120.726 233.899Z" fill="#00586D"/>
<path d="M93.5667 187.161C93.5667 187.161 91.4889 196.459 89.8756 196.962C88.7088 197.326 84.0346 195.12 83.1451 193.645C82.2556 192.169 84.2038 184.735 85.8243 184.577C87.4412 184.419 93.5667 187.157 93.5667 187.157V187.161Z" fill="#ED9D66"/>
<path d="M97.0168 185.844C96.8511 187.035 95.886 188.456 94.3592 189.197C91.2226 190.719 88.9719 188.172 87.7836 189.575C87.2974 190.147 87.4199 191.849 86.5592 191.687C85.9794 191.579 85.9758 190.147 85.0828 190.27C84.1933 190.392 84.521 192.126 83.3218 193.501C82.7168 194.195 82.5836 192.781 82.4864 192.151C81.5213 186.074 81.9498 183.721 84.4958 181.277C85.929 179.899 87.4091 181.94 88.9647 181.468C89.5193 181.299 90.3043 180.486 91.4171 181.126C92.4686 181.731 92.4542 182.753 92.6883 183.278C93.5093 185.131 97.4777 182.569 97.0204 185.847L97.0168 185.844Z" fill="#37474F"/>
<path d="M103.427 201.377C103.427 201.377 102.901 201.143 102.606 201.126C102.31 201.108 95.4792 202.86 95.3207 203.015C95.1623 203.169 92.6487 214.842 92.7243 214.99C92.8036 215.137 93.2573 215.206 93.2573 215.206L103.427 201.377Z" fill="#263238"/>
<path d="M95.8074 203.443L93.2578 215.206C93.2578 215.206 100.33 212.824 100.478 212.665C100.622 212.507 103.427 201.377 103.427 201.377L95.8074 203.443Z" fill="#37474F"/>
<path d="M101.961 207.516C102.325 207.606 103.204 206.178 103.513 204.839C103.672 204.163 103.769 203.576 103.15 203.166C102.804 202.939 101.619 202.561 101.5 202.802C101.381 203.043 102.332 203.677 102.264 203.925C102.195 204.173 101.335 203.975 101.147 204.45C101.072 204.645 101.572 205.105 101.655 206.023C101.716 206.692 101.745 207.459 101.961 207.513V207.516Z" fill="#ED9D66"/>
<path d="M90.8735 210.65C91.0356 210.244 91.7882 209.639 92.3896 208.981C93.1098 208.185 93.7112 207.354 94.1253 207.279C94.6547 207.181 94.0857 208.545 94.2478 208.801C94.4098 209.053 95.3065 208.977 96.5993 208.333C97.1719 208.049 97.6508 208.257 97.2907 208.596C96.8334 209.024 95.7278 209.729 95.7098 209.898C95.6666 210.287 98.4394 209.038 97.7804 209.715C96.7757 210.747 96.9774 212.007 95.5262 212.179C94.2154 212.334 92.8469 212.608 91.835 212.874C90.9636 213.104 90.517 211.546 90.8771 210.654L90.8735 210.65Z" fill="#ED9D66"/>
<path d="M99.2891 205.451C99.0874 205.4 97.7838 207.127 97.8954 207.279C98.0071 207.43 99.624 206.886 99.6888 206.652C99.7572 206.422 99.5771 205.519 99.2891 205.451Z" fill="#546E7A"/>
<path d="M77.2109 203.274C77.2542 206.336 78.3993 213.561 80.4267 215.242C82.0724 216.605 91.835 212.867 91.835 212.867C91.835 212.867 92.8073 211.316 91.2444 210.316C91.2444 210.316 83.6461 211.111 83.358 210.6C82.2705 208.685 82.3389 204.371 82.2525 200.848C82.1624 197.326 77.1713 200.208 77.2145 203.27L77.2109 203.274Z" fill="#ED9D66"/>
<path d="M82.4648 201.136L83.7576 207.682C83.7576 207.682 79.4075 210.722 77.0308 209.006C76.2854 207.951 75.8604 204.116 76.4762 200.712C77.092 197.308 81.3665 196.664 82.4612 201.136H82.4648Z" fill="white"/>
<path d="M93.7725 183.944C94.0786 184.937 91.1905 183.789 86.5991 187.009C83.4374 189.23 83.2933 192.454 82.4831 192.144C80.5205 191.396 81.1903 184.113 79.7895 185.354C79.1197 185.948 76.6961 183.217 79.8075 180.238C82.5839 177.582 91.8711 177.794 93.7689 183.94L93.7725 183.944Z" fill="#ECEFF1"/>
<path d="M310.504 137.519H280.345C279.945 137.519 279.625 137.195 279.625 136.799V106.664C279.625 106.264 279.949 105.944 280.345 105.944H310.504C310.904 105.944 311.225 106.268 311.225 106.664V136.799C311.225 137.199 310.901 137.519 310.504 137.519ZM281.065 136.08H309.784V107.383H281.065V136.08Z" fill="#37474F"/>
<path d="M271.62 105.408C267.882 105.408 264.839 102.367 264.839 98.6324C264.839 94.8973 267.882 91.8568 271.62 91.8568C275.358 91.8568 278.401 94.8973 278.401 98.6324C278.401 102.367 275.358 105.408 271.62 105.408ZM271.62 92.9363C268.476 92.9363 265.919 95.4911 265.919 98.6324C265.919 101.774 268.476 104.328 271.62 104.328C274.763 104.328 277.32 101.774 277.32 98.6324C277.32 95.4911 274.763 92.9363 271.62 92.9363Z" fill="#546E7A"/>
<path d="M50.4226 164.502C50.2858 164.502 50.1453 164.448 50.0409 164.344L37.257 151.57C37.0445 151.358 37.0445 151.016 37.257 150.807C37.4695 150.595 37.8116 150.595 38.0204 150.807L50.8043 163.581C51.0168 163.793 51.0168 164.135 50.8043 164.344C50.6999 164.448 50.5595 164.502 50.4226 164.502Z" fill="#546E7A"/>
<path d="M37.6387 164.502C37.5019 164.502 37.3614 164.448 37.257 164.344C37.0445 164.132 37.0445 163.79 37.257 163.581L50.0409 150.807C50.2534 150.595 50.5955 150.595 50.8043 150.807C51.0168 151.02 51.0168 151.361 50.8043 151.57L38.0204 164.344C37.916 164.448 37.7756 164.502 37.6387 164.502Z" fill="#546E7A"/>
<path d="M151.354 95.9732H130.014C129.758 95.9732 129.517 95.8364 129.391 95.6133C129.262 95.3902 129.262 95.1168 129.391 94.8937L140.061 76.4273C140.191 76.2042 140.429 76.0675 140.684 76.0675C140.94 76.0675 141.181 76.2042 141.307 76.4273L151.977 94.8937C152.107 95.1168 152.107 95.3902 151.977 95.6133C151.848 95.8364 151.61 95.9732 151.354 95.9732ZM131.264 94.5339H150.105L140.684 78.2301L131.264 94.5339Z" fill="#546E7A"/>
<path d="M233.193 175.47C232.872 175.232 232.807 174.779 233.045 174.462C233.279 174.142 233.733 174.077 234.05 174.315C234.37 174.552 234.435 175.002 234.201 175.322C234.057 175.509 233.841 175.61 233.621 175.61C233.474 175.61 233.322 175.563 233.193 175.47ZM235.58 171.94C235.231 171.749 235.105 171.31 235.296 170.965C235.487 170.616 235.926 170.49 236.275 170.681C236.625 170.871 236.751 171.31 236.556 171.659C236.426 171.897 236.178 172.03 235.926 172.03C235.807 172.03 235.688 172.001 235.58 171.94ZM166.119 169.817C166.108 169.418 166.421 169.09 166.821 169.079C167.217 169.069 167.552 169.382 167.559 169.777C167.57 170.177 167.257 170.504 166.857 170.519H166.842C166.454 170.519 166.129 170.206 166.119 169.817ZM162.496 170.299C162.1 170.249 161.823 169.889 161.873 169.493C161.923 169.101 162.284 168.82 162.68 168.874C163.072 168.925 163.353 169.284 163.303 169.68C163.252 170.044 162.943 170.306 162.586 170.306C162.557 170.306 162.525 170.303 162.496 170.299ZM170.368 169.504C170.303 169.112 170.57 168.741 170.962 168.68C171.358 168.615 171.726 168.881 171.79 169.274C171.855 169.666 171.589 170.033 171.196 170.098C171.157 170.105 171.117 170.108 171.077 170.108C170.732 170.108 170.426 169.857 170.368 169.504ZM158.214 169.374C157.833 169.256 157.62 168.853 157.739 168.475C157.854 168.093 158.257 167.881 158.639 168C159.017 168.115 159.233 168.518 159.115 168.899C159.021 169.209 158.733 169.407 158.427 169.407C158.355 169.407 158.283 169.396 158.214 169.374ZM174.545 168.651C174.434 168.27 174.657 167.87 175.039 167.762C175.42 167.654 175.82 167.878 175.928 168.259C176.04 168.64 175.816 169.04 175.435 169.148C175.366 169.166 175.301 169.176 175.237 169.176C174.92 169.176 174.632 168.968 174.545 168.651ZM237.456 168.119C237.085 167.982 236.898 167.564 237.039 167.194C237.179 166.82 237.593 166.633 237.964 166.773C238.339 166.913 238.526 167.327 238.385 167.701C238.277 167.989 238.004 168.165 237.712 168.165C237.626 168.165 237.543 168.151 237.456 168.119ZM178.604 167.352C178.456 166.982 178.64 166.564 179.011 166.42C179.382 166.276 179.799 166.46 179.943 166.827C180.087 167.201 179.904 167.615 179.536 167.762C179.45 167.795 179.36 167.809 179.273 167.809C178.985 167.809 178.712 167.636 178.604 167.352ZM154.156 167.719C153.799 167.539 153.662 167.104 153.843 166.751C154.026 166.399 154.462 166.258 154.815 166.438C155.168 166.622 155.308 167.054 155.125 167.41C154.998 167.658 154.746 167.798 154.484 167.798C154.372 167.798 154.26 167.773 154.156 167.719ZM182.525 165.693C182.352 165.334 182.5 164.905 182.857 164.729C183.213 164.556 183.645 164.704 183.818 165.064C183.991 165.42 183.843 165.852 183.487 166.024C183.386 166.075 183.278 166.096 183.17 166.096C182.903 166.096 182.648 165.949 182.522 165.693H182.525ZM150.447 165.395C150.126 165.154 150.061 164.704 150.303 164.387C150.54 164.067 150.994 164.006 151.311 164.243C151.628 164.481 151.693 164.934 151.455 165.251C151.311 165.438 151.095 165.539 150.875 165.539C150.728 165.539 150.576 165.492 150.447 165.395ZM186.314 163.739C186.116 163.394 186.234 162.955 186.58 162.757C186.926 162.559 187.365 162.678 187.563 163.023C187.761 163.369 187.642 163.808 187.297 164.006C187.185 164.071 187.063 164.099 186.94 164.099C186.692 164.099 186.447 163.97 186.314 163.739ZM238.76 164.063C238.371 163.984 238.123 163.603 238.202 163.214C238.285 162.822 238.666 162.574 239.059 162.656C239.448 162.739 239.696 163.121 239.613 163.509C239.541 163.847 239.243 164.081 238.908 164.081C238.861 164.081 238.81 164.074 238.76 164.063ZM147.17 162.502C146.892 162.217 146.9 161.764 147.184 161.487C147.469 161.21 147.926 161.217 148.203 161.501C148.481 161.786 148.473 162.243 148.189 162.52C148.048 162.653 147.868 162.721 147.688 162.721C147.497 162.721 147.31 162.649 147.17 162.502ZM189.969 161.548C189.753 161.214 189.846 160.771 190.181 160.551C190.516 160.336 190.963 160.429 191.179 160.76C191.398 161.095 191.305 161.537 190.97 161.757C190.847 161.836 190.711 161.876 190.577 161.876C190.343 161.876 190.113 161.76 189.972 161.548H189.969ZM239.419 159.861C239.023 159.839 238.717 159.504 238.735 159.109C238.753 158.709 239.088 158.403 239.487 158.421C239.884 158.439 240.19 158.777 240.175 159.173C240.154 159.558 239.837 159.861 239.455 159.861H239.419ZM144.361 159.17C144.123 158.849 144.192 158.4 144.516 158.166C144.836 157.932 145.286 158 145.52 158.32C145.754 158.644 145.686 159.091 145.366 159.328C145.236 159.422 145.088 159.465 144.941 159.465C144.717 159.465 144.501 159.364 144.361 159.17ZM193.501 159.159C193.267 158.839 193.339 158.389 193.66 158.155C193.98 157.921 194.434 157.993 194.668 158.313C194.899 158.637 194.827 159.087 194.506 159.321C194.376 159.411 194.229 159.458 194.081 159.458C193.858 159.458 193.642 159.353 193.501 159.159ZM196.915 156.608C196.667 156.298 196.721 155.845 197.03 155.6C197.344 155.352 197.798 155.402 198.042 155.715C198.291 156.028 198.237 156.478 197.927 156.726H197.924C197.794 156.831 197.635 156.881 197.481 156.881C197.268 156.881 197.056 156.788 196.915 156.608ZM142.013 155.51C141.822 155.165 141.945 154.726 142.294 154.532C142.64 154.337 143.079 154.46 143.27 154.809C143.461 155.158 143.338 155.593 142.989 155.787C142.877 155.848 142.758 155.881 142.64 155.881C142.387 155.881 142.143 155.748 142.009 155.51H142.013ZM238.573 154.981C238.522 154.585 238.8 154.226 239.196 154.175C239.588 154.121 239.948 154.402 240.002 154.794C240.056 155.19 239.775 155.55 239.383 155.6C239.351 155.6 239.318 155.607 239.289 155.607C238.933 155.607 238.623 155.341 238.576 154.981H238.573ZM200.221 153.92C199.962 153.618 199.998 153.164 200.3 152.905C200.603 152.646 201.057 152.686 201.316 152.988C201.575 153.287 201.539 153.743 201.237 154.003C201.103 154.118 200.934 154.175 200.768 154.175C200.567 154.175 200.365 154.089 200.221 153.92ZM140.115 151.61C139.96 151.243 140.13 150.822 140.497 150.667C140.861 150.512 141.286 150.681 141.44 151.048C141.595 151.412 141.426 151.836 141.059 151.991C140.965 152.031 140.871 152.049 140.778 152.049C140.497 152.049 140.23 151.883 140.115 151.61ZM237.658 150.969C237.532 150.595 237.734 150.185 238.112 150.059C238.486 149.933 238.897 150.134 239.023 150.512C239.149 150.89 238.947 151.297 238.569 151.423C238.493 151.448 238.418 151.462 238.342 151.462C238.04 151.462 237.759 151.271 237.658 150.969ZM203.433 151.117C203.163 150.822 203.185 150.368 203.476 150.102C203.772 149.832 204.225 149.85 204.496 150.145C204.762 150.44 204.744 150.894 204.449 151.164C204.312 151.289 204.135 151.351 203.963 151.351C203.768 151.351 203.574 151.271 203.433 151.117ZM206.563 148.224C206.3 147.925 206.332 147.472 206.631 147.209C206.93 146.95 207.387 146.979 207.65 147.281C207.909 147.58 207.877 148.033 207.578 148.296C207.441 148.414 207.272 148.472 207.106 148.472C206.905 148.472 206.703 148.389 206.563 148.224ZM138.624 147.54C138.509 147.159 138.725 146.756 139.103 146.64C139.485 146.525 139.885 146.738 140.004 147.119C140.119 147.5 139.903 147.9 139.525 148.019C139.456 148.04 139.384 148.047 139.316 148.047C139.006 148.047 138.722 147.85 138.624 147.54ZM235.933 147.263C235.724 146.925 235.832 146.482 236.171 146.273C236.509 146.065 236.952 146.169 237.161 146.507C237.37 146.846 237.262 147.288 236.923 147.497C236.808 147.572 236.675 147.605 236.545 147.605C236.304 147.605 236.07 147.482 235.933 147.263ZM209.854 145.521C209.624 145.198 209.699 144.748 210.02 144.518C210.344 144.284 210.794 144.359 211.024 144.683C211.258 145.003 211.183 145.453 210.862 145.687C210.733 145.777 210.589 145.82 210.441 145.82C210.218 145.82 209.998 145.716 209.854 145.521ZM233.376 144.118C233.085 143.848 233.067 143.391 233.34 143.1C233.61 142.808 234.068 142.794 234.356 143.064C234.648 143.334 234.666 143.791 234.392 144.082C234.251 144.233 234.057 144.309 233.866 144.309C233.69 144.309 233.513 144.248 233.376 144.118ZM137.609 143.316C137.54 142.923 137.8 142.549 138.192 142.481C138.585 142.413 138.959 142.675 139.028 143.064C139.096 143.456 138.833 143.83 138.441 143.899C138.401 143.906 138.358 143.909 138.318 143.909C137.973 143.909 137.67 143.665 137.609 143.316ZM213.408 143.165C213.214 142.819 213.343 142.38 213.689 142.189C214.035 141.995 214.474 142.125 214.665 142.47C214.856 142.819 214.73 143.258 214.381 143.449C214.273 143.51 214.154 143.539 214.035 143.539C213.779 143.539 213.534 143.406 213.405 143.165H213.408ZM230.053 141.851C229.692 141.678 229.538 141.25 229.71 140.89C229.88 140.531 230.312 140.38 230.668 140.549C231.028 140.721 231.18 141.15 231.01 141.509C230.888 141.768 230.629 141.92 230.362 141.92C230.258 141.92 230.15 141.898 230.053 141.851ZM217.236 141.297C217.099 140.923 217.294 140.513 217.668 140.376C218.043 140.243 218.457 140.437 218.59 140.811C218.727 141.186 218.533 141.596 218.158 141.732C218.079 141.761 217.996 141.772 217.917 141.772C217.622 141.772 217.344 141.592 217.24 141.297H217.236ZM221.327 140.12C221.273 139.725 221.55 139.365 221.943 139.311C222.335 139.257 222.699 139.534 222.753 139.926C222.804 140.322 222.53 140.682 222.134 140.736C222.101 140.743 222.069 140.743 222.036 140.743C221.684 140.743 221.374 140.48 221.323 140.12H221.327ZM226.196 140.714C225.8 140.66 225.522 140.3 225.576 139.905C225.63 139.512 225.994 139.235 226.387 139.286C226.779 139.34 227.056 139.703 227.002 140.095C226.956 140.459 226.646 140.721 226.289 140.721C226.257 140.721 226.225 140.721 226.196 140.714ZM137.151 138.983C137.137 138.584 137.447 138.249 137.843 138.239C138.243 138.224 138.574 138.534 138.588 138.933C138.603 139.329 138.293 139.66 137.893 139.674H137.868C137.483 139.674 137.162 139.368 137.151 138.983ZM137.951 135.421C137.555 135.378 137.27 135.022 137.314 134.629C137.357 134.234 137.71 133.949 138.106 133.993C138.502 134.036 138.786 134.392 138.743 134.784C138.704 135.155 138.39 135.425 138.03 135.425C138.001 135.425 137.976 135.425 137.951 135.425V135.421ZM138.61 131.225C138.225 131.128 137.991 130.736 138.088 130.351C138.189 129.966 138.581 129.732 138.966 129.829C139.348 129.927 139.582 130.319 139.485 130.704C139.402 131.031 139.107 131.247 138.786 131.247C138.725 131.247 138.668 131.24 138.606 131.225H138.61ZM139.831 127.152C139.46 127.008 139.276 126.591 139.42 126.22C139.564 125.85 139.982 125.666 140.353 125.81C140.724 125.954 140.907 126.371 140.763 126.742C140.652 127.026 140.382 127.203 140.09 127.203C140.004 127.203 139.917 127.185 139.831 127.152ZM141.516 123.245C141.159 123.065 141.019 122.629 141.203 122.277C141.383 121.92 141.818 121.78 142.171 121.964C142.524 122.143 142.665 122.579 142.485 122.931C142.355 123.18 142.103 123.324 141.844 123.324C141.732 123.324 141.62 123.298 141.516 123.245ZM143.565 119.51C143.227 119.301 143.118 118.858 143.331 118.52C143.54 118.182 143.983 118.077 144.321 118.286C144.66 118.495 144.764 118.941 144.555 119.276C144.418 119.495 144.184 119.617 143.943 119.617C143.813 119.617 143.68 119.585 143.565 119.51ZM145.884 115.936C145.556 115.71 145.481 115.26 145.711 114.936C145.938 114.609 146.388 114.533 146.712 114.76C147.04 114.99 147.116 115.44 146.885 115.764C146.745 115.962 146.525 116.07 146.298 116.07C146.154 116.07 146.01 116.026 145.884 115.936ZM148.398 112.496C148.084 112.252 148.027 111.798 148.268 111.485C148.513 111.172 148.963 111.115 149.28 111.359C149.593 111.601 149.651 112.054 149.406 112.367C149.266 112.55 149.053 112.648 148.837 112.648C148.682 112.648 148.527 112.597 148.398 112.496ZM151.048 109.157C150.738 108.902 150.695 108.448 150.947 108.143C151.203 107.837 151.657 107.794 151.963 108.045C152.269 108.297 152.312 108.751 152.06 109.06C151.916 109.233 151.711 109.319 151.502 109.319C151.343 109.319 151.181 109.265 151.048 109.157ZM153.781 105.886C153.479 105.627 153.446 105.174 153.706 104.872C153.961 104.569 154.419 104.533 154.721 104.793C155.024 105.052 155.056 105.505 154.797 105.807C154.656 105.973 154.455 106.059 154.253 106.059C154.084 106.059 153.918 106.002 153.781 105.886ZM156.569 102.659C156.27 102.396 156.237 101.943 156.5 101.644C156.759 101.345 157.217 101.313 157.516 101.572C157.815 101.835 157.847 102.292 157.584 102.59C157.444 102.752 157.242 102.835 157.044 102.835C156.875 102.835 156.705 102.778 156.569 102.659ZM159.374 99.4491C159.075 99.1864 159.043 98.7331 159.305 98.4308C159.565 98.1321 160.022 98.1034 160.321 98.3624C160.62 98.6251 160.652 99.0785 160.389 99.3772C160.249 99.5427 160.047 99.6254 159.846 99.6254C159.68 99.6254 159.511 99.5679 159.374 99.4491ZM162.168 96.2287C161.866 95.9696 161.833 95.5162 162.093 95.2139C162.352 94.9117 162.806 94.8757 163.108 95.1348C163.411 95.3939 163.443 95.8472 163.184 96.1495C163.043 96.315 162.842 96.4014 162.636 96.4014C162.471 96.4014 162.305 96.3438 162.168 96.2287ZM164.93 92.9758C164.624 92.724 164.581 92.2706 164.837 91.9647C165.089 91.6589 165.543 91.6157 165.849 91.8712C166.155 92.123 166.198 92.5764 165.942 92.8823C165.802 93.055 165.597 93.1413 165.388 93.1413C165.226 93.1413 165.064 93.0874 164.93 92.9758ZM167.631 89.6762C167.318 89.4315 167.264 88.9781 167.512 88.6687C167.757 88.3556 168.211 88.3017 168.524 88.5499C168.834 88.7946 168.888 89.248 168.639 89.5611C168.499 89.741 168.29 89.8345 168.078 89.8345C167.919 89.8345 167.761 89.7842 167.631 89.6762ZM170.249 86.3082C169.929 86.0707 169.86 85.6209 170.098 85.3007C170.336 84.9805 170.789 84.9157 171.106 85.1532C171.427 85.3907 171.492 85.8404 171.257 86.1607C171.113 86.3478 170.897 86.4486 170.674 86.4486C170.526 86.4486 170.375 86.4054 170.249 86.3082ZM172.756 82.8539C172.428 82.6308 172.341 82.181 172.568 81.8536C172.792 81.5261 173.242 81.4434 173.569 81.67C173.897 81.8931 173.98 82.3429 173.757 82.6704C173.616 82.8719 173.389 82.9834 173.162 82.9834C173.022 82.9834 172.878 82.9402 172.756 82.8539ZM175.121 79.306C174.787 79.0973 174.682 78.6511 174.895 78.3165C175.103 77.9782 175.55 77.8775 175.888 78.0862C176.223 78.2985 176.324 78.7411 176.115 79.0793C175.978 79.2952 175.744 79.4175 175.503 79.4175C175.373 79.4175 175.24 79.3815 175.121 79.306ZM177.325 75.6537C176.976 75.4594 176.854 75.024 177.048 74.675C177.242 74.326 177.678 74.2036 178.028 74.3979C178.373 74.5922 178.499 75.0276 178.305 75.3767C178.175 75.6141 177.93 75.7437 177.678 75.7437C177.559 75.7437 177.437 75.7149 177.325 75.6537ZM179.335 71.8971C178.975 71.7244 178.827 71.2926 179 70.9364C179.173 70.5802 179.605 70.429 179.965 70.6018C180.321 70.7781 180.469 71.2063 180.296 71.5661C180.17 71.8216 179.914 71.9691 179.648 71.9691C179.54 71.9691 179.436 71.9475 179.335 71.8971ZM181.117 68.0326C180.754 67.8815 180.577 67.4605 180.728 67.0934C180.88 66.7264 181.301 66.5501 181.668 66.7012C182.036 66.8523 182.212 67.2733 182.061 67.6404C181.946 67.9174 181.675 68.0866 181.395 68.0866C181.301 68.0866 181.207 68.0686 181.117 68.0326ZM182.662 64.0601C182.284 63.9341 182.082 63.5239 182.208 63.1497C182.338 62.7719 182.745 62.5704 183.123 62.6963C183.501 62.8223 183.703 63.2325 183.573 63.6103C183.472 63.909 183.191 64.0997 182.893 64.0997C182.813 64.0997 182.738 64.0853 182.662 64.0601ZM60.3617 61.2067H60.3653C60.3473 60.8108 60.657 60.4726 61.0531 60.4582C61.4492 60.4402 61.7877 60.7497 61.8021 61.1455C61.8201 61.5449 61.5104 61.8795 61.1107 61.8939C61.1107 61.8939 61.0927 61.8939 61.0819 61.8939C60.6966 61.8939 60.3797 61.5881 60.3617 61.2031V61.2067ZM183.937 59.9976C183.552 59.8933 183.325 59.5011 183.426 59.1161C183.526 58.731 183.923 58.5043 184.308 58.6051C184.69 58.7059 184.92 59.1017 184.819 59.4831C184.733 59.8069 184.441 60.0192 184.121 60.0192C184.059 60.0192 183.998 60.012 183.937 59.9976ZM61.0243 57.6372C60.6282 57.6264 60.3113 57.2989 60.3185 56.9031C60.3257 56.5037 60.657 56.1907 61.0531 56.1979C61.4528 56.2051 61.7661 56.5361 61.7589 56.9319C61.7517 57.3241 61.4312 57.6372 61.0387 57.6372H61.0243ZM184.938 55.856C184.545 55.7805 184.29 55.4026 184.365 55.014C184.441 54.6218 184.819 54.3663 185.208 54.4419C185.601 54.5175 185.853 54.8917 185.781 55.2839C185.712 55.6293 185.413 55.8668 185.075 55.8668C185.028 55.8668 184.981 55.8632 184.938 55.856ZM61.2044 53.3768C60.8046 53.3444 60.5129 52.9954 60.5454 52.5996C60.5814 52.2038 60.9307 51.9087 61.3268 51.9447C61.7229 51.9771 62.0146 52.3261 61.9822 52.7219C61.9498 53.0961 61.6365 53.3804 61.2656 53.3804C61.244 53.3804 61.2224 53.3804 61.2044 53.3804V53.3768ZM185.64 51.6532C185.244 51.6065 184.963 51.2502 185.01 50.8544C185.057 50.4622 185.413 50.1779 185.809 50.2247C186.206 50.2715 186.486 50.6277 186.44 51.0235C186.396 51.3906 186.087 51.6604 185.727 51.6604C185.698 51.6604 185.669 51.6604 185.64 51.6532ZM61.6617 49.138C61.2656 49.0769 60.9991 48.7098 61.0567 48.3176C61.1179 47.9218 61.4888 47.6556 61.8814 47.7167C62.2739 47.7779 62.544 48.1449 62.4827 48.5371C62.4287 48.8934 62.119 49.1452 61.7697 49.1452C61.7337 49.1452 61.6977 49.1452 61.6617 49.138ZM186.036 47.4109C185.637 47.3965 185.331 47.0618 185.349 46.6624C185.367 46.2666 185.701 45.9572 186.101 45.9752C186.497 45.9895 186.807 46.3242 186.789 46.7236C186.771 47.1086 186.454 47.4145 186.069 47.4145C186.069 47.4145 186.051 47.4145 186.04 47.4145L186.036 47.4109ZM62.4143 44.9425C62.0254 44.8525 61.7841 44.4675 61.8742 44.0825C61.9642 43.6938 62.3495 43.4528 62.7384 43.5391C63.1237 43.6291 63.3686 44.0177 63.2786 44.4027C63.203 44.7373 62.9077 44.9604 62.58 44.9604C62.526 44.9604 62.4719 44.9604 62.4179 44.9425H62.4143ZM185.356 42.4632C185.341 42.0638 185.651 41.7292 186.051 41.7148C186.447 41.7004 186.782 42.0099 186.796 42.4057C186.811 42.8051 186.501 43.1397 186.101 43.1541H186.076C185.694 43.1541 185.37 42.8483 185.356 42.4632ZM63.4802 40.8188C63.1057 40.7001 62.8933 40.2935 63.0157 39.9157C63.1345 39.5342 63.5415 39.3291 63.9196 39.4479C64.3013 39.5702 64.5102 39.9732 64.3877 40.3546C64.2905 40.6569 64.006 40.8548 63.7035 40.8548C63.6279 40.8548 63.5559 40.844 63.4802 40.8188ZM185.024 38.2748C184.978 37.8826 185.258 37.5228 185.655 37.476C186.047 37.4257 186.407 37.7063 186.458 38.1021C186.504 38.4979 186.224 38.8542 185.827 38.9045C185.799 38.9045 185.77 38.9045 185.741 38.9045C185.381 38.9045 185.071 38.6383 185.024 38.2712V38.2748ZM109.056 37.0694C109.045 36.67 109.358 36.3426 109.758 36.3318C110.154 36.321 110.485 36.634 110.496 37.0334C110.507 37.4292 110.19 37.7603 109.794 37.7711H109.776C109.387 37.7711 109.067 37.4616 109.056 37.0694ZM64.8991 36.8032C64.5318 36.6448 64.3589 36.2238 64.5174 35.8568C64.6722 35.4934 65.0935 35.3207 65.4608 35.4754C65.8246 35.6301 65.9974 36.0547 65.8426 36.4181C65.7237 36.6952 65.4572 36.8571 65.1764 36.8571C65.0827 36.8571 64.9891 36.8391 64.8991 36.8032ZM105.325 36.4757C105.008 36.2346 104.943 35.7848 105.181 35.4682C105.419 35.1479 105.872 35.0832 106.189 35.3243C106.51 35.5617 106.575 36.0151 106.333 36.3318C106.193 36.5189 105.977 36.6196 105.757 36.6196C105.606 36.6196 105.455 36.5729 105.325 36.4757ZM113.136 36.0439C112.866 35.7561 112.88 35.2991 113.172 35.0292C113.46 34.7557 113.917 34.7701 114.187 35.0616C114.461 35.353 114.443 35.8064 114.155 36.0799C114.014 36.2094 113.838 36.2742 113.662 36.2742C113.471 36.2742 113.28 36.195 113.136 36.0439ZM184.34 34.1368C184.257 33.7482 184.502 33.3668 184.895 33.284C185.284 33.2013 185.665 33.4496 185.748 33.8382C185.831 34.2268 185.583 34.6082 185.194 34.691C185.143 34.7018 185.093 34.709 185.042 34.709C184.708 34.709 184.409 34.4751 184.34 34.1368ZM102.837 32.5464C102.736 32.1614 102.97 31.7656 103.352 31.6648C103.737 31.5677 104.129 31.798 104.23 32.1794C104.331 32.5644 104.101 32.9602 103.715 33.0609C103.654 33.0753 103.596 33.0825 103.535 33.0825C103.215 33.0825 102.923 32.8666 102.837 32.5464ZM66.6888 32.935C66.3431 32.7443 66.2135 32.3053 66.4079 31.9599C66.5988 31.6108 67.0381 31.4849 67.3838 31.6756C67.7331 31.8663 67.8592 32.3053 67.6683 32.6543C67.5351 32.8918 67.2902 33.025 67.0345 33.025C66.9193 33.025 66.8005 32.9962 66.6888 32.935ZM115.43 32.5284C115.037 32.4636 114.771 32.0894 114.839 31.6972C114.904 31.305 115.278 31.0423 115.671 31.1107C116.063 31.1754 116.326 31.5461 116.258 31.9383C116.2 32.2909 115.894 32.5392 115.548 32.5392C115.509 32.5392 115.469 32.5356 115.43 32.5284ZM183.278 30.0816C183.159 29.7002 183.372 29.2971 183.753 29.1784C184.131 29.0597 184.535 29.272 184.654 29.6534C184.772 30.0312 184.56 30.4378 184.182 30.5529C184.11 30.5745 184.038 30.5853 183.966 30.5853C183.66 30.5853 183.375 30.3874 183.278 30.0816ZM68.8891 29.2864C68.565 29.0525 68.493 28.6027 68.7234 28.2824C68.9539 27.9586 69.404 27.883 69.7281 28.1133C70.0522 28.3472 70.1243 28.797 69.8938 29.1208C69.7533 29.3151 69.5337 29.4195 69.3068 29.4195C69.1628 29.4195 69.0151 29.3763 68.8891 29.2864ZM103.215 28.8474C102.819 28.8078 102.527 28.4552 102.57 28.0593C102.61 27.6635 102.963 27.3757 103.359 27.4153C103.751 27.4548 104.039 27.8075 104.003 28.2033C103.964 28.5739 103.65 28.851 103.287 28.851C103.262 28.851 103.236 28.851 103.215 28.8474ZM114.634 27.7679C114.537 27.3829 114.771 26.9907 115.156 26.8971C115.541 26.7963 115.934 27.0338 116.031 27.4188C116.128 27.8039 115.891 28.1961 115.505 28.2896C115.448 28.304 115.39 28.3112 115.332 28.3112C115.008 28.3112 114.713 28.0953 114.634 27.7679ZM181.837 26.1487C181.683 25.7816 181.855 25.3606 182.223 25.2059C182.586 25.0512 183.008 25.2203 183.166 25.5873C183.321 25.9544 183.148 26.3754 182.785 26.5301C182.691 26.5697 182.594 26.5876 182.5 26.5876C182.219 26.5876 181.953 26.4221 181.837 26.1487ZM71.5179 25.9328C71.2262 25.6593 71.2118 25.2059 71.4855 24.9144C71.7556 24.6266 72.2129 24.6122 72.501 24.8821C72.7927 25.1555 72.8071 25.6125 72.5334 25.9004C72.393 26.0515 72.2021 26.1271 72.0076 26.1271C71.8312 26.1271 71.6547 26.0623 71.5179 25.9328ZM103.967 24.659C103.589 24.5366 103.384 24.13 103.506 23.7522C103.632 23.3744 104.036 23.1693 104.414 23.2916C104.792 23.414 105.001 23.8206 104.878 24.1984C104.778 24.5042 104.497 24.695 104.191 24.695C104.119 24.695 104.043 24.6842 103.967 24.659ZM113.035 24.0833C112.822 23.7486 112.923 23.3024 113.258 23.0937C113.593 22.8814 114.04 22.9786 114.252 23.3168C114.465 23.6515 114.364 24.0976 114.029 24.3099C113.91 24.3855 113.777 24.4215 113.644 24.4215C113.406 24.4215 113.172 24.3027 113.035 24.0833ZM74.5716 22.9714C74.3231 22.6583 74.3736 22.2085 74.6869 21.9603C74.9965 21.712 75.4503 21.7624 75.6988 22.0718C75.9472 22.3849 75.8932 22.8382 75.5835 23.0865C75.4503 23.1909 75.2918 23.2413 75.1334 23.2413C74.9209 23.2413 74.7121 23.1513 74.5716 22.9714ZM180.012 22.3885C179.821 22.0394 179.947 21.6004 180.296 21.4097C180.646 21.219 181.081 21.345 181.276 21.6904C181.467 22.0394 181.341 22.4784 180.991 22.6691C180.88 22.7303 180.761 22.7591 180.646 22.7591C180.39 22.7591 180.145 22.6259 180.012 22.3885ZM110.41 21.0067C110.111 20.7405 110.086 20.2871 110.349 19.9884C110.615 19.6934 111.069 19.6682 111.368 19.9308C111.663 20.1971 111.692 20.6505 111.425 20.9492C111.285 21.1075 111.087 21.1902 110.889 21.1902C110.716 21.1902 110.547 21.1291 110.41 21.0067ZM78.0287 20.4886C77.8306 20.1431 77.9494 19.7042 78.2952 19.5062C78.6373 19.3083 79.0802 19.4235 79.2782 19.7689C79.4763 20.1144 79.3575 20.5533 79.0118 20.7512C78.9001 20.816 78.7741 20.8484 78.6553 20.8484C78.4032 20.8484 78.1619 20.7189 78.0287 20.4886ZM105.516 20.6901C105.163 20.5102 105.022 20.0748 105.206 19.7221C105.39 19.3695 105.822 19.2292 106.178 19.4127C106.531 19.5926 106.668 20.028 106.485 20.3806C106.358 20.6289 106.106 20.7728 105.847 20.7728C105.736 20.7728 105.62 20.7441 105.516 20.6901ZM177.804 18.837C177.574 18.5095 177.653 18.0633 177.981 17.8366C178.308 17.6064 178.755 17.6855 178.982 18.013C179.212 18.3368 179.133 18.7866 178.805 19.0133C178.679 19.1032 178.535 19.1464 178.395 19.1464C178.168 19.1464 177.945 19.0385 177.804 18.837ZM81.8206 18.5527C81.6766 18.1821 81.8602 17.7683 82.2312 17.6208C82.6021 17.4768 83.0198 17.6603 83.1638 18.031C83.3079 18.4016 83.1242 18.819 82.7533 18.9629C82.6669 18.9953 82.5805 19.0133 82.494 19.0133C82.2059 19.0133 81.9323 18.837 81.8206 18.5527ZM107.05 18.7074C106.693 18.5239 106.557 18.0885 106.74 17.7359C106.924 17.3833 107.36 17.2465 107.712 17.43C108.065 17.6136 108.202 18.0453 108.019 18.4016C107.893 18.6463 107.64 18.7866 107.378 18.7866C107.266 18.7866 107.154 18.7614 107.05 18.7074ZM85.8611 17.1998C85.7602 16.8147 85.9907 16.4225 86.376 16.3218C86.7613 16.2246 87.1538 16.4585 87.2511 16.8399C87.3519 17.2249 87.1178 17.6172 86.7325 17.7179C86.6713 17.7323 86.6137 17.7395 86.5561 17.7395C86.232 17.7395 85.9403 17.5236 85.8575 17.1998H85.8611ZM103.226 17.2249C102.84 17.1206 102.613 16.7248 102.721 16.3434C102.822 15.9583 103.222 15.7317 103.604 15.836C103.989 15.9404 104.212 16.3362 104.108 16.7212C104.021 17.0414 103.73 17.2501 103.416 17.2501C103.352 17.2501 103.287 17.2429 103.226 17.2249ZM107.644 17.0018C107.32 16.7716 107.241 16.3254 107.471 15.9979C107.698 15.6741 108.148 15.5949 108.476 15.8252C108.8 16.0519 108.879 16.5017 108.649 16.8255C108.508 17.027 108.285 17.1314 108.058 17.1314C107.918 17.1314 107.77 17.0918 107.644 17.0018ZM90.0167 16.2606C89.9555 15.8684 90.222 15.4978 90.6145 15.4366C91.007 15.3718 91.3743 15.6381 91.4392 16.0303C91.504 16.4225 91.2339 16.7931 90.845 16.8543C90.8054 16.8615 90.7657 16.8651 90.7297 16.8651C90.3804 16.8651 90.0743 16.6132 90.0167 16.2606ZM99.1563 16.5017C98.7602 16.4621 98.4721 16.1131 98.5081 15.7173C98.5441 15.3215 98.897 15.03 99.2931 15.066C99.6857 15.102 99.9773 15.4546 99.9413 15.8504C99.9089 16.2246 99.592 16.5017 99.2247 16.5017H99.1563ZM95.0006 16.4153C94.6045 16.4333 94.266 16.1275 94.248 15.7317C94.2264 15.3322 94.5361 14.9976 94.9322 14.9796C95.3283 14.958 95.6668 15.2675 95.6848 15.6633C95.7028 16.0591 95.3968 16.3973 95.0006 16.4153ZM175.222 15.5517C174.959 15.2495 174.988 14.7961 175.291 14.5334C175.59 14.2708 176.043 14.3031 176.306 14.6018C176.569 14.9005 176.537 15.3538 176.241 15.6165C176.105 15.7353 175.932 15.7964 175.766 15.7964C175.564 15.7964 175.366 15.7137 175.222 15.5517ZM110.244 13.6231C109.949 13.3568 109.927 12.8998 110.197 12.6084C110.464 12.3133 110.917 12.2917 111.213 12.558C111.508 12.8278 111.53 13.2848 111.263 13.5763C111.123 13.7346 110.928 13.8138 110.73 13.8138C110.557 13.8138 110.385 13.749 110.248 13.6231H110.244ZM172.295 12.5652C171.999 12.2989 171.981 11.8419 172.248 11.5505C172.518 11.2554 172.972 11.2338 173.267 11.5037C173.559 11.7736 173.58 12.2269 173.314 12.522C173.17 12.6767 172.975 12.7559 172.781 12.7559C172.608 12.7559 172.431 12.6911 172.295 12.5652ZM113.237 10.5933C112.977 10.2911 113.01 9.83768 113.312 9.5786C113.611 9.31593 114.068 9.35191 114.328 9.65057C114.587 9.95282 114.555 10.4062 114.252 10.6653C114.115 10.784 113.95 10.8416 113.784 10.8416C113.582 10.8416 113.381 10.7552 113.237 10.5933ZM169.057 9.92404C168.737 9.69015 168.665 9.24037 168.899 8.91652C169.133 8.59628 169.583 8.52791 169.907 8.7618C170.228 8.99568 170.3 9.44547 170.062 9.76571C169.921 9.96002 169.702 10.0608 169.482 10.0608C169.334 10.0608 169.183 10.0176 169.057 9.92404ZM116.568 7.93779C116.344 7.60675 116.431 7.16056 116.762 6.93747C117.09 6.71438 117.54 6.80074 117.76 7.12818C117.983 7.45922 117.9 7.90541 117.569 8.1285C117.446 8.21126 117.306 8.25084 117.165 8.25084C116.935 8.25084 116.708 8.14289 116.568 7.93779ZM165.55 7.64633C165.204 7.44483 165.085 7.00584 165.287 6.6604C165.485 6.31857 165.924 6.19982 166.27 6.39773C166.612 6.59563 166.731 7.03822 166.533 7.38366C166.4 7.61395 166.158 7.73989 165.906 7.73989C165.787 7.73989 165.661 7.7111 165.55 7.64633ZM120.183 5.68167C119.999 5.32904 120.136 4.89365 120.489 4.71014C120.842 4.52663 121.278 4.66336 121.461 5.01599C121.645 5.36862 121.508 5.80042 121.155 5.98753C121.051 6.0415 120.936 6.06669 120.824 6.06669C120.565 6.06669 120.313 5.92636 120.183 5.68167ZM161.823 5.73925C161.459 5.57732 161.297 5.15273 161.459 4.7893C161.621 4.42588 162.049 4.26755 162.41 4.42947C162.773 4.5914 162.935 5.01599 162.773 5.37942C162.654 5.64569 162.392 5.80401 162.118 5.80401C162.017 5.80401 161.916 5.78242 161.823 5.73925ZM124.029 3.85015C123.885 3.47953 124.069 3.06213 124.44 2.9182C124.811 2.77067 125.228 2.95418 125.372 3.3248C125.516 3.69543 125.333 4.11283 124.962 4.25676C124.875 4.29274 124.789 4.30713 124.702 4.30713C124.414 4.30713 124.141 4.13441 124.029 3.85015ZM157.919 4.20998C157.541 4.08404 157.339 3.67384 157.469 3.29962C157.595 2.9218 158.005 2.72029 158.38 2.84983C158.758 2.97577 158.96 3.38597 158.834 3.76019C158.729 4.06245 158.448 4.24956 158.149 4.24956C158.074 4.24956 157.995 4.23876 157.919 4.20998ZM153.889 3.04414C153.5 2.95058 153.263 2.55837 153.36 2.17335C153.454 1.78834 153.843 1.55085 154.228 1.64441C154.613 1.73796 154.851 2.12658 154.757 2.51519C154.678 2.84263 154.383 3.06573 154.059 3.06573C154.001 3.06573 153.943 3.05853 153.889 3.04414ZM128.051 2.44323C127.947 2.05821 128.174 1.666 128.556 1.55805C128.941 1.4537 129.337 1.68039 129.442 2.06541C129.546 2.44682 129.319 2.84263 128.937 2.95058C128.873 2.96498 128.811 2.97577 128.747 2.97577C128.43 2.97577 128.138 2.76347 128.051 2.44323ZM149.763 2.20934C149.37 2.14457 149.104 1.77395 149.168 1.38173C149.233 0.989522 149.604 0.72325 150 0.791617C150.389 0.852788 150.656 1.22341 150.591 1.61922C150.533 1.96825 150.227 2.22013 149.881 2.22013C149.842 2.22013 149.802 2.22013 149.763 2.20934ZM132.196 1.46449C132.132 1.07228 132.398 0.70166 132.791 0.633293C133.179 0.568524 133.554 0.834797 133.619 1.22341C133.684 1.61562 133.421 1.98624 133.028 2.05461C132.985 2.06181 132.945 2.06181 132.906 2.06181C132.564 2.06181 132.258 1.81353 132.196 1.46449ZM145.585 1.666C145.189 1.63002 144.901 1.27738 144.937 0.881574C144.973 0.485764 145.322 0.197902 145.722 0.233885C146.118 0.269868 146.406 0.6189 146.37 1.01831C146.334 1.38893 146.021 1.6696 145.654 1.6696C145.632 1.6696 145.607 1.6696 145.585 1.666ZM136.42 0.892369C136.392 0.496559 136.691 0.151124 137.087 0.122338C137.483 0.093552 137.825 0.392209 137.857 0.788019C137.882 1.18383 137.587 1.52926 137.187 1.55805C137.187 1.55805 137.155 1.56165 137.137 1.56165C136.763 1.56165 136.446 1.27379 136.42 0.892369ZM141.386 1.43931C140.987 1.43211 140.67 1.10467 140.677 0.708857C140.684 0.313047 141.008 -0.00719966 141.408 -3.10948e-06C141.804 0.00359517 142.121 0.331038 142.117 0.730447C142.11 1.12266 141.79 1.43931 141.397 1.43931H141.386Z" fill="#455A64"/>
<path d="M279.175 154.013H213.148V233.204H279.175V154.013Z" fill="#263238"/>
<path d="M277.403 158.054H214.917V229.163H277.403V158.054Z" fill="#4DD0E1"/>
<path d="M250.819 160.645H219.342C218.725 160.645 218.226 161.144 218.226 161.76V174.106C218.226 174.722 218.725 175.222 219.342 175.222H250.819C251.436 175.222 251.935 174.722 251.935 174.106V161.76C251.935 161.144 251.436 160.645 250.819 160.645Z" fill="#B2EBF2"/>
<path d="M250.816 179.68H219.342C218.726 179.68 218.226 179.18 218.226 178.564C218.226 177.949 218.726 177.449 219.342 177.449H250.816C251.431 177.449 251.932 177.949 251.932 178.564C251.932 179.18 251.431 179.68 250.816 179.68Z" fill="#B2EBF2"/>
<path d="M228.636 184.138H219.342C218.726 184.138 218.226 183.638 218.226 183.023C218.226 182.407 218.726 181.907 219.342 181.907H228.636C229.252 181.907 229.753 182.407 229.753 183.023C229.753 183.638 229.252 184.138 228.636 184.138Z" fill="#B2EBF2"/>
<path d="M264.572 179.68C269.832 179.68 274.097 175.419 274.097 170.162C274.097 164.906 269.832 160.645 264.572 160.645C259.311 160.645 255.047 164.906 255.047 170.162C255.047 175.419 259.311 179.68 264.572 179.68Z" fill="#B2EBF2"/>
<g style="mix-blend-mode:screen">
<path d="M257.032 158.054L214.917 210.809V192.202L242.177 158.054H257.032Z" fill="#616161"/>
</g>
<g style="mix-blend-mode:screen">
<path d="M277.406 158.054V229.163H220.394L277.158 158.054H277.406Z" fill="#616161"/>
</g>
<path d="M234.499 210.035C236.178 210.035 237.539 208.675 237.539 206.998C237.539 205.321 236.178 203.961 234.499 203.961C232.821 203.961 231.46 205.321 231.46 206.998C231.46 208.675 232.821 210.035 234.499 210.035Z" fill="#84FFFF"/>
<path d="M228.82 206.998C228.82 203.655 231.543 200.938 234.885 200.938C238.226 200.938 240.949 203.659 240.949 206.998C240.949 210.337 238.226 213.057 234.885 213.057C231.543 213.057 228.82 210.337 228.82 206.998ZM229.108 206.998C229.108 210.179 231.701 212.77 234.885 212.77C238.068 212.77 240.661 210.179 240.661 206.998C240.661 203.817 238.072 201.226 234.885 201.226C231.698 201.226 229.108 203.814 229.108 206.998Z" fill="#84FFFF"/>
<path d="M228.129 206.998C228.129 202.903 231.464 199.571 235.562 199.571C239.66 199.571 242.994 202.903 242.994 206.998C242.994 211.093 239.66 214.425 235.562 214.425C231.464 214.425 228.129 211.093 228.129 206.998ZM228.417 206.998C228.417 210.935 231.622 214.133 235.558 214.133C239.494 214.133 242.699 210.931 242.699 206.998C242.699 203.065 239.494 199.863 235.558 199.863C231.622 199.863 228.417 203.065 228.417 206.998Z" fill="#84FFFF"/>
<path d="M234.067 199.985C234.067 200.251 233.851 200.467 233.584 200.467C233.318 200.467 233.102 200.251 233.102 199.985C233.102 199.719 233.318 199.503 233.584 199.503C233.851 199.503 234.067 199.719 234.067 199.985Z" fill="#84FFFF"/>
<path d="M238.104 195.246L239.325 197.362L240.55 195.246H238.104Z" fill="#84FFFF"/>
<path d="M236.782 197.362L235.562 195.246L234.341 197.362H236.782Z" fill="#84FFFF"/>
<path d="M230.578 195.246L231.799 197.362L233.02 195.246H230.578Z" fill="#84FFFF"/>
<path d="M245.638 218.75C244.666 218.264 242.603 218.081 241.81 219.085C241.018 220.088 238.166 235.863 238.166 235.863C240.093 238.886 241.666 237.648 241.508 237.623C242.466 233.74 244.057 232.949 245.365 228.642C245.53 228.091 251.605 237.997 253.175 238.857C256.568 240.71 257.846 238.836 257.846 238.836C257.846 238.836 246.611 219.236 245.638 218.75Z" fill="#263238"/>
<path d="M238.512 236.597C237.237 237.598 235.627 238.001 234.129 238.465C232.808 238.875 232.635 240.059 233.946 240.059H241.098C242.145 240.059 241.508 237.623 241.508 237.623L238.508 236.597H238.512Z" fill="#263238"/>
<path d="M248.893 212.144C248.919 212.241 248.944 212.334 248.976 212.428C249.304 213.421 250.024 214.252 250.341 215.256C250.788 216.667 250.251 218.315 250.971 219.606C251.504 220.56 252.595 221.06 253.665 221.298C255.314 221.665 257.504 221.571 258.656 223.043C259.373 223.96 259.225 225.356 259.798 226.389C261.27 229.041 264.511 230.689 267.461 229.376C270.104 228.195 271.465 224.752 270.338 222.086C269.621 220.387 268.033 218.829 268.433 217.03C268.595 216.296 269.081 215.666 269.254 214.936C269.657 213.227 268.231 211.589 266.665 210.798C265.016 209.967 262.693 209.787 261.317 208.495C260.078 207.333 259.412 204.997 260.864 203.72C261.263 203.367 261.71 203.062 262.019 202.63C262.455 202.029 262.567 201.208 262.315 200.51C261.987 199.604 260.939 198.823 259.942 199.013C259.52 199.096 259.268 199.291 258.811 199.244C258.206 199.179 257.619 198.916 257.086 198.639C256.297 198.233 255.545 197.736 254.691 197.495C252.941 196.998 250.91 197.765 249.923 199.291C249.545 199.873 249.156 200.813 249.257 201.514C249.38 202.338 249.949 203.191 250.273 203.954C250.788 205.17 251.18 206.541 250.453 207.746C250.129 208.286 249.66 208.725 249.326 209.254C248.789 210.103 248.656 211.172 248.893 212.14V212.144Z" fill="#FDD835"/>
<path d="M254.911 213.835C254.911 213.835 247.475 216.048 246.15 216.31C244.821 216.577 240.1 209.765 240.1 209.765L237.651 210.294C237.651 210.294 242.909 219.837 244.911 220.2C245.538 220.315 254.649 217.725 254.649 217.725L254.915 213.831L254.911 213.835Z" fill="#ED9D66"/>
<path d="M236.869 236.597C235.595 237.598 234.594 238.217 232.599 238.713C231.255 239.048 230.992 240.055 232.307 240.055H239.459C240.507 240.055 239.869 237.619 239.869 237.619L236.869 236.594V236.597Z" fill="#37474F"/>
<path d="M256.845 231.553C256.845 231.553 248.072 219.887 246.855 219.232C245.991 218.768 243.636 219.473 242.908 219.84C242.181 220.204 239.369 232.729 236.873 236.597C237.204 237.774 238.951 237.853 239.873 237.623C239.869 237.691 243.564 233.773 244.695 229.376C245.174 227.519 244.849 225.454 245.458 226.335C247.097 228.703 253.222 238.145 254.083 238.893C256.078 240.627 263.316 241.326 263.921 236.166C264.177 233.981 256.845 231.553 256.845 231.553Z" fill="#455A64"/>
<path d="M250.993 201.111C250.147 202.029 249.491 209.179 250.158 210.121C250.626 210.787 254.987 210.935 256.042 210.571C257.097 210.208 258.418 203.364 257.525 202.547C256.636 201.727 251.915 200.111 250.993 201.115V201.111Z" fill="#ED9D66"/>
<path d="M256.737 208.585C256.737 208.585 256.614 210.416 257.623 211.643C258.944 213.252 253.752 216.325 253.838 213.453C253.924 210.571 252.79 209.308 252.79 209.308C254.688 209.765 255.891 209.628 256.737 208.585Z" fill="#ED9D66"/>
<path d="M263.05 218.793C263.741 221.262 264.868 238.551 263.982 236.817C263.097 235.083 261.192 232.737 256.845 231.553C257.832 228.591 255.909 224.971 255.214 224.309C254.519 223.647 253.183 223.435 252.538 221.675C252.084 220.441 253.075 218.754 253.197 217.685C253.467 215.339 253.593 213.065 254.461 212.676C258.411 210.899 261.771 214.223 263.053 218.793H263.05Z" fill="white"/>
<path d="M250.622 203.889C250.132 203.263 249.912 202.439 249.991 201.651C250.099 200.636 250.812 200.089 251.778 199.859C253.438 199.46 255.735 199.848 257.104 200.931C258.461 202.004 258.148 204.677 259.012 206.106C259.574 207.03 260.489 207.671 261.277 208.412C261.897 208.995 262.484 209.722 262.653 210.575C262.754 211.082 262.764 211.222 263.049 211.661C263.333 212.097 263.553 212.572 263.701 213.072C263.805 213.421 264.155 215.605 264.486 216.778C263.2 214.763 259.394 212.525 257.935 212.525C256.045 212.525 254.799 212.842 254.457 211.514C254.1 210.139 254.936 209.506 255.047 208.175C255.13 207.178 254.27 206.03 253.369 205.674C252.469 205.318 251.489 204.81 250.809 204.105C250.74 204.037 250.679 203.961 250.618 203.886L250.622 203.889Z" fill="#FDD835"/>
<path d="M266.949 238.051C266.168 237.609 259.801 221.852 257.925 214.601C257.212 211.849 253.492 213.327 253.978 215.342C255.606 222.053 264.227 238.199 265.012 239.08C265.394 239.508 265.959 240.232 266.784 240.642C267.659 241.081 268.786 241.192 268.966 241.052C269.315 240.782 267.77 240.311 267.983 240.149C268.199 239.987 273.122 240.149 273.165 239.487C273.204 238.828 268.246 238.782 266.946 238.048L266.949 238.051Z" fill="#ED9D66"/>
<path d="M240.099 209.769C240.099 209.769 239.912 207.361 239.642 206.609C239.372 205.857 237.164 204.886 236.437 205.131C235.71 205.372 233.607 206.854 233.769 207.095C233.931 207.336 235.951 206.746 236.113 206.987C236.275 207.228 235.656 208.441 235.926 209.035C236.196 209.628 237.651 210.305 237.651 210.305L240.099 209.776V209.769Z" fill="#ED9D66"/>
<path d="M247.388 207.926H249.56C250.932 207.926 252.045 206.814 252.045 205.444C252.045 204.073 250.932 202.961 249.56 202.961H247.388C246.87 202.961 246.452 203.382 246.452 203.896V206.987C246.452 207.505 246.873 207.923 247.388 207.923V207.926Z" fill="#37474F"/>
<path d="M250.316 206.455H260.345C260.554 205.721 260.554 205.192 260.435 204.436H250.316V206.455Z" fill="#263238"/>
<path d="M249.751 204.436H249.117V206.455H249.751V204.436Z" fill="#263238"/>
<path d="M162.96 148.022C162.96 148.022 164.822 161.948 170.555 161.07C174.804 155.791 165.729 148.022 162.96 148.022Z" fill="#FBC02D"/>
<path d="M163.835 146.702C163.835 146.702 153.068 140.34 147.882 138.872C146.741 138.548 144.13 139.966 144.188 142.056C144.368 148.627 145.052 156.003 143.061 162.847C143.061 162.847 145.524 164.823 146.402 162.793C148.048 158.99 151.818 150.43 150.428 147.713C148.833 144.59 162.139 156.701 162.139 156.701C162.139 156.701 171.682 151.505 172.78 150.156C173.879 148.803 163.832 146.702 163.832 146.702H163.835Z" fill="#37474F"/>
<path d="M139.982 173.721C139.982 173.721 137.137 176.614 132.96 178.226C127.933 180.166 134.584 182.267 140.536 179.63C142.182 178.899 142.47 176.747 143.079 175.668C146.59 169.443 139.978 173.718 139.978 173.718L139.982 173.721Z" fill="#263238"/>
<path d="M143.065 162.847C143.065 162.847 142.337 164.294 138.203 165.326C134.123 166.345 139.532 168.493 143.587 167.852C146.623 167.374 146.068 166.287 147.037 165.514C152.626 161.055 143.065 162.844 143.065 162.844V162.847Z" fill="#263238"/>
<path d="M172.226 156.824C172.226 156.824 169.576 160.969 166.623 161.253C163.67 161.541 153.907 158.99 152.849 159.555C151.79 160.116 152.658 162.584 151.531 165.258C150.403 167.931 142.784 176.071 142.784 176.071C142.784 176.071 138.671 175.502 139.978 173.717C145.319 166.449 147.368 158.468 148.383 155.1C149.399 151.732 161.851 151.25 163.465 150.739C169.626 148.781 170.937 147.079 170.937 147.079L172.226 156.824Z" fill="#455A64"/>
<path d="M183.844 147.76C183.602 148.073 183.361 148.389 183.113 148.702C179.054 153.877 174.095 159.173 170.556 161.07C171.481 157.831 170.091 150.358 163.836 146.698C175.32 140.696 173.955 129.164 176.004 128.671C179.018 127.947 183.93 129.513 183.93 129.513C183.93 129.513 190.848 133.798 190.25 137.343C189.98 138.951 187.315 143.226 183.844 147.76Z" fill="#FDD835"/>
<path d="M180.559 129.966C180.559 129.966 180.562 131.596 179.569 132.906C178.575 134.219 186.836 134.05 185.845 131.557C185.215 129.966 184.895 128.138 184.895 128.138L180.559 129.966Z" fill="#E29059"/>
<path d="M177.916 120.067C177.916 120.067 176.706 129.48 177.671 130.132C178.633 130.783 182.817 131.323 184.495 130.107C186.177 128.89 187.131 121.28 185.749 120.557C184.362 119.833 177.916 120.067 177.916 120.067Z" fill="#ED9D66"/>
<path d="M176.321 117.642C176.09 118.329 176.112 119.135 176.378 119.815C176.897 121.15 178.229 122.669 179.627 122.978C180.545 123.183 182.608 123.457 182.363 124.842C182.32 125.087 182.241 125.321 182.201 125.565C182.151 125.886 182.248 125.979 182.435 126.238C183.058 126.274 183.566 125.562 184.182 125.673C184.585 125.749 184.841 126.17 184.884 126.577C184.927 126.983 184.812 127.386 184.744 127.789C184.675 128.189 184.683 128.646 184.744 129.049C184.769 129.228 184.935 129.606 185.09 129.703C185.226 129.793 185.417 129.801 185.561 129.718C185.716 129.631 185.806 129.462 185.885 129.304C186.915 127.278 188.417 125.422 188.503 123.043C188.561 121.269 188.957 118.491 187.275 117.333C185.803 116.318 183.786 117.232 182.014 116.987C181.233 116.879 180.505 116.545 179.749 116.318C178.993 116.091 178.15 115.983 177.437 116.318C176.886 116.577 176.519 117.066 176.328 117.638L176.321 117.642Z" fill="#F36E67"/>
<path d="M176.004 128.674C174.29 129.031 167.905 135.22 166.09 134.5C165.121 134.115 160.886 130.049 160.886 130.049C159.093 130.25 158.697 130.139 158.704 131.906C158.704 131.906 164.344 139.397 165.24 139.721C166.137 140.045 176.62 136.259 176.62 136.259L175.997 128.674H176.004Z" fill="#FDD835"/>
<path d="M190.249 137.343C190.249 137.343 189.651 147.965 188.899 148.821C188.146 149.677 187.559 150.009 186.814 149.893C186.072 149.778 180.364 143.748 180.364 143.748L190.249 137.339V137.343Z" fill="#FDD835"/>
<path d="M160.386 128.167C160.386 128.167 160.688 129.577 160.89 130.045C161.091 130.513 159.59 132.255 158.708 131.902C157.825 131.549 157.768 129.041 157.832 128.75C157.897 128.458 160.386 128.163 160.386 128.163V128.167Z" fill="#ED9D66"/>
<path d="M159.089 132.949C159.089 132.949 159.662 123.471 159.385 122.644C159.107 121.812 154.484 121.172 154.167 121.561C153.85 121.949 153.76 123.392 154.278 123.813C154.797 124.234 156.623 124.335 156.842 125.076C157.062 125.817 157.03 132.186 157.483 132.902C157.941 133.618 159.086 132.953 159.086 132.953L159.089 132.949Z" fill="#263238"/>
<path d="M156.356 126.235C156.662 125.727 158.376 127.199 158.34 127.674C158.304 128.149 157.209 127.728 157.184 128.217C157.173 128.412 158.308 129.128 158.293 129.333C158.243 130.02 158.171 130.675 158.11 130.776C157.987 130.977 156.766 130.938 156.302 130.603C155.837 130.268 156.046 126.742 156.352 126.235H156.356Z" fill="#ED9D66"/>
<path d="M160.385 128.167C160.385 128.167 160.195 126.415 160.011 125.357C159.86 124.479 159.471 124.507 159.193 126.098C158.956 127.462 159.082 128.84 159.636 129.117C160.191 129.394 160.385 128.171 160.385 128.171V128.167Z" fill="#ED9D66"/>
<path d="M178.967 137.58C178.967 137.58 179.763 138.786 180.123 139.145C180.483 139.505 179.723 141.675 178.773 141.671C177.822 141.668 176.853 139.354 176.806 139.055C176.76 138.757 178.967 137.58 178.967 137.58Z" fill="#ED9D66"/>
<path d="M179.511 142.506C179.511 142.506 176.576 133.478 176.014 132.805C175.452 132.132 170.915 133.223 170.76 133.701C170.609 134.18 171.052 135.554 171.689 135.756C172.33 135.961 174.062 135.385 174.538 135.993C175.013 136.601 177.311 142.542 177.998 143.042C178.686 143.542 179.507 142.502 179.507 142.502L179.511 142.506Z" fill="#263238"/>
<path d="M174.509 137.253C175.089 137.134 178.589 137.674 178.795 138.019C179 138.364 179.511 140.959 179.472 141.193C179.432 141.427 176.616 141.477 176.061 141.337C175.694 141.243 175.327 139.998 174.988 138.821C174.815 138.224 173.973 137.364 174.509 137.253Z" fill="#ED9D66"/>
<path d="M179.036 137.684C179.036 137.684 178.089 136.591 177.534 135.673C177.073 134.91 176.839 134.971 177.16 136.555C177.437 137.908 178.067 138.786 178.683 138.839C179.299 138.893 179.032 137.684 179.032 137.684H179.036Z" fill="#ED9D66"/>
<path d="M183.922 147.461L183.843 147.76C183.602 148.073 183.36 148.389 183.112 148.702L180.804 144.665L183.922 147.457V147.461Z" fill="#FBC02D"/>
<path d="M174.045 119.999C174.405 119.412 182.327 121.597 182.673 121.92C183.015 122.244 181.938 126.501 181.492 126.753C181.045 127.008 173.494 124.911 173.202 124.691C172.91 124.472 173.685 120.585 174.045 119.999Z" fill="white"/>
<path d="M174.488 120.47C174.79 119.977 179.241 121.201 179.529 121.474C179.818 121.748 178.91 125.332 178.536 125.547C178.161 125.763 174.023 124.612 173.778 124.425C173.534 124.238 174.185 120.967 174.488 120.474V120.47Z" fill="#B2EBF2"/>
<path d="M180.436 121.287C180.573 120.967 183.724 122.118 184.07 122.442C184.415 122.766 183.584 126.685 183.137 126.94C182.691 127.195 179.64 126.645 179.352 126.425C179.064 126.206 180.166 121.92 180.44 121.287H180.436Z" fill="#ECEFF1"/>
<path d="M182.277 125.569C182.374 125.684 187.38 127.048 187.38 127.048C187.38 127.048 188.068 125.724 188.359 124.947C188.359 124.947 183.062 123.349 182.896 123.392C182.731 123.435 182.18 125.454 182.277 125.569Z" fill="#455A64"/>
<path d="M181.013 125.198C181.132 125.353 181.589 125.483 181.694 125.4C181.798 125.317 182.371 123.374 182.313 123.223C182.255 123.072 181.748 122.989 181.632 123.021C181.517 123.054 180.894 125.044 181.013 125.198Z" fill="#455A64"/>
<path d="M20.112 59.9724C20.112 59.9724 20.7422 53.5099 22.4779 51.6172C24.2136 49.7245 39.99 49.5662 41.5673 50.5125C43.1446 51.4589 45.5105 58.238 45.5105 58.238L20.1084 59.9724H20.112Z" fill="#CFD8DC"/>
<path d="M104.983 59.9724C104.983 59.9724 104.352 53.5099 102.617 51.6172C100.881 49.7245 85.1045 49.5662 83.5272 50.5125C81.9499 51.4589 79.584 58.238 79.584 58.238L104.983 59.9724Z" fill="#CFD8DC"/>
<path d="M120.788 125.709C113.42 130.491 109.221 127.836 103.758 123.169C96.2463 116.746 86.3504 106.509 62.5472 106.509C38.7404 106.509 28.8445 116.746 21.3327 123.169C15.8698 127.836 11.6745 130.491 4.30308 125.709C-9.29106 116.897 12.2219 56.8239 28.4448 53.4307C36.198 51.8079 40.9694 54.8052 47.5486 57.2988C51.5278 58.8065 56.1769 60.1271 62.5472 60.1271C68.9175 60.1271 73.5593 58.8065 77.5422 57.2988C84.125 54.8052 88.8964 51.8079 96.6496 53.4307C112.869 56.8203 134.382 116.897 120.788 125.709Z" fill="#ECEFF1"/>
<path d="M103.805 122.007C103.805 122.399 103.791 122.788 103.758 123.169C96.2465 116.746 86.3507 106.509 62.5475 106.509C38.7406 106.509 28.8448 116.746 21.3329 123.169C21.3005 122.788 21.2861 122.399 21.2861 122.007C21.2861 108.297 39.7598 97.1786 62.5475 97.1786C85.3316 97.1786 103.805 108.297 103.805 122.007Z" fill="#CFD8DC"/>
<path d="M77.5424 57.2988C74.5895 61.2066 69.8756 63.5778 62.5438 63.5778C55.2156 63.5778 50.5017 61.203 47.5488 57.2988C51.528 58.8065 56.1771 60.1271 62.5474 60.1271C68.9177 60.1271 73.5595 58.8065 77.5424 57.2988Z" fill="#CFD8DC"/>
<path d="M12.5312 70.6377C18.1237 99.0317 5.69631 111.931 0.10381 116.167C-0.846879 104.256 4.91127 84.7645 12.5312 70.6377Z" fill="#CFD8DC"/>
<path d="M124.99 116.167C119.401 111.935 106.97 99.0317 112.563 70.6377C120.183 84.7645 125.945 104.256 124.99 116.167Z" fill="#CFD8DC"/>
<path d="M54.5059 104.271C54.5059 111.147 48.9242 116.724 42.0425 116.724C35.1608 116.724 29.5791 111.147 29.5791 104.271C29.5791 97.3945 35.1608 91.8171 42.0425 91.8171C48.9242 91.8171 54.5059 97.3945 54.5059 104.271Z" fill="#ECEFF1"/>
<path d="M52.4745 104.271C52.4745 110.028 47.8039 114.699 42.0385 114.699C36.2768 114.699 31.6025 110.032 31.6025 104.271C31.6025 98.5136 36.2732 93.843 42.0385 93.843C47.8003 93.843 52.4745 98.51 52.4745 104.271Z" fill="#CFD8DC"/>
<path d="M49.4572 104.271C49.4572 108.362 46.137 111.68 42.0426 111.68C37.9481 111.68 34.6279 108.362 34.6279 104.271C34.6279 100.18 37.9481 96.8619 42.0426 96.8619C46.137 96.8619 49.4572 100.18 49.4572 104.271Z" fill="#37474F"/>
<path d="M43.3027 99.2656C43.3027 99.9636 42.7373 100.525 42.0387 100.525C41.3401 100.525 40.7747 99.96 40.7783 99.2656C40.7783 98.5675 41.3437 98.0062 42.0423 98.0026C42.7409 98.0026 43.3027 98.5675 43.3027 99.2656Z" fill="#546E7A"/>
<path d="M43.3027 109.276C43.3027 109.974 42.7373 110.535 42.0387 110.535C41.3401 110.535 40.7783 109.97 40.7783 109.272C40.7783 108.574 41.3437 108.009 42.0387 108.013C42.7373 108.013 43.2991 108.578 43.2991 109.272L43.3027 109.276Z" fill="#546E7A"/>
<path d="M37.0335 103.011C37.7321 103.011 38.2939 103.576 38.2939 104.274C38.2939 104.972 37.7285 105.534 37.0299 105.534C36.3313 105.534 35.7695 104.969 35.7695 104.274C35.7695 103.576 36.3349 103.015 37.0299 103.011H37.0335Z" fill="#546E7A"/>
<path d="M47.0521 103.011C47.7507 103.011 48.3161 103.576 48.3125 104.271C48.3125 104.969 47.7471 105.53 47.0521 105.53C46.3535 105.53 45.7917 104.965 45.7881 104.271C45.7881 103.573 46.3535 103.011 47.0521 103.011Z" fill="#546E7A"/>
<g style="mix-blend-mode:screen">
<path d="M49.6159 74.1603C49.6159 83.2136 42.2697 90.5541 33.2093 90.5541C24.149 90.5541 16.8027 83.2136 16.8027 74.1603C16.8027 65.1071 24.149 57.7666 33.2093 57.7666C42.2697 57.7666 49.6159 65.1071 49.6159 74.1603Z" fill="#263238"/>
</g>
<g style="mix-blend-mode:screen">
<path d="M108.296 74.1603C108.296 83.2136 100.949 90.5541 91.889 90.5541C82.8287 90.5541 75.4824 83.2136 75.4824 74.1603C75.4824 65.1071 82.8287 57.7666 91.889 57.7666C100.949 57.7666 108.296 65.1071 108.296 74.1603Z" fill="#263238"/>
</g>
<path d="M48.1933 74.1604C48.1933 82.4328 41.4844 89.1364 33.2055 89.1364C24.9266 89.1364 18.2178 82.4328 18.2178 74.1604C18.2178 65.8879 24.9266 59.1843 33.2055 59.1843C41.4844 59.1843 48.1933 65.8879 48.1933 74.1604Z" fill="#CFD8DC"/>
<path d="M30.1768 63.8441V69.7885C31.3615 70.9723 32.0241 71.6344 33.2089 72.8182C34.3936 71.6344 35.0562 70.9723 36.241 69.7885V63.8441H30.1804H30.1768Z" fill="#37474F"/>
<path d="M36.2371 84.4802V78.5359C35.0523 77.352 34.3897 76.6899 33.205 75.5061C32.0202 76.6899 31.3576 77.352 30.1729 78.5359V84.4802H36.2335H36.2371Z" fill="#37474F"/>
<path d="M22.8809 77.1901H28.8299C30.0146 76.0063 30.6772 75.3442 31.862 74.1604C30.6772 72.9765 30.0146 72.3144 28.8299 71.1306H22.8809V77.1865V77.1901Z" fill="#37474F"/>
<path d="M43.5329 71.1343H37.5839C36.3991 72.3181 35.7365 72.9802 34.5518 74.164C35.7365 75.3479 36.3991 76.0099 37.5839 77.1938H43.5329V71.1379V71.1343Z" fill="#37474F"/>
<path d="M70.5918 104.271C70.5918 111.147 76.1735 116.724 83.0552 116.724C89.9369 116.724 95.5186 111.147 95.5186 104.271C95.5186 97.3945 89.9369 91.8171 83.0552 91.8171C76.1735 91.8171 70.5918 97.3945 70.5918 104.271Z" fill="#ECEFF1"/>
<path d="M72.6191 104.271C72.6191 110.028 77.2898 114.699 83.0551 114.699C88.8169 114.699 93.4911 110.032 93.4911 104.271C93.4911 98.5136 88.8205 93.843 83.0551 93.843C77.2934 93.843 72.6191 98.51 72.6191 104.271Z" fill="#CFD8DC"/>
<path d="M76.9014 74.1604C76.9014 82.4328 83.6102 89.1364 91.8891 89.1364C100.168 89.1364 106.877 82.4328 106.877 74.1604C106.877 65.8879 100.168 59.1843 91.8891 59.1843C83.6102 59.1843 76.9014 65.8879 76.9014 74.1604Z" fill="#CFD8DC"/>
<path d="M58.1318 82.2026C58.1318 84.6386 60.1088 86.6176 62.5504 86.6176C64.9919 86.6176 66.9689 84.6422 66.9689 82.2026C66.9689 79.7665 64.9919 77.7875 62.5504 77.7875C60.1124 77.7875 58.1318 79.7629 58.1318 82.2026Z" fill="#CFD8DC"/>
<path d="M96.1491 66.2802C96.1491 68.6299 94.2405 70.537 91.889 70.537C89.5375 70.537 87.6289 68.6299 87.6289 66.2802C87.6289 63.9305 89.5375 62.0234 91.889 62.0234C94.2405 62.0234 96.1491 63.9305 96.1491 66.2802Z" fill="#37474F"/>
<path d="M96.1491 82.0442C96.1491 84.3939 94.2405 86.301 91.889 86.301C89.5375 86.301 87.6289 84.3939 87.6289 82.0442C87.6289 79.6946 89.5375 77.7875 91.889 77.7875C94.2405 77.7875 96.1491 79.6946 96.1491 82.0442Z" fill="#37474F"/>
<path d="M84.0023 69.9037C86.3538 69.9037 88.2624 71.8108 88.2624 74.1604C88.2624 76.5101 86.3538 78.4172 84.0023 78.4172C81.6508 78.4172 79.7422 76.5101 79.7422 74.1604C79.7422 71.8108 81.6508 69.9037 84.0023 69.9037Z" fill="#37474F"/>
<path d="M99.7786 69.9037C102.13 69.9037 104.039 71.8108 104.039 74.1604C104.039 76.5101 102.13 78.4172 99.7786 78.4172C97.4271 78.4172 95.5186 76.5101 95.5186 74.1604C95.5186 71.8108 97.4271 69.9037 99.7786 69.9037Z" fill="#37474F"/>
<path d="M64.5602 68.5651C64.5602 69.6734 63.6599 70.5766 62.5472 70.5766C61.4381 70.5766 60.5342 69.677 60.5342 68.5651C60.5342 67.4533 61.4345 66.5537 62.5472 66.5537C63.6563 66.5537 64.5602 67.4533 64.5602 68.5651Z" fill="#37474F"/>
<path d="M58.3375 74.5959C58.3375 75.7078 57.4373 76.6073 56.3245 76.6073C55.2154 76.6073 54.3115 75.7078 54.3115 74.5959C54.3115 73.4876 55.2118 72.5845 56.3245 72.5845C57.4337 72.5845 58.3375 73.484 58.3375 74.5959Z" fill="#37474F"/>
<path d="M70.7829 74.5959C70.7829 75.7078 69.8826 76.6073 68.7698 76.6073C67.6571 76.6073 66.7568 75.7078 66.7568 74.5959C66.7568 73.4876 67.6571 72.5845 68.7698 72.5845C69.879 72.5845 70.7829 73.484 70.7829 74.5959Z" fill="#37474F"/>
<path d="M90.4699 104.271C90.4699 108.362 87.1497 111.68 83.0553 111.68C78.9608 111.68 75.6406 108.362 75.6406 104.271C75.6406 100.18 78.9608 96.8619 83.0553 96.8619C87.1497 96.8619 90.4699 100.18 90.4699 104.271Z" fill="#37474F"/>
<path d="M84.3164 99.2656C84.3164 99.9637 83.751 100.529 83.0524 100.529C82.3538 100.529 81.792 99.9637 81.792 99.2656C81.792 98.5676 82.3574 98.0062 83.0524 98.0062C83.751 98.0062 84.3128 98.5712 84.3164 99.2656Z" fill="#546E7A"/>
<path d="M84.3164 109.276C84.3164 109.974 83.751 110.535 83.0524 110.535C82.3538 110.535 81.792 109.971 81.792 109.276C81.792 108.578 82.3574 108.017 83.0524 108.013C83.751 108.013 84.3128 108.578 84.3164 109.276Z" fill="#546E7A"/>
<path d="M78.0465 103.011C78.7451 103.011 79.3105 103.576 79.3105 104.271C79.3105 104.969 78.7451 105.534 78.0501 105.53C77.3515 105.53 76.7861 104.965 76.7861 104.271C76.7861 103.573 77.3515 103.011 78.0465 103.011Z" fill="#546E7A"/>
<path d="M88.0651 103.011C88.7637 103.011 89.3291 103.576 89.3255 104.271C89.3255 104.969 88.7601 105.53 88.0651 105.53C87.3665 105.53 86.8047 104.965 86.8047 104.271C86.8047 103.573 87.3701 103.008 88.0651 103.011Z" fill="#546E7A"/>
<path d="M179.141 77.7096C180.857 76.9993 181.672 75.0333 180.961 73.3185C180.25 71.6037 178.283 70.7893 176.566 71.4996C174.85 72.2099 174.035 74.1759 174.746 75.8907C175.457 77.6056 177.424 78.4199 179.141 77.7096Z" fill="#4DD0E1"/>
<path d="M186.508 30.6645C186.508 31.726 185.647 32.586 184.585 32.586C183.523 32.586 182.662 31.726 182.662 30.6645C182.662 29.603 183.523 28.743 184.585 28.743C185.647 28.743 186.508 29.603 186.508 30.6645Z" fill="#4DD0E1"/>
<path d="M114.18 9.77293C114.18 10.5681 113.535 11.2122 112.739 11.2122C111.943 11.2122 111.299 10.5681 111.299 9.77293C111.299 8.97771 111.943 8.33362 112.739 8.33362C113.535 8.33362 114.18 8.97771 114.18 9.77293Z" fill="#4DD0E1"/>
<path d="M145.344 118.268C145.344 119.063 144.699 119.707 143.903 119.707C143.107 119.707 142.463 119.063 142.463 118.268C142.463 117.473 143.107 116.829 143.903 116.829C144.699 116.829 145.344 117.473 145.344 118.268Z" fill="white"/>
<path d="M68.0421 32.5823C68.0421 33.1113 67.6136 33.5431 67.0806 33.5431C66.5477 33.5431 66.1191 33.1149 66.1191 32.5823C66.1191 32.0498 66.5513 31.6216 67.0806 31.6216C67.61 31.6216 68.0421 32.0498 68.0421 32.5823Z" fill="#4DD0E1"/>
<path d="M201.013 154.938C202.311 154.938 203.364 153.886 203.364 152.588C203.364 151.291 202.311 150.239 201.013 150.239C199.714 150.239 198.661 151.291 198.661 152.588C198.661 153.886 199.714 154.938 201.013 154.938Z" fill="white"/>
<path d="M233.394 141.632C233.394 142.495 232.691 143.197 231.827 143.197C230.963 143.197 230.261 142.495 230.261 141.632C230.261 140.768 230.963 140.066 231.827 140.066C232.691 140.066 233.394 140.768 233.394 141.632Z" fill="white"/>
<path d="M207.308 190.547L224.28 196.455L207.308 202.36V190.547Z" fill="white"/>
<path d="M284.17 190.547L301.145 196.455L284.17 202.36V190.547Z" fill="white"/>
</svg>
