<svg width="367" height="72" viewBox="0 0 367 72" fill="none" xmlns="http://www.w3.org/2000/svg">
<g clip-path="url(#clip0_325_113)">
<path d="M104.779 48.9378C97.6457 48.8468 92.5501 43.705 92.5501 36.0151C92.5501 28.3252 97.6457 23.1076 104.779 23.1076C108.365 23.1076 111.679 24.8518 113.936 27.4454L119.606 22.8042C116.035 18.4587 110.668 15.6982 104.817 15.6982C93.6599 15.6982 85.0389 23.8432 85.0389 36.0151C85.0389 48.187 93.6599 56.3319 104.817 56.3319C110.668 56.3319 116.035 53.5714 119.606 49.2259L113.936 44.6074C111.672 47.1935 108.35 48.9757 104.779 48.9302V48.9378Z" fill="#0F161F"/>
<path d="M223.419 16.4263L213.243 45.7829L203.059 16.4263H195.224L208.864 55.5659H217.674L231.315 16.4263H223.419Z" fill="#0F161F"/>
<path d="M171.678 48.8467V38.9651H187.826V32.2384H171.678V23.1606H189.222V16.4263H164.454V55.5659H189.486V48.8392H171.686L171.678 48.8467Z" fill="#0F161F"/>
<path d="M323.586 33.0802C323.586 33.0802 319.57 32.1549 318.249 31.7909C315.01 30.9112 314.089 29.3035 314.089 27.1952C314.089 24.6471 316.467 22.3113 320.076 22.3113C324.937 22.3113 326.658 25.6178 327.036 27.7336L333.679 25.4585C332.75 21.1509 329.142 15.6982 320.023 15.6982C312.783 15.6982 306.684 20.9007 306.684 27.7336C306.684 33.5352 310.541 37.001 316.731 38.7452C318.053 39.1168 322.069 40.08 322.069 40.08C325.043 40.6791 326.711 42.6812 326.711 44.8956C326.711 47.6106 324.492 49.6127 320.506 49.6127C315.108 49.6127 312.459 46.2076 312.134 42.4082L305.295 44.744C306.103 50.1057 310.609 56.2788 320.453 56.2788C329.368 56.2788 334.275 50.318 334.275 44.4027C334.275 38.9879 330.546 34.4301 323.586 33.0726V33.0802Z" fill="#0F161F"/>
<path d="M147.295 40.8836C151.591 39.0559 155.252 34.6877 155.252 29.0757C155.252 22.22 150.526 16.4033 142.32 16.4033H127.072V55.5657H134.251V41.9908H139.769L148.027 55.5657H156.09L147.295 40.876V40.8836ZM134.296 34.9456V23.4638H142.056C144.955 23.4638 147.499 25.9209 147.499 29.0833C147.499 32.2457 145.544 34.9456 141.996 34.9456H134.296Z" fill="#0F161F"/>
<path d="M244.201 48.8469V38.9881H260.348V32.2613H244.201V23.1836H261.745V16.4492H236.977V55.5661H262.009V48.8394H244.209L244.201 48.8469Z" fill="#0F161F"/>
<path d="M349.2 48.8697V38.9881H365.347V32.2613H349.2V23.1836H366.743V16.4492H341.975V55.5889H367.008V48.8621H349.207L349.2 48.8697Z" fill="#0F161F"/>
<path d="M291.594 40.8836C295.881 39.0559 299.55 34.6877 299.55 29.0757C299.55 22.22 294.824 16.4033 286.619 16.4033H271.37V55.5657H278.549V41.9908H284.067L292.326 55.5657H300.388L291.594 40.876V40.8836ZM278.594 34.9456V23.4638H286.355C289.253 23.4638 291.797 25.9209 291.797 29.0833C291.797 32.2457 289.842 34.9456 286.294 34.9456H278.594Z" fill="#0F161F"/>
<path d="M37.4957 32.9438L15.2715 20.0515C8.48503 16.1155 0 21.0374 0 28.9093V54.6864C0 62.5583 8.48503 67.4802 15.2715 63.5442L37.4957 50.6519C44.2822 46.7159 44.2822 36.8722 37.4957 32.9363V32.9438Z" fill="#00B3B8"/>
<path d="M61.8108 44.5242L58.1043 42.378C53.9977 39.9967 48.8946 39.9967 44.788 42.378L27.2819 52.5326V19.4751L44.788 29.6297C46.8413 30.8204 49.1437 31.4195 51.4461 31.4119C53.7486 31.4119 56.051 30.8204 58.1043 29.6297L61.8108 27.4759C63.9849 26.217 65.2834 23.9571 65.2834 21.4393C65.2834 18.9215 63.9849 16.6615 61.8108 15.4026L37.3749 1.23621C34.5365 -0.409465 31.147 -0.409465 28.3086 1.23621C25.4702 2.88188 23.7792 5.83195 23.7792 9.12329V13.3854L20.1029 11.2543C17.2645 9.60865 13.875 9.60865 11.0366 11.2543C8.19817 12.9 6.5072 15.8501 6.5072 19.1414V52.8663C6.5072 56.1576 8.19817 59.1077 11.0441 60.7534C12.4633 61.58 14.0184 61.9895 15.581 61.9895C17.1437 61.9895 18.6912 61.58 20.1104 60.7534L23.7868 58.6223V62.8844C23.7868 66.1757 25.4777 69.1258 28.3161 70.7715C29.7353 71.5981 31.2904 72.0076 32.8455 72.0076C34.4006 72.0076 35.9557 71.5981 37.3749 70.7715L61.8108 56.6051C63.9849 55.3462 65.2834 53.0862 65.2834 50.5684C65.2834 48.0506 63.9849 45.7907 61.8108 44.5318V44.5242ZM27.2819 9.12329C27.2819 7.10602 28.3237 5.29351 30.0675 4.28487C31.8113 3.27623 33.8873 3.27623 35.6311 4.28487L60.067 18.4513C61.1465 19.0732 61.7882 20.1955 61.7882 21.4393C61.7882 22.683 61.1465 23.8054 60.067 24.4273L56.3605 26.5811C53.3334 28.3329 49.574 28.3329 46.5469 26.5811L27.2895 15.4178V9.12329H27.2819ZM18.3591 57.7123C16.6153 58.7209 14.5393 58.7209 12.7955 57.7123C11.0517 56.7037 10.0099 54.8911 10.0099 52.8739V19.1414C10.0099 17.1241 11.0517 15.3116 12.7879 14.303C13.6561 13.7949 14.6148 13.5446 15.5735 13.5446C16.5322 13.5446 17.4834 13.7949 18.3591 14.303L23.7868 17.4502V54.565L18.3591 57.7123ZM60.067 53.5564L35.6311 67.7228C33.8873 68.7315 31.8113 68.7315 30.0675 67.7228C28.3237 66.7142 27.2819 64.9017 27.2819 62.8844V56.5899L46.5393 45.4266C49.5664 43.6748 53.3258 43.6748 56.353 45.4266L60.0595 47.5804C61.139 48.2023 61.7807 49.3247 61.7807 50.5684C61.7807 51.8121 61.139 52.9345 60.0595 53.5564H60.067Z" fill="#0F161F"/>
</g>
<defs>
<clipPath id="clip0_325_113">
<rect width="367" height="72" fill="white"/>
</clipPath>
</defs>
</svg>
