<svg width="203" height="66" viewBox="0 0 203 66" fill="none" xmlns="http://www.w3.org/2000/svg">
<g filter="url(#filter0_d_183_72)">
<rect x="4" y="4" width="175" height="54" rx="27" fill="white"/>
</g>
<path d="M180.161 0H136.287C131.71 0 128 3.72123 128 8.3116V54.6884C128 59.2788 131.71 63 136.287 63H180.161C184.738 63 188.448 59.2788 188.448 54.6884V8.3116C188.448 3.72123 184.738 0 180.161 0Z" fill="url(#paint0_linear_183_72)"/>
<path d="M146.5 29C140.701 29 136 33.7008 136 39.5C136 45.2992 140.701 50 146.5 50C152.299 50 157 45.2992 157 39.5C157 33.7008 152.299 29 146.5 29ZM150.882 45.6934C149.931 46.4713 148.444 46.8171 147.113 46.8171C144.123 46.8171 141.149 45.2962 141.149 41.4759V37.8805C141.149 34.0603 144.123 32.5393 147.113 32.5393C148.652 32.5393 149.845 32.9023 150.519 33.3863C151.227 33.8873 151.573 34.7171 151.158 35.4431C150.812 36.048 150.173 36.29 149.585 36.1861C149.188 36.1171 148.894 35.927 148.635 35.8231C148.22 35.6673 147.822 35.5983 147.113 35.5983C145.869 35.5983 144.711 36.411 144.711 38.0357V41.3201C144.711 42.9449 145.869 43.7576 147.113 43.7576C147.908 43.7576 148.479 43.6366 148.946 43.4295C149.205 43.3085 149.516 43.1184 149.845 43.0665C150.467 42.9626 150.985 43.1527 151.331 43.7234C151.763 44.4322 151.486 45.2095 150.882 45.6934Z" fill="white"/>
<path d="M171.338 54.8042L162.923 56.8399C161.882 57.091 160.944 56.1518 161.194 55.1078L163.217 46.6593C163.324 46.2115 163.553 45.8009 163.877 45.4754L188.362 20.9184C189.382 19.8962 191.032 19.8962 192.049 20.9184L197.001 25.8853C198.02 26.9075 198.02 28.5632 197.001 29.5832L172.516 54.1424C172.191 54.4678 171.784 54.6971 171.338 54.8042Z" fill="url(#paint1_linear_183_72)"/>
<path d="M162.584 57.0364C162.17 57.0364 161.769 56.8726 161.466 56.5689C161.072 56.1736 160.915 55.6145 161.044 55.0706L163.067 46.6221C163.18 46.1459 163.424 45.7113 163.768 45.3662L188.254 20.8092C189.331 19.7302 191.082 19.7302 192.158 20.8092L197.11 25.7761C198.186 26.8551 198.186 28.6133 197.11 29.6923L172.625 54.2515C172.281 54.5966 171.847 54.8391 171.375 54.9548L162.96 56.9905C162.834 57.0211 162.708 57.0364 162.584 57.0364V57.0364ZM190.205 20.3068C189.578 20.3068 188.948 20.5471 188.469 21.0254L163.986 45.5824C163.681 45.8882 163.468 46.2726 163.365 46.692L161.342 55.1405C161.238 55.5773 161.364 56.0295 161.682 56.3462C162 56.6651 162.449 56.7917 162.886 56.6847L171.301 54.649C171.719 54.5486 172.1 54.3323 172.405 54.0287L196.89 29.4696C197.846 28.5107 197.846 26.949 196.89 25.9901L191.938 21.0232C191.459 20.5427 190.832 20.3046 190.202 20.3046L190.205 20.3068Z" fill="url(#paint2_linear_183_72)"/>
<path d="M163.004 13.0332H137.9C136.788 13.0332 135.89 12.129 135.89 11.0166C135.89 9.90154 136.791 9 137.9 9H163.007C164.119 9 165.018 9.90418 165.018 11.0166C165.018 12.1317 164.116 13.0332 163.007 13.0332H163.004Z" fill="white"/>
<path d="M152.784 21.8589H137.9C136.788 21.8589 135.89 20.9547 135.89 19.8423C135.89 18.7272 136.791 17.8257 137.9 17.8257H152.784C153.895 17.8257 154.794 18.7299 154.794 19.8423C154.794 20.9574 153.893 21.8589 152.784 21.8589V21.8589Z" fill="white"/>
<defs>
<filter id="filter0_d_183_72" x="0" y="4" width="183" height="62" filterUnits="userSpaceOnUse" color-interpolation-filters="sRGB">
<feFlood flood-opacity="0" result="BackgroundImageFix"/>
<feColorMatrix in="SourceAlpha" type="matrix" values="0 0 0 0 0 0 0 0 0 0 0 0 0 0 0 0 0 0 127 0" result="hardAlpha"/>
<feOffset dy="4"/>
<feGaussianBlur stdDeviation="2"/>
<feComposite in2="hardAlpha" operator="out"/>
<feColorMatrix type="matrix" values="0 0 0 0 0 0 0 0 0 0 0 0 0 0 0 0 0 0 0.25 0"/>
<feBlend mode="normal" in2="BackgroundImageFix" result="effect1_dropShadow_183_72"/>
<feBlend mode="normal" in="SourceGraphic" in2="effect1_dropShadow_183_72" result="shape"/>
</filter>
<linearGradient id="paint0_linear_183_72" x1="191.121" y1="67.8979" x2="131.101" y2="1.88544" gradientUnits="userSpaceOnUse">
<stop stop-color="#BA3DD3"/>
<stop offset="1" stop-color="#6F3AC1"/>
</linearGradient>
<linearGradient id="paint1_linear_183_72" x1="182.363" y1="44.2689" x2="173.698" y2="35.6305" gradientUnits="userSpaceOnUse">
<stop stop-color="#FFFEE6"/>
<stop offset="1" stop-color="#FFEE71"/>
</linearGradient>
<linearGradient id="paint2_linear_183_72" x1="173.615" y1="35.4947" x2="182.499" y2="44.3517" gradientUnits="userSpaceOnUse">
<stop stop-color="#FFEE71"/>
<stop offset="1" stop-color="#FFEE71"/>
</linearGradient>
</defs>
</svg>
