<svg width="38" height="38" viewBox="0 0 38 38" fill="none" xmlns="http://www.w3.org/2000/svg">
<g clip-path="url(#clip0_77_51326)">
<path d="M19.0208 38C8.53235 38 0 29.4777 0 19.001C0 8.52431 8.53235 0 19.0208 0C29.5092 0 38 8.52431 38 19.001C38 29.4777 29.4874 38.002 19.0208 38.002V38ZM19.0208 1.46725C9.34128 1.46923 1.46557 9.33219 1.46557 19.001C1.46557 28.6698 9.34128 36.5328 19.0208 36.5328C28.7003 36.5328 36.5344 28.6678 36.5344 19.001C36.5344 9.33417 28.6785 1.46923 19.0208 1.46923V1.46725Z" fill="#6F3AC1"/>
<path d="M19.0209 34.8477C10.2928 34.8477 3.19238 27.7372 3.19238 18.9991C3.19238 10.2609 10.2928 3.19592 19.0209 3.19592C27.7491 3.19592 34.808 10.2847 34.808 19.001C34.808 27.7174 27.7254 34.8497 19.0209 34.8497V34.8477ZM19.0209 4.66317C11.0997 4.66317 4.65795 11.0945 4.65795 18.9991C4.65795 26.9036 11.1017 33.3785 19.0209 33.3785C26.9402 33.3785 33.3424 26.9274 33.3424 18.9991C33.3424 11.0708 26.9164 4.66317 19.0209 4.66317Z" fill="#6F3AC1"/>
<path d="M19.0209 6.73624C18.6154 6.73624 18.2891 6.40754 18.2891 6.00162V3.92846C18.2891 3.52254 18.6154 3.19385 19.0209 3.19385C19.4263 3.19385 19.7527 3.52254 19.7527 3.92846V6.00162C19.7527 6.40754 19.4263 6.73624 19.0209 6.73624Z" fill="#6F3AC1"/>
<path d="M19.0209 34.8477C18.6154 34.8477 18.2891 34.519 18.2891 34.1131V31.9963C18.2891 31.5904 18.6154 31.2617 19.0209 31.2617C19.4263 31.2617 19.7527 31.5904 19.7527 31.9963V34.1131C19.7527 34.519 19.4263 34.8477 19.0209 34.8477Z" fill="#6F3AC1"/>
<path d="M6.03845 19.7336H3.92613C3.52068 19.7336 3.19434 19.4049 3.19434 18.999C3.19434 18.5931 3.52068 18.2644 3.92613 18.2644H6.03845C6.44391 18.2644 6.77025 18.5931 6.77025 18.999C6.77025 19.4049 6.44391 19.7336 6.03845 19.7336Z" fill="#6F3AC1"/>
<path d="M34.076 19.7336H32.0052C31.5998 19.7336 31.2734 19.4049 31.2734 18.999C31.2734 18.5931 31.5998 18.2644 32.0052 18.2644H34.076C34.4815 18.2644 34.8078 18.5931 34.8078 18.999C34.8078 19.4049 34.4815 19.7336 34.076 19.7336Z" fill="#6F3AC1"/>
<path d="M14.4477 23.3611C14.2321 23.3611 14.0185 23.2661 13.8721 23.0839C13.6209 22.7671 13.6743 22.3037 13.9928 22.0523L18.2866 18.6445V10.839C18.2866 10.4331 18.613 10.1044 19.0184 10.1044C19.4239 10.1044 19.7502 10.4331 19.7502 10.839V19.0009C19.7502 19.2247 19.6494 19.4366 19.4733 19.5752L14.9006 23.2027C14.7661 23.3096 14.6059 23.3611 14.4457 23.3611H14.4477Z" fill="#6F3AC1"/>
</g>
<defs>
<clipPath id="clip0_77_51326">
<rect width="38" height="38" fill="white"/>
</clipPath>
</defs>
</svg>
