<svg width="383" height="241" viewBox="0 0 383 241" fill="none" xmlns="http://www.w3.org/2000/svg">
<path d="M0 28C0 12.536 12.536 0 28 0H355C370.464 0 383 12.536 383 28V240.457H0V28Z" fill="#6F3AC1" fill-opacity="0.6"/>
<path d="M205.507 129.082C203.571 130.96 201.658 132.85 199.78 134.717" stroke="white" stroke-opacity="0.1" stroke-width="6" stroke-linejoin="round"/>
<path d="M212.824 129.279C214.726 127.389 216.639 125.511 218.551 123.644C220.315 121.927 222.089 120.233 223.864 118.585C238.591 104.872 254.032 93.5217 271.283 93.5217C284.177 93.5217 296.035 98.2463 304.666 106.831C312.94 115.059 317.492 125.88 317.492 137.311C317.492 150.021 313.274 161.326 305.611 169.139C298.04 176.848 287.127 181.1 274.878 181.1C251.647 181.1 234.016 166.085 216.224 148.696C214.08 146.599 211.937 144.478 209.782 142.335L186.228 118.458C185.894 118.124 185.56 117.802 185.226 117.467C165.025 97.3821 142.117 75.0842 112.49 75.0842C96.4952 75.0842 81.5724 80.4426 69.9337 90.2606C68.6085 91.3668 67.3294 92.5307 66.0964 93.7637C65.5894 94.2708 65.0823 94.7893 64.6099 95.3079C53.7778 106.82 47.8433 121.65 47.8433 137.311C47.8433 154.884 53.9392 170.775 65.0017 182.056C76.0642 193.326 91.6554 199.537 108.894 199.537C133.025 199.537 151.485 187.979 168.079 173.425L175.753 181.1V152.291H146.945L155.011 160.358C141.195 172.296 126.687 181.1 108.894 181.1C96.645 181.1 85.7323 176.848 78.1614 169.139C70.4983 161.326 66.2808 150.021 66.2808 137.311C66.2808 126.571 70.3024 116.361 77.6429 108.341" stroke="white" stroke-opacity="0.2" stroke-width="6" stroke-linejoin="round"/>
<path d="M91.598 98.0967C88.5443 99.5256 85.675 101.289 83.0361 103.363" stroke="white" stroke-opacity="0.2" stroke-width="6" stroke-linejoin="round"/>
<path d="M210.819 105.541C228.024 89.477 247.487 75.0842 271.283 75.0842C289.098 75.0842 305.565 81.7217 317.676 93.7637C329.441 105.472 335.929 120.936 335.929 137.311C335.929 154.884 329.833 170.775 318.771 182.056C307.708 193.326 292.117 199.537 274.878 199.537C241.253 199.537 218.632 177.09 196.761 155.38L173.218 131.526C154.435 112.847 135.006 93.5217 112.49 93.5217C107.558 93.5217 102.764 94.2131 98.2698 95.5499" stroke="white" stroke-opacity="0.2" stroke-width="6" stroke-linejoin="round"/>
<path d="M283.843 63.3555H291.663" stroke="#CAD6F8" stroke-width="6" stroke-linejoin="round"/>
<path d="M268.205 63.3555H276.024" stroke="#CAD6F8" stroke-width="6" stroke-linejoin="round"/>
<path d="M279.934 59.4457V51.6265" stroke="#CAD6F8" stroke-width="6" stroke-linejoin="round"/>
<path d="M279.934 75.0844V67.2651" stroke="#CAD6F8" stroke-width="6" stroke-linejoin="round"/>
<path d="M105.685 140.64H109.371" stroke="white" stroke-opacity="0.6" stroke-width="2" stroke-linejoin="round"/>
<path d="M98.313 140.64H101.999" stroke="white" stroke-opacity="0.6" stroke-width="2" stroke-linejoin="round"/>
<path d="M103.842 138.797V135.111" stroke="white" stroke-opacity="0.6" stroke-width="2" stroke-linejoin="round"/>
<path d="M103.842 146.169V142.483" stroke="white" stroke-opacity="0.6" stroke-width="2" stroke-linejoin="round"/>
<path d="M53.5276 52.7671H57.7914" stroke="white" stroke-opacity="0.4" stroke-width="3" stroke-linejoin="round"/>
<path d="M45 52.7671H49.2638" stroke="white" stroke-opacity="0.4" stroke-width="3" stroke-linejoin="round"/>
<path d="M51.3958 50.6351V46.3713" stroke="white" stroke-opacity="0.4" stroke-width="3" stroke-linejoin="round"/>
<path d="M51.3958 59.1627V54.8989" stroke="white" stroke-opacity="0.4" stroke-width="3" stroke-linejoin="round"/>
<path d="M90.5691 48.9592H96.9647" stroke="#CAD6F8" stroke-width="6" stroke-linejoin="round"/>
<path d="M77.7778 48.9592H84.1735" stroke="#CAD6F8" stroke-width="6" stroke-linejoin="round"/>
<path d="M87.3713 45.4318V38.3767" stroke="#CAD6F8" stroke-width="6" stroke-linejoin="round"/>
<path d="M87.3713 59.5419V52.4868" stroke="#CAD6F8" stroke-width="6" stroke-linejoin="round"/>
<path d="M152.421 83.84C153.034 85.6662 153.426 87.5628 153.769 89.4471C154.183 91.7153 154.494 94.0029 154.669 96.2992C154.758 97.4756 154.811 98.6555 154.788 99.8354C154.777 100.413 155.733 100.413 155.744 99.8354C155.789 97.6359 155.589 95.4293 155.313 93.2456C155.026 90.9757 154.648 88.7092 154.131 86.4745C153.908 85.5077 153.66 84.5426 153.344 83.5987C153.16 83.0493 152.236 83.2835 152.421 83.8382V83.84Z" fill="#1F2835"/>
<path d="M147.735 99.8142L163.652 99.2841C163.652 99.2841 168.314 91.5444 170.955 92.5676C173.598 93.5889 173.131 103.373 172.509 105.71C171.887 108.047 169.832 113.767 172.599 120.895C178.208 135.357 176.874 148.741 173.08 157.785C168.526 168.644 161.279 179.247 161.279 179.247L146.091 190.548L102.424 192.884C102.424 192.884 89.3712 197.266 86.262 188.503C83.1547 179.742 81.1344 166.307 91.8562 149.808C102.578 133.307 109.293 128.257 122.937 126.006C132.676 124.4 135.632 126.562 137.345 126.214C137.703 124.68 136.378 122.759 137.337 119.937C138.064 117.8 136.098 115.528 136.799 113.48C137.993 109.998 138.917 107.163 138.786 106.73C138.475 105.708 135.281 95.9875 138.941 94.9027C141.893 94.0257 145.246 99.9498 147.733 99.8142H147.735Z" fill="white"/>
<path d="M89.1384 186.239C89.1384 186.239 80.7461 189.086 80.9804 192.811C81.2128 196.534 101.727 207.049 135.292 205.953C168.858 204.858 178.886 199.272 182.074 196.884C184.684 194.929 190.549 185.226 182.857 178.217C175.166 171.208 165.486 171.305 148.004 177C130.523 182.695 89.1403 186.24 89.1403 186.24L89.1384 186.239Z" fill="white"/>
<path d="M149.457 177.983L148.514 177.956C148.717 171.59 145.836 166.792 141.447 161.544C133.992 152.628 119.375 153.163 119.229 153.17L119.184 152.286C119.34 152.279 123.032 152.131 127.73 153.117C132.086 154.033 138.128 156.143 142.187 160.996C148.797 168.901 149.588 173.832 149.455 177.983H149.457Z" fill="#DBD2D2"/>
<path d="M92.98 186.328L92.8694 185.449C93.0493 185.43 111.11 183.426 128.708 181.42C144.081 179.668 152.457 176.643 159.846 173.973C161.01 173.552 162.11 173.156 163.231 172.765C164.299 172.391 166.47 171.729 168.992 171.481L169.09 172.361C166.67 172.599 164.586 173.237 163.559 173.594C162.444 173.983 161.346 174.38 160.186 174.799C152.745 177.486 144.312 180.533 128.824 182.299C111.226 184.305 93.1636 186.309 92.9837 186.33L92.98 186.328Z" fill="#DBD2D2"/>
<path opacity="0.39" d="M167.058 100.469C166.438 99.7509 166.397 98.733 166.951 97.9705C167.995 96.537 169.676 94.4062 170.254 94.6774C171.116 95.0824 172.482 102.31 170.48 102.658C169.362 102.854 167.973 101.533 167.056 100.469H167.058Z" fill="#DBD2D2"/>
<path opacity="0.39" d="M144.134 101.514C144.468 100.943 144.355 100.235 143.863 99.7791C142.532 98.5481 139.949 96.2887 139.338 96.6902C138.506 97.2379 138.506 104.692 140.617 104.805C141.96 104.877 143.387 102.797 144.134 101.515V101.514Z" fill="#DBD2D2"/>
<path d="M171.517 105.635C171.517 105.635 181.561 112.205 177.318 121.796C176.096 124.557 172.878 127.484 171.517 126.441C169.251 124.705 169.04 117.095 169.04 117.095L171.517 105.633V105.635Z" fill="white"/>
<path d="M139.522 106.95C139.522 106.95 129.479 113.52 133.722 123.111C134.537 124.953 138.636 129.78 139.564 129.685C142.35 129.4 141.998 118.412 141.998 118.412L139.52 106.95H139.522Z" fill="white"/>
<path d="M157.315 133.3C155.739 133.3 154.039 133.149 152.225 132.791L152.42 131.925C163.132 134.045 169.854 128.473 169.922 128.417L170.553 129.074C170.314 129.278 165.458 133.3 157.317 133.3H157.315Z" fill="#DBD2D2"/>
<path d="M156.95 175.757L156.042 175.517C156.074 175.408 159.315 164.574 159.706 162.856C159.781 162.524 160.012 161.517 163.546 159.201C165.443 157.958 167.568 156.815 168.833 156.236L169.246 157.032C166.391 158.34 160.953 161.616 160.627 163.042C160.227 164.787 157.083 175.311 156.948 175.757H156.95Z" fill="#DBD2D2"/>
<path d="M162.817 135.345C162.742 135.345 162.666 135.327 162.593 135.29L162.941 134.683C162.887 134.655 162.786 134.639 162.686 134.683C162.581 134.728 162.542 134.809 162.536 134.834C162.587 134.614 162.33 133.409 161.759 132.101L162.439 131.839C162.452 131.867 163.696 134.741 163.102 135.243C163.022 135.311 162.922 135.347 162.817 135.347V135.345Z" fill="#1F2835"/>
<path d="M163.516 139.777C165.366 139.777 166.865 138.368 166.865 136.63C166.865 134.892 165.366 133.483 163.516 133.483C161.667 133.483 160.167 134.892 160.167 136.63C160.167 138.368 161.667 139.777 163.516 139.777Z" fill="#1F2835"/>
<path d="M156.895 123.397C164.646 122.73 170.548 118.276 170.078 113.448C169.607 108.619 162.943 105.246 155.191 105.912C147.44 106.579 141.538 111.034 142.008 115.862C142.479 120.69 149.143 124.064 156.895 123.397Z" fill="#1F2835"/>
<path d="M148.555 115.482C148.591 115.82 148.328 116.119 147.968 116.153C147.609 116.186 147.29 115.94 147.254 115.601C147.219 115.263 147.481 114.964 147.841 114.931C148.201 114.897 148.519 115.145 148.555 115.482Z" fill="#527BEF"/>
<path d="M152.768 115.269C152.804 115.607 152.541 115.906 152.181 115.94C151.822 115.973 151.503 115.726 151.467 115.388C151.432 115.05 151.694 114.751 152.054 114.717C152.414 114.684 152.732 114.93 152.768 115.269Z" fill="#527BEF"/>
<path d="M151.413 114.008C151.449 114.346 151.187 114.645 150.827 114.679C150.467 114.712 150.148 114.466 150.113 114.128C150.077 113.789 150.34 113.49 150.699 113.457C151.059 113.423 151.378 113.67 151.413 114.008Z" fill="#527BEF"/>
<path d="M149.759 114.08C149.794 114.418 149.532 114.717 149.172 114.751C148.812 114.784 148.494 114.536 148.458 114.2C148.422 113.862 148.685 113.562 149.045 113.529C149.404 113.495 149.723 113.742 149.759 114.08Z" fill="#527BEF"/>
<path d="M161.248 114.314C161.284 114.653 161.022 114.952 160.662 114.985C160.302 115.019 159.983 114.772 159.948 114.434C159.912 114.096 160.176 113.797 160.534 113.763C160.894 113.73 161.213 113.976 161.248 114.314Z" fill="#527BEF"/>
<path d="M165.461 114.101C165.497 114.439 165.234 114.739 164.874 114.772C164.515 114.806 164.196 114.559 164.16 114.221C164.125 113.883 164.387 113.584 164.747 113.55C165.107 113.517 165.425 113.765 165.461 114.101Z" fill="#527BEF"/>
<path d="M164.106 112.84C164.142 113.178 163.88 113.478 163.52 113.511C163.16 113.545 162.841 113.298 162.806 112.96C162.77 112.622 163.032 112.323 163.392 112.289C163.752 112.256 164.071 112.502 164.106 112.84Z" fill="#527BEF"/>
<path d="M162.452 112.913C162.487 113.251 162.225 113.55 161.865 113.584C161.505 113.617 161.187 113.371 161.151 113.032C161.116 112.694 161.378 112.395 161.738 112.361C162.098 112.328 162.416 112.575 162.452 112.913Z" fill="#527BEF"/>
<path d="M151.799 84.0002C152.438 85.9056 152.839 87.8868 153.192 89.8538C153.289 90.3997 154.039 90.7555 154.575 90.5917C155.202 90.4015 155.465 89.8767 155.36 89.2921C155.008 87.325 154.606 85.3438 153.967 83.4384C153.791 82.9119 153.177 82.5209 152.584 82.7005C152.022 82.8714 151.61 83.4366 151.799 84.0002Z" fill="#1F2835"/>
<path d="M163.542 138.218C162.802 138.218 162.112 137.773 161.876 137.076C161.674 136.482 161.842 135.841 162.317 135.404L162.579 135.654C162.208 135.998 162.075 136.501 162.234 136.968C162.465 137.646 163.239 138.023 163.96 137.805C164.682 137.588 165.081 136.861 164.85 136.183C164.695 135.725 164.286 135.388 163.782 135.304L163.848 134.957C164.489 135.064 165.01 135.492 165.206 136.075C165.501 136.938 164.991 137.864 164.073 138.141C163.896 138.194 163.718 138.218 163.542 138.218Z" fill="white"/>
<path d="M163.163 134.879L162.806 134.987L163.483 136.978L163.841 136.871L163.163 134.879Z" fill="white"/>
<path d="M227.359 68.0431C226.95 69.8936 226.536 71.7441 226.164 73.6007C225.751 75.6617 225.396 77.7304 225.099 79.8084C224.901 81.1947 224.731 82.5825 224.579 83.9734C224.556 84.184 224.789 84.3654 225 84.3654C225.246 84.3654 225.398 84.1855 225.421 83.9734C225.672 81.6619 225.981 79.3565 226.37 77.0619C226.696 75.153 227.077 73.2533 227.486 71.3583C227.711 70.3209 227.942 69.285 228.17 68.2491C228.216 68.0416 228.106 67.8249 227.876 67.7665C227.668 67.7127 227.404 67.8326 227.358 68.0401L227.359 68.0431Z" fill="#1F2835"/>
<path d="M208.856 157.348C208.856 157.348 212.942 173.132 213.532 181.615C214.818 200.113 209.558 202.617 211.896 204.355C213.512 205.557 221.246 206.316 223.584 201.963C224.616 200.044 227.153 194.133 228.494 186.076C230.189 175.871 231.533 162.246 231.533 162.246L208.858 157.349L208.856 157.348Z" fill="white"/>
<path d="M302.765 147.161C303.221 155.699 298.83 165.225 296.289 171.868C293.836 178.28 291.932 196.257 291.544 197.447C290.318 201.201 286.811 205.133 279.973 205.29C273.135 205.445 277.168 198.916 277.168 198.916C277.168 198.916 279.364 184.898 276.779 182.097C261.564 165.618 260.687 157.566 260.687 157.566C260.687 157.566 302.064 134.039 302.765 147.163V147.161Z" fill="white"/>
<path d="M197.901 106.966C203.324 90.5437 206.581 88.7639 206.581 88.7639C206.581 88.7639 210.035 78.7139 213.774 79.0397C217.515 79.3656 218.1 82.0859 220.32 83.3923C220.32 83.3923 227.11 84.3314 229.213 83.8964C231.317 83.4615 234.006 79.653 236.109 79.8697C238.212 80.0879 242.071 84.8755 241.719 90.642L253.992 106.42C253.992 106.42 260.683 93.7974 271.876 90.9679C277.583 89.5247 292.9 90.2271 303.552 102.612C313.369 114.026 312.552 123.505 312.552 123.505C312.552 123.505 320.734 134.036 321.436 147.161C321.891 155.699 317.5 165.225 314.959 171.867C312.506 178.279 310.603 196.257 310.215 197.447C308.988 201.201 305.481 205.133 298.643 205.289C291.805 205.445 295.839 198.916 295.839 198.916C295.839 198.916 298.034 184.897 295.449 182.097C280.234 165.618 279.358 157.566 279.358 157.566C279.358 157.566 270.941 168.394 249.159 169.336C248.618 174.222 247.693 180.42 246.63 186.817C245.291 194.872 242.752 200.785 241.721 202.704C239.383 207.057 231.648 206.299 230.032 205.096C227.695 203.356 232.954 200.854 231.668 182.355C231.386 178.299 230.305 174.117 229.253 169.245C224.772 164.639 213.725 168.311 205.221 154.173C199.418 144.522 202.253 128.833 202.253 128.833C202.253 128.833 192.755 122.544 197.899 106.967L197.901 106.966Z" fill="white"/>
<path opacity="0.39" d="M234.17 85.5839C234.17 85.5839 236.755 86.4538 238.158 87.7602C239.562 89.0666 238.223 81.1114 234.17 85.5839Z" fill="#DBD2D2"/>
<path opacity="0.39" d="M216.625 84.2976C216.625 84.2976 214.04 85.1675 212.637 86.4739C211.234 87.7803 212.256 79.4425 216.625 84.2976Z" fill="#DBD2D2"/>
<path d="M268.766 121.132C275.026 121.132 279.343 118.906 283.158 116.937C285.613 115.671 287.933 114.475 290.543 113.939C295.316 112.96 299.738 117.173 299.781 117.216L300.313 116.739C300.121 116.553 295.555 112.207 290.383 113.269C287.667 113.825 285.303 115.046 282.798 116.337C278.821 118.388 274.709 120.511 268.492 120.443C258.567 120.339 254.956 112.359 254.92 112.279L254.236 112.539C254.274 112.626 255.196 114.694 257.413 116.798C259.461 118.743 263.044 121.073 268.484 121.13C268.578 121.13 268.672 121.13 268.764 121.13L268.766 121.132Z" fill="#DBD2D2"/>
<path d="M295.466 182.143C295.365 182.023 285.392 170.049 283.048 165.349C280.7 160.642 279.723 157.503 279.714 157.471L279.546 156.927L279.104 157.317C279.021 157.391 271.623 163.795 264.643 166.6L265.073 167.212C267.683 166.165 270.605 164.522 273.801 162.304C276.333 160.548 278.334 158.902 279.178 158.189C279.556 159.283 280.561 162.002 282.376 165.64C284.36 169.619 291.447 178.392 293.983 181.481L295.464 182.145L295.466 182.143Z" fill="#DBD2D2"/>
<path d="M230.299 174.21L229.581 168.904H229.258C223.082 168.872 216.797 164.993 213.599 162.684L213.146 163.227C216.362 165.549 222.642 169.425 228.929 169.585L229.905 176.787L230.301 174.21H230.299Z" fill="#DBD2D2"/>
<path d="M221.821 134.626C224.434 134.626 227.034 134.258 229.588 133.524C234.424 132.134 239.104 129.423 243.499 125.467L242.985 124.972C238.675 128.853 234.094 131.509 229.37 132.866C225.601 133.949 221.73 134.212 217.865 133.648C211.282 132.688 206.955 129.629 206.912 129.598L206.461 130.144C206.643 130.275 210.981 133.342 217.751 134.329C219.108 134.527 220.467 134.626 221.823 134.626H221.821Z" fill="#DBD2D2"/>
<path d="M219.781 141.27C221.588 141.27 223.052 139.907 223.052 138.226C223.052 136.544 221.588 135.181 219.781 135.181C217.975 135.181 216.511 136.544 216.511 138.226C216.511 139.907 217.975 141.27 219.781 141.27Z" fill="#1F2835"/>
<path d="M220.151 134.265H219.412V136.074H220.151V134.265Z" fill="#1F2835"/>
<path d="M240.664 104.484C241.139 98.5694 233.976 93.2483 224.664 92.5995C215.351 91.9507 207.417 96.2198 206.941 102.135C206.466 108.05 213.629 113.371 222.942 114.02C232.254 114.669 240.188 110.399 240.664 104.484Z" fill="#1F2835"/>
<path d="M213.865 103.309C213.849 103.715 213.482 104.03 213.048 104.015C212.612 103.999 212.274 103.658 212.29 103.254C212.307 102.848 212.673 102.533 213.107 102.547C213.543 102.562 213.883 102.904 213.867 103.308L213.865 103.309Z" fill="#527BEF"/>
<path d="M218.942 103.694C218.925 104.099 218.559 104.414 218.125 104.399C217.689 104.384 217.35 104.043 217.367 103.638C217.383 103.233 217.748 102.918 218.184 102.931C218.62 102.947 218.958 103.288 218.943 103.694H218.942Z" fill="#527BEF"/>
<path d="M217.538 101.995C217.522 102.401 217.155 102.718 216.721 102.702C216.285 102.687 215.947 102.346 215.963 101.942C215.98 101.536 216.346 101.221 216.781 101.235C217.217 101.25 217.555 101.591 217.538 101.995Z" fill="#527BEF"/>
<path d="M215.548 101.829C215.531 102.235 215.166 102.55 214.73 102.536C214.295 102.521 213.956 102.18 213.971 101.776C213.987 101.37 214.354 101.055 214.788 101.07C215.224 101.085 215.562 101.427 215.546 101.831L215.548 101.829Z" fill="#527BEF"/>
<path d="M230.237 103.846C230.22 104.252 229.854 104.567 229.419 104.553C228.984 104.538 228.645 104.196 228.662 103.792C228.678 103.386 229.045 103.071 229.479 103.085C229.915 103.101 230.253 103.442 230.238 103.846H230.237Z" fill="#527BEF"/>
<path d="M235.313 104.23C235.296 104.636 234.93 104.951 234.495 104.936C234.06 104.92 233.721 104.579 233.738 104.175C233.754 103.769 234.121 103.452 234.555 103.468C234.991 103.483 235.329 103.824 235.313 104.229V104.23Z" fill="#527BEF"/>
<path d="M233.91 102.532C233.894 102.937 233.527 103.253 233.093 103.239C232.657 103.223 232.319 102.882 232.335 102.478C232.352 102.072 232.718 101.757 233.152 101.771C233.588 101.786 233.927 102.128 233.912 102.532H233.91Z" fill="#527BEF"/>
<path d="M231.919 102.366C231.903 102.772 231.536 103.088 231.102 103.073C230.666 103.058 230.328 102.716 230.344 102.312C230.361 101.906 230.727 101.591 231.161 101.607C231.597 101.622 231.936 101.963 231.919 102.368V102.366Z" fill="#527BEF"/>
<path d="M226.81 67.9032C226.43 69.6184 226.047 71.3336 225.696 73.0535C225.6 73.5253 225.838 74.0709 226.387 74.1877C226.876 74.2907 227.502 74.0509 227.606 73.5437C227.956 71.8224 228.34 70.1087 228.72 68.3935C228.824 67.9216 228.573 67.3745 228.028 67.2592C227.533 67.1547 226.922 67.3976 226.81 67.9032Z" fill="#1F2835"/>
<path d="M219.808 140.033C219.772 140.033 219.734 140.033 219.696 140.03C218.635 139.973 217.821 139.125 217.882 138.136C217.923 137.457 218.366 136.865 219.036 136.593L219.201 136.945C218.674 137.159 218.326 137.625 218.295 138.158C218.247 138.934 218.887 139.601 219.721 139.646C220.124 139.666 220.513 139.541 220.816 139.291C221.118 139.04 221.296 138.694 221.319 138.319C221.35 137.795 221.071 137.302 220.588 137.031L220.801 136.702C221.415 137.047 221.771 137.675 221.73 138.341C221.7 138.819 221.474 139.258 221.09 139.578C220.733 139.875 220.282 140.033 219.808 140.034V140.033Z" fill="white"/>
<path d="M219.712 136.346L219.574 138.624L219.986 138.646L220.124 136.367L219.712 136.346Z" fill="white"/>
</svg>
