<svg width="383" height="241" viewBox="0 0 383 241" fill="none" xmlns="http://www.w3.org/2000/svg">
<path d="M0 28C0 12.536 12.536 0 28 0H355C370.464 0 383 12.536 383 28V240.457H0V28Z" fill="#527BEF"/>
<path d="M137.131 28.1743C124.924 34.7999 120.128 51.2201 124.296 58.603C128.463 65.986 137.254 80.4892 117.726 96.5747C102.522 109.098 89.8048 95.0482 85.3683 106.676C80.9302 118.304 84.5227 174.622 138.835 186.945C167.113 191.815 170.229 178.664 179.411 171.146C188.593 163.626 229.174 139.96 254.865 142.587C280.555 145.216 297.762 144.593 293.294 110.158C288.828 75.7248 259.369 19.2516 225.274 23.6829C203.456 27.0646 203.109 39.9636 188.233 41.4196C173.357 42.8757 173.741 8.30483 137.132 28.1743H137.131Z" fill="#436EE8"/>
<g clip-path="url(#clip0_349_76)">
<path opacity="0.1" d="M201 215C241.317 215 274 213.218 274 211.02C274 208.822 241.317 207.04 201 207.04C160.683 207.04 128 208.822 128 211.02C128 213.218 160.683 215 201 215Z" fill="#0B2B77"/>
<path d="M234.369 111.29C232.564 112.647 224.154 117.952 223.026 116.433C221.897 114.913 229.339 108.306 231.144 106.949C232.949 105.593 235.133 105.466 236.024 106.664C236.914 107.863 236.175 109.933 234.369 111.289V111.29Z" fill="#EBECED"/>
<path d="M245.88 119.26C254.432 119.26 261.364 112.514 261.364 104.193C261.364 95.8723 254.432 89.1267 245.88 89.1267C237.328 89.1267 230.396 95.8723 230.396 104.193C230.396 112.514 237.328 119.26 245.88 119.26Z" fill="white"/>
<path d="M251.94 103.098C251.858 103.088 251.776 103.068 251.695 103.036C250.205 102.433 249.038 101.285 248.409 99.7988C247.78 98.3143 247.762 96.6707 248.361 95.1724L250.692 89.3422C251.291 87.8439 252.434 86.6701 253.911 86.0375C255.387 85.4036 257.022 85.3873 258.512 85.9887C259.005 86.1878 259.245 86.7528 259.046 87.2502C258.848 87.7475 258.286 87.988 257.792 87.7876C256.78 87.3779 255.67 87.3905 254.667 87.8201C253.664 88.2498 252.888 89.0478 252.481 90.065L250.15 95.8953C249.744 96.9125 249.755 98.0287 250.183 99.0371C250.61 100.046 251.403 100.826 252.415 101.234C252.91 101.434 253.149 101.999 252.951 102.496C252.784 102.912 252.364 103.149 251.942 103.097L251.94 103.098Z" fill="white"/>
<path d="M255.324 102.046C254.877 105.787 249.818 108.252 244.025 107.552C238.232 106.852 233.898 103.251 234.346 99.5106C234.793 95.77 239.852 93.3046 245.644 94.0049C251.437 94.7051 255.771 98.3055 255.324 102.046Z" fill="#0B2B77"/>
<path d="M237.905 99.8314C237.869 100.128 237.602 100.34 237.307 100.304C237.011 100.269 236.801 99.9993 236.837 99.7024C236.873 99.4055 237.14 99.1938 237.435 99.2301C237.73 99.2652 237.941 99.5358 237.905 99.8314Z" fill="#527BEF"/>
<path d="M241.332 100.399C241.296 100.696 241.028 100.906 240.734 100.871C240.438 100.835 240.228 100.567 240.264 100.27C240.299 99.9729 240.568 99.7612 240.862 99.7975C241.157 99.8338 241.368 100.103 241.332 100.4V100.399Z" fill="#527BEF"/>
<path d="M240.481 99.0734C240.445 99.3703 240.177 99.582 239.883 99.5457C239.588 99.5093 239.377 99.24 239.413 98.9444C239.448 98.6475 239.716 98.4357 240.011 98.4721C240.306 98.5072 240.516 98.7765 240.481 99.0734Z" fill="#527BEF"/>
<path d="M239.138 98.8405C239.103 99.1374 238.835 99.3491 238.54 99.3128C238.245 99.2764 238.034 99.0071 238.07 98.7114C238.105 98.4146 238.374 98.2041 238.668 98.2392C238.964 98.2742 239.173 98.5436 239.138 98.8405Z" fill="#527BEF"/>
<path d="M248.328 101.092C248.293 101.389 248.025 101.6 247.73 101.564C247.435 101.528 247.225 101.258 247.26 100.963C247.296 100.666 247.564 100.454 247.858 100.49C248.153 100.527 248.364 100.795 248.328 101.092Z" fill="#527BEF"/>
<path d="M251.755 101.659C251.72 101.956 251.452 102.168 251.157 102.131C250.862 102.096 250.652 101.827 250.687 101.53C250.723 101.233 250.99 101.021 251.285 101.058C251.58 101.094 251.791 101.363 251.755 101.659Z" fill="#527BEF"/>
<path d="M250.904 100.332C250.869 100.629 250.601 100.841 250.306 100.805C250.011 100.77 249.8 100.499 249.836 100.203C249.872 99.9065 250.139 99.6948 250.434 99.7311C250.729 99.7674 250.94 100.037 250.904 100.332Z" fill="#527BEF"/>
<path d="M249.56 100.1C249.525 100.396 249.257 100.608 248.962 100.572C248.666 100.537 248.456 100.266 248.492 99.9705C248.527 99.6736 248.796 99.4619 249.09 99.4982C249.385 99.5345 249.596 99.8026 249.56 100.1Z" fill="#527BEF"/>
<path d="M261.306 111.15C261.996 113.306 264.261 123.027 262.466 123.608C260.671 124.189 256.867 114.967 256.177 112.811C255.487 110.655 256.075 108.534 257.491 108.075C258.908 107.617 260.616 108.992 261.306 111.15Z" fill="#EBECED"/>
<path d="M153.705 66.6301L153.352 66.1227L168.698 54.208L169.051 54.7154L153.705 66.6301Z" fill="white"/>
<path d="M198.563 65.7294L198.481 55.8291L186.625 43.065L179.304 47.1263L179.007 46.5827L186.748 42.2896L199.095 55.5835L199.179 65.7244L198.563 65.7294Z" fill="white"/>
<path d="M203.924 46.6124L199.656 50.1873L200.05 50.6637L204.319 47.0889L203.924 46.6124Z" fill="white"/>
<path d="M232.797 67.2578L220.514 60.2701L204.061 56.8339L204.185 56.2275L220.735 59.6826L233.101 66.7192L232.797 67.2578Z" fill="white"/>
<path d="M240.72 90.6399L223.971 78.9369L232.243 74.2517L232.546 74.7916L225.13 78.992L241.072 90.1313L240.72 90.6399Z" fill="white"/>
<path d="M217.003 65L206.767 71.9321L207.112 72.4465L217.347 65.5143L217.003 65Z" fill="white"/>
<path d="M222.133 54.2958L221.545 54.1078L224.246 45.5316L215.852 43.764L215.978 43.1577L225.039 45.0656L222.133 54.2958Z" fill="white"/>
<path d="M192.889 42.6768C192.889 46.1218 190.112 48.9142 186.687 48.9142C183.261 48.9142 180.484 46.1218 180.484 42.6768C180.484 39.2318 183.261 36.4395 186.687 36.4395C190.112 36.4395 192.889 39.2318 192.889 42.6768Z" fill="white"/>
<path d="M206.297 55.0587C206.297 59.2341 202.931 62.6177 198.78 62.6177C194.629 62.6177 191.263 59.2328 191.263 55.0587C191.263 50.8846 194.629 47.4998 198.78 47.4998C202.931 47.4998 206.297 50.8846 206.297 55.0587Z" fill="white"/>
<path d="M195.643 55.6526H193.65V58.9097H195.643V55.6526Z" fill="#EF5C00"/>
<path d="M197.761 53.5229H195.643V58.9097H197.761V53.5229Z" fill="#EDD600"/>
<path d="M199.879 52.3955H197.761V58.9097H199.879V52.3955Z" fill="#4E5EAF"/>
<path d="M201.872 55.6526H199.879V58.9097H201.872V55.6526Z" fill="#EF5C00"/>
<path d="M203.741 50.3911H201.872V58.9097H203.741V50.3911Z" fill="#4E5EAF"/>
<path d="M228.81 79.2201C228.81 82.4509 226.205 85.0704 222.992 85.0704C219.78 85.0704 217.176 82.4509 217.176 79.2201C217.176 75.9893 219.781 73.3699 222.992 73.3699C226.204 73.3699 228.81 75.9893 228.81 79.2201Z" fill="white"/>
<path d="M178.725 50.3635C178.725 53.0994 176.52 55.3168 173.799 55.3168C171.079 55.3168 168.874 53.0994 168.874 50.3635C168.874 47.6275 171.079 45.4102 173.799 45.4102C176.52 45.4102 178.725 47.6275 178.725 50.3635Z" fill="white"/>
<path d="M173.799 57.1019C170.105 57.1019 167.099 54.0791 167.099 50.3622C167.099 46.6454 170.105 43.6238 173.799 43.6238C177.494 43.6238 180.5 46.6466 180.5 50.3622C180.5 54.0778 177.494 57.1019 173.799 57.1019ZM173.799 44.2439C170.445 44.2439 167.714 46.9886 167.714 50.3635C167.714 53.7383 170.443 56.4831 173.799 56.4831C177.155 56.4831 179.885 53.7383 179.885 50.3635C179.885 46.9886 177.155 44.2439 173.799 44.2439Z" fill="white"/>
<path d="M173.803 50.3708L174.893 47.3968C174.553 47.2715 174.187 47.2026 173.803 47.2026C172.063 47.2026 170.653 48.6207 170.653 50.3708C170.653 52.1209 172.063 53.539 173.803 53.539C175.544 53.539 176.954 52.1196 176.954 50.3708C176.954 50.1904 176.938 50.0138 176.909 49.8409L173.802 50.3708H173.803Z" fill="#EF5C00"/>
<path d="M177.564 49.2986C177.375 48.1686 176.591 47.2416 175.547 46.8545L174.457 49.8285L177.563 49.2986H177.564Z" fill="#4E5EAF"/>
<path d="M244.799 71.2165C244.799 74.5075 242.147 77.1745 238.874 77.1745C235.602 77.1745 232.949 74.5075 232.949 71.2165C232.949 67.9256 235.602 65.2585 238.874 65.2585C242.147 65.2585 244.799 67.9256 244.799 71.2165Z" fill="white"/>
<path d="M238.875 78.8331C234.698 78.8331 231.3 75.4156 231.3 71.2165C231.3 67.0173 234.698 63.5999 238.875 63.5999C243.052 63.5999 246.449 67.0173 246.449 71.2165C246.449 75.4156 243.051 78.8331 238.875 78.8331ZM238.875 64.2187C235.038 64.2187 231.917 67.358 231.917 71.2165C231.917 75.0749 235.038 78.2142 238.875 78.2142C242.712 78.2142 245.833 75.0749 245.833 71.2165C245.833 67.358 242.711 64.2187 238.875 64.2187Z" fill="white"/>
<path opacity="0.3" d="M238.407 68.5357C239.433 69.2197 239.712 70.6102 239.032 71.6425C238.352 72.6747 236.969 72.9566 235.943 72.2726C234.916 71.5886 234.636 70.1981 235.316 69.1658C235.996 68.1336 237.379 67.8529 238.406 68.5369L238.407 68.5357Z" fill="#4E5EAF"/>
<path d="M239.23 71.7465C238.482 72.8814 236.954 73.1934 235.826 72.4405C234.697 71.6876 234.387 70.1517 235.136 69.0168C235.884 67.8818 237.412 67.5699 238.54 68.3227C239.669 69.0756 239.979 70.6115 239.23 71.7465ZM235.518 69.2711C234.91 70.1943 235.161 71.4433 236.079 72.0546C236.997 72.666 238.239 72.4129 238.847 71.4909C239.456 70.5676 239.204 69.3187 238.286 68.7073C237.368 68.0948 236.126 68.3491 235.518 69.2711Z" fill="#0B2B77"/>
<path d="M239.44 71.1089L242.784 73.3388C243.076 73.5329 243.149 73.9288 242.956 74.2219L242.949 74.2332C242.756 74.5263 242.365 74.6128 242.073 74.4174L238.728 72.1875L239.44 71.1089Z" fill="#0B2B77"/>
<path d="M205.34 73.8397C205.34 77.4325 202.444 80.3464 198.87 80.3464C195.296 80.3464 192.4 77.4338 192.4 73.8397C192.4 70.2456 195.296 67.333 198.87 67.333C202.444 67.333 205.34 70.2456 205.34 73.8397Z" fill="white"/>
<path d="M198.871 82.263C194.252 82.263 190.495 78.4848 190.495 73.8396C190.495 69.1945 194.252 65.4163 198.871 65.4163C203.49 65.4163 207.248 69.1945 207.248 73.8396C207.248 78.4848 203.49 82.263 198.871 82.263ZM198.871 66.0364C194.592 66.0364 191.112 69.5365 191.112 73.8396C191.112 78.1428 194.592 81.6429 198.871 81.6429C203.15 81.6429 206.631 78.1428 206.631 73.8396C206.631 69.5365 203.15 66.0364 198.871 66.0364Z" fill="white"/>
<path d="M203.29 70.8081C203.108 71.2127 202.986 71.7389 202.982 72.1874L202.752 72.1848C202.755 71.7639 202.852 71.2829 203.009 70.8745L202.6 70.8707L202.602 70.6365L203.363 70.6427L203.288 70.8068L203.29 70.8081Z" fill="white"/>
<path d="M227.775 60.2012C227.775 64.3465 224.432 67.7076 220.31 67.7076C216.188 67.7076 212.846 64.3465 212.846 60.2012C212.846 56.0559 216.188 52.6948 220.31 52.6948C224.432 52.6948 227.775 56.0559 227.775 60.2012Z" fill="white"/>
<path d="M215.201 61.7021C215.201 62.599 215.887 63.4196 216.779 63.4196H219.944L224.486 65.1446L222.97 63.4196H223.765C224.657 63.4196 225.292 62.6003 225.292 61.7021V58.0879C225.292 57.191 224.658 56.5295 223.765 56.5295H216.779C215.887 56.5295 215.201 57.191 215.201 58.0879V61.7021Z" fill="#4E5EAF"/>
<path d="M218.552 60.2239C218.759 60.2114 218.972 60.4144 218.972 60.6474C218.972 60.8804 218.784 61.0633 218.552 61.0633C218.321 61.0633 218.131 60.819 218.131 60.6474C218.131 60.4144 218.319 60.2302 218.552 60.2239Z" fill="white"/>
<path d="M220.154 60.2239C220.361 60.2114 220.575 60.4144 220.575 60.6474C220.575 60.8804 220.386 61.0633 220.154 61.0633C219.923 61.0633 219.735 60.819 219.735 60.6474C219.735 60.4144 219.924 60.2302 220.154 60.2239Z" fill="white"/>
<path d="M221.756 60.2239C221.963 60.2114 222.176 60.4144 222.176 60.6474C222.176 60.8804 221.988 61.0633 221.756 61.0633C221.525 61.0633 221.337 60.819 221.337 60.6474C221.337 60.4144 221.525 60.2302 221.756 60.2239Z" fill="white"/>
<path d="M214.522 42.2007C214.522 45.1696 212.129 47.5761 209.177 47.5761C206.225 47.5761 203.832 45.1696 203.832 42.2007C203.832 39.2317 206.225 36.8252 209.177 36.8252C212.129 36.8252 214.522 39.2317 214.522 42.2007Z" fill="white"/>
<path d="M209.176 49.4027C205.227 49.4027 202.015 46.1719 202.015 42.202C202.015 38.232 205.228 35 209.176 35C213.124 35 216.336 38.2308 216.336 42.2007C216.336 46.1706 213.124 49.4014 209.176 49.4014V49.4027ZM209.176 35.6201C205.567 35.6201 202.631 38.5728 202.631 42.2007C202.631 45.8286 205.567 48.7826 209.176 48.7826C212.785 48.7826 215.721 45.8299 215.721 42.2007C215.721 38.5715 212.785 35.6201 209.176 35.6201Z" fill="white"/>
<path d="M210.571 44.3616H207.802C207.802 44.3616 207.238 42.0415 207.238 41.5855C207.238 40.4969 208.115 39.615 209.197 39.615C210.28 39.615 211.157 40.4969 211.157 41.5855C211.157 41.9877 210.57 44.3616 210.57 44.3616H210.571Z" fill="#EDD600"/>
<path d="M209.516 41.2261C209.533 41.4228 209.446 41.6984 209.308 41.9339C209.385 42.0391 209.475 42.123 209.571 42.1594C209.632 41.7297 209.745 41.3802 209.93 41.2324C210.04 41.1434 210.171 41.1271 210.307 41.1847C210.459 41.2499 210.515 41.4265 210.459 41.6595C210.389 41.9452 210.129 42.3398 209.764 42.3936C209.697 42.9949 209.707 43.7829 209.837 44.5233L209.622 44.5621C209.525 44.0147 209.471 43.119 209.543 42.3836C209.414 42.3485 209.288 42.2596 209.177 42.1256C209.073 42.2546 208.954 42.3535 208.836 42.3886C208.907 43.2831 208.823 44.3704 208.808 44.5521L208.59 44.5346C208.59 44.527 208.646 43.8481 208.643 43.119C208.642 42.8283 208.632 42.5866 208.615 42.3849C208.472 42.3423 208.32 42.227 208.184 42.0529C208.029 41.8537 207.88 41.5455 207.975 41.3326C208.002 41.2699 208.077 41.1622 208.267 41.1484C208.362 41.1422 208.452 41.1785 208.526 41.2536C208.678 41.409 208.765 41.7522 208.812 42.1631C208.888 42.1256 208.969 42.0416 209.044 41.9364C208.921 41.7209 208.85 41.4716 208.857 41.2787C208.866 41.0482 208.988 40.9104 209.182 40.9104C209.376 40.9104 209.495 41.0294 209.512 41.2298L209.516 41.2261ZM209.298 41.2461C209.288 41.1359 209.237 41.1259 209.186 41.1259C209.156 41.1259 209.086 41.1259 209.08 41.2837C209.075 41.404 209.114 41.5606 209.181 41.7096C209.261 41.5468 209.31 41.3727 209.299 41.2461H209.298ZM208.374 41.4052C208.336 41.3664 208.306 41.3639 208.284 41.3651C208.198 41.3714 208.183 41.4052 208.177 41.419C208.141 41.5017 208.198 41.7096 208.359 41.9151C208.435 42.0116 208.517 42.088 208.593 42.1331C208.534 41.652 208.438 41.4729 208.372 41.4065L208.374 41.4052ZM210.249 41.6057C210.276 41.4942 210.266 41.404 210.225 41.3864C210.163 41.3601 210.115 41.3651 210.068 41.404C209.953 41.4967 209.857 41.7748 209.798 42.1594C210.021 42.0855 210.199 41.8124 210.249 41.6069V41.6057Z" fill="#C9B109"/>
<path d="M207.802 44.3428L207.92 45.3538C207.92 45.7496 208.239 46.0954 208.633 46.0954H208.664V46.247C208.664 46.4474 208.836 46.5764 209.035 46.5764H209.36C209.56 46.5764 209.751 46.4474 209.751 46.247V46.0616C210.057 46.0515 210.465 45.7559 210.465 45.3663L210.569 44.3416H207.799L207.802 44.3428Z" fill="#0B2B77"/>
<path d="M209.148 37.4829H209.177C209.266 37.4829 209.337 37.5543 209.337 37.6433V38.6454C209.337 38.7344 209.266 38.8058 209.177 38.8058H209.147C209.059 38.8058 208.988 38.7344 208.988 38.6454V37.6433C208.988 37.5543 209.059 37.4829 209.147 37.4829H209.148Z" fill="#EDD600"/>
<path d="M210.324 39.263C210.259 39.3231 210.159 39.3194 210.099 39.2555C210.039 39.1904 210.043 39.0889 210.106 39.0288L210.844 38.3385C210.908 38.2784 211.009 38.2821 211.069 38.346C211.129 38.4112 211.125 38.5126 211.06 38.5728L210.323 39.263H210.324Z" fill="#EDD600"/>
<path d="M207.463 38.3373C207.399 38.2771 207.298 38.2809 207.237 38.3448C207.178 38.4099 207.181 38.5114 207.245 38.5715L207.982 39.2618C208.047 39.3219 208.148 39.3182 208.208 39.2543C208.268 39.1891 208.264 39.0877 208.199 39.0275L207.462 38.3373H207.463Z" fill="#EDD600"/>
<path d="M228.254 44.834C228.254 46.891 226.646 48.5584 224.662 48.5584C222.677 48.5584 221.069 46.891 221.069 44.834C221.069 42.777 222.677 41.1096 224.662 41.1096C226.646 41.1096 228.254 42.777 228.254 44.834Z" fill="white"/>
<path d="M200.323 74.8256V71.4983C200.323 70.694 199.671 70.0389 198.871 70.0389C198.072 70.0389 197.42 70.694 197.42 71.4983V74.8256H196.877V71.4983C196.877 70.3921 197.771 69.4927 198.87 69.4927C199.969 69.4927 200.865 70.3921 200.865 71.4983V74.8256H200.321H200.323Z" fill="#4E5EAF"/>
<path d="M196.178 73.0679V77.2482H201.565V73.0679H196.178ZM198.201 76.0043L198.534 75.1136C198.389 75.0084 198.294 74.8367 198.294 74.6438C198.294 74.3231 198.554 74.0638 198.871 74.0638C199.189 74.0638 199.448 74.3231 199.448 74.6438C199.448 74.838 199.353 75.0084 199.209 75.1136L199.541 76.0043H198.201Z" fill="#4E5EAF"/>
<path d="M191.043 42.7331C191.043 44.1349 189.913 45.2712 188.519 45.2712C187.125 45.2712 185.994 44.1349 185.994 42.7331C185.994 41.3313 187.124 40.1938 188.519 40.1938C189.914 40.1938 191.043 41.3301 191.043 42.7331Z" fill="#EDD600"/>
<path d="M188.656 43.9094C188.656 43.2304 188.157 42.6792 187.541 42.6792C187.344 42.6792 187.159 42.7356 186.998 42.8345C186.793 41.9438 186.051 41.2849 185.168 41.2849C184.158 41.2849 183.333 42.148 183.285 43.2317C182.801 43.3269 182.418 43.7628 182.33 44.319H188.593C188.634 44.1912 188.656 44.0534 188.656 43.9094Z" fill="#4E5EAF"/>
<path d="M223.025 83.3379C220.855 83.3379 219.089 81.5627 219.089 79.3805C219.089 77.1982 220.855 75.4231 223.025 75.4231C225.195 75.4231 226.96 77.1982 226.96 79.3805C226.96 81.5627 225.195 83.3379 223.025 83.3379ZM223.025 76.0745C221.212 76.0745 219.736 77.5578 219.736 79.3817C219.736 81.2057 221.211 82.6889 223.025 82.6889C224.838 82.6889 226.313 81.2057 226.313 79.3817C226.313 77.5578 224.838 76.0745 223.025 76.0745Z" fill="#EF5C00"/>
<path d="M224.436 80.5103L222.794 79.5119V76.6206H223.256V79.2501L224.675 80.112L224.436 80.5103Z" fill="#4E5EAF"/>
<path d="M225.79 43.6262H222.552V45.8811H225.79V43.6262Z" fill="#EF5C00"/>
<path d="M227.163 44.3779H227.036V43.8267C227.036 43.5674 226.862 43.3757 226.605 43.3757H222.7C222.442 43.3757 222.179 43.5687 222.179 43.8267V45.7609C222.179 46.019 222.443 46.2558 222.7 46.2558H226.605C226.862 46.2558 227.036 46.019 227.036 45.7609V45.2536H227.163C227.305 45.2536 227.41 45.1759 227.41 45.0331V44.6134C227.41 44.4706 227.305 44.3779 227.163 44.3779ZM226.787 45.7446C226.787 45.8098 226.7 45.8812 226.636 45.8812H222.703C222.639 45.8812 222.553 45.8098 222.553 45.7446V43.8443C222.553 43.7791 222.64 43.7516 222.703 43.7516H226.636C226.701 43.7516 226.787 43.7804 226.787 43.8443V45.7446Z" fill="#0B2B77"/>
<path d="M147.554 126.202C147.554 126.202 157.727 161.387 157.324 164.376C156.325 171.777 157.729 192.525 158.704 196.709L166.18 196.421C166.427 187.415 167.381 173.748 167.44 170.086C167.522 164.888 167.158 132.91 167.158 132.91C167.158 132.91 150.513 118.991 147.554 126.202Z" fill="#4E5EAF"/>
<path d="M175.513 210.136L158.659 210.654V203.59H166.445L175.658 208.224L175.513 210.136Z" fill="#0B2B77"/>
<path d="M159.749 203.59H165.092V199.572L159.543 200.044L159.749 203.59Z" fill="white"/>
<path d="M165.092 199.571L159.543 200.044L159.346 196.729L165.092 196.463V199.571Z" fill="#E2857E"/>
<path d="M153.667 64.2601C156.81 63.4609 161.336 65.6995 162.048 69.3963C162.76 73.0944 163.427 79.5485 161.099 80.3703C160.066 80.7336 156.117 80.3703 156.117 80.3703L156.948 84.7836H149.713L150.899 78.4624C150.899 78.4624 143.307 66.8921 153.668 64.2601H153.667Z" fill="#E2857E"/>
<path d="M161.077 67.1801C161.077 67.1801 157.747 67.8654 157.042 69.6981C156.335 71.5321 156.718 75.2214 154.995 71.9781C154.153 70.3921 152.88 70.8093 152.209 72.0933C151.386 73.673 153.246 75.0222 153.07 75.5546C152.893 76.087 151.31 78.4021 150.899 78.461C150.487 78.5198 146.321 71.8265 148.217 67.4344C149.997 63.3104 159.69 61.9161 161.078 67.1789L161.077 67.1801Z" fill="#0B2B77"/>
<path d="M161.077 67.1802C161.077 67.1802 164.348 64.0321 163.64 63.0424C163.206 62.4349 161.229 64.3052 160.748 63.7352C160.36 63.2755 162.042 61.9876 161.675 61.5116C159.75 59.0249 150.058 63.2642 149.8 65.5492C149.541 67.8341 161.077 67.1802 161.077 67.1802Z" fill="#0B2B77"/>
<path d="M138.99 134.794C138.99 134.794 140.668 152.851 141.288 169.518C140.202 183.451 141.208 194.948 141.394 196.822L148.408 196.834C148.467 193.185 149.248 182.112 150.786 170.229C153.044 152.774 156.324 133.569 156.324 133.569C156.324 133.569 141.867 127.551 138.989 134.794H138.99Z" fill="#4E5EAF"/>
<path d="M147.303 205.948L142.568 204.649L142.677 199.613L147.69 199.614L147.303 205.948Z" fill="white"/>
<path d="M142.677 199.613L147.69 199.614L147.918 196.834H142.677V199.613Z" fill="#E2857E"/>
<path d="M148.409 210.767H140.202V208.819L142.438 203.313H147.555L148.409 208.819V210.767Z" fill="#0B2B77"/>
<path d="M152.005 83.1049C148.791 83.3053 144.638 82.2405 142.567 88.3413C140.979 99.3453 138.261 141.797 138.261 141.797L168.97 142.026C168.97 142.026 166.185 101.285 162.341 84.9664C161.154 83.031 154.736 82.9333 152.005 83.1036V83.1049Z" fill="white"/>
<path d="M172.107 139.95L173.185 143.877L175.838 143.49L175.886 139.819L172.107 139.95Z" fill="#E2857E"/>
<path d="M162.115 87.5459C162.115 87.5459 173.591 89.9662 175.757 116.619C177.193 134.278 177.082 141.168 177.082 141.168L172.053 141.239C172.053 141.239 162.221 116.533 161.331 105.57C160.91 100.389 162.117 87.5447 162.117 87.5447L162.115 87.5459Z" fill="white"/>
<path d="M177.523 146.853C177.388 144.137 175.918 142.002 174.24 142.085C173.752 142.11 173.3 142.319 172.907 142.672C172.515 143.026 172.859 145.179 173.082 146.09C173.199 146.563 173.264 147.09 173.264 147.646C173.264 148.835 172.966 149.893 172.501 150.585C173.095 151.45 173.884 151.965 174.725 151.924C176.405 151.84 177.659 149.569 177.523 146.853Z" fill="#E2857E"/>
<path d="M160.03 83.6349L137.692 78.1292C137.692 78.1292 133.155 92.3589 144.397 93.0254C155.641 93.6906 160.03 83.6349 160.03 83.6349Z" fill="white"/>
<path d="M142.266 89.7832C142.266 89.7832 127.794 112.677 129.206 119.599C130.617 126.521 142.265 132.91 142.265 132.91V89.7832H142.266Z" fill="white"/>
<path opacity="0.3" d="M154.401 90.981C147.555 95.0185 140.811 92.156 140.811 92.156C140.811 92.156 146.767 98.213 154.401 90.981Z" fill="#D3D1D1"/>
</g>
<defs>
<clipPath id="clip0_349_76">
<rect width="146" height="180" fill="white" transform="translate(128 35)"/>
</clipPath>
</defs>
</svg>
