<svg width="475" height="298" viewBox="0 0 475 298" fill="none" xmlns="http://www.w3.org/2000/svg">
<circle cx="434.5" cy="49.5" r="23.5" stroke="#FFBF00" stroke-width="2"/>
<circle cx="279.5" cy="145.5" r="143.5" fill="#FFBF00"/>
<circle cx="396" cy="19" r="11" fill="#FFBF00"/>
<g filter="url(#filter0_d_619_103)">
<path d="M434 48H125C121.686 48 119 50.4229 119 53.4118V245.53C119 248.518 121.686 250.941 125 250.941H434C437.314 250.941 440 248.518 440 245.53V53.4118C440 50.4229 437.314 48 434 48Z" fill="black"/>
</g>
<path d="M434 48H125C121.686 48 119 50.4229 119 53.4118V245.53C119 248.518 121.686 250.941 125 250.941H434C437.314 250.941 440 248.518 440 245.53V53.4118C440 50.4229 437.314 48 434 48Z" fill="white"/>
<mask id="mask0_619_103" style="mask-type:alpha" maskUnits="userSpaceOnUse" x="119" y="85" width="321" height="166">
<path d="M119 85.8823H440V245.532C440 248.519 437.321 250.941 433.998 250.941H125.002C121.687 250.941 119 248.512 119 245.532V85.8823Z" fill="white"/>
</mask>
<g mask="url(#mask0_619_103)">
<path d="M119 85.8823H440V245.532C440 248.519 437.321 250.941 433.998 250.941H125.002C121.687 250.941 119 248.512 119 245.532V85.8823Z" fill="#D9E3F2"/>
<path fill-rule="evenodd" clip-rule="evenodd" d="M119 99.4116H306.5C308.157 99.4116 309.5 100.623 309.5 102.118V250.941H119V99.4116Z" fill="#E5F0FF"/>
<path d="M298.683 235.764C300.904 235.764 302.704 233.964 302.704 231.743C302.704 229.523 300.904 227.723 298.683 227.723C296.463 227.723 294.663 229.523 294.663 231.743C294.663 233.964 296.463 235.764 298.683 235.764Z" fill="white" stroke="black" stroke-opacity="0.15" stroke-width="1.5"/>
<path d="M298.683 224.277C300.904 224.277 302.704 222.477 302.704 220.257C302.704 218.037 300.904 216.237 298.683 216.237C296.463 216.237 294.663 218.037 294.663 220.257C294.663 222.477 296.463 224.277 298.683 224.277Z" fill="white" stroke="black" stroke-opacity="0.15" stroke-width="1.5"/>
<path d="M298.683 212.791C300.904 212.791 302.704 210.991 302.704 208.771C302.704 206.55 300.904 204.75 298.683 204.75C296.463 204.75 294.663 206.55 294.663 208.771C294.663 210.991 296.463 212.791 298.683 212.791Z" fill="white" stroke="black" stroke-opacity="0.15" stroke-width="1.5"/>
<path d="M191 99.4121H119V250.942H191V99.4121Z" fill="white"/>
<path d="M142.385 105.5H144.664C144.917 105.5 145.17 105.614 145.296 105.729L146.562 106.872C146.689 106.986 146.942 107.101 147.195 107.101H150.107C150.36 107.101 150.613 106.986 150.739 106.872L152.005 105.729C152.132 105.614 152.385 105.5 152.638 105.5H166.115C166.621 105.5 167.001 105.843 167.001 106.3V111.217C167.001 111.674 166.621 112.017 166.115 112.017H152.638C152.385 112.017 152.132 112.131 152.005 112.246L150.739 113.389C150.613 113.503 150.36 113.618 150.107 113.618H147.195C146.942 113.618 146.689 113.503 146.562 113.389L145.296 112.246C145.17 112.131 144.917 112.017 144.664 112.017H142.385C141.879 112.017 141.499 111.674 141.499 111.217V106.3C141.499 105.843 142.005 105.5 142.385 105.5Z" fill="#4C95FF" stroke="#4280D7" stroke-width="1.5"/>
<path d="M143.136 251.618H145.415C145.668 251.618 145.921 251.733 146.047 251.847L147.313 252.99C147.44 253.105 147.693 253.219 147.946 253.219H150.858C151.111 253.219 151.364 253.105 151.49 252.99L152.756 251.847C152.883 251.733 153.136 251.618 153.389 251.618H160.866C161.372 251.618 161.752 251.961 161.752 252.419V257.335C161.752 257.792 161.372 258.135 160.866 258.135H153.389C153.136 258.135 152.883 258.249 152.756 258.364L151.49 259.507C151.364 259.621 151.111 259.736 150.858 259.736H147.946C147.693 259.736 147.44 259.621 147.313 259.507L146.047 258.364C145.921 258.249 145.668 258.135 145.415 258.135H143.136C142.63 258.135 142.25 257.792 142.25 257.335V252.419C142.25 251.961 142.756 251.618 143.136 251.618Z" fill="#4C95FF" stroke="#4C95FF" stroke-width="1.5"/>
<path d="M142.385 116.324H144.664C144.917 116.324 145.17 116.439 145.296 116.553L146.562 117.696C146.689 117.811 146.942 117.925 147.195 117.925H150.107C150.36 117.925 150.613 117.811 150.739 117.696L152.005 116.553C152.132 116.439 152.385 116.324 152.638 116.324H172.115C172.621 116.324 173.001 116.667 173.001 117.125V122.041C173.001 122.498 172.621 122.841 172.115 122.841H152.638C152.385 122.841 152.132 122.956 152.005 123.07L150.739 124.213C150.613 124.328 150.36 124.442 150.107 124.442H147.195C146.942 124.442 146.689 124.328 146.562 124.213L145.296 123.07C145.17 122.956 144.917 122.841 144.664 122.841H142.385C141.879 122.841 141.499 122.498 141.499 122.041V117.125C141.499 116.667 142.005 116.324 142.385 116.324Z" fill="#4C95FF" stroke="#4280D7" stroke-width="1.5"/>
<path d="M142.385 127.147H144.664C144.917 127.147 145.17 127.261 145.296 127.376L146.562 128.519C146.689 128.633 146.942 128.748 147.195 128.748H150.107C150.36 128.748 150.613 128.633 150.739 128.519L152.005 127.376C152.132 127.261 152.385 127.147 152.638 127.147H172.115C172.621 127.147 173.001 127.49 173.001 127.947V132.864C173.001 133.321 172.621 133.664 172.115 133.664H152.638C152.385 133.664 152.132 133.778 152.005 133.893L150.739 135.036C150.613 135.15 150.36 135.265 150.107 135.265H147.195C146.942 135.265 146.689 135.15 146.562 135.036L145.296 133.893C145.17 133.778 144.917 133.664 144.664 133.664H142.385C141.879 133.664 141.499 133.321 141.499 132.864V127.947C141.499 127.49 142.005 127.147 142.385 127.147Z" fill="#4C95FF" stroke="#4280D7" stroke-width="1.5"/>
<path d="M142.385 192.088H144.664C144.917 192.088 145.17 192.203 145.296 192.317L146.562 193.46C146.689 193.575 146.942 193.689 147.195 193.689H150.107C150.36 193.689 150.613 193.575 150.739 193.46L152.005 192.317C152.132 192.203 152.385 192.088 152.638 192.088H172.115C172.621 192.088 173.001 192.431 173.001 192.889V197.805C173.001 198.262 172.621 198.605 172.115 198.605H152.638C152.385 198.605 152.132 198.72 152.005 198.834L150.739 199.977C150.613 200.092 150.36 200.206 150.107 200.206H147.195C146.942 200.206 146.689 200.092 146.562 199.977L145.296 198.834C145.17 198.72 144.917 198.605 144.664 198.605H142.385C141.879 198.605 141.499 198.262 141.499 197.805V192.889C141.499 192.431 142.005 192.088 142.385 192.088Z" fill="#4C95FF" stroke="#4280D7" stroke-width="1.5"/>
<path d="M142.385 143.383H144.664C144.917 143.383 145.17 143.497 145.296 143.611L146.562 144.755C146.689 144.869 146.942 144.983 147.195 144.983H150.107C150.36 144.983 150.613 144.869 150.739 144.755L152.005 143.611C152.132 143.497 152.385 143.383 152.638 143.383H176.615C177.121 143.383 177.501 143.726 177.501 144.183V149.099C177.501 149.557 177.121 149.9 176.615 149.9H152.638C152.385 149.9 152.132 150.014 152.005 150.128L150.739 151.272C150.613 151.386 150.36 151.5 150.107 151.5H147.195C146.942 151.5 146.689 151.386 146.562 151.272L145.296 150.128C145.17 150.014 144.917 149.9 144.664 149.9H142.385C141.879 149.9 141.499 149.557 141.499 149.099V144.183C141.499 143.726 142.005 143.383 142.385 143.383Z" fill="#4C95FF" stroke="#4280D7" stroke-width="1.5"/>
<path d="M142.385 175.854H144.664C144.917 175.854 145.17 175.968 145.296 176.083L146.562 177.226C146.689 177.34 146.942 177.455 147.195 177.455H150.107C150.36 177.455 150.613 177.34 150.739 177.226L152.005 176.083C152.132 175.968 152.385 175.854 152.638 175.854H176.615C177.121 175.854 177.501 176.197 177.501 176.654V181.571C177.501 182.028 177.121 182.371 176.615 182.371H152.638C152.385 182.371 152.132 182.485 152.005 182.6L150.739 183.743C150.613 183.857 150.36 183.972 150.107 183.972H147.195C146.942 183.972 146.689 183.857 146.562 183.743L145.296 182.6C145.17 182.485 144.917 182.371 144.664 182.371H142.385C141.879 182.371 141.499 182.028 141.499 181.571V176.654C141.499 176.197 142.005 175.854 142.385 175.854Z" fill="#4C95FF" stroke="#4280D7" stroke-width="1.5"/>
<path d="M244.169 179.035H246.448C246.701 179.035 246.954 179.149 247.081 179.263L248.346 180.407C248.473 180.521 248.726 180.635 248.979 180.635H251.891C252.144 180.635 252.397 180.521 252.524 180.407L253.789 179.263C253.916 179.149 254.169 179.035 254.422 179.035H278.399C278.905 179.035 279.285 179.378 279.285 179.835V184.751C279.285 185.209 278.905 185.552 278.399 185.552H254.422C254.169 185.552 253.916 185.666 253.789 185.78L252.524 186.924C252.397 187.038 252.144 187.152 251.891 187.152H248.979C248.726 187.152 248.473 187.038 248.346 186.924L247.081 185.78C246.954 185.666 246.701 185.552 246.448 185.552H244.169C243.663 185.552 243.283 185.209 243.283 184.751V179.835C243.283 179.378 243.79 179.035 244.169 179.035Z" fill="#4C95FF" stroke="#4280D7" stroke-width="1.5"/>
<path d="M244.169 168.888H246.448C246.701 168.888 246.954 169.002 247.081 169.116L248.346 170.26C248.473 170.374 248.726 170.488 248.979 170.488H251.891C252.144 170.488 252.397 170.374 252.524 170.26L253.789 169.116C253.916 169.002 254.169 168.888 254.422 168.888H269.399C269.905 168.888 270.285 169.231 270.285 169.688V174.604C270.285 175.062 269.905 175.405 269.399 175.405H254.422C254.169 175.405 253.916 175.519 253.789 175.633L252.524 176.777C252.397 176.891 252.144 177.005 251.891 177.005H248.979C248.726 177.005 248.473 176.891 248.346 176.777L247.081 175.633C246.954 175.519 246.701 175.405 246.448 175.405H244.169C243.663 175.405 243.283 175.062 243.283 174.604V169.688C243.283 169.231 243.79 168.888 244.169 168.888Z" fill="#9966FF" stroke="#855CD6" stroke-width="1.5"/>
<path d="M208.79 132.638V142.341C208.79 143.461 209.797 144.37 211.04 144.37H214.995C215.248 144.37 215.501 144.484 215.628 144.599L216.894 145.742C217.02 145.856 217.273 145.971 217.527 145.971H220.438C220.691 145.971 220.944 145.856 221.071 145.742L222.337 144.599C222.463 144.484 222.716 144.37 222.97 144.37H237.946C238.452 144.37 238.832 144.713 238.832 145.17V150.087C238.832 150.544 238.452 150.887 237.946 150.887H216.179C215.926 150.887 215.673 151.001 215.546 151.116L214.28 152.259C214.154 152.373 213.901 152.488 213.648 152.488H210.736C210.483 152.488 210.23 152.373 210.103 152.259L208.837 151.116C208.711 151.001 208.458 150.887 208.205 150.887H205.926C205.42 150.887 205.04 150.544 205.04 150.087V124.892C205.04 124.434 205.546 124.091 205.926 124.091H208.205C208.458 124.091 208.711 124.206 208.837 124.32L210.103 125.463C210.23 125.578 210.483 125.692 210.736 125.692H213.648C213.901 125.692 214.154 125.578 214.28 125.463L215.546 124.32C215.673 124.206 215.926 124.091 216.179 124.091H237.156C237.662 124.091 238.042 124.434 238.042 124.892V129.808C238.042 130.265 237.662 130.608 237.156 130.608H223.04C222.787 130.608 222.534 130.723 222.407 130.837L221.141 131.98C221.015 132.095 220.762 132.209 220.508 132.209H217.597C217.344 132.209 217.091 132.095 216.964 131.98L215.698 130.837C215.572 130.723 215.319 130.608 215.065 130.608H211.04C209.797 130.608 208.79 131.517 208.79 132.638Z" fill="#FFAB19" stroke="#EC9C13" stroke-width="1.5"/>
<path d="M212.717 134.238H214.996C215.249 134.238 215.502 134.353 215.628 134.467L216.894 135.61C217.021 135.725 217.274 135.839 217.527 135.839H220.439C220.692 135.839 220.945 135.725 221.071 135.61L222.337 134.467C222.464 134.353 222.717 134.238 222.97 134.238H246.417C246.924 134.238 247.303 134.581 247.303 135.039V139.955C247.303 140.412 246.924 140.755 246.417 140.755H222.97C222.717 140.755 222.464 140.87 222.337 140.984L221.071 142.127C220.945 142.242 220.692 142.356 220.439 142.356H217.527C217.274 142.356 217.021 142.242 216.894 142.127L215.628 140.984C215.502 140.87 215.249 140.755 214.996 140.755H212.717C212.211 140.755 211.831 140.412 211.831 139.955V135.039C211.831 134.581 212.337 134.238 212.717 134.238Z" fill="#9966FF" stroke="#855CD6" stroke-width="1.5"/>
<path d="M251.361 155.359C257.585 155.359 259.939 158.757 259.939 158.757H272.399C272.905 158.757 273.285 159.1 273.285 159.557V164.473C273.285 164.931 272.905 165.274 272.399 165.274H254.422C254.169 165.274 253.916 165.388 253.789 165.502L252.524 166.646C252.397 166.76 252.144 166.874 251.891 166.874H248.979C248.726 166.874 248.473 166.76 248.346 166.646L247.081 165.502C246.954 165.388 246.701 165.274 246.448 165.274H244.169C243.663 165.274 243.283 164.931 243.283 164.473V158.757C243.283 158.757 245.136 155.359 251.361 155.359Z" fill="#FFBF00" stroke="#E6AC00" stroke-width="1.5"/>
<path d="M213.156 110.562C219.381 110.562 221.735 113.96 221.735 113.96H234.195C234.701 113.96 235.081 114.303 235.081 114.76V119.677C235.081 120.134 234.701 120.477 234.195 120.477H216.218C215.965 120.477 215.712 120.591 215.585 120.706L214.32 121.849C214.193 121.963 213.94 122.078 213.687 122.078H210.775C210.522 122.078 210.269 121.963 210.142 121.849L208.877 120.706C208.75 120.591 208.497 120.477 208.244 120.477H205.965C205.459 120.477 205.079 120.134 205.079 119.677V113.96C205.079 113.96 206.932 110.562 213.156 110.562Z" fill="#FFBF00" stroke="#E6AC00" stroke-width="1.5"/>
<path d="M142.385 165.03H144.664C144.917 165.03 145.17 165.144 145.296 165.258L146.562 166.402C146.689 166.516 146.942 166.63 147.195 166.63H150.107C150.36 166.63 150.613 166.516 150.739 166.402L152.005 165.258C152.132 165.144 152.385 165.03 152.638 165.03H182.615C183.121 165.03 183.501 165.373 183.501 165.83V170.746C183.501 171.204 183.121 171.547 182.615 171.547H152.638C152.385 171.547 152.132 171.661 152.005 171.775L150.739 172.919C150.613 173.033 150.36 173.147 150.107 173.147H147.195C146.942 173.147 146.689 173.033 146.562 172.919L145.296 171.775C145.17 171.661 144.917 171.547 144.664 171.547H142.385C141.879 171.547 141.499 171.204 141.499 170.746V165.83C141.499 165.373 142.005 165.03 142.385 165.03Z" fill="#4C95FF" stroke="#4280D7" stroke-width="1.5"/>
<path d="M142.385 202.912H144.664C144.917 202.912 145.17 203.026 145.296 203.14L146.562 204.284C146.689 204.398 146.942 204.512 147.195 204.512H150.107C150.36 204.512 150.613 204.398 150.739 204.284L152.005 203.14C152.132 203.026 152.385 202.912 152.638 202.912H182.615C183.121 202.912 183.501 203.255 183.501 203.712V208.628C183.501 209.086 183.121 209.429 182.615 209.429H152.638C152.385 209.429 152.132 209.543 152.005 209.657L150.739 210.801C150.613 210.915 150.36 211.029 150.107 211.029H147.195C146.942 211.029 146.689 210.915 146.562 210.801L145.296 209.657C145.17 209.543 144.917 209.429 144.664 209.429H142.385C141.879 209.429 141.499 209.086 141.499 208.628V203.712C141.499 203.255 142.005 202.912 142.385 202.912Z" fill="#4C95FF" stroke="#4280D7" stroke-width="1.5"/>
<path d="M142.385 154.207H144.664C144.917 154.207 145.17 154.321 145.296 154.435L146.562 155.579C146.689 155.693 146.942 155.807 147.195 155.807H150.107C150.36 155.807 150.613 155.693 150.739 155.579L152.005 154.435C152.132 154.321 152.385 154.207 152.638 154.207H173.615C174.121 154.207 174.501 154.55 174.501 155.007V159.923C174.501 160.381 174.121 160.724 173.615 160.724H152.638C152.385 160.724 152.132 160.838 152.005 160.952L150.739 162.096C150.613 162.21 150.36 162.324 150.107 162.324H147.195C146.942 162.324 146.689 162.21 146.562 162.096L145.296 160.952C145.17 160.838 144.917 160.724 144.664 160.724H142.385C141.879 160.724 141.499 160.381 141.499 159.923V155.007C141.499 154.55 142.005 154.207 142.385 154.207Z" fill="#4C95FF" stroke="#4280D7" stroke-width="1.5"/>
<path d="M134.273 98.7358H117.773V251.618H134.273V98.7358Z" fill="white" stroke="black" stroke-opacity="0.05" stroke-width="1.5"/>
<g filter="url(#filter1_d_619_103)">
<path d="M134.001 237.412H119.001V250.942H134.001V237.412Z" fill="black"/>
</g>
<path d="M134.001 237.412H119.001V250.942H134.001V237.412Z" fill="#4C97FF"/>
<path d="M126.963 186.372C128.866 186.372 130.408 184.83 130.408 182.926C130.408 181.023 128.866 179.48 126.963 179.48C125.059 179.48 123.517 181.023 123.517 182.926C123.517 184.83 125.059 186.372 126.963 186.372Z" fill="#FF8C1A" stroke="black" stroke-opacity="0.1" stroke-width="1.5"/>
<path d="M126.963 176.034C128.866 176.034 130.408 174.492 130.408 172.588C130.408 170.685 128.866 169.143 126.963 169.143C125.059 169.143 123.517 170.685 123.517 172.588C123.517 174.492 125.059 176.034 126.963 176.034Z" fill="#59C059" stroke="black" stroke-opacity="0.1" stroke-width="1.5"/>
<path d="M126.963 164.548C128.866 164.548 130.408 163.005 130.408 161.102C130.408 159.199 128.866 157.656 126.963 157.656C125.059 157.656 123.517 159.199 123.517 161.102C123.517 163.005 125.059 164.548 126.963 164.548Z" fill="#5CB1D6" stroke="black" stroke-opacity="0.1" stroke-width="1.5"/>
<path d="M126.963 154.21C128.866 154.21 130.408 152.667 130.408 150.764C130.408 148.861 128.866 147.318 126.963 147.318C125.059 147.318 123.517 148.861 123.517 150.764C123.517 152.667 125.059 154.21 126.963 154.21Z" fill="#FFAB19" stroke="black" stroke-opacity="0.1" stroke-width="1.5"/>
<path d="M126.963 143.873C128.866 143.873 130.408 142.33 130.408 140.427C130.408 138.524 128.866 136.981 126.963 136.981C125.059 136.981 123.517 138.524 123.517 140.427C123.517 142.33 125.059 143.873 126.963 143.873Z" fill="#FFBF00" stroke="black" stroke-opacity="0.1" stroke-width="1.5"/>
<path d="M126.963 132.386C128.866 132.386 130.408 130.843 130.408 128.94C130.408 127.037 128.866 125.494 126.963 125.494C125.059 125.494 123.517 127.037 123.517 128.94C123.517 130.843 125.059 132.386 126.963 132.386Z" fill="#CF63CF" stroke="black" stroke-opacity="0.1" stroke-width="1.5"/>
<path d="M126.963 122.049C128.866 122.049 130.408 120.506 130.408 118.603C130.408 116.7 128.866 115.157 126.963 115.157C125.059 115.157 123.517 116.7 123.517 118.603C123.517 120.506 125.059 122.049 126.963 122.049Z" fill="#9966FF" stroke="black" stroke-opacity="0.1" stroke-width="1.5"/>
<path d="M126.963 110.562C128.866 110.562 130.408 109.019 130.408 107.116C130.408 105.213 128.866 103.67 126.963 103.67C125.059 103.67 123.517 105.213 123.517 107.116C123.517 109.019 125.059 110.562 126.963 110.562Z" fill="#4C97FF" stroke="black" stroke-opacity="0.1" stroke-width="1.5"/>
<path fill-rule="evenodd" clip-rule="evenodd" d="M119.562 98.9041H142.438V92.6548C142.438 91.4378 141.348 90.4482 140.009 90.4482H121.991C120.652 90.4482 119.562 91.4364 119.562 92.6548V98.9041Z" fill="white" fill-opacity="0.75" stroke="#E6EBF2" stroke-width="1.125"/>
<path d="M135.5 93.9995H126.5C125.672 93.9995 125 94.6052 125 95.3525C125 96.0997 125.672 96.7054 126.5 96.7054H135.5C136.328 96.7054 137 96.0997 137 95.3525C137 94.6052 136.328 93.9995 135.5 93.9995Z" fill="black" fill-opacity="0.1"/>
<path fill-rule="evenodd" clip-rule="evenodd" d="M119 92.6553C119 91.1565 120.342 89.9414 121.991 89.9414H140.009C141.661 89.9414 143 91.1601 143 92.6553V99.412H119V92.6553Z" fill="white"/>
<path d="M135.499 93.5493H126.499C125.671 93.5493 124.999 94.155 124.999 94.9023C124.999 95.6495 125.671 96.2552 126.499 96.2552H135.499C136.327 96.2552 136.999 95.6495 136.999 94.9023C136.999 94.155 136.327 93.5493 135.499 93.5493Z" fill="#4C97FF"/>
<path fill-rule="evenodd" clip-rule="evenodd" d="M143.562 98.9046H166.438V92.6553C166.438 91.4383 165.348 90.4487 164.009 90.4487H145.991C144.652 90.4487 143.562 91.4368 143.562 92.6553V98.9046Z" fill="white" fill-opacity="0.75" stroke="#D9E3F2" stroke-width="1.125"/>
<path d="M159.499 93.5488H150.499C149.671 93.5488 148.999 94.1546 148.999 94.9018C148.999 95.649 149.671 96.2547 150.499 96.2547H159.499C160.327 96.2547 160.999 95.649 160.999 94.9018C160.999 94.1546 160.327 93.5488 159.499 93.5488Z" fill="black" fill-opacity="0.15"/>
<path fill-rule="evenodd" clip-rule="evenodd" d="M167.562 98.9032H190.437V92.6538C190.437 91.4368 189.347 90.4473 188.008 90.4473H169.99C168.651 90.4473 167.562 91.4354 167.562 92.6538V98.9032Z" fill="white" fill-opacity="0.75" stroke="#D9E3F2" stroke-width="1.125"/>
<path d="M183.499 93.5474H174.499C173.671 93.5474 172.999 94.1531 172.999 94.9003C172.999 95.6475 173.671 96.2532 174.499 96.2532H183.499C184.327 96.2532 184.999 95.6475 184.999 94.9003C184.999 94.1531 184.327 93.5474 183.499 93.5474Z" fill="black" fill-opacity="0.15"/>
<mask id="mask1_619_103" style="mask-type:alpha" maskUnits="userSpaceOnUse" x="313" y="99" width="121" height="82">
<path d="M430.999 99.4111H316.999C315.342 99.4111 313.999 100.623 313.999 102.117V177.882C313.999 179.376 315.342 180.588 316.999 180.588H430.999C432.656 180.588 433.999 179.376 433.999 177.882V102.117C433.999 100.623 432.656 99.4111 430.999 99.4111Z" fill="white"/>
</mask>
<g mask="url(#mask1_619_103)">
<path d="M430.999 99.4111H316.999C315.342 99.4111 313.999 100.623 313.999 102.117V177.882C313.999 179.376 315.342 180.588 316.999 180.588H430.999C432.656 180.588 433.999 179.376 433.999 177.882V102.117C433.999 100.623 432.656 99.4111 430.999 99.4111Z" fill="white"/>
</g>
<mask id="mask2_619_103" style="mask-type:alpha" maskUnits="userSpaceOnUse" x="313" y="99" width="121" height="82">
<path d="M430.999 99.4111H316.999C315.342 99.4111 313.999 100.623 313.999 102.117V177.882C313.999 179.376 315.342 180.588 316.999 180.588H430.999C432.656 180.588 433.999 179.376 433.999 177.882V102.117C433.999 100.623 432.656 99.4111 430.999 99.4111Z" fill="white"/>
</mask>
<g mask="url(#mask2_619_103)">
<path d="M430.999 99.4111H316.999C315.342 99.4111 313.999 100.623 313.999 102.117V177.882C313.999 179.376 315.342 180.588 316.999 180.588H430.999C432.656 180.588 433.999 179.376 433.999 177.882V102.117C433.999 100.623 432.656 99.4111 430.999 99.4111Z" fill="#575E75"/>
<path fill-rule="evenodd" clip-rule="evenodd" d="M340.002 126.293L410 188H251L320.998 126.293C325.459 122.361 333.329 121.882 338.577 125.225C339.089 125.551 339.566 125.909 340.002 126.293Z" fill="#0EBD8C"/>
<path fill-rule="evenodd" clip-rule="evenodd" d="M380.072 148.688L417.234 180.629H328L365.162 148.688C368.657 145.684 374.828 145.315 378.945 147.865C379.351 148.117 379.728 148.392 380.072 148.688Z" fill="#0EA57A"/>
<path fill-rule="evenodd" clip-rule="evenodd" d="M428.774 135.726L475 183H364L410.226 135.726C414.574 131.28 422.25 130.735 427.372 134.509C427.877 134.881 428.345 135.288 428.774 135.726Z" fill="#19B88B"/>
</g>
<g clip-path="url(#clip0_619_103)">
<path d="M373.151 132.257L370.379 134.745H366.438L363.666 132.257C363.024 131.681 362 132.136 362 132.998V144.923H374.817V132.998C374.817 132.135 373.793 131.679 373.151 132.257Z" fill="white"/>
<path d="M365.185 158.811C364.244 158.811 363.473 158.043 363.473 157.102V148.403C363.473 147.463 364.242 146.694 365.185 146.694C366.126 146.694 366.898 147.462 366.898 148.403V157.102C366.898 158.041 366.128 158.811 365.185 158.811Z" fill="white"/>
<path d="M377.695 159C376.754 159 375.982 158.232 375.982 157.291V151.989C375.982 151.05 376.752 150.28 377.695 150.28C378.636 150.28 379.407 151.048 379.407 151.989V157.291C379.407 158.23 378.638 159 377.695 159Z" fill="white"/>
<path d="M362 141.384H383.836V152.935H367.948C364.665 152.935 362 150.275 362 146.998V141.384Z" fill="white"/>
<path d="M381.222 146.075L376.584 141.423L380.575 141.434C380.759 141.404 381.639 141.218 382.497 140.415C382.998 139.947 383.493 139.268 383.838 138.285C384.114 137.495 384.296 136.51 384.305 135.278C384.315 133.99 385.364 132.954 386.654 132.954C386.66 132.954 386.666 132.954 386.673 132.954C387.97 132.963 389.013 134.022 389.002 135.315C388.942 143.035 383.887 145.729 381.222 146.075Z" fill="white"/>
<path d="M382.125 159C381.183 159 380.412 158.232 380.412 157.291V151.989C380.412 151.05 381.182 150.28 382.125 150.28C383.066 150.28 383.837 151.048 383.837 151.989V157.291C383.837 158.23 383.067 159 382.125 159Z" fill="white"/>
<path d="M369.615 159C368.673 159 367.902 158.232 367.902 157.291V151.989C367.902 151.05 368.672 150.28 369.615 150.28C370.556 150.28 371.327 151.048 371.327 151.989V157.291C371.327 158.23 370.558 159 369.615 159Z" fill="white"/>
<path d="M370.117 141.709C369.941 141.709 369.797 141.852 369.797 142.028C369.797 142.322 369.557 142.562 369.263 142.562C368.969 142.562 368.729 142.322 368.729 142.028C368.729 142.025 368.729 142.022 368.729 142.02C368.729 142.017 368.729 142.014 368.729 142.012V141.424C369.007 141.295 369.2 141.027 369.2 140.849C369.2 140.61 368.845 140.415 368.408 140.415C367.971 140.415 367.616 140.61 367.616 140.849C367.616 141.027 367.81 141.295 368.087 141.424V142.012C368.087 142.012 368.087 142.019 368.087 142.02C368.087 142.024 368.087 142.027 368.087 142.028C368.087 142.322 367.846 142.562 367.552 142.562C367.258 142.562 367.018 142.322 367.018 142.028C367.018 141.852 366.875 141.709 366.698 141.709C366.522 141.709 366.379 141.852 366.379 142.028C366.379 142.674 366.905 143.199 367.552 143.199C367.889 143.199 368.192 143.057 368.406 142.83C368.621 143.057 368.923 143.199 369.26 143.199C369.907 143.199 370.433 142.674 370.433 142.028C370.433 141.852 370.29 141.709 370.114 141.709H370.117Z" fill="#6D6D6D"/>
<path d="M366.371 140.663C366.189 140.663 366.043 140.517 366.043 140.336C366.043 139.826 365.628 139.412 365.118 139.412C364.607 139.412 364.192 139.826 364.192 140.336C364.192 140.517 364.046 140.663 363.865 140.663C363.683 140.663 363.537 140.517 363.537 140.336C363.537 139.466 364.246 138.758 365.118 138.758C365.989 138.758 366.698 139.466 366.698 140.336C366.698 140.517 366.552 140.663 366.371 140.663Z" fill="#6D6D6D"/>
<path d="M372.952 140.663C372.77 140.663 372.624 140.517 372.624 140.336C372.624 139.826 372.209 139.412 371.699 139.412C371.188 139.412 370.773 139.826 370.773 140.336C370.773 140.517 370.627 140.663 370.446 140.663C370.264 140.663 370.118 140.517 370.118 140.336C370.118 139.466 370.827 138.758 371.699 138.758C372.57 138.758 373.279 139.466 373.279 140.336C373.279 140.517 373.133 140.663 372.952 140.663Z" fill="#6D6D6D"/>
</g>
<path fill-rule="evenodd" clip-rule="evenodd" d="M313.999 188.699C313.999 187.208 315.341 186 316.993 186H401.005C402.658 186 403.999 187.22 403.999 188.699V202.235H313.999V188.699Z" fill="white"/>
<path d="M334.999 190.06H319.999C319.171 190.06 318.499 190.665 318.499 191.413C318.499 192.16 319.171 192.765 319.999 192.765H334.999C335.827 192.765 336.499 192.16 336.499 191.413C336.499 190.665 335.827 190.06 334.999 190.06Z" fill="black" fill-opacity="0.15"/>
<path d="M322.999 195.471H319.999C319.171 195.471 318.499 196.076 318.499 196.824C318.499 197.571 319.171 198.177 319.999 198.177H322.999C323.827 198.177 324.499 197.571 324.499 196.824C324.499 196.076 323.827 195.471 322.999 195.471Z" fill="black" fill-opacity="0.15"/>
<path d="M331.999 195.471H328.999C328.171 195.471 327.499 196.076 327.499 196.824C327.499 197.571 328.171 198.177 328.999 198.177H331.999C332.827 198.177 333.499 197.571 333.499 196.824C333.499 196.076 332.827 195.471 331.999 195.471Z" fill="black" fill-opacity="0.15"/>
<path d="M388.999 190.06H385.999C385.171 190.06 384.499 190.665 384.499 191.413C384.499 192.16 385.171 192.765 385.999 192.765H388.999C389.827 192.765 390.499 192.16 390.499 191.413C390.499 190.665 389.827 190.06 388.999 190.06Z" fill="black" fill-opacity="0.15"/>
<path d="M342.5 190H339.5C338.672 190 338 190.606 338 191.353C338 192.1 338.672 192.706 339.5 192.706H342.5C343.328 192.706 344 192.1 344 191.353C344 190.606 343.328 190 342.5 190Z" fill="black" fill-opacity="0.15"/>
<path d="M371 190.06H368C367.172 190.06 366.5 190.665 366.5 191.413C366.5 192.16 367.172 192.765 368 192.765H371C371.828 192.765 372.5 192.16 372.5 191.413C372.5 190.665 371.828 190.06 371 190.06Z" fill="black" fill-opacity="0.15"/>
<path d="M397.999 190.06H394.999C394.171 190.06 393.499 190.665 393.499 191.413C393.499 192.16 394.171 192.765 394.999 192.765H397.999C398.827 192.765 399.499 192.16 399.499 191.413C399.499 190.665 398.827 190.06 397.999 190.06Z" fill="black" fill-opacity="0.15"/>
<path d="M370.25 195H359.75C358.784 195 358 195.672 358 196.5C358 197.328 358.784 198 359.75 198H370.25C371.216 198 372 197.328 372 196.5C372 195.672 371.216 195 370.25 195Z" fill="black" fill-opacity="0.15"/>
<path d="M398 195.471H375.5C374.672 195.471 374 196.076 374 196.824C374 197.571 374.672 198.177 375.5 198.177H398C398.828 198.177 399.5 197.571 399.5 196.824C399.5 196.076 398.828 195.471 398 195.471Z" fill="black" fill-opacity="0.15"/>
<path fill-rule="evenodd" clip-rule="evenodd" d="M313.999 202.235H403.999V250.941H313.999V202.235Z" fill="#E5F0FF"/>
<path d="M394.595 247.251C397.767 247.251 400.338 244.679 400.338 241.507C400.338 238.335 397.767 235.764 394.595 235.764C391.423 235.764 388.852 238.335 388.852 241.507C388.852 244.679 391.423 247.251 394.595 247.251Z" fill="#4C97FF" stroke="#4C97FF" stroke-opacity="0.2" stroke-width="1.5"/>
<path d="M330.836 205.617H320.658C319.052 205.617 317.75 206.829 317.75 208.323V217.794C317.75 219.288 319.052 220.5 320.658 220.5H330.836C332.442 220.5 333.744 219.288 333.744 217.794V208.323C333.744 206.829 332.442 205.617 330.836 205.617Z" fill="white" stroke="#4C97FF"/>
<g clip-path="url(#clip1_619_103)">
<path d="M325.717 209.086L324.793 209.915H323.479L322.555 209.086C322.341 208.893 322 209.045 322 209.333V213.308H326.272V209.333C326.272 209.045 325.931 208.893 325.717 209.086Z" fill="#E1E1E1"/>
<path d="M323.062 217.937C322.748 217.937 322.491 217.681 322.491 217.367V214.468C322.491 214.154 322.748 213.898 323.062 213.898C323.376 213.898 323.633 214.154 323.633 214.468V217.367C323.633 217.68 323.376 217.937 323.062 217.937Z" fill="#E1E1E1"/>
<path d="M327.232 218C326.918 218 326.661 217.744 326.661 217.43V215.663C326.661 215.35 326.918 215.093 327.232 215.093C327.546 215.093 327.803 215.349 327.803 215.663V217.43C327.803 217.743 327.546 218 327.232 218Z" fill="#E1E1E1"/>
<path d="M322 212.128H329.279V215.979H323.983C322.888 215.979 322 215.092 322 214V212.128Z" fill="#E1E1E1"/>
<path d="M328.407 213.692L326.861 212.141L328.192 212.145C328.253 212.135 328.546 212.073 328.832 211.805C328.999 211.649 329.164 211.423 329.279 211.095C329.371 210.832 329.432 210.503 329.435 210.093C329.438 209.663 329.788 209.318 330.218 209.318C330.22 209.318 330.222 209.318 330.224 209.318C330.657 209.321 331.004 209.674 331.001 210.105C330.981 212.678 329.296 213.576 328.407 213.692Z" fill="#E1E1E1"/>
<path d="M328.709 218C328.395 218 328.138 217.744 328.138 217.43V215.663C328.138 215.35 328.394 215.093 328.709 215.093C329.022 215.093 329.279 215.349 329.279 215.663V217.43C329.279 217.743 329.023 218 328.709 218Z" fill="#E1E1E1"/>
<path d="M324.539 218C324.225 218 323.968 217.744 323.968 217.43V215.663C323.968 215.35 324.224 215.093 324.539 215.093C324.852 215.093 325.109 215.349 325.109 215.663V217.43C325.109 217.743 324.853 218 324.539 218Z" fill="#E1E1E1"/>
<path d="M324.706 212.237C324.647 212.237 324.599 212.284 324.599 212.343C324.599 212.441 324.519 212.521 324.421 212.521C324.323 212.521 324.243 212.441 324.243 212.343C324.243 212.342 324.243 212.341 324.243 212.34C324.243 212.339 324.243 212.338 324.243 212.338V212.142C324.336 212.099 324.4 212.009 324.4 211.95C324.4 211.87 324.282 211.805 324.136 211.805C323.99 211.805 323.872 211.87 323.872 211.95C323.872 212.009 323.937 212.099 324.029 212.142V212.338C324.029 212.338 324.029 212.34 324.029 212.34C324.029 212.342 324.029 212.343 324.029 212.343C324.029 212.441 323.949 212.521 323.851 212.521C323.753 212.521 323.673 212.441 323.673 212.343C323.673 212.284 323.625 212.237 323.566 212.237C323.508 212.237 323.46 212.284 323.46 212.343C323.46 212.558 323.635 212.733 323.851 212.733C323.963 212.733 324.064 212.686 324.136 212.61C324.207 212.686 324.308 212.733 324.42 212.733C324.636 212.733 324.811 212.558 324.811 212.343C324.811 212.284 324.764 212.237 324.705 212.237H324.706Z" fill="#6D6D6D"/>
<path d="M323.457 211.888C323.397 211.888 323.348 211.839 323.348 211.779C323.348 211.609 323.21 211.471 323.04 211.471C322.869 211.471 322.731 211.609 322.731 211.779C322.731 211.839 322.682 211.888 322.622 211.888C322.561 211.888 322.513 211.839 322.513 211.779C322.513 211.489 322.749 211.253 323.04 211.253C323.33 211.253 323.566 211.489 323.566 211.779C323.566 211.839 323.518 211.888 323.457 211.888Z" fill="#6D6D6D"/>
<path d="M325.651 211.888C325.59 211.888 325.541 211.839 325.541 211.779C325.541 211.609 325.403 211.471 325.233 211.471C325.063 211.471 324.924 211.609 324.924 211.779C324.924 211.839 324.876 211.888 324.815 211.888C324.755 211.888 324.706 211.839 324.706 211.779C324.706 211.489 324.942 211.253 325.233 211.253C325.523 211.253 325.76 211.489 325.76 211.779C325.76 211.839 325.711 211.888 325.651 211.888Z" fill="#6D6D6D"/>
</g>
<path d="M350.221 205.617H340.044C338.438 205.617 337.136 206.829 337.136 208.323V217.794C337.136 219.288 338.438 220.5 340.044 220.5H350.221C351.827 220.5 353.129 219.288 353.129 217.794V208.323C353.129 206.829 351.827 205.617 350.221 205.617Z" stroke="black" stroke-opacity="0.15"/>
<path d="M370.091 205.617H359.914C358.308 205.617 357.006 206.829 357.006 208.323V217.794C357.006 219.288 358.308 220.5 359.914 220.5H370.091C371.697 220.5 372.999 219.288 372.999 217.794V208.323C372.999 206.829 371.697 205.617 370.091 205.617Z" stroke="black" stroke-opacity="0.15"/>
<path fill-rule="evenodd" clip-rule="evenodd" d="M410 188.708C410 187.212 411.342 186 412.991 186H431.009C432.661 186 434 187.211 434 188.708V250.941H410V188.708Z" fill="white"/>
<path d="M422.161 247.251C425.333 247.251 427.904 244.679 427.904 241.507C427.904 238.335 425.333 235.764 422.161 235.764C418.989 235.764 416.418 238.335 416.418 241.507C416.418 244.679 418.989 247.251 422.161 247.251Z" fill="#4C97FF" stroke="#4C97FF" stroke-opacity="0.2" stroke-width="1.5"/>
<mask id="mask3_619_103" style="mask-type:alpha" maskUnits="userSpaceOnUse" x="410" y="201" width="24" height="17">
<path d="M434 201.333H410V217.569H434V201.333Z" fill="white"/>
</mask>
<g mask="url(#mask3_619_103)">
<path d="M434 201.333H410V217.569H434V201.333Z" fill="#575E75"/>
<path fill-rule="evenodd" clip-rule="evenodd" d="M418.016 209.939L429.401 218.534H402.631L414.016 209.939C414.955 209.23 416.611 209.144 417.716 209.746C417.824 209.805 417.924 209.869 418.016 209.939Z" fill="#0EBD8C"/>
<path fill-rule="evenodd" clip-rule="evenodd" d="M432.035 212.29L439.599 218.534H420.478L428.041 212.29C428.978 211.517 430.631 211.423 431.733 212.079C431.842 212.143 431.943 212.214 432.035 212.29Z" fill="#0EA57A"/>
</g>
<path d="M410.751 217.795H433.251" stroke="black" stroke-opacity="0.1" stroke-width="1.5" stroke-linecap="square"/>
<path d="M410.751 201.559H433.251" stroke="black" stroke-opacity="0.1" stroke-width="1.5" stroke-linecap="square"/>
</g>
<path d="M440 70H119V86.2353H440V70Z" fill="#4C97FF"/>
<path opacity="0.5" d="M278.75 72.3525H246.5C245.672 72.3525 245 72.9583 245 73.7055V81.8231C245 82.5703 245.672 83.1761 246.5 83.1761H278.75C279.578 83.1761 280.25 82.5703 280.25 81.8231V73.7055C280.25 72.9583 279.578 72.3525 278.75 72.3525Z" fill="white"/>
<path opacity="0.75" d="M301.251 72.3525H284.751C283.923 72.3525 283.251 72.9583 283.251 73.7055V81.8231C283.251 82.5703 283.923 83.1761 284.751 83.1761H301.251C302.079 83.1761 302.751 82.5703 302.751 81.8231V73.7055C302.751 72.9583 302.079 72.3525 301.251 72.3525Z" fill="#FF8000"/>
<path d="M393.159 72.6567H384.544C383.751 72.6567 383.108 73.2353 383.108 73.949V81.7023C383.108 82.4159 383.751 82.9945 384.544 82.9945H393.159C393.952 82.9945 394.595 82.4159 394.595 81.7023V73.949C394.595 73.2353 393.952 72.6567 393.159 72.6567Z" fill="#FFBF00"/>
<path opacity="0.75" d="M346.251 73.0288H308.001C307.173 73.0288 306.501 73.6345 306.501 74.3818V81.1465C306.501 81.8937 307.173 82.4994 308.001 82.4994H346.251C347.079 82.4994 347.751 81.8937 347.751 81.1465V74.3818C347.751 73.6345 347.079 73.0288 346.251 73.0288Z" stroke="black" stroke-opacity="0.15" stroke-width="1.5"/>
<path d="M146 74.3823H134C131.929 74.3823 130.25 75.8967 130.25 77.7647C130.25 79.6327 131.929 81.147 134 81.147H146C148.071 81.147 149.75 79.6327 149.75 77.7647C149.75 75.8967 148.071 74.3823 146 74.3823Z" fill="#FFAB19" stroke="white"/>
<path d="M181.25 76.4116H172.25C171.422 76.4116 170.75 77.0174 170.75 77.7646C170.75 78.5118 171.422 79.1175 172.25 79.1175H181.25C182.078 79.1175 182.75 78.5118 182.75 77.7646C182.75 77.0174 182.078 76.4116 181.25 76.4116Z" fill="white"/>
<path d="M161.996 80.6978C163.582 80.6978 164.867 79.4121 164.867 77.8262C164.867 76.2402 163.582 74.9546 161.996 74.9546C160.41 74.9546 159.124 76.2402 159.124 77.8262C159.124 79.4121 160.41 80.6978 161.996 80.6978Z" fill="white"/>
<path d="M372.196 80.6978C373.782 80.6978 375.067 79.4121 375.067 77.8262C375.067 76.2402 373.782 74.9546 372.196 74.9546C370.61 74.9546 369.324 76.2402 369.324 77.8262C369.324 79.4121 370.61 80.6978 372.196 80.6978Z" fill="white"/>
<path d="M200 76.4116H191C190.172 76.4116 189.5 77.0174 189.5 77.7646C189.5 78.5118 190.172 79.1175 191 79.1175H200C200.828 79.1175 201.5 78.5118 201.5 77.7646C201.5 77.0174 200.828 76.4116 200 76.4116Z" fill="white"/>
<path d="M233 76.4116H213.5C212.672 76.4116 212 77.0174 212 77.7646C212 78.5118 212.672 79.1175 213.5 79.1175H233C233.828 79.1175 234.5 78.5118 234.5 77.7646C234.5 77.0174 233.828 76.4116 233 76.4116Z" fill="white"/>
<path d="M431 76.4116H411.5C410.672 76.4116 410 77.0174 410 77.7646C410 78.5118 410.672 79.1175 411.5 79.1175H431C431.828 79.1175 432.5 78.5118 432.5 77.7646C432.5 77.0174 431.828 76.4116 431 76.4116Z" fill="white"/>
<path d="M119 53.4066C119 50.4206 121.679 48 125.002 48H433.998C437.313 48 440 50.4202 440 53.4066V69.6471H119V53.4066Z" fill="white"/>
<g filter="url(#filter2_i_619_103)">
<path d="M119 53.4066C119 50.4206 121.679 48 125.002 48H433.998C437.313 48 440 50.4202 440 53.4066V69.6471H119V53.4066Z" fill="white"/>
</g>
<path d="M134 61.529C135.657 61.529 137 60.3175 137 58.8231C137 57.3287 135.657 56.1172 134 56.1172C132.343 56.1172 131 57.3287 131 58.8231C131 60.3175 132.343 61.529 134 61.529Z" fill="black" fill-opacity="0.15"/>
<path d="M143.001 61.529C144.658 61.529 146.001 60.3175 146.001 58.8231C146.001 57.3287 144.658 56.1172 143.001 56.1172C141.344 56.1172 140.001 57.3287 140.001 58.8231C140.001 60.3175 141.344 61.529 143.001 61.529Z" fill="black" fill-opacity="0.15"/>
<path d="M151.999 61.529C153.656 61.529 154.999 60.3175 154.999 58.8231C154.999 57.3287 153.656 56.1172 151.999 56.1172C150.342 56.1172 148.999 57.3287 148.999 58.8231C148.999 60.3175 150.342 61.529 151.999 61.529Z" fill="black" fill-opacity="0.15"/>
<path d="M322.999 88.5879H316.999C316.447 88.5879 315.999 88.9917 315.999 89.4899V93.0977C315.999 93.5958 316.447 93.9997 316.999 93.9997H322.999C323.551 93.9997 323.999 93.5958 323.999 93.0977V89.4899C323.999 88.9917 323.551 88.5879 322.999 88.5879Z" fill="#59C059"/>
<path d="M316.999 89.0389C316.999 88.7898 316.775 88.5879 316.499 88.5879C316.223 88.5879 315.999 88.7898 315.999 89.0389V96.2546C315.999 96.5036 316.223 96.7055 316.499 96.7055C316.775 96.7055 316.999 96.5036 316.999 96.2546V89.0389Z" fill="#379438"/>
<path fill-rule="evenodd" clip-rule="evenodd" d="M334.531 88.8626L336.696 90.8151L336.696 93.5765L334.531 95.529L331.47 95.529L329.305 93.5765L329.305 90.8151L331.47 88.8626L334.531 88.8626Z" fill="#E64D00"/>
<circle cx="158.5" cy="281.5" r="16.5" fill="#FFBF00"/>
<defs>
<filter id="filter0_d_619_103" x="103" y="32" width="353" height="234.941" filterUnits="userSpaceOnUse" color-interpolation-filters="sRGB">
<feFlood flood-opacity="0" result="BackgroundImageFix"/>
<feColorMatrix in="SourceAlpha" type="matrix" values="0 0 0 0 0 0 0 0 0 0 0 0 0 0 0 0 0 0 127 0" result="hardAlpha"/>
<feOffset/>
<feGaussianBlur stdDeviation="8"/>
<feColorMatrix type="matrix" values="0 0 0 0 0 0 0 0 0 0 0 0 0 0 0 0 0 0 0.2 0"/>
<feBlend mode="normal" in2="BackgroundImageFix" result="effect1_dropShadow_619_103"/>
<feBlend mode="normal" in="SourceGraphic" in2="effect1_dropShadow_619_103" result="shape"/>
</filter>
<filter id="filter1_d_619_103" x="115.001" y="231.412" width="23" height="21.5293" filterUnits="userSpaceOnUse" color-interpolation-filters="sRGB">
<feFlood flood-opacity="0" result="BackgroundImageFix"/>
<feColorMatrix in="SourceAlpha" type="matrix" values="0 0 0 0 0 0 0 0 0 0 0 0 0 0 0 0 0 0 127 0" result="hardAlpha"/>
<feOffset dy="-2"/>
<feGaussianBlur stdDeviation="2"/>
<feColorMatrix type="matrix" values="0 0 0 0 0.298039 0 0 0 0 0.592157 0 0 0 0 1 0 0 0 0.2 0"/>
<feBlend mode="normal" in2="BackgroundImageFix" result="effect1_dropShadow_619_103"/>
<feBlend mode="normal" in="SourceGraphic" in2="effect1_dropShadow_619_103" result="shape"/>
</filter>
<filter id="filter2_i_619_103" x="119" y="46" width="321" height="23.647" filterUnits="userSpaceOnUse" color-interpolation-filters="sRGB">
<feFlood flood-opacity="0" result="BackgroundImageFix"/>
<feBlend mode="normal" in="SourceGraphic" in2="BackgroundImageFix" result="shape"/>
<feColorMatrix in="SourceAlpha" type="matrix" values="0 0 0 0 0 0 0 0 0 0 0 0 0 0 0 0 0 0 127 0" result="hardAlpha"/>
<feOffset dy="-2"/>
<feGaussianBlur stdDeviation="2"/>
<feComposite in2="hardAlpha" operator="arithmetic" k2="-1" k3="1"/>
<feColorMatrix type="matrix" values="0 0 0 0 0 0 0 0 0 0 0 0 0 0 0 0 0 0 0.15 0"/>
<feBlend mode="normal" in2="shape" result="effect1_innerShadow_619_103"/>
</filter>
<clipPath id="clip0_619_103">
<rect width="27" height="27" fill="white" transform="translate(362 132)"/>
</clipPath>
<clipPath id="clip1_619_103">
<rect width="9" height="9" fill="white" transform="translate(322 209)"/>
</clipPath>
</defs>
</svg>
