<svg width="515" height="325" viewBox="0 0 515 325" fill="none" xmlns="http://www.w3.org/2000/svg">
<g clip-path="url(#clip0_436_497)">
<path d="M310.246 54.9114C304.067 51.82 301.584 44.3405 304.695 38.204C307.806 32.0676 315.339 29.5985 321.515 32.6899C327.693 35.7813 330.176 43.2608 327.065 49.3973C323.954 55.5337 316.422 58.0028 310.246 54.9114Z" fill="#6F3AC1"/>
<path d="M288.408 94.6304C284.235 92.5434 282.557 87.4896 284.658 83.3446C286.762 79.1996 291.846 77.5323 296.019 79.6193C300.192 81.7062 301.871 86.7601 299.77 90.9051C297.669 95.0501 292.581 96.7174 288.408 94.6304Z" fill="#F66957"/>
<path d="M51.7958 76.3989C44.6449 72.8212 41.7684 64.1607 45.3713 57.0546C48.9742 49.9514 57.6907 47.0945 64.8445 50.6721C71.9954 54.2498 74.872 62.9103 71.269 70.0164C67.6661 77.1196 58.9467 79.9794 51.7958 76.3989Z" fill="#6F3AC1"/>
<path d="M325.488 109.688C322.288 108.087 321.003 104.211 322.615 101.033C324.227 97.8549 328.128 96.5755 331.325 98.1791C334.526 99.7798 335.811 103.656 334.199 106.834C332.587 110.012 328.686 111.291 325.488 109.688Z" fill="#FFBB4D"/>
<path d="M206.412 114.206C215.276 109.899 221.382 100.857 221.382 90.3957C221.382 75.7637 209.442 63.9019 194.712 63.9019C189.511 63.9019 184.658 65.3868 180.558 67.9455L167.283 73.9894C167.283 73.9894 114.009 98.2515 113.931 98.2862C103.009 103.259 91.6447 107.091 83.643 115.135C76.0667 122.751 71.7519 140.243 72.2786 150.203C72.8053 160.189 83.4491 191.308 89.1994 197.963C95.1319 204.829 104.375 215.756 113.586 216.071C118.732 216.245 125.223 214.178 130.033 212.444C134.304 210.893 136.399 203.657 140.306 201.335C145.755 198.102 150.791 194.214 155.453 189.925C162.332 194.883 167.301 198.426 168.047 198.852C170.828 200.438 229.96 156.021 229.96 156.021L206.418 114.212L206.412 114.206Z" fill="#F66957"/>
<path d="M161.961 95.9213C158.231 101.123 152.918 104.975 146.673 106.611C143.119 107.549 139.395 107.821 135.728 107.644C132.082 107.471 128.395 106.924 124.931 105.743C120.651 104.281 116.703 101.765 113.931 98.2833L167.283 73.9865C167.402 75.014 167.48 76.0503 167.515 77.0778C167.72 83.7556 165.883 90.4593 161.961 95.9213Z" fill="#F6B399"/>
<path d="M168.479 60.5674C168.479 64.3216 165.414 67.3667 161.634 67.3667C157.855 67.3667 154.787 64.3216 154.787 60.5674C154.787 56.8131 157.852 53.7681 161.634 53.7681C165.417 53.7681 168.479 56.8131 168.479 60.5674Z" fill="#D2886C"/>
<path d="M162.511 45.0901C163.967 50.6332 165.116 56.7176 161.97 61.9046C161.753 62.2606 161.42 62.4082 161.096 62.4025C157.583 64.7644 153.022 64.6805 149.179 63.0103C145.188 61.2765 141.921 58.0664 139.079 54.865C136.298 51.7331 133.835 48.0889 133.442 43.831C133.054 39.7121 134.99 35.706 137.82 32.7912C140.254 30.2816 143.339 28.5739 146.554 27.2481C146.386 26.9761 146.372 26.6258 146.632 26.2756C148.71 23.5344 152.49 22.6603 155.655 23.9744C158.732 25.2538 160.584 28.2612 161.125 31.4279C162.335 31.3381 163.553 31.7984 164.511 32.5596C165.94 33.7001 166.589 35.4339 166.6 37.2228C166.621 39.9784 165.327 43.9757 162.511 45.0873V45.0901Z" fill="#36174D"/>
<path d="M136.59 85.5097C151.32 85.5097 163.261 73.648 163.261 59.0159C163.261 44.3838 151.32 32.5221 136.59 32.5221C121.861 32.5221 109.92 44.3838 109.92 59.0159C109.92 73.648 121.861 85.5097 136.59 85.5097Z" fill="#DA9174"/>
<path d="M133.086 75.619L130.953 99.8174L148.201 93.105L151.118 71.2019L133.086 75.619Z" fill="#F6B399"/>
<path d="M162.832 63.3143C162.832 77.9462 152.565 87.8079 137.835 87.8079C123.105 87.8079 111.164 75.9461 111.164 61.3141C111.164 46.6822 123.105 34.8203 137.835 34.8203C152.565 34.8203 162.832 48.6823 162.832 63.3143Z" fill="#F6B399"/>
<path d="M137.004 71.0862C135.959 72.0182 134.353 71.9343 133.416 70.898C132.478 69.8618 132.562 68.2669 133.604 67.3348C134.646 66.4028 136.255 66.4867 137.192 67.523C138.13 68.5592 138.046 70.1541 137.004 71.0862Z" fill="#36174D"/>
<path d="M156.946 60.7295C157.884 61.7658 157.8 63.3607 156.755 64.2927C155.713 65.2247 154.104 65.1408 153.167 64.1045C152.229 63.0683 152.313 61.4734 153.358 60.5414C154.399 59.6093 156.008 59.6933 156.946 60.7295Z" fill="#36174D"/>
<path d="M109.723 187.627L107.058 191.589L105.654 193.668L96.906 206.658L80.2168 200.609L92.3308 182.949L109.723 187.627Z" fill="#F6B399"/>
<path d="M129.622 178.141C124.847 178.141 120.963 174.277 120.963 169.53C120.963 164.783 124.847 160.921 129.622 160.921C134.397 160.921 138.28 164.783 138.28 169.53C138.28 174.277 134.397 178.141 129.622 178.141ZM129.622 163.029C126.007 163.029 123.067 165.943 123.067 169.53C123.067 173.116 126.007 176.034 129.622 176.034C133.236 176.034 136.176 173.116 136.176 169.53C136.176 165.943 133.236 163.029 129.622 163.029Z" fill="white"/>
<path d="M134.313 178.242C133.025 180.769 131.317 183.082 129.271 185.062C121.119 192.95 110.4 193.893 99.6261 191.236C88.9794 188.611 80.5204 179.918 78.2429 169.258C77.8204 167.281 77.6091 165.263 77.6091 163.243C77.6091 147.323 90.6086 134.41 106.635 134.41C122.662 134.41 135.67 147.323 135.67 163.243C135.67 165.695 132.313 169.347 131.728 171.623C131.705 173.608 132.571 175.519 134.127 176.859C134.527 177.2 134.527 177.817 134.31 178.242H134.313Z" fill="#F6B399"/>
<path d="M125.023 166.001C125.961 167.038 125.877 168.633 124.835 169.565C123.79 170.497 122.184 170.413 121.247 169.376C120.309 168.34 120.393 166.745 121.435 165.813C122.477 164.881 124.086 164.965 125.023 166.001Z" fill="#36174D"/>
<path d="M250.944 126.951C248.86 127.909 246.536 128.433 244.305 128.951C241.946 129.504 239.553 129.924 237.145 130.175C232.043 130.714 226.904 130.349 221.802 130.092C219.148 129.958 216.494 129.825 213.841 129.686C212.567 129.623 211.3 129.562 210.032 129.498C208.912 129.443 207.752 129.408 206.667 129.099C205.625 128.798 204.514 128.23 203.935 127.275C203.399 126.401 203.394 125.304 203.498 124.311C203.744 121.961 204.8 119.822 205.926 117.772C208.157 113.697 210.903 109.919 213.887 106.362C216.057 103.774 219.001 98.7204 223.179 100.029C223.712 100.197 224.204 100.579 224.357 101.111C224.508 101.644 224.213 102.304 223.668 102.428C223.909 102.373 225.202 103.366 225.495 103.511C226.175 103.841 226.887 104.11 227.616 104.313C229.034 104.712 230.469 104.732 231.919 104.906C234.715 105.236 237.516 105.563 240.309 105.905C242.997 106.235 245.587 106.686 248.05 107.85C251.985 109.702 255.716 112.513 256.355 117.066C256.931 121.15 254.709 125.22 250.935 126.954L250.944 126.951Z" fill="#DA9174"/>
<path d="M216.272 115.127C216.272 116.435 216.054 118.435 214.752 119.127C214.063 119.497 213.175 119.434 212.423 119.457C211.621 119.486 210.816 119.492 210.015 119.486C208.27 119.471 206.531 119.373 204.791 119.214C203.347 119.075 201.906 118.933 200.575 118.34C200.526 118.345 200.476 118.354 200.427 118.354C199.901 118.348 199.302 117.871 199.371 117.306C199.75 114.035 201.646 111.161 204.241 109.167C206.577 107.378 209.789 106.426 212.616 107.636C215.383 108.817 216.277 112.383 216.269 115.13L216.272 115.127Z" fill="#F6B399"/>
<path d="M385.5 127.675V240.325C385.5 243.082 384 245.614 381.495 247.474C378.99 249.335 375.505 250.5 371.63 250.5H158.37C154.495 250.5 151.01 249.335 148.505 247.474C146 245.614 144.5 243.082 144.5 240.325V127.675C144.5 124.925 145.999 122.393 148.505 120.53C151.01 118.668 154.495 117.5 158.37 117.5H371.63C375.505 117.5 378.99 118.668 381.495 120.53C384.001 122.393 385.5 124.925 385.5 127.675Z" fill="#FAFAFA" stroke="#D0D0D0"/>
<g clip-path="url(#clip1_436_497)">
<path d="M302.616 159.149V160.377C302.616 160.882 302.652 161.338 302.72 161.753C302.787 162.169 302.891 162.54 303.03 162.883C303.168 163.242 303.337 163.573 303.539 163.873C303.737 164.178 303.973 164.465 304.238 164.732C304.139 164.808 304.05 164.889 303.968 164.963C303.888 165.044 303.804 165.127 303.712 165.22C303.585 165.082 303.447 164.922 303.31 164.746C303.165 164.565 303.04 164.368 302.924 164.156C302.787 163.951 302.664 163.733 302.565 163.49C302.462 163.249 302.385 163.007 302.329 162.757C302.233 163.054 302.122 163.321 302.001 163.571C301.881 163.821 301.748 164.051 301.613 164.27C301.483 164.465 301.346 164.656 301.201 164.834C301.059 165.013 300.895 165.191 300.719 165.363C300.57 165.232 300.408 165.063 300.247 164.87C300.083 164.673 299.924 164.458 299.77 164.216C299.635 163.999 299.512 163.771 299.396 163.533C299.29 163.297 299.199 163.057 299.129 162.807C299.059 163.057 298.97 163.299 298.856 163.545C298.743 163.787 298.613 164.02 298.468 164.237C298.329 164.458 298.184 164.663 298.023 164.849C297.861 165.037 297.709 165.201 297.562 165.344C297.521 165.322 297.466 165.291 297.415 165.253C297.362 165.215 297.309 165.175 297.254 165.129C297.198 165.091 297.145 165.056 297.092 165.022C297.039 164.989 296.994 164.96 296.945 164.939C297.266 164.618 297.541 164.299 297.772 163.997C298.003 163.692 298.196 163.359 298.338 162.997C298.483 162.659 298.591 162.281 298.661 161.857C298.729 161.436 298.76 160.943 298.76 160.379V159.151C298.76 158.949 298.758 158.754 298.75 158.573C298.741 158.392 298.729 158.202 298.714 158H299.529C299.505 158.202 299.493 158.392 299.488 158.573C299.488 158.754 299.483 158.949 299.483 159.151V160.379C299.483 160.87 299.522 161.315 299.591 161.714C299.664 162.117 299.763 162.481 299.885 162.804C299.996 163.142 300.129 163.442 300.276 163.702C300.425 163.963 300.57 164.187 300.705 164.387C300.905 164.12 301.074 163.866 301.221 163.621C301.368 163.371 301.493 163.102 301.599 162.807C301.698 162.497 301.772 162.152 301.825 161.769C301.879 161.384 301.905 160.924 301.905 160.382V159.154C301.905 158.952 301.903 158.756 301.895 158.576C301.888 158.395 301.876 158.204 301.862 158.002H302.662C302.638 158.204 302.626 158.395 302.621 158.576C302.618 158.756 302.616 158.952 302.616 159.154V159.149ZM305.838 165.986C305.838 166.241 305.843 166.495 305.845 166.748C305.85 167.002 305.865 167.252 305.886 167.497H305.064C305.086 167.252 305.101 167.002 305.11 166.748C305.115 166.495 305.122 166.241 305.122 165.986V158.987C305.122 158.74 305.117 158.488 305.11 158.238C305.101 157.985 305.086 157.728 305.064 157.474H305.886C305.865 157.728 305.85 157.985 305.845 158.238C305.845 158.485 305.838 158.737 305.838 158.987V165.984V165.986Z" fill="#595757"/>
<path d="M314.639 162.771H314.649C314.943 162.771 315.237 162.769 315.524 162.764C315.808 162.762 316.102 162.745 316.399 162.726V163.426C316.102 163.402 315.808 163.392 315.524 163.387C315.237 163.38 314.943 163.38 314.649 163.38H313.791V166.936C313.791 167.133 313.803 167.321 313.827 167.5H313.027C313.037 167.412 313.044 167.314 313.046 167.216C313.051 167.121 313.056 167.026 313.066 166.926V163.383H310.301V166.85C310.301 167.043 310.311 167.231 310.333 167.414H309.537C309.545 167.324 309.547 167.231 309.552 167.131C309.554 167.033 309.562 166.933 309.569 166.838V163.383H308.653C308.359 163.383 308.067 163.383 307.783 163.39C307.496 163.395 307.202 163.404 306.906 163.428V162.728C307.202 162.75 307.496 162.764 307.783 162.766C308.067 162.771 308.359 162.773 308.653 162.773H313.912C313.981 162.414 314.039 162.074 314.09 161.76C314.138 161.45 314.191 161.1 314.244 160.72C314.001 160.741 313.728 160.76 313.427 160.772C313.128 160.789 312.81 160.805 312.482 160.82C312.155 160.827 311.822 160.834 311.475 160.841C311.133 160.848 310.798 160.855 310.47 160.86C310.152 160.86 309.844 160.865 309.557 160.867C309.268 160.874 309.01 160.874 308.778 160.874C308.559 160.874 308.378 160.874 308.234 160.867C308.096 160.867 308.014 160.86 307.99 160.86V160.277C308.036 160.277 308.294 160.277 308.761 160.284C309.231 160.284 309.79 160.284 310.439 160.277C311.082 160.268 311.759 160.253 312.466 160.232C313.169 160.206 313.791 160.172 314.321 160.127C314.345 159.858 314.372 159.568 314.401 159.259C314.432 158.949 314.454 158.683 314.471 158.461H309.465C309.224 158.461 309 158.461 308.807 158.461C308.612 158.468 308.4 158.48 308.161 158.502V157.826C308.4 157.847 308.612 157.859 308.807 157.866C309 157.866 309.224 157.866 309.465 157.866H315.223C315.201 158.245 315.174 158.645 315.141 159.061C315.107 159.477 315.066 159.896 315.018 160.318C314.965 160.748 314.907 161.169 314.842 161.588C314.777 162.007 314.712 162.4 314.644 162.769L314.639 162.771Z" fill="#595757"/>
<path d="M324.619 166.017H318.572C318.276 166.017 317.982 166.022 317.698 166.024C317.411 166.029 317.124 166.043 316.825 166.065V165.363C317.124 165.389 317.411 165.398 317.698 165.403C317.982 165.408 318.276 165.41 318.572 165.41H324.619C324.918 165.41 325.205 165.41 325.491 165.403C325.778 165.398 326.07 165.389 326.366 165.363V166.065C326.067 166.043 325.776 166.029 325.491 166.024C325.205 166.024 324.918 166.017 324.619 166.017ZM325.005 159.123V163.185H318.184V159.123C318.184 158.918 318.177 158.73 318.172 158.547C318.165 158.366 318.148 158.176 318.124 157.974H318.96C318.936 158.176 318.922 158.366 318.915 158.547C318.905 158.728 318.903 158.918 318.903 159.123V159.823H324.272V159.123C324.272 158.918 324.27 158.73 324.262 158.547C324.253 158.366 324.238 158.176 324.214 157.974H325.06C325.041 158.176 325.021 158.366 325.017 158.547C325.007 158.728 325.005 158.918 325.005 159.123ZM324.272 162.588V160.401H318.903V162.59H324.272V162.588Z" fill="#595757"/>
<path d="M330.502 165.513V163.749C330.502 163.59 330.497 163.425 330.494 163.257C330.494 163.08 330.477 162.916 330.453 162.757H331.29C331.265 162.909 331.253 163.078 331.249 163.259C331.246 163.442 331.246 163.606 331.246 163.749V165.513H334.57C334.866 165.513 335.158 165.51 335.442 165.503C335.729 165.501 336.023 165.484 336.317 165.465V166.165C336.02 166.143 335.726 166.131 335.442 166.127C335.158 166.122 334.866 166.122 334.57 166.122H328.513C328.214 166.122 327.925 166.122 327.638 166.127C327.352 166.131 327.06 166.143 326.764 166.165V165.465C327.06 165.484 327.352 165.501 327.638 165.503C327.923 165.508 328.214 165.513 328.513 165.513H330.502ZM329.309 158.671C329.065 158.671 328.848 158.671 328.655 158.678C328.46 158.678 328.246 158.695 328.01 158.716V158.038C328.246 158.062 328.46 158.078 328.655 158.081C328.848 158.081 329.065 158.083 329.309 158.083H335.107C335.052 159.032 334.97 160.011 334.849 161.024C334.729 162.038 334.572 163.014 334.377 163.961H333.62C333.712 163.509 333.791 163.059 333.868 162.612C333.941 162.159 334.01 161.693 334.078 161.21C333.825 161.234 333.55 161.25 333.249 161.262C332.95 161.269 332.63 161.279 332.297 161.288C331.969 161.296 331.634 161.303 331.29 161.31C330.947 161.322 330.612 161.324 330.294 161.324C329.976 161.324 329.66 161.324 329.376 161.331C329.089 161.331 328.834 161.331 328.615 161.331C328.395 161.331 328.212 161.331 328.07 161.331C327.93 161.324 327.846 161.324 327.824 161.324V160.736C327.846 160.736 327.933 160.736 328.089 160.744C328.241 160.744 328.434 160.751 328.66 160.751C328.887 160.751 329.164 160.746 329.465 160.744C329.764 160.739 330.082 160.736 330.42 160.736C330.752 160.729 331.094 160.724 331.441 160.717C331.788 160.717 332.128 160.71 332.454 160.703C332.781 160.689 333.095 160.674 333.389 160.663C333.68 160.655 333.936 160.636 334.155 160.615C334.174 160.456 334.191 160.294 334.208 160.122C334.227 159.953 334.244 159.782 334.261 159.608C334.276 159.444 334.29 159.278 334.309 159.123C334.324 158.966 334.333 158.814 334.341 158.671H329.311H329.309Z" fill="#595757"/>
<path d="M338.262 158.571V161.686L340.18 161.65C340.477 161.65 340.811 161.638 341.185 161.615C341.559 161.588 341.93 161.55 342.294 161.505C342.655 161.467 342.988 161.427 343.301 161.386C343.612 161.346 343.863 161.303 344.043 161.255V161.864C343.853 161.91 343.617 161.955 343.34 162C343.06 162.048 342.759 162.088 342.431 162.126C342.101 162.162 341.761 162.193 341.412 162.221C341.06 162.248 340.72 162.264 340.395 162.271C340.105 162.286 339.797 162.298 339.474 162.305C339.149 162.312 338.85 162.317 338.563 162.317H337.536V159.104C337.536 158.928 337.534 158.747 337.524 158.554C337.517 158.361 337.5 158.169 337.479 157.974H341.78C341.961 157.974 342.156 157.959 342.366 157.938V158.602C342.154 158.587 341.959 158.58 341.78 158.573C341.6 158.573 341.436 158.568 341.284 158.568H338.255L338.262 158.571ZM338.31 165.705C338.31 165.129 338.614 164.651 339.219 164.263C339.828 163.875 340.705 163.683 341.85 163.683C342.995 163.683 343.858 163.875 344.472 164.263C345.084 164.651 345.39 165.129 345.39 165.705C345.39 166.281 345.084 166.752 344.472 167.131C343.858 167.512 342.983 167.7 341.85 167.7C340.718 167.7 339.826 167.512 339.219 167.131C338.611 166.752 338.31 166.274 338.31 165.705ZM339.074 165.705C339.074 165.929 339.141 166.131 339.281 166.305C339.419 166.484 339.607 166.631 339.855 166.752C340.098 166.867 340.39 166.962 340.732 167.028C341.077 167.09 341.448 167.124 341.855 167.124C342.262 167.124 342.614 167.088 342.956 167.028C343.296 166.962 343.59 166.867 343.843 166.752C344.087 166.631 344.277 166.484 344.422 166.305C344.561 166.131 344.634 165.927 344.634 165.705C344.634 165.484 344.564 165.275 344.422 165.099C344.279 164.922 344.089 164.772 343.843 164.656C343.59 164.535 343.296 164.442 342.956 164.375C342.614 164.313 342.25 164.28 341.855 164.28C341.045 164.28 340.38 164.404 339.855 164.653C339.334 164.899 339.074 165.251 339.074 165.703V165.705ZM345.222 162.409C345.222 162.602 345.222 162.797 345.231 162.983C345.231 163.171 345.243 163.361 345.27 163.547H344.426C344.448 163.361 344.465 163.169 344.47 162.983C344.477 162.797 344.479 162.602 344.479 162.409V158.616C344.479 158.428 344.477 158.24 344.47 158.05C344.463 157.862 344.446 157.671 344.426 157.474H345.27C345.243 157.671 345.231 157.859 345.231 158.05C345.224 158.238 345.222 158.428 345.222 158.616V162.409Z" fill="#595757"/>
<path d="M231.281 184.006C231.281 184.853 231.445 185.653 231.782 186.402C232.115 187.154 232.566 187.806 233.132 188.368C233.703 188.93 234.359 189.367 235.106 189.693C235.858 190.015 236.648 190.174 237.489 190.174C238.14 190.174 238.747 190.077 239.318 189.877C239.889 189.677 240.424 189.41 240.921 189.075C241.456 188.706 242.061 188.523 242.738 188.523C243.271 188.523 243.714 188.606 244.092 188.775C244.466 188.941 244.811 189.187 245.124 189.501L246.416 190.8C245.787 191.471 245.119 192.08 244.418 192.618C243.714 193.161 242.986 193.62 242.23 193.996C241.475 194.374 240.702 194.667 239.904 194.867C239.101 195.069 238.299 195.174 237.487 195.174C236.467 195.174 235.479 195.038 234.525 194.777C233.573 194.51 232.686 194.136 231.855 193.653C231.023 193.166 230.271 192.585 229.592 191.909C228.915 191.231 228.334 190.476 227.849 189.651C227.36 188.825 226.984 187.935 226.714 186.983C226.449 186.031 226.312 185.041 226.312 184.006C226.312 182.971 226.449 181.988 226.714 181.036C226.987 180.084 227.36 179.194 227.849 178.368C228.334 177.54 228.915 176.788 229.592 176.112C230.269 175.434 231.023 174.853 231.855 174.365C232.686 173.882 233.573 173.509 234.525 173.242C235.477 172.98 236.465 172.842 237.487 172.842C238.299 172.842 239.099 172.945 239.904 173.152C240.702 173.354 241.478 173.647 242.23 174.023C242.984 174.399 243.714 174.86 244.418 175.401C245.119 175.938 245.784 176.548 246.416 177.219L245.124 178.518C244.82 178.825 244.471 179.068 244.076 179.244C243.683 179.422 243.235 179.513 242.738 179.513C242.073 179.513 241.463 179.325 240.921 178.944C240.412 178.597 239.875 178.33 239.304 178.133C238.73 177.937 238.125 177.842 237.489 177.842C236.648 177.842 235.858 178.006 235.106 178.335C234.359 178.659 233.703 179.099 233.132 179.653C232.566 180.213 232.115 180.862 231.782 181.614C231.447 182.364 231.281 183.163 231.281 184.003V184.006Z" fill="#595757"/>
<path d="M246.625 184.006C246.625 182.98 246.763 181.988 247.028 181.036C247.298 180.084 247.674 179.194 248.16 178.368C248.645 177.54 249.226 176.788 249.903 176.112C250.582 175.434 251.334 174.853 252.166 174.365C252.997 173.882 253.889 173.509 254.836 173.242C255.788 172.98 256.776 172.842 257.798 172.842C258.82 172.842 259.805 172.978 260.757 173.242C261.709 173.509 262.603 173.882 263.427 174.365C264.259 174.851 265.013 175.434 265.693 176.112C266.37 176.788 266.951 177.542 267.438 178.368C267.922 179.194 268.3 180.084 268.568 181.036C268.84 181.988 268.97 182.98 268.97 184.006C268.97 185.031 268.838 186.031 268.568 186.983C268.3 187.937 267.922 188.825 267.438 189.651C266.953 190.476 266.37 191.231 265.693 191.909C265.013 192.587 264.259 193.168 263.427 193.653C262.603 194.136 261.709 194.51 260.757 194.777C259.805 195.038 258.822 195.174 257.798 195.174C256.774 195.174 255.778 195.038 254.829 194.777C253.884 194.51 252.997 194.136 252.166 193.653C251.334 193.165 250.582 192.585 249.903 191.909C249.226 191.231 248.645 190.476 248.16 189.651C247.674 188.825 247.298 187.935 247.028 186.983C246.763 186.031 246.625 185.041 246.625 184.006ZM251.59 184.006C251.59 184.853 251.754 185.653 252.089 186.402C252.424 187.154 252.874 187.806 253.438 188.368C254.007 188.929 254.665 189.367 255.412 189.693C256.164 190.015 256.957 190.174 257.795 190.174C258.634 190.174 259.415 190.015 260.172 189.693C260.924 189.37 261.586 188.932 262.15 188.368C262.721 187.806 263.167 187.154 263.502 186.402C263.835 185.653 264.003 184.853 264.003 184.006C264.003 183.159 263.837 182.366 263.502 181.616C263.167 180.864 262.721 180.215 262.15 179.656C261.586 179.101 260.924 178.661 260.172 178.337C259.415 178.009 258.627 177.845 257.795 177.845C256.964 177.845 256.164 178.009 255.412 178.337C254.665 178.661 254.009 179.101 253.438 179.656C252.874 180.215 252.421 180.864 252.089 181.616C251.754 182.366 251.59 183.166 251.59 184.006Z" fill="#595757"/>
<path d="M271.308 194.974V173.059H280.309C281.309 173.059 282.281 173.19 283.218 173.449C284.153 173.709 285.023 174.077 285.838 174.556C286.648 175.037 287.387 175.61 288.057 176.276C288.732 176.947 289.306 177.688 289.78 178.497C290.258 179.308 290.629 180.179 290.889 181.112C291.154 182.045 291.284 183.016 291.284 184.023C291.284 185.029 291.152 186.007 290.889 186.94C290.629 187.871 290.258 188.742 289.78 189.553C289.306 190.365 288.732 191.107 288.057 191.771C287.387 192.437 286.648 193.008 285.838 193.484C285.023 193.956 284.153 194.327 283.218 194.584C282.281 194.846 281.309 194.974 280.309 194.974H271.308ZM280.309 189.955C281.109 189.955 281.871 189.803 282.594 189.491C283.319 189.179 283.958 188.756 284.507 188.218C285.055 187.685 285.496 187.054 285.818 186.333C286.141 185.607 286.305 184.839 286.305 184.02C286.305 183.201 286.141 182.438 285.818 181.714C285.496 180.991 285.055 180.36 284.507 179.817C283.956 179.277 283.319 178.849 282.594 178.537C281.871 178.23 281.109 178.073 280.309 178.073H276.27V189.953H280.309V189.955Z" fill="#595757"/>
<path d="M299.114 194.974H294.135V173.059H299.114V194.974Z" fill="#595757"/>
<path d="M323.542 194.974H318.606L308.207 179.817V194.974H303.26V173.059H308.147C308.631 173.059 309.06 173.13 309.439 173.273C309.81 173.416 310.101 173.635 310.304 173.93L317.912 185.153C318.018 185.317 318.117 185.496 318.196 185.688C318.278 185.883 318.348 186.064 318.411 186.231C318.471 186.4 318.517 186.547 318.548 186.669C318.575 186.793 318.592 186.869 318.592 186.897V173.059H323.542V194.974Z" fill="#595757"/>
<path d="M345.516 182.678V192.204C344.937 192.806 344.323 193.299 343.663 193.68C342.995 194.063 342.306 194.363 341.59 194.581C340.872 194.8 340.132 194.953 339.378 195.043C338.623 195.129 337.864 195.172 337.095 195.172C336.071 195.172 335.088 195.036 334.136 194.774C333.184 194.508 332.295 194.134 331.473 193.651C330.646 193.163 329.892 192.582 329.208 191.907C328.528 191.228 327.942 190.474 327.463 189.648C326.983 188.822 326.61 187.932 326.342 186.98C326.07 186.029 325.937 185.039 325.937 184.003C325.937 182.968 326.07 181.985 326.342 181.033C326.607 180.082 326.981 179.192 327.463 178.366C327.94 177.538 328.528 176.786 329.208 176.11C329.892 175.432 330.644 174.851 331.473 174.363C332.295 173.88 333.184 173.506 334.136 173.24C335.088 172.978 336.071 172.84 337.095 172.84C337.905 172.84 338.71 172.942 339.508 173.149C340.308 173.352 341.084 173.64 341.841 174.013C342.595 174.389 343.318 174.841 344.026 175.384C344.728 175.922 345.39 176.531 346.005 177.202L344.747 178.518C344.118 179.18 343.325 179.513 342.366 179.513C341.689 179.513 341.077 179.325 340.525 178.944C340.021 178.609 339.479 178.342 338.912 178.14C338.339 177.942 337.734 177.842 337.095 177.842C336.257 177.842 335.461 178.006 334.712 178.335C333.962 178.658 333.309 179.099 332.75 179.653C332.189 180.212 331.74 180.862 331.405 181.614C331.073 182.364 330.904 183.163 330.904 184.003C330.904 184.893 331.08 185.714 331.427 186.466C331.777 187.221 332.242 187.871 332.827 188.415C333.408 188.963 334.083 189.389 334.844 189.701C335.606 190.01 336.409 190.167 337.252 190.167C337.828 190.167 338.406 190.112 338.982 190C339.561 189.889 340.079 189.717 340.544 189.496V187.385C340.062 187.373 339.611 187.292 339.209 187.14C338.804 186.988 338.457 186.778 338.168 186.519C337.883 186.257 337.657 185.952 337.495 185.603C337.334 185.248 337.254 184.86 337.254 184.432V182.676H345.523L345.516 182.678Z" fill="#595757"/>
<path d="M197.39 158.25C198.212 157.436 199.92 157.245 201.357 157.238H213.703C213.768 157.236 213.874 157.231 214.002 157.238H215.228C216.029 157.279 216.653 157.928 216.653 158.718C216.653 159.078 216.52 159.425 216.277 159.701L216.217 159.765L210.674 165.239C210.563 165.356 209.317 166.588 207.232 166.631H188.839L196.792 158.773L197.387 158.247L197.39 158.25Z" fill="url(#paint0_linear_436_497)"/>
<path d="M212.683 185.783C212.65 185.781 212.616 185.779 212.582 185.779H194.238C193.753 185.779 193.36 185.388 193.36 184.908V165.308C193.36 165.296 193.36 165.284 193.358 165.272V162.181L191.143 164.356C191.143 164.356 191.119 164.375 191.107 164.387L186.853 168.587C186.82 168.621 186.788 168.654 186.759 168.69C186.437 169.035 185.304 170.291 184.769 171.462C184.142 172.84 184.005 174.006 184 177.992C184 178.016 184 178.042 184 178.066V185.376C183.995 185.583 184.017 187.463 185.962 189.505C185.988 189.531 186.015 189.56 186.044 189.584L190.787 194.067C191.025 194.331 191.666 194.936 192.741 195.112L192.943 195.148C193.023 195.162 193.597 195.174 193.65 195.174H204.581C206.333 195.16 207.504 194.303 207.926 193.934C207.948 193.915 207.967 193.898 207.986 193.877L213.64 188.289C213.64 188.289 213.662 188.268 213.674 188.256C213.929 187.985 214.069 187.628 214.069 187.254C214.069 186.488 213.459 185.84 212.681 185.781L212.683 185.783Z" fill="url(#paint1_linear_436_497)"/>
<path d="M227.49 165.199C227.401 164.054 226.835 163.223 225.811 162.724C226.864 162.271 227.406 161.527 227.42 160.51C227.437 159.461 227.15 158.64 226.57 158.069C225.991 157.498 225.061 157.198 223.801 157.174H221.379C220.983 157.174 220.617 157.321 220.345 157.59C220.231 157.702 219.535 158.39 218.969 158.952C218.754 159.156 218.641 159.549 219.022 159.701C219.082 159.725 219.147 159.735 219.212 159.739H223.603C224.133 159.739 224.565 160.165 224.565 160.689C224.565 161.212 224.133 161.638 223.603 161.638H221.217V164.07H223.601C224.131 164.07 224.562 164.496 224.562 165.02C224.562 165.544 224.131 165.97 223.601 165.97H221.369C221.005 165.989 220.67 166.131 220.417 166.381C220.299 166.498 219.545 167.243 218.966 167.816C218.973 167.809 218.978 167.807 218.978 167.807C218.757 168.004 218.634 168.402 219.019 168.554C219.08 168.578 219.142 168.587 219.207 168.592H224.459C226.211 168.592 227.396 167.49 227.483 165.779V165.201L227.49 165.199Z" fill="#3DBCD2"/>
</g>
<path d="M146.328 224.662C145.203 226.929 142.731 227.948 140.459 228.723C137.869 229.603 135.039 230.2 132.33 229.479C129.868 228.822 128.085 227.192 127.107 224.871C126.207 222.737 125.813 220.39 125.897 218.08C126.025 214.514 127.249 211.012 129.396 208.172C129.341 207.885 129.416 207.57 129.691 207.304C130.114 206.898 130.577 206.568 131.063 206.282C131.205 206.143 131.344 206.01 131.491 205.877C131.795 205.596 132.145 205.547 132.455 205.625C134.102 205.066 135.933 205.043 137.67 205.451C140.387 206.088 143.513 207.625 145.188 209.906C146.771 212.065 146.583 214.841 146.815 217.374C147.046 219.814 147.469 222.367 146.328 224.659V224.662Z" fill="#EE796A"/>
<path d="M263.55 119.225C262.956 120.435 261.417 121.744 259.637 121.804C258.338 121.851 257.096 121.483 256.138 120.54C256.083 120.49 256.04 120.435 255.991 120.386C255.895 122.149 255.924 124.41 253.681 125.388C251.809 126.204 249.615 126.288 247.28 125.454C246.941 125.845 246.881 126.751 245.347 127.489C242.635 128.795 239.232 128.144 237.684 125.947C237.232 127.4 236.382 128.728 234.868 129.408C232.567 130.43 229.841 129.513 228.18 127.857C225.984 125.666 224.927 122.456 223.651 119.706C221.73 115.575 218.185 110.527 217.953 105.908C217.826 103.349 218.827 100.509 221.698 99.693C224.022 99.0301 226.539 99.9014 228.25 101.392C228.368 101.496 228.475 101.609 228.588 101.722C228.799 100.043 229.856 98.5757 231.32 97.6871C233.149 96.59 235.429 96.6595 237.36 97.441C239.139 98.1618 240.54 99.3978 241.689 100.868C243.139 98.2399 247.115 98.4078 249.503 99.7769C251.508 100.938 252.86 102.776 253.803 104.825C255.612 103.67 258.413 103.748 260.149 105.054C262.227 106.62 266.085 114.062 263.55 119.228V119.225Z" fill="#F6B399"/>
<path d="M238.694 120.328C238.077 118.169 237.25 116.073 236.332 114.024C234.405 109.72 232.075 105.592 229.867 101.427C229.233 100.231 227.41 101.291 228.044 102.486C230.102 106.374 232.257 110.229 234.112 114.221C234.984 116.096 235.768 118.01 236.387 119.984C236.703 120.985 236.975 121.998 237.192 123.026C237.429 124.135 237.658 125.249 237.287 126.352C236.856 127.634 238.893 128.184 239.324 126.91C240.031 124.818 239.278 122.375 238.694 120.331V120.328Z" fill="#DA9174"/>
<path d="M248.614 120.021C248.467 117.81 248.021 115.625 247.402 113.497C246.125 109.109 244.131 104.97 242.684 100.639C242.259 99.3659 240.219 99.91 240.647 101.198C241.993 105.219 243.801 109.074 245.081 113.118C245.691 115.049 246.198 117.037 246.418 119.052C246.53 120.073 246.577 121.101 246.542 122.129C246.51 123.072 246.525 124.233 246.027 125.069C245.332 126.233 247.156 127.29 247.85 126.129C248.866 124.427 248.744 121.929 248.614 120.024V120.021Z" fill="#DA9174"/>
<path d="M257.001 114.38C256.645 111.083 255.973 107.832 254.984 104.666C254.581 103.381 252.544 103.931 252.946 105.224C253.846 108.102 254.509 111.054 254.851 114.05C255.016 115.483 255.114 116.924 255.152 118.366C255.186 119.744 255.253 121.197 254.561 122.438C253.904 123.619 255.727 124.679 256.384 123.498C257.105 122.204 257.276 120.78 257.279 119.324C257.281 117.674 257.177 116.021 257.001 114.383V114.38Z" fill="#DA9174"/>
<path d="M144.381 146.831C144.19 144.556 142.488 142.66 140.413 142.121C141.684 139.762 141.655 136.697 140.054 134.483C138.223 131.97 134.814 131.006 131.902 131.895C131.106 128.705 128.071 126.34 124.769 125.938C121.221 125.498 117.951 127.24 115.508 129.681C106.604 128.123 97.1752 129.773 89.6191 134.619C89.6191 134.254 89.6191 133.889 89.6191 133.527C89.6191 132.931 89.0895 132.358 88.4702 132.387C87.8423 132.416 87.3271 132.888 87.3214 133.527L87.3011 135.73C87.0464 135.583 86.8352 135.444 86.6239 135.302C86.3056 135.07 85.9873 134.836 85.666 134.604C85.449 134.445 85.0294 134.41 84.7805 134.488C84.5374 134.567 84.3406 134.697 84.1843 134.897C83.866 135.308 83.8284 136.037 84.2741 136.396C84.3522 136.457 84.4303 136.512 84.5085 136.572C84.6097 136.651 84.711 136.726 84.8152 136.801C84.957 136.905 85.0988 137.012 85.2435 137.111C85.3593 137.195 85.4779 137.282 85.5937 137.366C85.6516 137.409 85.7239 137.441 85.802 137.464C85.3361 137.892 84.8644 138.324 84.4101 138.775C76.7122 146.394 73.1556 157.639 76.0524 168.155C77.647 173.93 81.0329 179.235 85.8107 182.903C86.2766 183.262 86.9915 183.421 87.4342 182.903C92.4378 177.119 97.7308 171.596 103.293 166.352C103.339 166.412 103.386 166.488 103.438 166.548C104.335 167.538 105.446 167.417 106.595 166.983C107.038 166.815 107.48 166.647 107.923 166.476C107.735 168.068 107.313 169.617 106.711 171.197C106.303 172.274 106.3 173.617 107.42 174.283C108.435 174.888 109.552 174.309 110.047 173.351C110.646 172.19 110.936 170.78 111.277 169.527C111.656 168.143 111.98 166.745 112.255 165.338C112.516 164.001 112.724 162.655 112.892 161.303C113.775 157.74 114.573 154.157 115.288 150.556C117.765 149.077 120.503 147.766 123.371 147.771C126.742 147.786 128.542 150.238 130.724 152.368C133.083 154.666 135.919 155.708 139.105 154.331C141.985 153.074 144.667 150.145 144.384 146.828L144.381 146.831Z" fill="#36174D"/>
<path d="M100.512 176.216C104.638 176.216 107.984 172.893 107.984 168.795C107.984 164.696 104.638 161.373 100.512 161.373C96.3849 161.373 93.0396 164.696 93.0396 168.795C93.0396 172.893 96.3849 176.216 100.512 176.216Z" fill="#F6B399"/>
<path d="M104.549 170.937C102.532 169.591 100.515 168.242 98.4976 166.896C98.0374 166.589 97.3516 166.844 97.0998 167.298C96.8104 167.816 97.0419 168.378 97.505 168.688C98.4542 169.321 99.4034 169.955 100.353 170.589C100.277 170.708 100.196 170.827 100.112 170.939C99.8346 171.275 99.5278 171.585 99.1834 171.854C99.0243 171.979 98.8651 172.147 98.7928 172.407C98.7233 172.659 98.7551 172.992 98.8998 173.215C99.0445 173.437 99.2616 173.637 99.5307 173.698C99.7912 173.756 100.121 173.756 100.344 173.591C100.816 173.244 101.253 172.87 101.62 172.416C101.794 172.204 101.953 171.984 102.103 171.759C102.59 172.083 103.073 172.407 103.556 172.728C104.016 173.035 104.705 172.78 104.954 172.326C105.243 171.808 105.012 171.246 104.549 170.937Z" fill="#EE796A"/>
<path d="M107.058 192.851L105.657 194.927C104.045 194.863 102.404 194.634 100.856 194.394C98.6104 194.038 96.4631 193.297 94.4779 192.177C93.3029 191.499 94.365 189.687 95.5486 190.359C97.3776 191.401 99.3425 192.044 101.417 192.365C103.241 192.651 105.191 192.897 107.055 192.848L107.058 192.851Z" fill="#EE796A"/>
<path d="M157.215 207.634C155.566 206.288 153.297 206.346 151.37 206.965C146.872 208.392 143.938 212.415 140.992 215.802C139.386 217.655 137.621 219.634 135.291 220.549C133.531 221.244 131.158 221.033 130.038 219.417C128.635 214.054 130.351 209.333 134.967 205.952C140.17 202.143 143.22 200.574 148.904 203.083C152.105 204.496 156.654 198.953 154.593 195.665C153.586 194.058 151.086 192.417 149.436 191.546C138.437 185.757 124.667 195.769 117.606 203.79C113.231 208.76 110.944 216.257 109.555 222.613C106.551 236.356 103.84 250.079 101.027 263.857L133.586 267.745L134.672 249.283C136.932 247.691 138.984 245.842 140.711 243.807C143.432 240.614 145.13 236.932 146.482 233.013C147.801 229.175 148.999 225.088 151.85 222.06C154.622 219.116 158.633 216.934 159.001 212.494C159.157 210.696 158.651 208.82 157.212 207.634H157.215Z" fill="#F6B399"/>
<path d="M133.589 267.745L132.53 285.801C132.322 289.344 129.37 292.111 125.796 292.111H95.6008C95.6008 292.111 98.7552 274.828 100.717 265.339C100.816 264.85 100.923 264.352 101.027 263.857L133.586 267.745H133.589Z" fill="#FFBB4D"/>
<path d="M114.573 292.111H6.75445C1.8753 292.111 -1.39194 287.124 0.5875 282.695C10.4731 260.595 36.2291 206.597 55.5113 197.786C79.8636 186.657 113.115 199.373 114.515 225.354C115.204 238.058 114.57 292.111 114.57 292.111H114.573Z" fill="#FFBB4D"/>
<path d="M67.547 292.111V291.272C67.4834 277.161 66.6528 263.058 65.0843 249.034C64.9367 247.691 67.0493 247.706 67.1969 249.034C67.6483 253.055 68.0419 257.09 68.366 261.122C69.211 271.427 69.6393 281.769 69.6596 292.108H67.547V292.111Z" fill="#36174D"/>
<path d="M151.876 67.6099C150.828 66.4868 150.085 65.4853 150.102 63.8788C150.122 62.0726 150.979 60.3995 151.769 58.8162C152.371 57.6092 150.551 56.5469 149.946 57.7568C148.536 60.5819 147.11 63.8875 148.684 66.9586C149.283 68.1251 150.42 68.8574 151.089 69.9602C151.867 71.2367 150.811 72.4177 149.732 73.0892C148.58 73.8013 149.639 75.6162 150.797 74.9012C152.055 74.1197 153.198 72.9503 153.444 71.4393C153.69 69.911 152.877 68.6808 151.879 67.6099H151.876Z" fill="#DA9174"/>
<path d="M149.642 76.8405C149.225 76.3976 148.6 76.4353 148.149 76.7884C147.793 77.0663 147.107 77.4078 146.655 77.5323C146.343 77.6191 146.027 77.677 145.706 77.7147C145.547 77.7233 145.463 77.7291 145.376 77.7291C145.206 77.7291 145.035 77.7291 144.864 77.7175C144.711 77.7089 144.557 77.6944 144.407 77.6712C144.413 77.6712 144.282 77.651 144.236 77.6452C144.187 77.6336 144.089 77.6133 144.074 77.6105C143.741 77.5323 143.423 77.4223 143.105 77.2978C142.951 77.2284 142.876 77.1878 142.801 77.1473C142.653 77.0663 142.508 76.9794 142.367 76.8839C142.312 76.8463 142.254 76.8087 142.202 76.7681C142.205 76.7681 142.103 76.6929 142.066 76.6668C142.031 76.635 141.95 76.5655 141.938 76.5568C141.863 76.4874 141.791 76.415 141.718 76.3426C141.319 75.9374 140.651 75.8969 140.225 76.2905C139.814 76.6697 139.771 77.3673 140.173 77.7725C142.65 80.2821 146.829 80.4847 149.587 78.3225C150.036 77.9723 150.007 77.2313 149.639 76.8405H149.642Z" fill="#DA9174"/>
<path d="M160.127 55.6234C159.979 54.7522 159.18 54.3672 158.416 54.1154C155.586 53.1775 152.134 53.5886 150.409 56.2776C149.769 57.2733 149.425 58.3675 149.286 59.5311C149.188 60.3473 150.247 60.8047 150.875 60.4371C152.62 59.4182 154.793 57.7741 156.906 57.337C157.49 57.2154 158.057 57.3602 158.642 57.3109C159.525 57.2357 160.289 56.567 160.127 55.6234Z" fill="#36174D"/>
<path d="M140.671 63.8846C139.944 64.9411 138.445 64.4866 137.412 64.2753C134.657 63.7167 131.726 64.1943 129.387 65.9687C128.936 66.3189 128.204 66.0381 127.943 65.5924C127.46 64.7587 128.262 62.9815 128.728 62.2607C129.353 61.294 130.377 60.6079 131.402 60.1217C133.407 59.1694 136.055 58.6599 138.231 59.3054C139.195 59.592 140.089 60.1796 140.596 61.0595C141.073 61.8989 141.235 63.0509 140.665 63.8846H140.671Z" fill="#36174D"/>
<path d="M155.965 32.4496C155.002 31.1268 153.818 30.0153 152.573 28.9675C151.448 28.0094 150.308 27.0108 149.005 26.2958C149.075 23.6329 147.09 21.4359 144.896 20.1507C142.659 18.8366 139.982 18.3185 137.415 18.6745C134.093 19.1434 131.263 21.2391 129.714 24.0728C128.328 23.0858 126.687 22.4866 124.948 22.6748C122.569 22.9324 119.979 24.7733 119.733 27.2337C117.768 26.8487 115.688 27.17 114.003 28.3452C112.229 29.584 111.095 31.5118 110.814 33.6104C107.182 33.3238 104.734 37.6656 104.086 40.7975C103.374 44.2305 104.514 48.0281 107.683 49.6693C105.706 57.2415 106.67 65.4012 110.342 72.3221C110.574 72.762 110.968 72.8952 111.341 72.8315C112.762 73.3844 114.51 72.6781 115.67 71.7982C116.466 71.1961 117.169 70.484 117.783 69.6996C118 70.3277 118.156 70.979 118.318 71.364C118.825 72.5942 119.675 73.642 121.007 74.0472C122.239 74.4235 123.582 74.027 124.23 72.872C124.948 71.5926 124.511 69.963 124.364 68.5997C123.961 65.0481 123.701 61.4617 123.701 57.8869C123.701 56.1589 123.99 54.6624 124.801 53.1254C125.469 51.8605 126.201 50.6361 126.595 49.2525C131.957 51.4958 137.869 51.6231 143.585 50.7837C148.646 50.0427 154.003 48.4912 157.282 44.3723C157.748 44.3028 158.162 43.9671 158.162 43.3737C158.156 39.7092 158.225 35.5352 155.965 32.4468V32.4496Z" fill="#36174D"/>
<path d="M120.318 74.6435C120.318 78.3978 117.253 81.4428 113.474 81.4428C109.694 81.4428 106.627 78.3978 106.627 74.6435C106.627 70.8893 109.691 67.8442 113.474 67.8442C117.256 67.8442 120.318 70.8893 120.318 74.6435Z" fill="#F6B399"/>
<path d="M119.8 75.8419C118.197 74.0067 116.408 72.3684 114.472 70.8864C114.272 70.733 113.89 70.7185 113.659 70.7793C113.413 70.8459 113.15 71.034 113.028 71.2627C112.733 71.8184 112.938 72.3395 113.407 72.6984C113.288 72.6086 113.387 72.681 113.45 72.7331C113.511 72.7794 113.572 72.8286 113.633 72.8749C113.743 72.9618 113.85 73.0486 113.957 73.1354C114.174 73.3091 114.385 73.4857 114.596 73.6652C115.042 74.0443 115.479 74.4351 115.905 74.8345C116.747 75.6248 117.548 76.4584 118.306 77.3268C118.668 77.7436 119.432 77.7233 119.8 77.3268C120.208 76.8839 120.188 76.2876 119.8 75.8448V75.8419Z" fill="#DA9174"/>
<path d="M158.153 77.4599C153.76 84.731 144.554 86.051 136.778 86.433C135.427 86.4996 135.418 88.5982 136.778 88.5316C145.347 88.1119 155.166 86.4851 159.976 78.5193C160.676 77.3586 158.853 76.3021 158.153 77.4599Z" fill="#DA9174"/>
<path d="M148.748 85.1044C148.16 85.1305 147.712 85.5647 147.691 86.1523C147.625 88.245 147.434 90.4044 147.133 92.4016C147.052 92.9429 147.269 93.5565 147.871 93.6926C148.374 93.8055 149.083 93.5392 149.17 92.9603C149.509 90.7025 149.729 88.4332 149.804 86.1523C149.821 85.6023 149.306 85.0784 148.748 85.1044Z" fill="#DA9174"/>
<path d="M114.379 244.768C114.397 256.896 114.241 269.021 113.908 281.144C113.815 284.565 113.705 287.986 113.584 291.408C113.534 292.757 115.647 292.757 115.696 291.408C116.127 279.288 116.385 267.163 116.466 255.038C116.489 251.613 116.498 248.192 116.492 244.768C116.492 243.419 114.379 243.416 114.379 244.768Z" fill="white"/>
<path d="M330.553 82.6585C328.967 68.2234 321.385 54.7927 310.261 45.4462C304.739 40.8062 298.387 37.1649 291.514 34.9071C284.858 32.7218 277.386 31.6479 270.481 33.237C267.885 27.4016 263.205 22.8137 257.264 20.197C241.796 13.3833 224.172 19.4416 211.615 29.3438C209.986 30.629 208.42 31.9923 206.91 33.4136C205.92 34.3427 207.416 35.8247 208.403 34.8956C219.339 24.6025 234.642 16.987 250.035 20.0986C256.787 21.462 263.121 25.0107 266.857 30.8866C267.448 31.8158 267.975 32.7941 268.435 33.8014C267.624 34.0561 266.823 34.3398 266.036 34.6785C259.359 37.5499 253.745 44.2276 253.927 51.7216C254.014 55.3311 255.872 59.0998 259.84 59.5542C263.385 59.9595 266.852 57.583 268.889 54.8911C273.068 49.3712 273.511 41.8454 271.349 35.4426C271.32 35.3558 271.285 35.2719 271.253 35.1879C276.914 33.9635 283.061 34.6987 288.542 36.2039C294.969 37.9696 300.991 41.0175 306.322 44.9889C317 52.9431 324.86 64.7557 327.644 77.7494C327.992 79.3732 328.261 81.0086 328.44 82.6585C328.585 83.9871 330.7 84.0016 330.553 82.6585ZM269.691 48.7431C268.765 51.7158 267.005 54.6335 264.293 56.2979C263.003 57.0881 261.434 57.6901 259.892 57.4615C258.251 57.2154 257.064 55.9795 256.523 54.4714C255.386 51.3106 256.248 47.594 257.814 44.7312C259.463 41.7122 262.022 39.2316 265.014 37.5267C266.354 36.7626 267.757 36.1692 269.204 35.7176C270.692 39.8974 271.013 44.4968 269.691 48.746V48.7431Z" fill="#FFBB4D"/>
<path d="M372.363 88.1478C367.689 83.3785 363.014 78.6154 358.346 73.8461C356.321 71.78 353.134 74.9472 355.16 77.0133C352.727 81.665 350.967 86.4034 350.041 91.3211C349.8 92.583 350.64 94.346 352.214 94.1604C358.402 93.4305 364.589 92.7006 370.77 91.9768C371.678 91.8717 372.462 91.5005 372.826 90.5974C373.166 89.7561 373.005 88.8097 372.363 88.1478ZM358.599 80.5268L365.978 88.055C362.354 88.4818 358.735 88.9086 355.11 89.3355C355.925 86.2735 357.099 83.3352 358.599 80.5268Z" fill="#2BB6CF"/>
<path d="M171.167 17.6122C175.754 16.9551 180.341 16.2981 184.928 15.641C185.943 15.4963 186.71 16.5702 185.949 17.398C184.071 19.4445 182.193 21.4909 180.315 23.5374C179.377 24.5591 178.436 25.5838 177.499 26.6085C177.319 26.8024 176.853 27.1816 176.94 27.4363C177.027 27.6997 177.672 27.8502 177.898 27.9139C178.981 28.2207 180.126 28.3076 181.223 28.5826C182.445 28.8865 183.64 29.2859 184.806 29.7577C187.167 30.71 189.329 31.9865 191.343 33.5293C191.85 33.9172 191.699 34.9303 191.121 35.1792C187.509 36.7191 183.646 37.5151 179.73 37.4601C181.215 40.6181 183.385 43.4142 186.047 45.698C186.704 46.2596 186.204 47.5708 185.31 47.4869C181.86 47.1598 178.561 46.2422 175.453 44.7197C174.232 44.1234 175.285 42.3027 176.5 42.899C178.318 43.7876 180.234 44.4563 182.204 44.8962C180.011 42.4793 178.295 39.6745 177.091 36.6207C176.853 36.0187 177.467 35.2487 178.098 35.295C181.588 35.5526 185.098 35.1242 188.4 33.9925C186.49 32.7362 184.401 31.7347 182.222 31.0458C180.87 30.6174 179.499 30.3482 178.101 30.1051C177.149 29.9401 176.13 29.6188 175.435 28.9154C174.712 28.1831 174.611 27.0832 175.12 26.2032C175.462 25.6099 176.014 25.1091 176.474 24.6083C177.021 24.0121 177.571 23.4158 178.118 22.8166C179.562 21.2449 181.003 19.6731 182.447 18.0985C178.871 18.6108 175.294 19.1232 171.72 19.6355C170.391 19.8265 169.821 17.8033 171.164 17.6122H171.167Z" fill="#FFBB4D"/>
<path d="M129.662 159.74C129.7 159.416 129.772 159.086 129.775 158.774C129.778 158.218 129.656 157.639 129.324 157.182C128.646 156.25 127.26 156.012 126.201 155.749C123.981 155.196 121.536 155.21 119.745 156.811C119.015 157.462 119.641 158.542 120.491 158.603C121.953 158.704 123.44 158.843 124.815 159.387C125.834 159.79 126.815 160.507 127.379 161.466C127.83 162.23 128.768 162.036 129.164 161.483C129.396 161.358 129.584 161.164 129.659 160.892C129.694 160.768 129.726 160.646 129.761 160.522C129.845 160.212 129.792 159.949 129.662 159.737V159.74Z" fill="#36174D"/>
<path d="M122.017 176.3C117.242 176.3 113.358 172.436 113.358 167.689C113.358 162.942 117.242 159.08 122.017 159.08C126.792 159.08 130.675 162.942 130.675 167.689C130.675 172.436 126.792 176.3 122.017 176.3ZM122.017 161.188C118.402 161.188 115.462 164.103 115.462 167.689C115.462 171.275 118.402 174.193 122.017 174.193C125.631 174.193 128.571 171.275 128.571 167.689C128.571 164.103 125.631 161.188 122.017 161.188Z" fill="white"/>
<path d="M129.176 182.83C129.02 182.269 128.432 181.962 127.877 182.098C126.867 182.344 125.666 182.37 124.676 182.164C123.49 181.918 122.592 181.519 121.597 180.784C121.14 180.445 120.419 180.708 120.153 181.16C119.837 181.696 120.072 182.257 120.532 182.596C122.769 184.249 125.744 184.778 128.438 184.121C128.991 183.985 129.324 183.366 129.176 182.83Z" fill="#EE796A"/>
<path d="M136.046 171.877C135.586 170.937 134.663 170.201 133.644 169.947C133.074 169.805 132.481 169.796 131.896 169.831C131.642 169.845 131.384 169.868 131.129 169.877C130.993 169.883 130.86 169.886 130.724 169.883C130.649 169.883 130.574 169.877 130.501 169.874C130.452 169.871 130.238 169.845 130.47 169.88C130.174 169.84 129.923 169.831 129.656 169.984C129.436 170.112 129.228 170.361 129.17 170.612C129.057 171.107 129.324 171.822 129.908 171.903C130.458 171.979 130.982 171.99 131.537 171.955C131.778 171.941 132.018 171.921 132.258 171.915C132.377 171.912 132.495 171.909 132.617 171.915C132.675 171.915 132.735 171.921 132.793 171.924C132.814 171.924 132.903 171.938 132.941 171.941C133.051 171.964 133.106 171.979 133.161 171.993C133.207 172.008 133.254 172.022 133.3 172.036C133.424 172.094 133.468 172.118 133.508 172.141C133.549 172.164 133.592 172.19 133.633 172.216C133.745 172.3 133.783 172.332 133.818 172.366C133.884 172.43 133.942 172.5 134.006 172.566C134.125 172.749 134.177 172.844 134.226 172.942C134.469 173.437 135.216 173.608 135.67 173.319C136.179 172.992 136.307 172.413 136.049 171.883L136.046 171.877Z" fill="white"/>
<path d="M206.386 213.391H204.792C204.746 213.13 204.663 212.898 204.54 212.697C204.418 212.492 204.266 212.319 204.085 212.177C203.903 212.035 203.695 211.928 203.462 211.857C203.232 211.783 202.984 211.746 202.717 211.746C202.242 211.746 201.822 211.866 201.455 212.104C201.089 212.34 200.802 212.687 200.594 213.144C200.387 213.599 200.283 214.154 200.283 214.81C200.283 215.478 200.387 216.04 200.594 216.498C200.805 216.952 201.092 217.296 201.455 217.529C201.822 217.759 202.241 217.874 202.712 217.874C202.974 217.874 203.218 217.84 203.445 217.772C203.675 217.701 203.881 217.597 204.063 217.461C204.248 217.325 204.403 217.157 204.528 216.958C204.656 216.759 204.744 216.532 204.792 216.276L206.386 216.285C206.326 216.7 206.197 217.089 205.998 217.452C205.802 217.816 205.545 218.137 205.227 218.415C204.908 218.691 204.536 218.907 204.11 219.063C203.684 219.217 203.211 219.293 202.691 219.293C201.924 219.293 201.239 219.116 200.637 218.761C200.035 218.405 199.56 217.893 199.214 217.222C198.867 216.552 198.694 215.748 198.694 214.81C198.694 213.87 198.869 213.066 199.218 212.398C199.567 211.728 200.043 211.215 200.646 210.86C201.248 210.505 201.93 210.327 202.691 210.327C203.177 210.327 203.629 210.396 204.046 210.532C204.464 210.668 204.836 210.869 205.163 211.133C205.489 211.394 205.758 211.715 205.968 212.096C206.181 212.474 206.32 212.905 206.386 213.391ZM207.833 210.447H209.768L212.359 216.771H212.461L215.052 210.447H216.987V219.174H215.47V213.178H215.389L212.977 219.148H211.843L209.431 213.165H209.35V219.174H207.833V210.447ZM223.451 212.846C223.412 212.474 223.244 212.184 222.949 211.977C222.656 211.769 222.275 211.665 221.806 211.665C221.477 211.665 221.194 211.715 220.958 211.815C220.723 211.914 220.542 212.049 220.417 212.219C220.292 212.39 220.228 212.584 220.225 212.803C220.225 212.985 220.267 213.143 220.349 213.276C220.434 213.41 220.549 213.523 220.694 213.617C220.839 213.708 221 213.785 221.176 213.847C221.352 213.91 221.529 213.962 221.708 214.005L222.527 214.209C222.856 214.286 223.173 214.39 223.477 214.521C223.784 214.651 224.058 214.816 224.299 215.015C224.544 215.214 224.737 215.454 224.879 215.735C225.021 216.016 225.092 216.346 225.092 216.724C225.092 217.235 224.961 217.685 224.7 218.075C224.439 218.461 224.061 218.763 223.566 218.982C223.075 219.198 222.48 219.306 221.781 219.306C221.102 219.306 220.512 219.201 220.012 218.991C219.515 218.78 219.126 218.474 218.845 218.07C218.566 217.667 218.416 217.175 218.393 216.596H219.949C219.971 216.9 220.065 217.153 220.23 217.354C220.395 217.556 220.609 217.707 220.873 217.806C221.14 217.905 221.439 217.955 221.768 217.955C222.112 217.955 222.413 217.904 222.672 217.802C222.933 217.697 223.137 217.552 223.285 217.367C223.433 217.18 223.508 216.961 223.511 216.711C223.508 216.484 223.441 216.296 223.311 216.148C223.18 215.998 222.997 215.873 222.761 215.773C222.528 215.671 222.255 215.58 221.943 215.501L220.95 215.245C220.231 215.06 219.663 214.78 219.245 214.405C218.831 214.028 218.623 213.526 218.623 212.901C218.623 212.387 218.762 211.937 219.041 211.55C219.322 211.164 219.704 210.864 220.187 210.651C220.67 210.435 221.217 210.327 221.828 210.327C222.447 210.327 222.99 210.435 223.456 210.651C223.924 210.864 224.292 211.161 224.559 211.542C224.826 211.92 224.964 212.354 224.973 212.846H223.451ZM229.697 209.862C227.957 209.862 226.625 211.002 226.625 212.598C226.625 214.206 227.957 215.346 229.697 215.346C231.449 215.346 232.757 214.206 232.757 212.598C232.757 211.002 231.449 209.862 229.697 209.862ZM229.697 211.23C230.549 211.23 231.197 211.734 231.197 212.598C231.197 213.474 230.549 213.978 229.697 213.978C228.845 213.978 228.197 213.474 228.197 212.598C228.197 211.734 228.845 211.23 229.697 211.23ZM233.801 209.118V220.266H235.397V209.118H233.801ZM226.361 218.01C228.281 218.01 230.897 217.986 233.309 217.506L233.189 216.354C230.849 216.702 228.125 216.726 226.169 216.726L226.361 218.01ZM242.14 209.802V211.086C242.14 212.334 241.528 213.702 239.98 214.386L240.82 215.622C242.632 214.854 243.388 212.97 243.388 211.086V209.802H242.14ZM242.428 209.802V211.086C242.428 212.898 243.16 214.578 244.888 215.262L245.74 214.05C244.276 213.474 243.676 212.274 243.676 211.086V209.802H242.428ZM248.092 209.142V215.922H249.604V209.142H248.092ZM246.76 211.83V213.114H248.524V211.83H246.76ZM245.74 209.346V215.574H247.228V209.346H245.74ZM245.836 216.078C243.496 216.078 242.02 216.858 242.02 218.166C242.02 219.462 243.496 220.242 245.836 220.242C248.164 220.242 249.664 219.462 249.664 218.166C249.664 216.858 248.164 216.078 245.836 216.078ZM245.836 217.278C247.264 217.278 248.056 217.578 248.056 218.166C248.056 218.754 247.264 219.042 245.836 219.042C244.408 219.042 243.604 218.754 243.604 218.166C243.604 217.578 244.408 217.278 245.836 217.278ZM258.327 209.13V215.574H259.923V209.13H258.327ZM259.479 211.71V213.03H261.399V211.71H259.479ZM255.135 209.754V210.546C255.135 212.226 253.767 213.654 251.031 214.35L251.679 215.574C254.979 214.722 256.827 212.718 256.827 209.754H255.135ZM251.583 209.754V211.014H256.095V209.754H251.583ZM252.507 216.042V217.302H258.327V220.242H259.923V216.042H252.507ZM269.342 209.13V220.242H270.926V209.13H269.342ZM270.566 213.462V214.794H272.534V213.462H270.566ZM262.166 210.774V212.046H268.634V210.774H262.166ZM265.418 212.67C263.798 212.67 262.598 213.774 262.598 215.322C262.598 216.87 263.798 217.974 265.418 217.974C267.038 217.974 268.238 216.87 268.238 215.322C268.238 213.774 267.038 212.67 265.418 212.67ZM265.418 213.966C266.174 213.966 266.714 214.47 266.714 215.322C266.714 216.174 266.174 216.678 265.418 216.678C264.662 216.678 264.122 216.174 264.122 215.322C264.122 214.47 264.662 213.966 265.418 213.966ZM264.614 209.31V211.254H266.21V209.31H264.614ZM274.501 212.13V213.39H282.205V212.13H274.501ZM273.253 214.542V215.814H283.321V214.542H273.253ZM274.501 209.526V212.754H276.085V209.526H274.501ZM274.393 218.73V220.002H282.265V218.73H274.393ZM274.393 216.702V219.066H275.989V216.702H274.393ZM288.409 210.054V211.326H295.405V210.054H288.409ZM287.269 217.686V218.97H297.313V217.686H287.269ZM294.769 210.054V211.026C294.769 212.31 294.769 213.93 294.265 216.186L295.837 216.354C296.353 213.942 296.341 212.37 296.341 211.026V210.054H294.769ZM295.057 212.73L288.061 212.946L288.277 214.302L295.057 213.93V212.73ZM290.833 215.022V218.154H292.429V215.022H290.833ZM305.94 209.13V215.754H307.548V209.13H305.94ZM298.932 213.822V215.106H299.904C302.412 215.106 303.768 215.046 305.244 214.758L305.088 213.474C303.648 213.774 302.34 213.822 299.904 213.822H298.932ZM298.932 209.958V214.554H300.516V211.23H304.2V209.958H298.932ZM303.78 215.874C301.44 215.874 299.988 216.69 299.988 218.07C299.988 219.45 301.44 220.254 303.78 220.254C306.12 220.254 307.596 219.45 307.596 218.07C307.596 216.69 306.12 215.874 303.78 215.874ZM303.78 217.122C305.232 217.122 306 217.422 306 218.07C306 218.706 305.232 219.03 303.78 219.03C302.34 219.03 301.584 218.706 301.584 218.07C301.584 217.422 302.34 217.122 303.78 217.122ZM310.331 210.066V211.35H317.363V210.066H310.331ZM309.359 217.614V218.91H319.403V217.614H309.359ZM311.459 214.11V218.022H313.043V214.11H311.459ZM316.895 210.066V211.158C316.895 212.466 316.895 214.026 316.523 216.138L318.107 216.294C318.503 214.038 318.503 212.502 318.503 211.158V210.066H316.895ZM314.207 214.11V218.022H315.779V214.11H314.207ZM322.75 214.938V217.122H324.346V214.938H322.75ZM326.458 214.926V217.11H328.042V214.926H326.458ZM320.386 214.314V215.574H330.43V214.314H320.386ZM321.502 216.594V217.842H327.622V220.242H329.218V216.594H321.502ZM325.414 209.346C322.966 209.346 321.394 210.186 321.394 211.53C321.394 212.886 322.966 213.726 325.414 213.726C327.85 213.726 329.434 212.886 329.434 211.53C329.434 210.186 327.85 209.346 325.414 209.346ZM325.414 210.582C326.926 210.582 327.79 210.894 327.79 211.53C327.79 212.178 326.926 212.49 325.414 212.49C323.89 212.49 323.038 212.178 323.038 211.53C323.038 210.894 323.89 210.582 325.414 210.582Z" fill="#2BB6CF"/>
</g>
<path d="M507.662 300.079H356.747C352.383 300.079 349.159 296.018 350.195 291.8C355.277 271.035 360 250.179 365.744 229.588C369.981 214.365 378.668 195.768 397.163 195.768C401.012 195.768 404.673 196.587 407.981 198.046C411.52 198.816 415.062 199.583 418.602 200.361C435.059 203.942 451.534 207.41 467.963 211.1C479.4 213.668 488.988 214.834 497.716 223.706C502.664 228.74 506.149 235.151 508.16 241.991C509.665 247.108 510.348 252.463 510.194 257.673C510.026 263.645 511.439 269.37 512.258 275.327C512.425 276.557 513.256 284.627 514.347 292.472C514.903 296.492 511.751 300.079 507.659 300.079H507.662Z" fill="#6F3AC1"/>
<path d="M393.257 300.079H391.138C390.78 297.477 390.47 294.869 390.201 292.255C390.039 290.669 389.891 289.079 389.764 287.487C389.651 286.075 389.842 284.153 389.101 282.888C388.467 281.805 387.13 281.174 386.181 280.399C385.252 279.643 384.436 278.778 383.704 277.84C380.72 274.031 379.418 269.191 379.178 264.424C378.637 253.607 383.247 242.602 390.354 234.555C391.254 233.542 392.742 235.029 391.853 236.037C387.764 240.659 384.717 246.153 382.949 252.047C380.344 260.724 379.901 272.575 387.671 278.908C388.635 279.698 389.746 280.3 390.536 281.279C391.431 282.396 391.593 283.733 391.697 285.102C391.928 288.283 392.203 291.465 392.562 294.631C392.768 296.449 392.999 298.267 393.251 300.079H393.257Z" fill="white"/>
<path d="M475.563 145.504C475.589 146.659 475.207 147.802 474.726 149.076C474.255 150.315 473.754 151.545 473.227 152.761C472.151 155.279 470.927 157.739 469.468 160.061C466.539 164.724 462.633 168.71 457.609 171.135C454.773 172.504 451.751 173.442 448.719 174.296C445.538 175.199 442.32 176.01 439.062 176.603C435.789 177.205 432.466 177.596 429.13 177.625C426.088 177.645 422.838 177.477 419.91 176.563C417.016 175.659 415.103 173.792 413.821 171.095C412.513 168.368 412.915 168.142 411.477 165.479C406.016 155.363 409.523 142.531 416.665 136.021C421.689 131.445 430.953 127.685 437.756 127.277C449.237 126.588 459.438 129.332 468.493 136.111C469.743 137.046 473.867 141.533 474.706 142.847C475.302 143.779 475.545 144.644 475.563 145.507V145.504Z" fill="#36174D"/>
<path d="M448.791 193.209C466.532 193.209 480.914 178.924 480.914 161.302C480.914 143.681 466.532 129.396 448.791 129.396C431.05 129.396 416.668 143.681 416.668 161.302C416.668 178.924 431.05 193.209 448.791 193.209Z" fill="#36174D"/>
<path d="M473.251 156.466C472.032 154.06 470.533 151.817 468.808 149.768C469.237 151.487 469.477 153.151 469.57 153.788C470.111 157.878 469.865 162.052 468.916 166.067C467.298 172.869 463.53 179.058 458.521 183.932C453.468 188.841 450.745 195.389 443.814 196.96C435.74 198.793 425.894 194.743 418.165 192.413C414.504 191.307 408.684 188.236 405.756 185.698C403.053 183.362 401.25 181.553 399.334 178.589C398.966 178.021 399.32 177.205 399.962 177.043C403.388 176.198 406.601 174.198 408.45 171.15C409.492 169.436 409.9 167.508 410.293 165.569C410.716 163.479 411.173 161.401 411.729 159.34C413.566 152.523 416.634 145.672 422.245 141.084C428.03 136.351 436.104 134.875 443.437 135.176C456.732 135.72 469.092 143.567 475.077 155.409C475.681 156.61 473.858 157.676 473.254 156.466H473.251Z" fill="#36174D"/>
<path d="M456.214 206.538L434.637 205.696L432.643 189.796L432.382 187.707L431.404 179.903L451.824 172.331L456.214 206.538Z" fill="#EEAA9B"/>
<path d="M433.072 193.209L454.102 190.068L458.165 214.313L433.757 207.688L433.072 193.209Z" fill="#6F3AC1"/>
<path d="M473.291 159.551C469.743 156.46 466.027 153.591 462.196 150.876C458.318 144.711 451.815 140.375 444.254 139.428C441.38 137.732 438.492 136.062 435.604 134.4C429.075 137.443 422.862 143.614 421.397 151.762C417.815 156.272 415.028 159.661 415.028 165.465C415.028 179.214 427.405 189.015 441.143 189.015C447.706 189.015 453.673 186.465 458.118 182.305C466.777 178.201 472.86 169.601 473.291 159.548V159.551Z" fill="#EEAA9B"/>
<path d="M431.61 151.021C432.021 152.352 431.265 153.765 429.926 154.173C428.583 154.581 427.162 153.831 426.751 152.5C426.34 151.168 427.092 149.756 428.435 149.348C429.778 148.94 431.199 149.689 431.61 151.021Z" fill="#36174D"/>
<path d="M447.532 155.371C448.094 156.648 447.503 158.136 446.218 158.694C444.934 159.253 443.435 158.665 442.876 157.389C442.315 156.112 442.905 154.625 444.19 154.066C445.475 153.51 446.974 154.095 447.532 155.371Z" fill="#36174D"/>
<path d="M460.454 150.074C460.454 150.074 458.706 180.467 453.372 186.962C448.039 193.458 437.189 194.841 437.189 194.841C437.189 194.841 440.023 199.658 449.358 202.24C458.694 204.822 473.294 203.016 473.294 203.016C473.294 203.016 474.437 194.303 478.205 182.117C481.264 172.223 481.249 162.171 480.914 158C480.836 157.033 480.184 154.529 480.184 154.529L460.457 150.071L460.454 150.074Z" fill="#36174D"/>
<path d="M464.832 183.975C464.832 187.634 461.846 190.598 458.165 190.598C454.484 190.598 451.497 187.631 451.497 183.975C451.497 180.32 454.484 177.353 458.165 177.353C461.846 177.353 464.832 180.32 464.832 183.975Z" fill="#EEAA9B"/>
<path d="M453.716 136.719C453.98 136.328 453.742 136.377 453.386 136.267C453.048 135.804 452.683 135.353 452.287 134.927C451.639 133.746 450.655 132.693 449.491 132.03C447.952 131.147 446.224 131.309 444.531 131.506C437.056 132.366 429.416 134.351 423.811 139.611C421.113 142.14 419.105 145.319 418.191 148.896C417.974 149.716 418.859 150.292 419.577 150.083C422.161 145.961 428.69 141.973 433.456 140.887C438.06 139.831 448.93 142.803 453.002 145.148C453.141 145.229 453.219 145.154 453.259 144.992C453.699 144.968 454.127 144.717 454.205 144.248C454.417 144.343 454.637 144.43 454.871 144.497C455.47 144.667 456.289 144.172 456.208 143.486C455.922 141.046 455.077 138.734 453.716 136.719Z" fill="#36174D"/>
<path d="M420.792 149.582C420.708 149.64 420.61 149.698 420.488 149.733C420.15 149.828 419.805 149.93 419.467 150.034C419.238 150.396 421.151 149.582 420.792 149.582Z" fill="#36174D"/>
<path d="M478.202 163.693C478.286 171.581 474.119 179.416 467.257 183.48C466.539 183.9 465.871 183.391 465.723 182.768C462.754 182.705 459.817 181.825 457.276 180.299C454.686 178.748 452.461 176.536 450.99 173.917C449.187 170.707 448.739 167.045 448.794 163.43C448.852 159.429 449.35 155.423 450.229 151.53C450.941 148.384 451.925 145.281 453.826 142.664C453.783 142.392 453.876 142.097 454.171 141.854C456.113 140.288 458.59 140.421 460.87 141.127C462.983 141.784 465.014 142.771 466.861 143.973C473.491 148.309 478.115 155.713 478.199 163.696L478.202 163.693Z" fill="#36174D"/>
<path d="M453.737 153.409C451.419 149.875 447.133 148.042 442.957 148.705C442.392 148.795 442.08 149.493 442.219 149.996C442.384 150.593 442.954 150.818 443.518 150.729C446.704 150.222 450.151 151.782 451.914 154.468C452.651 155.594 454.48 154.544 453.737 153.409Z" fill="#36174D"/>
<path d="M436.503 147.567C436.491 146.218 434.379 146.215 434.39 147.567C434.405 149.058 434.217 150.714 433.146 151.857C432.041 153.038 430.414 153.02 428.904 153.006C428.345 153 427.833 153.489 427.847 154.054C427.873 155.032 427.946 156.005 428.064 156.974C428.134 157.536 428.501 158.022 429.121 158.022C429.639 158.022 430.246 157.539 430.177 156.974C430.102 156.346 430.049 155.712 430.012 155.081C431.725 155.006 433.406 154.659 434.639 153.339C436.101 151.776 436.52 149.637 436.5 147.564L436.503 147.567Z" fill="#D58978"/>
<path d="M434.035 143.397C432.33 142.531 430.212 142.615 428.6 143.66C428.137 143.958 427.903 144.604 428.221 145.096C428.519 145.553 429.17 145.793 429.665 145.472C429.813 145.377 429.963 145.287 430.122 145.209C430.137 145.2 430.261 145.148 430.296 145.13C430.348 145.113 430.461 145.075 430.455 145.075C430.623 145.02 430.794 144.977 430.964 144.942C431.014 144.934 431.063 144.925 431.112 144.916C431.129 144.916 431.309 144.902 431.314 144.902C431.474 144.893 431.63 144.893 431.789 144.902C431.861 144.905 431.934 144.91 432.006 144.919C432.029 144.922 432.099 144.934 432.136 144.942C432.31 144.977 432.478 145.02 432.646 145.075C432.715 145.099 432.785 145.125 432.854 145.151C433.1 145.275 433.227 145.348 433.352 145.429C433.349 145.429 433.43 145.484 433.476 145.513C433.508 145.539 433.598 145.608 433.609 145.62C433.734 145.727 433.85 145.843 433.962 145.961C434.017 146.022 434.072 146.083 434.125 146.146C434.261 146.343 434.35 146.479 434.428 146.624C434.46 146.682 434.489 146.74 434.518 146.798C434.524 146.809 434.576 146.94 434.59 146.966C434.634 147.084 434.674 147.203 434.709 147.325C434.729 147.403 434.75 147.484 434.767 147.562C434.776 147.608 434.819 147.889 434.79 147.669C434.857 148.213 435.227 148.746 435.846 148.717C436.361 148.694 436.972 148.251 436.903 147.669C436.686 145.889 435.679 144.23 434.038 143.4L434.035 143.397Z" fill="#36174D"/>
<path d="M424.016 160.061L436.908 162.127C436.908 162.127 436.434 166.22 430.464 166.223C423.293 166.229 424.019 160.061 424.019 160.061H424.016Z" fill="white"/>
<path d="M444.427 188.937C442.04 189.866 439.458 190.112 436.917 190.063C435.609 190.042 434.307 189.935 433.005 189.825C432.886 189.819 432.765 189.805 432.646 189.796L432.385 187.706C432.857 187.756 433.335 187.756 433.757 187.79C434.892 187.88 436.032 187.958 437.172 187.973C439.467 188.002 441.718 187.75 443.866 186.91C444.401 186.699 445.026 187.142 445.168 187.646C445.33 188.233 444.957 188.728 444.43 188.939L444.427 188.937Z" fill="#D58978"/>
<path d="M460.486 183.613C458.984 183.33 457.479 183.046 455.977 182.762C455.224 182.621 454.475 182.479 453.723 182.337C452.99 182.198 452.044 181.857 451.376 182.343C450.915 182.676 450.687 183.255 450.996 183.778C451.245 184.198 451.882 184.447 452.342 184.207C452.542 184.242 452.73 184.279 452.918 184.314C453.239 184.375 453.563 184.436 453.885 184.496C454.556 184.624 455.227 184.748 455.899 184.876C457.242 185.13 458.581 185.382 459.924 185.634C460.483 185.738 461.064 185.478 461.224 184.902C461.365 184.389 461.05 183.718 460.486 183.611V183.613Z" fill="#D58978"/>
<path d="M419.444 260.226C419.036 261.506 417.375 262.988 416.726 263.674C414.973 265.555 413.262 267.498 411.384 269.26C409.631 270.896 407.683 272.337 405.414 273.191C402.893 274.135 400.141 274.085 397.488 274.016C397.123 274.288 396.677 274.421 396.206 274.178C393.1 272.569 390.053 270.844 387.316 268.655C384.928 266.739 382.81 264.412 381.432 261.677C380.003 258.837 379.377 255.725 379.082 252.593C378.515 246.579 377.546 243.745 374.626 238.355C370.892 231.466 366.601 225.712 362.535 220.664C359.913 217.41 357.123 210.081 362.818 206.999C363.802 206.466 364.804 206.431 365.788 206.671C365.507 204.483 366.265 202.196 368.097 200.659C370.531 198.625 373.587 198.772 376.304 199.89C376.472 197.707 377.14 195.553 379.05 194.323C382.049 192.393 385.597 194.393 387.868 196.483C390.403 198.819 392.562 201.67 394.359 204.593C395.323 206.174 396.182 207.823 396.935 209.514C396.929 204.92 396.197 200.37 394.733 195.979C394.05 193.93 393.277 191.504 394.536 189.504C395.705 187.631 398.162 187.023 400.208 187.602C404.615 188.847 406.789 193.727 407.836 197.748C409.168 202.865 409.816 208.234 410.137 213.5C410.319 216.409 410.363 219.318 410.279 222.227C410.377 222.345 410.455 222.499 410.49 222.696C412.524 235.07 415.685 247.25 419.93 259.06C420.135 259.619 419.852 260.038 419.444 260.226Z" fill="#EEAA9B"/>
<path d="M425.811 265.275L397.164 283.012L392.137 271.929L417.441 251.702L425.811 265.275Z" fill="#EEAA9B"/>
<path d="M447.272 300.079H404.899L403.111 296.136L397.164 283.012L397.601 282.74L406.025 277.524L425.515 265.457L425.811 265.275L430.449 272.797C430.464 272.818 447.272 300.079 447.272 300.079Z" fill="#6F3AC1"/>
<path d="M473.291 324.485C473.276 324.514 473.227 324.491 473.143 324.407C473.256 324.427 473.305 324.448 473.291 324.485Z" fill="#19C5FF"/>
<path d="M387.515 211.442C384.844 206.506 381.085 202.347 376.151 199.571C374.967 198.905 373.902 200.717 375.086 201.383C379.82 204.046 383.307 208.023 385.837 212.767C388.473 217.72 390.348 223.084 392.432 228.279C392.93 229.518 394.973 228.977 394.469 227.721C392.281 222.27 390.322 216.62 387.518 211.442H387.515Z" fill="#D58978"/>
<path d="M403.31 224.097C400.156 214.576 396.724 204.501 388.93 197.669C386.965 195.947 384.78 194.485 382.393 193.409C381.166 192.856 380.089 194.662 381.328 195.221C393.046 200.503 397.548 213.401 401.276 224.655C401.698 225.932 403.739 225.385 403.313 224.097H403.31Z" fill="#D58978"/>
<path d="M378.379 217.558C376.735 215.251 374.889 213.08 372.852 211.106C371.798 210.087 370.696 209.12 369.544 208.209C368.372 207.282 367.194 206.307 365.779 205.78C364.506 205.302 363.956 207.331 365.217 207.803C366.497 208.281 367.651 209.352 368.693 210.212C369.755 211.086 370.774 212.006 371.749 212.976C373.636 214.849 375.355 216.886 376.871 219.066C379.959 223.515 382.208 228.473 383.49 233.727C383.811 235.038 385.845 234.482 385.527 233.168C384.164 227.582 381.724 222.253 378.382 217.558H378.379Z" fill="#D58978"/>
<path d="M451.303 300.079H448.776L430.461 272.818C430.446 272.797 425.512 265.454 425.512 265.454L424.612 264.111C423.86 262.985 425.689 261.937 426.435 263.049C429.653 267.83 432.863 272.612 436.072 277.397C441.154 284.955 446.23 292.521 451.303 300.079Z" fill="white"/>
<path d="M466.022 300.079H463.918C463.903 299.98 463.854 299.63 463.854 299.63C462.193 287.183 460.538 274.74 458.885 262.302C458.807 261.735 459.426 261.245 459.941 261.254C460.561 261.26 460.92 261.737 460.998 262.302L462.419 273.015C462.503 273.672 462.595 274.323 462.679 274.98C463.799 283.348 464.91 291.719 466.022 300.081V300.079Z" fill="white"/>
<path d="M473.291 324.485C473.276 324.514 473.227 324.491 473.143 324.407C473.256 324.427 473.305 324.448 473.291 324.485Z" fill="#AB5A44"/>
<path d="M446.124 163.774C441.349 163.774 437.466 159.91 437.466 155.163C437.466 150.416 441.349 146.554 446.124 146.554C450.899 146.554 454.783 150.416 454.783 155.163C454.783 159.91 450.899 163.774 446.124 163.774ZM446.124 148.662C442.51 148.662 439.569 151.577 439.569 155.163C439.569 158.749 442.51 161.667 446.124 161.667C449.739 161.667 452.679 158.749 452.679 155.163C452.679 151.577 449.739 148.662 446.124 148.662Z" fill="white"/>
<path d="M425.71 158.31C421.584 158.31 418.229 154.953 418.229 150.828C418.229 146.703 421.584 143.348 425.71 143.348C429.835 143.348 433.191 146.703 433.191 150.828C433.191 154.953 429.835 158.31 425.71 158.31ZM425.71 145.179C422.587 145.179 420.046 147.712 420.046 150.828C420.046 153.944 422.587 156.479 425.71 156.479C428.833 156.479 431.373 153.944 431.373 150.828C431.373 147.712 428.833 145.179 425.71 145.179Z" fill="white"/>
<path d="M439.234 151.824C438.655 150.951 437.643 150.343 436.6 150.224C436.016 150.157 435.427 150.226 434.852 150.337C434.601 150.385 434.349 150.442 434.098 150.483C433.964 150.507 433.832 150.527 433.697 150.542C433.622 150.552 433.547 150.556 433.475 150.563C433.426 150.566 433.21 150.568 433.444 150.573C433.146 150.571 432.895 150.595 432.651 150.782C432.45 150.937 432.276 151.211 432.251 151.468C432.204 151.974 432.562 152.648 433.152 152.652C433.707 152.655 434.228 152.598 434.774 152.491C435.01 152.445 435.246 152.393 435.483 152.356C435.6 152.338 435.717 152.319 435.839 152.309C435.896 152.302 435.957 152.299 436.015 152.295C436.035 152.292 436.126 152.295 436.163 152.293C436.276 152.301 436.332 152.308 436.388 152.316C436.436 152.324 436.484 152.332 436.532 152.341C436.663 152.382 436.709 152.399 436.752 152.417C436.795 152.434 436.842 152.454 436.885 152.475C437.008 152.543 437.049 152.57 437.088 152.6C437.163 152.654 437.229 152.716 437.301 152.773C437.443 152.939 437.507 153.027 437.568 153.118C437.874 153.577 438.637 153.648 439.049 153.302C439.511 152.911 439.562 152.321 439.237 151.829L439.234 151.824Z" fill="white"/>
<path d="M435.328 152.432C435.328 152.432 434.794 152.432 434.259 152.432C433.725 152.432 433.191 152.432 433.191 152.432C433.191 152.758 430.414 153.02 428.904 153.006C428.345 153 427.833 153.489 427.847 154.054C427.873 155.032 427.946 156.005 428.064 156.974C428.134 157.536 428.501 158.022 429.121 158.022C429.639 158.022 430.246 157.539 430.177 156.974C430.102 156.346 430.049 155.712 430.012 155.081C431.725 155.006 433.368 154.417 433.725 154.035C435.186 152.472 433.725 154.035 434.259 153.006L435.328 152.432Z" fill="#D58978"/>
<path d="M435.328 154.57C435.328 154.57 436.931 154.035 436.397 154.036C435.862 154.036 435.328 154.036 435.328 154.036C435.328 154.361 432.769 154.787 431.258 154.773C429.984 154.773 429.985 154.773 429.985 155.657C430.011 156.635 430.083 157.608 430.202 158.578C430.271 159.139 430.639 159.625 431.258 159.625C431.776 159.625 432.384 159.142 432.314 158.578C432.239 157.949 432.187 157.315 432.149 156.684C433.862 156.609 435.506 156.02 435.862 155.639C437.324 154.076 435.862 155.639 436.397 154.609L435.328 154.57Z" fill="#EEAA9B"/>
<defs>
<linearGradient id="paint0_linear_436_497" x1="213.893" y1="161.36" x2="190.442" y2="162.77" gradientUnits="userSpaceOnUse">
<stop stop-color="#3DBCD2"/>
<stop offset="0.26" stop-color="#3BB9D0"/>
<stop offset="0.45" stop-color="#35AFCA"/>
<stop offset="0.62" stop-color="#2A9FC0"/>
<stop offset="0.78" stop-color="#1C88B2"/>
<stop offset="0.93" stop-color="#0A6BA0"/>
<stop offset="1" stop-color="#005C97"/>
</linearGradient>
<linearGradient id="paint1_linear_436_497" x1="185.27" y1="172.502" x2="210.561" y2="194.008" gradientUnits="userSpaceOnUse">
<stop stop-color="#3DBCD2"/>
<stop offset="0.17" stop-color="#39B6CE"/>
<stop offset="0.4" stop-color="#2EA5C4"/>
<stop offset="0.67" stop-color="#1D89B3"/>
<stop offset="0.95" stop-color="#04639B"/>
<stop offset="1" stop-color="#005C97"/>
</linearGradient>
<clipPath id="clip0_436_497">
<rect width="389.016" height="316.342" fill="white" transform="translate(0 0.502563)"/>
</clipPath>
<clipPath id="clip1_436_497">
<rect width="162" height="38" fill="white" transform="translate(184 157.174)"/>
</clipPath>
</defs>
</svg>
