<svg width="329" height="248" viewBox="0 0 329 248" fill="none" xmlns="http://www.w3.org/2000/svg">
<g clip-path="url(#clip0_436_745)">
<path d="M173.212 40.217C171.276 34.718 164.205 32.0751 159.332 34.997C156.739 36.5565 155.115 39.3142 153.244 41.6452C151.538 43.7627 149.356 45.5848 146.534 45.3057C144.22 45.0759 142.186 43.615 140.381 42.2033C138.33 40.5782 136.427 38.7561 134.261 37.2952C132.259 35.9491 130.012 34.9478 127.583 35.1284C125.04 35.3089 122.891 36.8519 121.086 38.6248C117.985 41.678 114.261 47.8501 109.174 45.9459C106.861 45.0759 105.302 42.8599 103.891 40.9065C102.382 38.8053 100.889 36.5401 98.7721 35.0463C96.8525 33.7002 94.5062 33.2242 92.2584 33.848C90.027 34.4553 88.1073 35.9163 86.3682 37.4429C84.4813 39.1008 82.7421 40.9229 80.8225 42.5316C79.0997 43.9761 77.1472 45.355 74.9158 45.6833C72.061 46.0937 69.6819 44.4686 67.6802 42.5152C65.4488 40.332 63.4471 37.7055 60.5758 36.3923C55.5388 34.0942 49.1235 36.1133 45.7928 40.5618C44.956 41.678 44.3326 42.942 43.9552 44.288C43.7255 45.1416 44.956 45.6669 45.2021 44.7969C46.7116 39.347 52.5526 36.0804 57.803 36.9833C63.9721 38.0503 66.3184 45.634 72.3563 46.9637C77.1144 47.9978 81.1178 44.2388 84.3336 41.1855C87.3362 38.3457 91.1427 34.0942 95.6547 35.1119C98.0502 35.6701 99.7894 37.6563 101.25 39.5769C102.792 41.6288 104.17 43.894 106.09 45.6176C107.878 47.2099 110.257 48.0635 112.603 47.4725C114.999 46.8816 116.853 45.1088 118.543 43.3195C120.315 41.4318 121.956 39.3306 124.089 37.8697C126.041 36.5236 128.338 36.1297 130.57 36.9176C132.867 37.7219 134.835 39.3635 136.706 40.9393C138.642 42.5644 140.545 44.2716 142.744 45.5027C144.762 46.619 147.026 47.095 149.257 46.422C152.08 45.552 153.934 43.024 155.673 40.7095C157.412 38.395 159.282 35.9491 162.219 35.3746C164.861 34.8493 167.683 35.6865 169.734 37.4757C170.751 38.3621 171.506 39.4948 171.965 40.7916C172.261 41.6288 173.508 41.0871 173.196 40.2499L173.212 40.217Z" fill="#F66957"/>
<path d="M323.897 202.957C313.954 217.517 290.459 215.695 275.578 215.941C274.15 215.958 271.476 213.348 270.311 213.348C266.98 213.348 264.946 213.331 264.946 213.331L266.833 226.923L269.72 247.754H91.1755C91.0278 210.409 90.8474 136.426 91.5529 129.893C92.2584 123.376 115.081 100.822 126.714 89.7088C130.717 85.8841 133.392 83.4218 133.392 83.4218C133.392 83.4218 127.846 75.6738 130.373 65.398C133.392 53.1851 144.992 38.6084 183.171 35.6865C218.119 33.0109 224.879 40.7752 230.129 49.2455C235.691 58.2245 232.558 69.7808 230.933 74.4263C230.589 75.4112 230.326 76.035 230.211 76.314C230.129 76.4946 248.341 73.2936 263.092 89.7252C263.814 90.5295 264.519 91.3667 265.208 92.2367C267.718 95.4377 270.787 99.2788 274.199 103.514C291.345 124.804 316.891 153.646 322.076 162.871C328.294 173.935 333.036 189.546 323.881 202.973L323.897 202.957Z" fill="#6F3AC1"/>
<path d="M274.167 181.059C268.457 174.641 262.747 168.222 257.037 161.804C255.429 159.982 253.805 158.176 252.197 156.354C251.606 155.698 250.638 156.65 251.213 157.306C256.922 163.725 262.632 170.143 268.326 176.561C269.95 178.383 271.558 180.189 273.182 182.011C273.773 182.668 274.741 181.716 274.167 181.059Z" fill="#36174D"/>
<path d="M264.946 213.331L266.833 226.923C263.929 226.874 261.057 226.447 258.219 225.807C250.671 224.099 243.501 220.981 235.987 219.191C234.133 218.748 232.262 218.387 230.359 218.157C229.407 218.042 228.439 217.96 227.471 217.911C226.635 217.878 225.765 217.911 224.961 217.648C222.943 217.008 222.894 214.546 222.566 212.74C222.402 211.837 222.238 210.951 222.073 210.048C221.68 210.114 221.302 210.179 220.909 210.245C222.32 210.656 222.172 212.034 221.335 211.854C220.351 211.64 219.514 211.099 218.989 210.196C218.726 209.753 218.89 209.162 219.432 209.08C220.236 208.948 221.04 208.817 221.827 208.686C221.647 207.701 221.466 206.716 221.286 205.747C221.122 204.861 222.451 204.68 222.615 205.55C222.795 206.519 222.976 207.504 223.14 208.472C227.045 207.849 230.95 207.29 234.871 206.864C239.449 206.355 244.026 206.01 248.62 205.78C253.149 205.567 257.743 205.37 262.255 206.026C264.093 206.289 266.012 206.814 267.456 208.078C268.818 209.277 269.638 210.967 270.147 212.707C266.997 213.38 264.946 213.348 264.946 213.348V213.331Z" fill="#36174D"/>
<path d="M182.433 19.6982C181.317 14.7736 179.217 9.89833 175.821 6.20492C172.015 2.08472 166.895 0 161.432 0C155.345 0 149.602 2.31454 144.204 5.05586C139.347 7.51814 134.278 10.2923 130.98 14.8885C130.619 15.3974 130.307 15.9391 129.913 16.4316C129.421 17.0553 128.847 17.2195 128.092 17.2523C126.862 17.318 125.762 17.4657 124.827 18.3685C122.957 20.1578 122.825 23.014 123.843 25.2957C124.269 26.2478 124.843 27.1342 125.483 27.9386C124.22 28.9235 123.843 30.8441 124.335 32.4527C125.04 34.8001 127.485 35.8178 129.585 36.4909C129.47 38.4935 129.815 40.4962 130.57 42.3347C130.323 42.9748 130.258 43.7135 130.405 44.403C130.619 45.4371 131.193 46.3235 131.849 47.1279C132.506 47.9322 133.195 48.6873 134.146 49.1141C134.753 49.3932 135.393 49.5245 136.05 49.623C136.361 49.6886 136.673 49.7379 136.985 49.7379C140.873 52.2494 144.942 54.449 149.159 56.3039C154.623 58.717 160.447 60.8017 166.321 61.7374C171.489 62.5581 179.037 62.4268 181.843 56.8949C183.073 54.4654 183.057 51.5764 183.04 48.9007C183.04 45.5192 183.188 42.1377 183.319 38.7726C183.598 32.4199 183.844 25.9195 182.417 19.6818L182.433 19.6982Z" fill="#36174D"/>
<path d="M205.354 46.1594C205.075 45.7326 200.613 43.7628 185.813 44.1568C180.235 44.3045 175.591 45.273 170.636 46.6519C169.16 47.0622 167.699 47.5054 166.256 47.9979C162.055 48.9336 157.855 50.1647 154.147 52.3315C149.717 54.9087 145.484 59.6855 144.582 65.0368C143.581 71.0283 147.584 75.5425 151.423 79.5971C151.505 80.0731 151.932 80.4342 152.342 80.4014C152.638 80.4671 152.998 80.3193 153.179 80.0731C160.447 72.5878 168.684 66.9574 177.232 62.0329C181.58 59.5213 186.026 57.2068 190.506 54.9415C192.245 54.0551 193.984 53.0866 195.756 52.2658C197.577 51.4287 199.661 51.3302 201.384 50.2468C202.992 49.229 206.24 47.5875 205.354 46.1922V46.1594Z" fill="#36174D"/>
<path d="M181.022 62.8043C174.459 66.7932 168.044 71.0283 161.776 75.4768C161.678 75.247 161.563 75.0172 161.465 74.7874C161.333 74.5083 161.202 74.2293 161.087 73.9338C160.218 72.0132 159.348 70.0926 158.478 68.1721C157.986 67.0887 157.51 66.0217 157.018 64.9383C156.526 62.9685 156.165 61.5732 155.935 60.1451C155.853 59.6526 156.165 59.3407 156.526 59.2422C157.117 52.709 161.366 46.9309 167.355 44.7477C168.093 44.485 168.848 44.2552 169.619 44.0911C169.865 45.4699 169.996 46.7996 170.538 47.9158C171.457 49.8035 173.951 50.8049 175.312 48.8022C175.46 48.5888 175.575 48.359 175.673 48.1128C175.969 47.4069 176.084 46.6026 176.215 45.8639C176.28 45.4207 176.362 44.9775 176.412 44.5343C178.463 46.0116 178.807 48.5888 179.037 50.772C179.398 54.2192 179.939 57.6336 180.645 61.0315C180.776 61.6881 180.907 62.2462 181.039 62.8207L181.022 62.8043Z" fill="#FFA895"/>
<path d="M177.38 42.2198C177.38 44.2061 177.019 46.1923 176.297 48.0308C175.673 51.8555 174.426 55.2863 172.425 58.3067C169.98 61.9837 166.551 65.004 162.613 66.7933C161.268 67.4007 159.89 67.8603 158.462 68.1558C155.689 68.7303 152.818 68.681 150.029 67.9259C145.96 66.8261 142.219 64.2982 139.561 60.9003C138.248 59.2095 137.182 57.2889 136.525 55.2206C136.197 54.2029 135.951 53.1359 135.82 52.0689C135.656 50.69 135.672 49.2948 135.541 47.9159C135.41 46.4549 135.016 45.191 134.343 43.9106C133.736 42.7287 133.146 41.5468 132.752 40.25C132.178 38.313 131.948 36.294 132.079 34.2913C132.916 33.766 133.736 33.1751 134.491 32.5349C135.065 32.0588 135.607 31.5664 136.148 31.0575C140.266 33.3228 144.417 33.8973 148.454 33.3228C153.327 32.6498 157.888 30.5158 162.17 28.0864C162.941 27.6432 163.696 27.2 164.467 26.7403C168.635 23.2275 166.338 26.8717 167.601 29.7443C168.175 31.0411 169.652 31.4679 170.882 31.0575C171.522 33.6511 171.424 36.4089 172.261 39.0353C172.54 39.9053 173.212 41.5468 174.197 41.9244C175.066 42.2527 177.38 40.3813 177.363 42.2034L177.38 42.2198Z" fill="#FFA895"/>
<path d="M185.534 40.7753C185.534 45.0596 182.187 48.5232 178.069 48.5232C177.445 48.5232 176.855 48.4411 176.28 48.2934C175.952 47.3906 176.067 46.6026 176.182 45.8475C176.362 44.7641 176.526 43.6643 176.674 42.5645C176.707 42.3019 176.756 42.0392 176.789 41.7602C177.15 38.9532 177.429 36.1134 177.478 33.2735C182.203 33.0109 185.55 36.4745 185.55 40.7588L185.534 40.7753Z" fill="#FFA895"/>
<path d="M162.646 38.4442C161.202 37.3937 159.479 36.9012 157.724 37.0161C156.263 37.1146 153.819 37.8861 154.147 39.8888C154.229 40.3648 154.606 40.6274 155.066 40.611C157.445 40.4797 159.84 40.3976 162.219 40.3648C162.564 40.3648 162.876 39.9708 162.908 39.6261C163.056 39.1008 163.023 38.7069 162.662 38.4442H162.646Z" fill="#36174D"/>
<path d="M160.661 48.0634C160.644 47.6202 160.447 47.1278 160.168 46.7995C159.742 46.2742 158.954 45.7981 158.331 46.3234C158.052 46.5532 157.921 46.898 157.871 47.2591C157.74 47.8993 157.904 48.4738 158.167 48.9499C158.38 49.3438 158.511 49.5736 158.675 49.787C158.856 50.0168 159.135 50.1482 159.43 50.0989C159.693 50.0661 159.955 49.8691 160.054 49.6065C160.529 49.2946 160.677 48.638 160.661 48.0799V48.0634Z" fill="#36174D"/>
<path d="M146.14 50.296C146.189 49.1305 146.075 48.8679 145.911 48.6052C145.5 47.8666 145.123 47.5711 144.713 47.3741C144.253 47.1443 143.646 47.5383 143.614 48.0635C143.728 49.4752 143.827 49.7051 143.958 49.9349C146.14 50.3288 146.14 50.3124 146.14 50.3124V50.296Z" fill="#36174D"/>
<path d="M144.532 41.5631C144.385 41.8422 144.04 42.0556 143.728 41.9899C142.088 41.6944 140.447 41.3497 138.79 41.0214C138.117 40.8901 136.903 40.9065 136.329 40.5454C135.623 40.1022 135.131 38.5592 136.066 38.0667C138.937 36.6222 142.793 37.7712 144.45 40.6275C144.631 40.9229 144.664 41.2348 144.516 41.5467L144.532 41.5631Z" fill="#36174D"/>
<path d="M150.373 56.4518C149.783 56.6159 149.34 56.222 149.11 55.6638C148.814 54.9744 149.011 54.1208 149.175 53.415C149.504 51.9869 149.783 50.6572 149.618 49.1799C149.323 46.5534 147.961 44.1076 145.894 42.5481C145.057 41.9244 144.073 43.254 144.926 43.8942C147.125 45.5521 148.371 48.4083 148.011 51.2318C147.814 52.824 147.026 54.4163 147.518 56.0414C147.928 57.3546 149.225 58.5201 150.603 58.1261C151.587 57.8471 151.374 56.1727 150.373 56.4682V56.4518Z" fill="#F76D6D"/>
<path d="M158.938 58.0603C158.61 57.814 158.052 57.8305 157.806 58.2244C153.195 60.3584 152.752 60.6703 152.72 61.1299C152.687 61.5731 152.982 62.0163 153.425 62.0656C155.624 62.2954 157.904 61.1956 159.086 59.2422C159.315 58.8646 159.315 58.3393 158.921 58.0603H158.938Z" fill="#F76D6D"/>
<path d="M183.615 38.0831C183.336 37.7056 182.843 37.6728 182.482 37.9354C180.169 39.659 178.052 41.6288 176.133 43.812C175.837 44.1403 175.969 44.7313 176.297 44.9939C176.674 45.2894 177.134 45.1581 177.429 44.8298C179.25 42.7615 181.285 40.8901 183.467 39.265C183.828 39.0024 183.877 38.4279 183.615 38.0831Z" fill="#F76D6D"/>
<path d="M197.512 53.4149C194.23 55.1549 190.965 56.9606 187.733 58.8155C185.485 60.1123 183.237 61.4419 181.022 62.788C174.459 66.7768 168.044 71.012 161.776 75.4605C159.496 77.0856 157.215 78.7271 154.967 80.4014C154.114 81.0252 153.13 79.6956 153.983 79.0718C156.329 77.3154 158.692 75.5918 161.071 73.9174C161.744 73.4414 162.416 72.9654 163.073 72.5057C168.815 68.5004 174.673 64.7085 180.629 61.0808C185.961 57.847 191.375 54.7774 196.872 51.8555C197.807 51.363 198.414 52.9225 197.495 53.3985L197.512 53.4149Z" fill="#36174D"/>
<path d="M235.724 140.464C234.379 140.957 234.182 140.76 233.969 140.596C234.28 139.841 234.477 139.644 234.707 139.479C235.084 139.759 235.413 140.087 235.724 140.448V140.464Z" fill="#FFA895"/>
<path d="M235.724 140.464C234.28 141.121 234.034 140.875 233.969 140.596C234.28 139.841 234.477 139.644 234.707 139.479C235.084 139.759 235.413 140.087 235.724 140.448V140.464Z" fill="#FFA895"/>
<path d="M226.651 248.016V116.465L28.0072 116.465V248.016H226.651Z" fill="white"/>
<path d="M226.405 116.712H28.2698V247.737H226.405V116.712Z" fill="#F5F5FA"/>
<path d="M226.405 116.712H28.2698V126.183H226.405V116.712Z" fill="#FFBB4D"/>
<path d="M204.928 174.411V145.734L181.022 131.403L157.1 145.734V174.411L181.022 188.758L204.928 174.411Z" fill="#F66957"/>
<path d="M44.0701 145.389C42.3473 149.197 39.8042 153.662 35.5711 154.68C25.4478 157.109 10.9437 144.174 12.5844 136.344C13.5032 131.961 19.1146 130.435 28.3519 126.233C31.9943 124.575 33.471 108.422 36.9986 110.458C40.4933 112.477 42.9708 116.006 44.5459 119.765C47.9258 127.825 47.6469 137.46 44.0865 145.405L44.0701 145.389Z" fill="#FFA895"/>
<path d="M108.6 116.712H28.2698V247.737H108.6V116.712Z" fill="#36174D"/>
<path d="M280.188 214.382C273.527 214.546 266.865 214.907 260.204 215.449C253.772 215.974 247.324 216.943 240.843 216.729C233.673 216.499 226.503 214.365 221.63 208.604C212.935 198.295 218.218 186.558 218.004 174.559C217.857 166.269 217.447 157.963 216.774 149.69C216.61 147.753 216.413 145.799 216.265 143.846C216.134 142.09 216.118 140.317 216.544 138.593C216.922 137.083 217.742 135.655 218.874 134.637C219.055 133.915 219.022 133.357 219.038 132.799C219.087 129.91 220.203 126.709 222.877 125.691C224.6 125.034 226.126 125.461 227.389 126.429C228.407 125.674 229.736 125.51 230.999 125.839C232.787 126.315 234.002 127.726 234.822 129.368C235.741 131.206 236.217 133.291 236.742 135.277C237.332 137.592 237.841 139.939 238.235 142.287C238.924 146.407 239.301 150.56 239.367 154.746C239.416 158.439 239.055 162.1 239.055 165.793C239.055 168.715 239.301 171.982 240.909 174.477C242.829 177.464 246.159 178.301 249.425 178.465C253.346 178.646 257.3 178.416 261.238 178.351C265.454 178.269 280.779 176.808 283.158 176.463C284.175 176.315 290.246 189.103 290.508 191.056C291.542 198.87 287.801 214.201 280.221 214.398L280.188 214.382Z" fill="#FFA895"/>
<path d="M146.452 89.5447H20.6897V144.306H146.452V89.5447Z" fill="#DADEF1"/>
<path d="M88.8786 114.922H135.032C136.247 114.922 136.476 113.543 135.262 113.543H89.1083C87.8941 113.543 87.6644 114.922 88.8786 114.922Z" fill="white"/>
<path d="M89.1084 120.192H98.4769C98.9856 120.192 99.4614 119.978 99.527 119.584C99.5762 119.24 99.2153 118.813 98.6902 118.813H89.3216C88.813 118.813 88.3372 119.026 88.2716 119.42C88.2224 119.765 88.5833 120.192 89.1084 120.192Z" fill="white"/>
<path d="M135.246 118.632H105.433C104.219 118.632 103.99 120.011 105.204 120.011H135.016C136.23 120.011 136.46 118.632 135.246 118.632Z" fill="white"/>
<path d="M117.46 124.788H89.5841C88.37 124.788 88.1403 126.167 89.3544 126.167H117.23C118.445 126.167 118.674 124.788 117.46 124.788Z" fill="white"/>
<path d="M134.524 124.969H124.187C123.678 124.969 123.203 125.182 123.137 125.576C123.088 125.921 123.449 126.347 123.974 126.347H134.31C134.819 126.347 135.295 126.134 135.361 125.74C135.41 125.395 135.049 124.969 134.524 124.969Z" fill="white"/>
<path d="M146.452 85.9005V97.6045H20.6897V85.9005C20.6897 84.5381 20.985 83.2577 21.5101 82.125C21.8382 81.4192 22.2484 80.7626 22.7406 80.1716C24.2337 78.3824 26.4323 77.2498 28.8606 77.2498H138.281C142.793 77.2498 146.468 81.1237 146.468 85.8841L146.452 85.9005Z" fill="#36174D"/>
<path d="M138.232 79.6299H47.4827C44.0122 79.6299 41.1987 82.4447 41.1987 85.9169V88.4284C41.1987 91.9006 44.0122 94.7154 47.4827 94.7154H138.232C141.702 94.7154 144.516 91.9006 144.516 88.4284V85.9169C144.516 82.4447 141.702 79.6299 138.232 79.6299Z" fill="white"/>
<path d="M32.6505 79.876H30.6324C27.1618 79.876 24.3484 82.6908 24.3484 86.163V88.6745C24.3484 92.1467 27.1618 94.9615 30.6324 94.9615H32.6505C36.1211 94.9615 38.9345 92.1467 38.9345 88.6745V86.163C38.9345 82.6908 36.1211 79.876 32.6505 79.876Z" fill="white"/>
<path d="M45.4813 131.059C44.907 133.964 42.4459 135.606 39.9356 136.574C36.8674 137.772 33.7172 138.774 30.6162 139.874C27.5973 140.941 24.6111 142.122 21.5429 143.042C20.5585 143.337 19.492 143.583 18.4584 143.633C18.2287 144.027 17.8021 144.289 17.277 144.092C16.5387 143.813 15.866 143.419 15.2425 142.943C14.9636 142.779 14.6847 142.582 14.4386 142.336C13.1096 140.744 12.3712 139.233 12.1415 137.592C11.7314 134.621 13.0604 131.453 15.4722 129.778C16.6864 128.925 18.0482 128.432 19.4264 127.989C20.9687 127.48 22.511 127.004 24.0533 126.544C27.1871 125.625 30.8131 125.773 34.0782 125.51C36.8346 125.297 39.0988 125.149 41.6912 126.233C43.9226 127.152 45.9899 128.449 45.4813 131.059Z" fill="#FFA895"/>
<path d="M42.2654 116.465C41.1333 117.631 39.7551 118.534 38.4261 119.436C36.851 120.503 35.2759 121.57 33.6844 122.637C30.6162 124.706 27.548 126.774 24.4799 128.842C22.0352 130.484 19.3279 132.207 16.3254 131.928C16.2106 132.109 16.0137 132.24 15.7183 132.273C12.5845 132.634 10.0414 130.123 9.31947 127.053C8.89288 125.165 9.25384 123.327 10.025 121.653C7.62952 121.587 5.67704 119.798 4.75823 117.565C3.72457 115.004 4.03631 112.362 5.25045 109.932C6.38256 107.618 8.22018 105.73 10.0578 104.006C11.9118 102.25 13.8315 100.575 15.8824 99.0653C19.853 96.1434 24.5455 93.5334 29.5005 93.2051C31.9288 93.0573 34.4555 93.7468 36.1127 95.6838C37.7042 97.5551 37.9011 100.034 36.9002 102.25C36.2603 103.678 35.2759 104.925 34.1602 106.025C35.2103 105.763 36.2767 105.549 37.3432 105.451C39.952 105.221 42.9709 105.812 44.2179 108.52C45.4977 111.278 44.2179 114.43 42.2654 116.449V116.465Z" fill="#FFA895"/>
<path d="M19.377 84.7677C19.377 86.6882 19.3606 88.6088 19.3442 90.5294C19.3442 92.1709 19.3442 93.8124 19.3442 95.4539C19.3442 95.9792 19.3442 96.4881 19.3442 97.0134C19.3442 98.6549 19.3442 100.313 19.3113 101.971C19.2621 104.893 18.3433 107.486 16.0299 109.259C14.865 110.162 13.5524 110.704 12.1577 110.917C12.2726 111.541 11.8952 112.263 11.1241 112.132C8.85987 111.754 7.20272 110.113 6.23469 108.077C6.00499 107.601 5.82451 107.125 5.67684 106.633C5.59481 106.354 5.51277 106.075 5.46355 105.795C5.05336 103.891 5.16821 101.889 5.26666 99.9681C5.38151 97.8341 5.3651 95.7658 5.11899 93.6483C4.42988 87.7881 2.85478 80.2043 7.8262 75.7393C9.68023 74.0814 12.3874 73.3592 14.7501 74.0158C17.4737 74.7544 18.8848 77.2824 19.2457 80.0401C19.459 81.616 19.3934 83.2247 19.377 84.8005V84.7677Z" fill="#FFA895"/>
<path d="M229.768 164.529C229.834 165.596 228.226 165.842 228.16 164.759C227.98 161.607 227.717 158.472 227.406 155.336C227.127 152.562 226.799 149.788 226.405 147.03C226.06 144.552 225.781 142.007 225.174 139.578C224.715 137.69 223.845 135.556 222.008 134.719C221.007 134.259 219.793 134.145 218.841 134.653C219.022 133.931 218.989 133.373 219.005 132.815C220.072 132.536 221.253 132.651 222.287 133.045C224.354 133.833 225.65 135.819 226.356 137.904C227.209 140.497 227.488 143.304 227.882 145.996C228.751 152.152 229.375 158.34 229.752 164.545L229.768 164.529Z" fill="white"/>
<path d="M37.2775 104.056C37.015 104.449 36.7033 104.811 36.3423 105.123C36.2111 105.336 36.0634 105.549 35.9321 105.763C35.2594 105.943 34.6031 106.14 33.9468 106.354C32.503 106.813 31.0756 107.322 29.6809 107.897C25.5955 109.571 21.707 111.738 18.1138 114.364C16.3254 115.677 14.6026 117.089 12.9619 118.616C11.4688 120.011 9.87727 121.636 9.51631 123.77C9.33583 124.837 7.72791 124.64 7.90839 123.573C8.35139 120.93 10.1234 118.993 11.9774 117.27C18.6388 111.081 26.6948 106.6 35.3087 104.203C35.7352 104.088 36.1618 103.973 36.5884 103.859C36.8838 103.776 37.1135 103.859 37.2611 104.039L37.2775 104.056Z" fill="white"/>
<path d="M43.3318 125.97C41.4121 124.772 39.1972 124.607 36.9986 124.657C31.9779 124.788 26.9409 125.56 22.0843 126.856C18.0153 127.94 13.5853 129.68 11.3867 133.669C11.1734 134.063 11.1734 134.539 11.5508 134.851C11.8625 135.097 12.4696 135.08 12.6829 134.686C14.4385 131.502 17.7199 129.926 20.9686 128.908C25.1032 127.628 29.4512 126.906 33.7335 126.528C35.8993 126.331 38.1963 126.085 40.3457 126.528C42.0028 126.873 43.7092 127.874 44.3327 129.598C44.9561 131.338 44.0701 133.308 42.856 134.506C41.4286 135.918 39.5089 136.656 37.6713 137.313C32.8639 139.036 27.9417 140.432 22.9539 141.499C21.9366 141.712 22.1499 143.386 23.1836 143.157C28.0894 142.106 32.946 140.744 37.7041 139.069C41.4121 137.756 46.1703 135.589 46.1539 130.763C46.1539 128.744 44.9889 126.971 43.3482 125.937L43.3318 125.97Z" fill="white"/>
<path d="M205.354 46.1593L204.304 45.6176C203.369 45.1416 202.778 46.701 203.713 47.1771C202.959 48.441 201.367 48.9991 200.104 49.5901C198.266 50.4437 196.429 51.3137 194.591 52.2001C190.932 53.9729 187.29 55.8278 183.713 57.7813C176.543 61.6881 169.586 66.0052 163.023 70.9298C159.348 73.6875 155.804 76.6423 152.441 79.8104C151.669 80.5326 152.654 81.8623 153.425 81.14C159.479 75.4439 166.108 70.4373 173.065 65.9888C180.087 61.4911 187.421 57.535 194.886 53.9073C196.97 52.8895 199.054 51.9046 201.154 50.9361C202.992 50.0825 204.862 49.1961 205.814 47.2263C206.027 46.7995 205.715 46.3235 205.354 46.1429V46.1593Z" fill="#36174D"/>
<path d="M88.8786 213.38C85.9581 201.955 83.0048 190.563 79.9695 179.171C76.6716 166.827 73.3081 154.499 69.8789 142.188C67.9429 135.244 65.974 128.317 64.0051 121.39C63.7426 120.471 62.2823 120.897 62.5449 121.817C66.0724 134.144 69.5344 146.489 72.9143 158.849C76.2942 171.177 79.5921 183.521 82.8079 195.865C84.6292 202.825 86.4175 209.802 88.1895 216.778C88.37 217.517 89.5185 217.418 89.6662 216.729C89.8631 215.81 90.06 214.891 90.2569 213.988C90.4373 213.183 89.2888 212.822 88.8786 213.38Z" fill="#FFBB4D"/>
<path d="M151.555 195.028C143.515 197.589 135.475 200.133 127.436 202.694C119.363 205.255 111.291 207.832 103.218 210.393C98.7721 211.805 94.3257 213.183 89.7973 214.3C88.8785 214.529 89.3543 215.958 90.2731 215.744C98.3455 213.758 106.237 211.033 114.162 208.505C122.235 205.944 130.323 203.367 138.396 200.806C142.941 199.362 147.485 197.917 152.03 196.473C152.933 196.194 152.457 194.749 151.555 195.028Z" fill="#FFBB4D"/>
<path d="M95.1791 216.286C95.1791 220.16 92.1437 223.312 88.4192 223.312C84.6948 223.312 81.6594 220.16 81.6594 216.286C81.6594 212.412 84.6948 209.26 88.4192 209.26C92.1437 209.26 95.1791 212.412 95.1791 216.286Z" fill="#F66957"/>
<path d="M160.841 195.931C160.841 199.805 157.806 202.957 154.081 202.957C150.357 202.957 147.322 199.805 147.322 195.931C147.322 192.057 150.357 188.906 154.081 188.906C157.806 188.906 160.841 192.057 160.841 195.931Z" fill="#F66957"/>
<path d="M69.6327 119.158C69.6327 123.031 66.5973 126.183 62.8729 126.183C59.1484 126.183 56.113 123.031 56.113 119.158C56.113 115.284 59.1484 112.132 62.8729 112.132C66.5973 112.132 69.6327 115.284 69.6327 119.158Z" fill="#F66957"/>
<path d="M54.8661 175.363V214.94C54.8661 219.914 50.9776 223.952 46.1867 223.952H8.67948C3.88854 223.952 0 219.914 0 214.94V175.363C0 170.734 3.62602 166.958 8.08882 166.958H46.7937C51.2565 166.958 54.8826 170.718 54.8826 175.363H54.8661Z" fill="#FFBB4D"/>
<path d="M54.8661 187.806V215.547C54.8661 220.176 51.2401 223.952 46.7773 223.952H8.08882C3.62602 223.952 0 220.193 0 215.547V207.586C1.21414 207.061 2.39547 206.601 3.56039 206.191C14.3564 202.399 19.1474 209.818 25.3329 206.191C31.5021 202.563 36.211 189.349 49.6158 188.298C51.5519 188.15 53.3075 187.97 54.8826 187.789L54.8661 187.806Z" fill="#F66957"/>
<path d="M27.7613 187.806C27.7613 193.912 23.0031 198.853 17.1129 198.853C11.2227 198.853 6.48096 193.912 6.48096 187.806C6.48096 181.699 11.2391 176.758 17.1129 176.758C22.9867 176.758 27.7613 181.699 27.7613 187.806Z" fill="white"/>
<path d="M295.693 206.864C295.545 209.244 295.152 211.509 294.413 213.512C293.626 215.662 291.312 215.974 289.409 216.401C287.161 216.91 284.897 217.238 282.6 217.402C280.287 217.566 277.973 217.583 275.66 217.419C274.495 217.337 273.346 217.205 272.181 217.041C271.279 216.91 270.13 216.861 269.392 216.27C268.539 215.58 268.637 214.464 268.621 213.463C268.621 212.182 268.621 210.902 268.588 209.638C268.555 207.126 268.473 204.615 268.358 202.087C268.129 197.13 267.768 192.189 267.259 187.264C267.046 185.196 266.898 183.078 266.373 181.059C265.963 179.483 265.274 178.006 264.043 177.005C263.781 177.382 263.108 177.464 262.846 176.906C262.517 176.151 262.747 175.396 263.305 174.854C263.896 174.28 264.732 173.951 265.536 173.82C266.718 173.623 267.915 173.525 269.113 173.36C271.525 173.049 273.937 172.753 276.349 172.441C278.58 172.162 280.861 171.752 283.109 171.62C289.868 171.243 293.626 180.632 294.84 185.672C296.136 190.99 296.087 200.593 295.693 206.864Z" fill="#36174D"/>
<path d="M230.9 74.5083C230.589 75.3947 230.326 76.0185 230.211 76.2976C225.158 78.3659 220.104 80.27 215.051 82.2398C209.833 84.2753 204.599 86.3108 199.382 88.3463C190.046 91.974 180.382 95.4376 172.425 101.889C171.752 102.447 170.932 101.331 171.604 100.789C175.985 97.2269 180.956 94.5348 186.043 92.2531C190.735 90.1519 195.543 88.3463 200.317 86.4914C205.535 84.4559 210.769 82.4204 216.003 80.3849C220.974 78.4479 225.978 76.5766 230.9 74.5083Z" fill="#36174D"/>
<path d="M37.2776 104.056C37.0151 104.449 36.7033 104.811 36.3424 105.122C36.2111 105.336 36.0634 105.549 35.9322 105.763C35.2595 105.943 34.6032 106.14 33.9469 106.354C34.4063 105.648 34.8493 104.926 35.3087 104.22C37.737 102.036 37.3596 98.3102 35.4728 96.2091C33.4711 93.9766 30.2717 93.3857 27.466 93.8125C24.5947 94.2393 21.8547 95.536 19.3116 97.0134C18.9506 97.2104 18.606 97.4238 18.2615 97.6372C13.7002 100.379 9.63122 103.924 6.21849 108.077C5.98879 107.601 5.80831 107.125 5.66064 106.633C7.39982 104.564 9.31948 102.644 11.3868 100.887C13.8479 98.8027 16.5059 96.9806 19.328 95.454C23.1181 93.4513 26.662 92.0068 30.2881 92.3515C33.307 92.6306 36.4244 94.2721 37.7534 97.2268C38.7378 99.41 38.6066 102.119 37.294 104.072L37.2776 104.056Z" fill="white"/>
<path d="M20.542 95.6675C20.5092 96.5703 19.1802 96.3897 19.213 95.5033C19.3771 91.0548 19.4099 86.5899 19.3279 82.1414C19.656 81.4355 20.0826 80.7789 20.5912 80.188C20.7717 85.4737 20.7389 90.5624 20.5584 95.6675H20.542Z" fill="white"/>
<path d="M116.295 152.989H148.815C149.668 152.989 149.832 151.61 148.979 151.61H116.459C115.606 151.61 115.442 152.989 116.312 152.989H116.295Z" fill="#F66957"/>
<path d="M116.476 158.275H123.088C123.449 158.275 123.793 158.061 123.826 157.668C123.859 157.323 123.597 156.896 123.236 156.896H116.623C116.262 156.896 115.918 157.109 115.885 157.503C115.852 157.848 116.115 158.275 116.476 158.275Z" fill="#F66957"/>
<path d="M148.979 156.716H127.977C127.124 156.716 126.96 158.094 127.813 158.094H148.815C149.668 158.094 149.832 156.716 148.979 156.716Z" fill="#F66957"/>
<path d="M136.443 162.871H116.804C115.951 162.871 115.786 164.25 116.64 164.25H136.279C137.132 164.25 137.297 162.871 136.443 162.871Z" fill="#F66957"/>
<path d="M148.47 163.052H141.185C140.824 163.052 140.48 163.265 140.447 163.659C140.414 164.004 140.677 164.431 141.038 164.431H148.322C148.683 164.431 149.028 164.217 149.061 163.823C149.094 163.479 148.831 163.052 148.47 163.052Z" fill="#F66957"/>
<path d="M114.917 20.289C112.997 20.5353 111.078 20.4368 109.191 20.0264C108.83 19.9443 108.485 20.289 108.452 20.6338C108.403 21.0277 108.682 21.3232 109.043 21.4053C111.028 21.8485 113.096 21.9306 115.114 21.6679C115.967 21.553 115.787 20.1741 114.933 20.289H114.917Z" fill="white"/>
<path d="M118.231 15.4138C116.361 14.117 114.49 12.8202 112.62 11.5234C111.701 10.8832 110.782 10.243 109.863 9.60284C109.404 9.29095 108.945 8.96265 108.485 8.65076C108.239 8.48661 107.993 8.30604 107.747 8.14189C106.812 7.02566 106.188 7.20623 105.975 7.68226C105.712 8.25679 106.155 8.7 106.566 8.99548C107.747 9.83265 108.961 10.6534 110.142 11.4906C112.554 13.1649 114.983 14.8557 117.394 16.53C118.116 17.0225 118.92 15.9227 118.198 15.4138H118.231Z" fill="white"/>
<path d="M122.497 9.24175C121.546 7.58382 120.594 5.92589 119.642 4.26796C119.462 3.93966 118.97 3.92325 118.707 4.13664C118.395 4.38287 118.395 4.79325 118.592 5.12155C119.544 6.77948 120.496 8.43741 121.447 10.0953C121.628 10.4236 122.12 10.4236 122.382 10.2267C122.694 9.98043 122.694 9.57006 122.497 9.24175Z" fill="white"/>
<path d="M268.933 197.687C268.769 194.766 268.621 191.844 268.457 188.905C268.326 186.312 268.26 183.62 267.259 181.207C266.324 178.974 264.503 177.086 262.124 176.676C261.271 176.528 261.123 177.907 261.976 178.055C263.978 178.4 265.422 180.14 266.127 181.995C267.03 184.326 267.013 186.952 267.161 189.431C267.456 194.897 267.751 200.363 268.047 205.829C268.211 208.948 268.375 212.067 268.555 215.186C268.605 216.089 269.934 215.875 269.884 214.989C269.573 209.211 269.261 203.449 268.949 197.671L268.933 197.687Z" fill="#36174D"/>
</g>
<defs>
<clipPath id="clip0_436_745">
<rect width="329" height="248" fill="white"/>
</clipPath>
</defs>
</svg>
